<?xml version="1.0" encoding="utf-8"?>
<!-- Generator: Adobe Illustrator 26.1.0, SVG Export Plug-In . SVG Version: 6.00 Build 0)  -->
<svg version="1.1" id="Layer_1" xmlns="http://www.w3.org/2000/svg" xmlns:xlink="http://www.w3.org/1999/xlink" x="0px" y="0px"
	 viewBox="0 0 1257 1300.9" style="enable-background:new 0 0 1257 1300.9;" xml:space="preserve">
<style type="text/css">
	.st0{fill:#1B5B44;}
	.st1{fill:#329B73;}
	.st2{fill:none;stroke:#1B5B44;stroke-width:10.5005;stroke-miterlimit:10;}
	.st3{fill:#419F81;}
	.st4{fill:#3EB58A;}
	.st5{fill:none;stroke:#1B5B44;stroke-width:8.1671;stroke-miterlimit:10;}
	.st6{opacity:0.1;fill:#1F1F39;}
	.st7{fill:#D8D8D8;}
	.st8{fill:#E5E5E5;}
	.st9{fill:#F2F2F2;}
	.st10{fill:#FFFFFF;}
	.st11{opacity:0.15;fill:#0A0A0A;}
	.st12{fill:#FAAAA2;}
	.st13{fill:#221B2E;}
	.st14{fill:#3B3B4F;}
	.st15{opacity:0.18;fill:#0A0A0A;}
	.st16{fill:#545468;}
	.st17{fill:#EFAEA6;}
	.st18{fill:#006BAF;}
	.st19{opacity:0.14;fill:#19193B;}
	.st20{fill:#19193B;}
	.st21{fill:#0069AB;}
	.st22{opacity:0.18;fill:#1F1F3B;}
	.st23{fill:#F9B901;}
</style>
<path class="st0" d="M339.9,508.3"/>
<g>
	<path class="st1" d="M43.9,871.7c-16.8,108.6-20.2,155.9,12.3,192.8c32.5,36.9,189.7,234.4,273.1,201.6
		c83.4-32.8,854.7-192.3,890.5-266.3c17-35.1-3.7-143.3-3.7-143.3l-337-133.6L43.9,871.7z"/>
	<path class="st2" d="M594.6,1010.7c57.2,8.8,115.9,4.1,141.7-24.8c25.9-29,4.3-64.9-48.1-80.1c-52.4-15.3-119.9-9.1-158.8,31.1
		C501.8,965.2,534.5,1001.4,594.6,1010.7z"/>
	<g>
		<g>
			<path class="st0" d="M646.4,965.5C646.4,965.5,646.4,965.5,646.4,965.5c4.6-1.7,12-4.5,17.7-5.2c5.4-0.7,9.3,0.3,7.8,5.7
				c0,0,0,0,0,0c-1.3,4.3-5.7,7.2-11.3,9.6c-12.6,5.3-30.8,7.7-30.9,15.3c11.4,13.1,32.3,8.1,49.5-2.9c3.8-2.4,7.4-5.2,10.6-8
				c20.7-18.4,28.2-43.4-14.1-42.3c-5.7-1.6-19.5,3.8-32,8.1c-6.8,2.4-13.2,4.4-17.8,4.8c-4.6,0.4-7.4-0.8-6.8-4.9c0,0,0-0.1,0-0.1
				c2.1-3,6.2-6.2,11.2-9c0,0,0,0,0,0c7.5-4.3,16.9-7.8,23.9-9.1c6-14.3-18.5-16.2-33.8-7.1c-3,1.1-5.9,2.3-8.5,3.6
				c-4.8,2.3-8.9,4.8-12.3,7.5l0,0C568.2,955.4,592.8,989,646.4,965.5z"/>
		</g>
		<path class="st0" d="M585.6,920.9c-2.6-9.5,10.6-10,12.9-6.8c2.3,3.2,108.4,72,100.4,77.3c-8,5.3-10.8,2.3-27.8-8.8
			C652.3,970.5,585.6,920.9,585.6,920.9z"/>
	</g>
	
		<ellipse transform="matrix(0.1778 -0.9841 0.9841 0.1778 -673.1468 1300.8527)" class="st0" cx="441.9" cy="1053.3" rx="31.4" ry="54"/>
	<path class="st2" d="M573.2,984.8c54.9,12.3,113,11,142.4-16.9c29.4-27.8,13.2-65.4-36-83.9c-49.3-18.5-116.3-16.2-160,22.2
		C488.6,933.4,515.6,971.9,573.2,984.8z"/>
	<g>
		<g>
			<path class="st0" d="M630.3,942.1C630.3,942.1,630.3,942.1,630.3,942.1c4.7-1.5,12.4-3.8,18.1-4.3c5.4-0.4,9,0.9,6.9,6.2
				c0,0,0,0,0,0c-1.9,4.2-6.6,7-12.4,9c-13.1,4.7-31.2,5.9-32.4,13.7c9.4,13.9,30.6,10.1,48.9,0c4-2.2,7.9-4.8,11.5-7.5
				c22.9-17.4,33.7-42.3-7.9-43.6c-5.4-2-19.6,2.7-32.5,6.3c-7,2-13.6,3.7-18.2,3.8c-4.6,0.1-7.1-1.2-6-5.4c0,0,0-0.1,0-0.1
				c2.4-2.9,7-5.9,12.3-8.4c0,0,0,0,0,0c7.9-3.9,17.6-6.9,24.7-7.8c7.9-14.1-15.9-17.5-32.1-9.2c-3.1,1-6.1,2-8.8,3.1
				c-5,2.1-9.4,4.4-13.1,6.8l0,0C555,927.3,574.5,962.8,630.3,942.1z"/>
		</g>
		<path class="st0" d="M576.9,893.5c-1.3-9.7,11.8-9.5,13.6-6.1c1.8,3.3,96.3,79.2,87.7,84.1c-8.6,4.9-10.9,1.7-26-10.5
			C635.4,947.5,576.9,893.5,576.9,893.5z"/>
	</g>
	
		<ellipse transform="matrix(0.2097 -0.9778 0.9778 0.2097 -666.2668 1213.6753)" class="st0" cx="417.7" cy="1019" rx="32.4" ry="52.4"/>
	<g>
		<g>
			<path class="st3" d="M157.2,980.4c2.1-0.7,5.4-1.7,7.9-2c2.4-0.2,4,0.3,3.1,2.7c0,0,0,0,0,0c-0.8,1.9-2.8,3.1-5.3,4
				c-5.7,2.1-13.8,2.8-14.2,6.2c4.3,6.1,13.6,4.3,21.6-0.2c1.7-1,3.4-2.1,5-3.3c9.9-7.7,14.5-18.7-3.9-19.1
				c-2.4-0.9-8.6,1.3-14.3,2.9c-3.1,0.9-6,1.7-8,1.8s-3.2-0.5-2.7-2.3c0,0,0,0,0-0.1c1.1-1.3,3-2.6,5.3-3.8
				c3.5-1.7,7.7-3.1,10.8-3.5c3.3-6.2-7.2-7.6-14.3-3.9c-1.4,0.4-2.7,0.9-3.9,1.4c-2.2,0.9-4.1,2-5.7,3.1
				C123.8,974.3,132.8,989.8,157.2,980.4z"/>
		</g>
		<path class="st3" d="M133.1,959.3c-0.7-4.3,5.1-4.2,5.9-2.8c0.8,1.5,43.3,34.3,39.6,36.5c-3.8,2.2-4.8,0.8-11.6-4.5
			C159.5,982.8,133.1,959.3,133.1,959.3z"/>
	</g>
	<path class="st4" d="M879.3,686.4c0,0,136.9,80.2,242.9,131.4c37.6,18.2,71.3,32.8,93.7,38.8c-40.4,27.1-108.8,56.2-197.7,86.9
		c-169.8,58.7-414.5,123.2-682.2,190.7c0,0-90.2-20.2-229.5-183.3c-20-23.3-40.9-49.6-62.8-79.2c567.2-107.7,272.5-47.9,310.3-55.1
		C565,776.7,768.3,732.5,879.3,686.4z"/>
	<path class="st5" d="M107.5,877.7c20.6,27.6,40.3,51.9,58.9,73.3c43.4,49.7,81.3,83.6,111.9,106.5c53.3,39.9,84.5,46.7,84.5,46.7
		c40.9-10.3,81.2-20.6,120.7-30.8c225.2-58,422.9-112.9,548.5-162.1c45.5-17.8,81.6-34.9,106-51.2c-20.4-5.4-51.7-18.7-86.4-35.3
		c-49.7-23.7-106.3-54.1-148-77.1c-35.8-19.7-60.5-33.9-60.5-33.9c-21.4,8.9-50,18.4-83.5,28.3c-140.2,41.4-366.7,88.8-518.1,115.4
		C181.9,868,134,875.2,107.5,877.7z"/>
	<path class="st0" d="M747.3,746.5c65.5,29.5,92,21.6,172,6.7c-42.7-23.5-72.3-40.5-72.3-40.5C821.4,723.3,787.3,734.7,747.3,746.5z
		"/>
	<path class="st0" d="M1032,911.2c45.5-17.8,81.6-34.9,106-51.2c-20.4-5.4-51.7-18.7-86.4-35.3
		C1026.6,857.4,1017.4,885.2,1032,911.2z"/>
	<path class="st0" d="M278.4,1057.4c53.3,39.9,84.5,46.7,84.5,46.7c40.9-10.3,81.2-20.6,120.7-30.8
		C433.2,1048.5,370.3,1038.7,278.4,1057.4z"/>
	<path class="st2" d="M573.6,947.5c50.1,17.7,106.4,21.9,141-3.5c34.6-25.4,27.6-65.1-15.7-88.6c-43.3-23.5-108.4-27.6-159.3,7.2
		C503.7,887.2,521,928.9,573.6,947.5z"/>
	<g>
		<g>
			<path class="st0" d="M638.3,909.6C638.3,909.6,638.3,909.6,638.3,909.6c4.9-1.1,12.8-2.7,18.4-2.6c5.3,0.1,8.5,1.8,5.2,7
				c0,0,0,0,0,0c-2.7,4.1-7.9,6.4-14,8c-13.7,3.5-31.5,3-34.4,10.8c5.9,15,27.2,13.2,47.1,4.6c4.4-1.9,8.7-4.1,12.8-6.5
				c26-15.5,42.1-39.7,2.3-45.1c-4.7-2.5-19.5,0.8-32.8,3.3c-7.2,1.4-13.9,2.4-18.4,2.1c-4.4-0.3-6.6-1.9-4.5-6c0,0,0-0.1,0.1-0.1
				c3-2.7,8-5.3,13.7-7.4c0,0,0,0,0,0c8.5-3.2,18.5-5.3,25.6-5.6c10.8-13.5-11.3-19.3-28.8-12.4c-3.2,0.7-6.3,1.5-9.2,2.3
				c-5.3,1.6-10,3.5-14.2,5.7l0,0C569.1,887.4,579.8,925.3,638.3,909.6z"/>
		</g>
		<path class="st0" d="M597.8,855.1c1-10,13.5-8.5,14.5-4.9c0.9,3.5,74.8,89.6,65.4,93.8c-9.4,4.2-10.9,0.7-22.7-13.1
			C641.9,915.6,597.8,855.1,597.8,855.1z"/>
	</g>
	<g>
		<g>
			<path class="st3" d="M842.5,744.1c1.9-0.7,5-1.8,7.3-2.1c2.2-0.3,3.8,0.2,3.2,2.4c0,0,0,0,0,0c-0.6,1.8-2.4,3-4.7,3.9
				c-5.2,2.2-12.8,3-12.9,6.2c4.6,5.5,13.2,3.5,20.4-1c1.6-1,3.1-2.1,4.4-3.3c8.7-7.5,12.1-17.9-5.4-17.6c-2.3-0.7-8.1,1.5-13.3,3.2
				c-2.8,0.9-5.5,1.8-7.4,1.9c-1.9,0.2-3-0.4-2.8-2.1c0,0,0,0,0-0.1c0.9-1.2,2.6-2.5,4.7-3.7c3.1-1.7,7-3.2,9.9-3.7
				c2.6-5.9-7.5-6.8-13.8-3.1c-1.3,0.5-2.4,0.9-3.5,1.4l0,0c-2,0.9-3.7,2-5.1,3C810.4,739.6,820.2,753.7,842.5,744.1z"/>
		</g>
		<path class="st3" d="M817.9,725.4c-1-3.9,4.5-4.1,5.4-2.8c0.9,1.3,43.9,30.3,40.6,32.5c-3.4,2.2-4.5,0.9-11.4-3.7
			C844.8,746.2,817.9,725.4,817.9,725.4z"/>
	</g>
	<g>
		<g>
			<path class="st3" d="M1080.2,867C1080.2,867,1080.2,867,1080.2,867c2-0.6,5.2-1.5,7.5-1.6c2.2-0.1,3.7,0.4,2.7,2.7l0,0
				c-0.9,1.7-2.9,2.8-5.3,3.6c-5.4,1.8-13,2.2-13.6,5.4c2.3,3.7,6.6,4.5,11.6,3.6c2.8-0.6,5.7-1.7,8.5-3.1c1.3-0.7,2.5-1.4,3.6-2.1
				c0,0,0,0,0,0c0.4-0.3,0.8-0.6,1.2-0.9c9.8-7,14.8-17.3-2.3-18.2c-2.2-0.9-8.1,0.9-13.5,2.3c-2.9,0.8-5.7,1.4-7.6,1.4
				c-1.9,0-2.9-0.6-2.3-2.3l0,0c0,0,0,0,0-0.1c1.1-1.2,3-2.4,5.2-3.4c3.3-1.5,7.4-2.7,10.3-3c3.5-5.8-6.1-7.4-13-4.1
				c-1.3,0.4-2.5,0.8-3.7,1.2c-2.1,0.8-4,1.7-5.6,2.7C1049.7,860.2,1056.9,875.1,1080.2,867z"/>
		</g>
		<path class="st3" d="M1059.4,846.3c-0.3-4.1,5-3.8,5.7-2.4c0.7,1.4,37.7,33.8,34.1,35.8c-3.6,2-4.5,0.6-10.4-4.6
			C1082.2,869.3,1059.4,846.3,1059.4,846.3z"/>
	</g>
	
		<ellipse transform="matrix(0.2538 -0.9673 0.9673 0.2538 -625.3143 1124.1079)" class="st0" cx="415.9" cy="967.3" rx="51.1" ry="74.5"/>
	
		<ellipse transform="matrix(0.2207 -0.9753 0.9753 0.2207 -169.0858 1462.1893)" class="st0" cx="830.5" cy="836.9" rx="47.2" ry="74.7"/>
	<path class="st0" d="M106.1,878.4c49.4-8.9,93.9-16.1,133.8-21.8c-7,43.8-31.2,67.6-76.1,89.8C140.1,915.2,119.5,890.9,106.1,878.4
		z"/>
	<g>
		<g>
			<path class="st3" d="M173.7,903.3c2.1-0.5,5.6-1.2,8.1-1.2c2.3,0,3.8,0.7,2.4,3.1c0,0,0,0,0,0c-1.2,1.8-3.4,2.9-6.1,3.6
				c-6,1.6-13.9,1.5-15.1,4.9c2.8,6.6,12.1,5.7,20.9,1.8c1.9-0.8,3.8-1.8,5.6-2.9c11.3-6.9,18.2-17.6,0.5-19.8
				c-2.1-1.1-8.6,0.5-14.4,1.6c-3.2,0.6-6.1,1.1-8.1,1c-2-0.1-2.9-0.8-2-2.6c0,0,0,0,0-0.1c1.3-1.2,3.5-2.4,6-3.3
				c3.7-1.4,8.1-2.4,11.2-2.6c4.6-6-5.2-8.4-12.9-5.3c-1.4,0.3-2.8,0.7-4,1.1c-2.3,0.7-4.4,1.6-6.2,2.6
				C142.9,893.8,148,910.4,173.7,903.3z"/>
		</g>
		<path class="st3" d="M155.2,879.5c0.3-4.4,5.9-3.8,6.3-2.2c0.5,1.6,34,39,29.8,40.9c-4.1,1.9-4.8,0.3-10.2-5.7
			C175.4,905.9,155.2,879.5,155.2,879.5z"/>
	</g>
	<g>
		<g>
			<path class="st3" d="M369.4,1080.2c1.7-0.4,4.5-1,6.5-1c1.9,0,3,0.6,1.9,2.4c0,0,0,0,0,0c-0.9,1.5-2.7,2.3-4.9,2.8
				c-4.8,1.3-11.1,1.2-12,3.9c2.2,5.2,9.7,4.5,16.7,1.5c1.5-0.7,3-1.5,4.5-2.3c9-5.5,14.5-14.1,0.4-15.8c-1.7-0.9-6.9,0.4-11.5,1.3
				c-2.5,0.5-4.9,0.9-6.4,0.8l0,0c-1.6-0.1-2.3-0.7-1.6-2.1c0,0,0,0,0,0c1.1-1,2.8-1.9,4.8-2.6c3-1.1,6.5-1.9,9-2
				c3.7-4.8-4.1-6.7-10.3-4.3c-1.1,0.2-2.2,0.5-3.2,0.9c-1.9,0.6-3.5,1.3-5,2C344.8,1072.7,348.9,1085.9,369.4,1080.2z"/>
		</g>
		<path class="st3" d="M354.7,1061.2c0.3-3.5,4.7-3,5.1-1.8s27.1,31.2,23.8,32.7c-3.3,1.5-3.8,0.3-8.1-4.5
			C370.7,1082.3,354.7,1061.2,354.7,1061.2z"/>
	</g>
	<path class="st6" d="M879.3,686.4c0,0,136.9,80.2,242.9,131.4c-199-28-514.9-2.4-810.9,10.2C522.2,788.4,768.3,732.5,879.3,686.4z"
		/>
	<path class="st0" d="M363.6,1157.1c669.1-165.3,817.2-258.9,817.2-258.9C1100.1,954.2,363.6,1157.1,363.6,1157.1z"/>
	<path class="st0" d="M382.9,1232.8c670.8-160.2,820.3-252.8,820.3-252.8C1121.6,1035.4,382.9,1232.8,382.9,1232.8z"/>
	<path class="st0" d="M395.5,1163.5c670.8-160.2,820.3-252.8,820.3-252.8C1134.2,966.2,395.5,1163.5,395.5,1163.5z"/>
	<path class="st0" d="M380.5,1188.4c366.6-76.6,450.5-124.7,450.5-124.7C785,1092.7,380.5,1188.4,380.5,1188.4z"/>
	<path class="st0" d="M390,1200.4c366.6-76.6,450.5-124.7,450.5-124.7C794.5,1104.7,390,1200.4,390,1200.4z"/>
	<path class="st0" d="M740.4,1125.9c359.8-97.6,437.7-149.9,437.7-149.9C1135.8,1007.1,740.4,1125.9,740.4,1125.9z"/>
	<path class="st0" d="M731.5,1106.8c359.8-97.6,437.7-149.9,437.7-149.9C1126.9,988.1,731.5,1106.8,731.5,1106.8z"/>
	<path class="st7" d="M823,1145c-1.1,10.2-160.8,54.6-166.7,43.8c-5.9-10.8,4.5-129.1-3.9-136.4c-8.3-7.3-255.9-233.1-237.2-248.9
		c28.3-23.8,173.8-46.5,176.2-36.4c2.4,10,218.6,214.4,226.2,239C825.3,1031,824.1,1134.8,823,1145z"/>
	<path class="st0" d="M54.3,936.9c12.9,38.5,181,206,231.7,218.9C157.6,1074.9,54.3,936.9,54.3,936.9z"/>
	<path class="st0" d="M46.8,1022c12.9,38.5,181,206,231.7,218.9C150.1,1160,46.8,1022,46.8,1022z"/>
	<path class="st0" d="M61.2,982.5c12.9,38.5,181,206,231.7,218.9C167.5,1115.2,61.2,982.5,61.2,982.5z"/>
	<path class="st0" d="M58.3,960.7c44.6,64,181,206,231.7,218.9C161.6,1098.7,58.3,960.7,58.3,960.7z"/>
	<path class="st0" d="M42.9,991.9c44.6,64,168.1,193.5,231.7,218.9C146.1,1130.2,42.9,991.9,42.9,991.9z"/>
	<path class="st0" d="M63.6,925.6c44.6,64,168.1,193.5,231.7,218.9C166.8,1063.9,63.6,925.6,63.6,925.6z"/>
</g>
<g>
	<path class="st1" d="M43.9,720.8C27.1,829.4,23.7,876.7,56.1,913.6c32.5,36.9,189.7,234.4,273.1,201.6s854.7-192.3,890.5-266.3
		c17-35.1-3.7-143.3-3.7-143.3L878.9,572L43.9,720.8z"/>
	<path class="st2" d="M594.6,859.7c57.2,8.8,115.9,4.1,141.7-24.8c25.9-29,4.3-64.9-48.1-80.1c-52.4-15.3-119.9-9.1-158.8,31.1
		C501.8,814.3,534.5,850.5,594.6,859.7z"/>
	<g>
		<g>
			<path class="st0" d="M646.4,814.6C646.4,814.5,646.4,814.5,646.4,814.6c4.6-1.7,12-4.5,17.7-5.2c5.4-0.7,9.3,0.3,7.8,5.7
				c0,0,0,0,0,0c-1.3,4.3-5.7,7.2-11.3,9.6c-12.6,5.3-30.8,7.7-30.9,15.3c11.4,13.1,32.3,8.1,49.5-2.9c3.8-2.4,7.4-5.2,10.6-8
				c20.7-18.4,28.2-43.4-14.1-42.3c-5.7-1.6-19.5,3.8-32,8.1c-6.8,2.4-13.2,4.4-17.8,4.8c-4.6,0.4-7.4-0.8-6.8-4.9c0,0,0-0.1,0-0.1
				c2.1-3,6.2-6.2,11.2-9c0,0,0,0,0,0c7.5-4.3,16.9-7.8,23.9-9.1c6-14.3-18.5-16.2-33.8-7.1c-3,1.1-5.9,2.3-8.5,3.6
				c-4.8,2.3-8.9,4.8-12.3,7.5l0,0C568.2,804.5,592.8,838.1,646.4,814.6z"/>
		</g>
		<path class="st0" d="M585.6,770c-2.6-9.5,10.6-10,12.9-6.8s108.4,72,100.4,77.3c-8,5.3-10.8,2.3-27.8-8.8
			C652.3,819.6,585.6,770,585.6,770z"/>
	</g>
	
		<ellipse transform="matrix(0.1778 -0.9841 0.9841 0.1778 -524.6087 1176.754)" class="st0" cx="441.9" cy="902.3" rx="31.4" ry="54"/>
	<path class="st2" d="M573.2,833.9c54.9,12.3,113,11,142.4-16.9c29.4-27.8,13.2-65.4-36-83.9c-49.3-18.5-116.3-16.2-160,22.2
		C488.6,782.5,515.6,821,573.2,833.9z"/>
	<g>
		<g>
			<path class="st0" d="M630.3,791.2C630.3,791.2,630.3,791.2,630.3,791.2c4.7-1.5,12.4-3.8,18.1-4.3c5.4-0.4,9,0.9,6.9,6.2
				c0,0,0,0,0,0c-1.9,4.2-6.6,7-12.4,9c-13.1,4.7-31.2,5.9-32.4,13.7c9.4,13.9,30.6,10.1,48.9,0c4-2.2,7.9-4.8,11.5-7.5
				c22.9-17.4,33.7-42.3-7.9-43.6c-5.4-2-19.6,2.7-32.5,6.3c-7,2-13.6,3.7-18.2,3.8c-4.6,0.1-7.1-1.2-6-5.4c0,0,0-0.1,0-0.1
				c2.4-2.9,7-5.9,12.3-8.4c0,0,0,0,0,0c7.9-3.9,17.6-6.9,24.7-7.8c7.9-14.1-15.9-17.5-32.1-9.2c-3.1,1-6.1,2-8.8,3.1
				c-5,2.1-9.4,4.4-13.1,6.8l0,0C555,776.4,574.5,811.9,630.3,791.2z"/>
		</g>
		<path class="st0" d="M576.9,742.5c-1.3-9.7,11.8-9.5,13.6-6.1c1.8,3.3,96.3,79.2,87.7,84.1c-8.6,4.9-10.9,1.7-26-10.5
			C635.4,796.6,576.9,742.5,576.9,742.5z"/>
	</g>
	
		<ellipse transform="matrix(0.2097 -0.9778 0.9778 0.2097 -518.6802 1094.3867)" class="st0" cx="417.7" cy="868.1" rx="32.4" ry="52.4"/>
	<g>
		<g>
			<path class="st3" d="M157.2,829.5c2.1-0.7,5.4-1.7,7.9-2c2.4-0.2,4,0.3,3.1,2.7c0,0,0,0,0,0c-0.8,1.9-2.8,3.1-5.3,4
				c-5.7,2.1-13.8,2.8-14.2,6.2c4.3,6.1,13.6,4.3,21.6-0.2c1.7-1,3.4-2.1,5-3.3c9.9-7.7,14.5-18.7-3.9-19.1
				c-2.4-0.9-8.6,1.3-14.3,2.9c-3.1,0.9-6,1.7-8,1.8c-2,0.1-3.2-0.5-2.7-2.3c0,0,0,0,0-0.1c1.1-1.3,3-2.6,5.3-3.8
				c3.5-1.7,7.7-3.1,10.8-3.5c3.3-6.2-7.2-7.6-14.3-3.9c-1.4,0.4-2.7,0.9-3.9,1.4c-2.2,0.9-4.1,2-5.7,3.1
				C123.8,823.3,132.8,838.8,157.2,829.5z"/>
		</g>
		<path class="st3" d="M133.1,808.4c-0.7-4.3,5.1-4.2,5.9-2.8c0.8,1.5,43.3,34.3,39.6,36.5c-3.8,2.2-4.8,0.8-11.6-4.5
			C159.5,831.8,133.1,808.4,133.1,808.4z"/>
	</g>
	<path class="st4" d="M879.3,535.4c0,0,136.9,80.2,242.9,131.4c37.6,18.2,71.3,32.8,93.7,38.8c-40.4,27.1-108.8,56.2-197.7,86.9
		c-169.8,58.7-414.5,123.2-682.2,190.7c0,0-90.2-20.2-229.5-183.3c-20-23.3-40.9-49.6-62.8-79.2c567.2-107.7,272.5-47.9,310.3-55.1
		C565,625.8,768.3,581.6,879.3,535.4z"/>
	<path class="st5" d="M107.5,726.7c20.6,27.6,40.3,51.9,58.9,73.3c43.4,49.7,81.3,83.6,111.9,106.5c53.3,39.9,84.5,46.7,84.5,46.7
		c40.9-10.3,81.2-20.6,120.7-30.8c225.2-58,422.9-112.9,548.5-162.1c45.5-17.8,81.6-34.9,106-51.2c-20.4-5.4-51.7-18.7-86.4-35.3
		c-49.7-23.7-106.3-54.1-148-77.1c-35.8-19.7-60.5-33.9-60.5-33.9c-21.4,8.9-50,18.4-83.5,28.3c-140.2,41.4-366.7,88.8-518.1,115.4
		C181.9,717,134,724.3,107.5,726.7z"/>
	<path class="st0" d="M747.3,595.6c65.5,29.5,92,21.6,172,6.7c-42.7-23.5-72.3-40.5-72.3-40.5C821.4,572.3,787.3,583.7,747.3,595.6z
		"/>
	<path class="st0" d="M1032,760.3c45.5-17.8,81.6-34.9,106-51.2c-20.4-5.4-51.7-18.7-86.4-35.3
		C1026.6,706.4,1017.4,734.2,1032,760.3z"/>
	<path class="st0" d="M278.4,906.5c53.3,39.9,84.5,46.7,84.5,46.7c40.9-10.3,81.2-20.6,120.7-30.8
		C433.2,897.5,370.3,887.8,278.4,906.5z"/>
	<path class="st2" d="M573.6,796.6c50.1,17.7,106.4,21.9,141-3.5c34.6-25.4,27.6-65.1-15.7-88.6c-43.3-23.5-108.4-27.6-159.3,7.2
		C503.7,736.3,521,778,573.6,796.6z"/>
	<g>
		<g>
			<path class="st0" d="M638.3,758.7C638.3,758.7,638.3,758.7,638.3,758.7c4.9-1.1,12.8-2.7,18.4-2.6c5.3,0.1,8.5,1.8,5.2,7
				c0,0,0,0,0,0c-2.7,4.1-7.9,6.4-14,8c-13.7,3.5-31.5,3-34.4,10.8c5.9,15,27.2,13.2,47.1,4.6c4.4-1.9,8.7-4.1,12.8-6.5
				c26-15.5,42.1-39.7,2.3-45.1c-4.7-2.5-19.5,0.8-32.8,3.3c-7.2,1.4-13.9,2.4-18.4,2.1c-4.4-0.3-6.6-1.9-4.5-6c0,0,0-0.1,0.1-0.1
				c3-2.7,8-5.3,13.7-7.4c0,0,0,0,0,0c8.5-3.2,18.5-5.3,25.6-5.6c10.8-13.5-11.3-19.3-28.8-12.4c-3.2,0.7-6.3,1.5-9.2,2.3
				c-5.3,1.6-10,3.5-14.2,5.7l0,0C569.1,736.5,579.8,774.3,638.3,758.7z"/>
		</g>
		<path class="st0" d="M597.8,704.2c1-10,13.5-8.5,14.5-4.9s74.8,89.6,65.4,93.8c-9.4,4.2-10.9,0.7-22.7-13.1
			C641.9,764.7,597.8,704.2,597.8,704.2z"/>
	</g>
	<g>
		<g>
			<path class="st3" d="M842.5,593.2c1.9-0.7,5-1.8,7.3-2.1c2.2-0.3,3.8,0.2,3.2,2.4c0,0,0,0,0,0c-0.6,1.8-2.4,3-4.7,3.9
				c-5.2,2.2-12.8,3-12.9,6.2c4.6,5.5,13.2,3.5,20.4-1c1.6-1,3.1-2.1,4.4-3.3c8.7-7.5,12.1-17.9-5.4-17.6c-2.3-0.7-8.1,1.5-13.3,3.2
				c-2.8,0.9-5.5,1.8-7.4,1.9c-1.9,0.2-3-0.4-2.8-2.1c0,0,0,0,0-0.1c0.9-1.2,2.6-2.5,4.7-3.7c3.1-1.7,7-3.2,9.9-3.7
				c2.6-5.9-7.5-6.8-13.8-3.1c-1.3,0.5-2.4,0.9-3.5,1.4l0,0c-2,0.9-3.7,2-5.1,3C810.4,588.7,820.2,602.7,842.5,593.2z"/>
		</g>
		<path class="st3" d="M817.9,574.5c-1-3.9,4.5-4.1,5.4-2.8c0.9,1.3,43.9,30.3,40.6,32.5c-3.4,2.2-4.5,0.9-11.4-3.7
			C844.8,595.3,817.9,574.5,817.9,574.5z"/>
	</g>
	<g>
		<g>
			<path class="st3" d="M1080.2,716.1C1080.2,716.1,1080.2,716.1,1080.2,716.1c2-0.6,5.2-1.5,7.5-1.6c2.2-0.1,3.7,0.4,2.7,2.7l0,0
				c-0.9,1.7-2.9,2.8-5.3,3.6c-5.4,1.8-13,2.2-13.6,5.4c2.3,3.7,6.6,4.5,11.6,3.6c2.8-0.6,5.7-1.7,8.5-3.1c1.3-0.7,2.5-1.4,3.6-2.1
				c0,0,0,0,0,0c0.4-0.3,0.8-0.6,1.2-0.9c9.8-7,14.8-17.3-2.3-18.2c-2.2-0.9-8.1,0.9-13.5,2.3c-2.9,0.8-5.7,1.4-7.6,1.4
				c-1.9,0-2.9-0.6-2.3-2.3l0,0c0,0,0,0,0-0.1c1.1-1.2,3-2.4,5.2-3.4c3.3-1.5,7.4-2.7,10.3-3c3.5-5.8-6.1-7.4-13-4.1
				c-1.3,0.4-2.5,0.8-3.7,1.2c-2.1,0.8-4,1.7-5.6,2.7C1049.7,709.3,1056.9,724.2,1080.2,716.1z"/>
		</g>
		<path class="st3" d="M1059.4,695.4c-0.3-4.1,5-3.8,5.7-2.4c0.7,1.4,37.7,33.8,34.1,35.8c-3.6,2-4.5,0.6-10.4-4.6
			C1082.2,718.4,1059.4,695.4,1059.4,695.4z"/>
	</g>
	
		<ellipse transform="matrix(0.2538 -0.9673 0.9673 0.2538 -479.3142 1011.4763)" class="st0" cx="415.9" cy="816.4" rx="51.1" ry="74.5"/>
	
		<ellipse transform="matrix(0.2207 -0.9753 0.9753 0.2207 -21.8653 1344.5635)" class="st0" cx="830.5" cy="686" rx="47.2" ry="74.7"/>
	<path class="st0" d="M106.1,727.5c49.4-8.9,93.9-16.1,133.8-21.8c-7,43.8-31.2,67.6-76.1,89.8C140.1,764.3,119.5,739.9,106.1,727.5
		z"/>
	<g>
		<g>
			<path class="st3" d="M173.7,752.3c2.1-0.5,5.6-1.2,8.1-1.2c2.3,0,3.8,0.7,2.4,3.1c0,0,0,0,0,0c-1.2,1.8-3.4,2.9-6.1,3.6
				c-6,1.6-13.9,1.5-15.1,4.9c2.8,6.6,12.1,5.7,20.9,1.8c1.9-0.8,3.8-1.8,5.6-2.9c11.3-6.9,18.2-17.6,0.5-19.8
				c-2.1-1.1-8.6,0.5-14.4,1.6c-3.2,0.6-6.1,1.1-8.1,1c-2-0.1-2.9-0.8-2-2.6c0,0,0,0,0-0.1c1.3-1.2,3.5-2.4,6-3.3
				c3.7-1.4,8.1-2.4,11.2-2.6c4.6-6-5.2-8.4-12.9-5.3c-1.4,0.3-2.8,0.7-4,1.1c-2.3,0.7-4.4,1.6-6.2,2.6
				C142.9,742.9,148,759.5,173.7,752.3z"/>
		</g>
		<path class="st3" d="M155.2,728.6c0.3-4.4,5.9-3.8,6.3-2.2c0.5,1.6,34,39,29.8,40.9c-4.1,1.9-4.8,0.3-10.2-5.7
			C175.4,755,155.2,728.6,155.2,728.6z"/>
	</g>
	<g>
		<g>
			<path class="st3" d="M369.4,929.2c1.7-0.4,4.5-1,6.5-1c1.9,0,3,0.6,1.9,2.4c0,0,0,0,0,0c-0.9,1.5-2.7,2.3-4.9,2.8
				c-4.8,1.3-11.1,1.2-12,3.9c2.2,5.2,9.7,4.5,16.7,1.5c1.5-0.7,3-1.5,4.5-2.3c9-5.5,14.5-14.1,0.4-15.8c-1.7-0.9-6.9,0.4-11.5,1.3
				c-2.5,0.5-4.9,0.9-6.4,0.8l0,0c-1.6-0.1-2.3-0.7-1.6-2.1c0,0,0,0,0,0c1.1-1,2.8-1.9,4.8-2.6c3-1.1,6.5-1.9,9-2
				c3.7-4.8-4.1-6.7-10.3-4.3c-1.1,0.2-2.2,0.5-3.2,0.9c-1.9,0.6-3.5,1.3-5,2C344.8,921.7,348.9,935,369.4,929.2z"/>
		</g>
		<path class="st3" d="M354.7,910.3c0.3-3.5,4.7-3,5.1-1.8s27.1,31.2,23.8,32.7c-3.3,1.5-3.8,0.3-8.1-4.5
			C370.7,931.3,354.7,910.3,354.7,910.3z"/>
	</g>
	<path class="st6" d="M879.3,535.4c0,0,136.9,80.2,242.9,131.4c-199-28-514.9-2.4-810.9,10.2C522.2,637.5,768.3,581.6,879.3,535.4z"
		/>
	<path class="st0" d="M363.6,1006.1c669.1-165.3,817.2-258.9,817.2-258.9C1100.1,803.2,363.6,1006.1,363.6,1006.1z"/>
	<path class="st0" d="M382.9,1081.8C1053.7,921.6,1203.2,829,1203.2,829C1121.6,884.5,382.9,1081.8,382.9,1081.8z"/>
	<path class="st0" d="M395.5,1012.6c670.8-160.2,820.3-252.8,820.3-252.8C1134.2,815.2,395.5,1012.6,395.5,1012.6z"/>
	<path class="st0" d="M380.5,1037.5C747.1,960.9,831,912.8,831,912.8C785,941.7,380.5,1037.5,380.5,1037.5z"/>
	<path class="st0" d="M390,1049.5c366.6-76.6,450.5-124.7,450.5-124.7C794.5,953.7,390,1049.5,390,1049.5z"/>
	<path class="st0" d="M740.4,974.9c359.8-97.6,437.7-149.9,437.7-149.9C1135.8,856.2,740.4,974.9,740.4,974.9z"/>
	<path class="st0" d="M731.5,955.9c359.8-97.6,437.7-149.9,437.7-149.9C1126.9,837.1,731.5,955.9,731.5,955.9z"/>
	<path class="st8" d="M823,994.1c-1.1,10.2-160.8,54.6-166.7,43.8c-5.9-10.8,4.5-129.1-3.9-136.4c-8.3-7.3-255.9-233.1-237.2-248.9
		c28.3-23.8,173.8-46.5,176.2-36.4c2.4,10,218.6,214.4,226.2,239C825.3,880,824.1,983.9,823,994.1z"/>
	<path class="st0" d="M54.3,786c12.9,38.5,181,206,231.7,218.9C157.6,924,54.3,786,54.3,786z"/>
	<path class="st0" d="M46.8,871c12.9,38.5,181,206,231.7,218.9C150.1,1009,46.8,871,46.8,871z"/>
	<path class="st0" d="M61.2,831.6c12.9,38.5,181,206,231.7,218.9C167.5,964.2,61.2,831.6,61.2,831.6z"/>
	<path class="st0" d="M58.3,809.8c44.6,64,181,206,231.7,218.9C161.6,947.8,58.3,809.8,58.3,809.8z"/>
	<path class="st0" d="M42.9,840.9c44.6,64,168.1,193.5,231.7,218.9C146.1,979.2,42.9,840.9,42.9,840.9z"/>
	<path class="st0" d="M63.6,774.6c44.6,64,168.1,193.5,231.7,218.9C166.8,912.9,63.6,774.6,63.6,774.6z"/>
</g>
<g>
	<path class="st1" d="M43.9,549.9C27.1,658.4,23.7,705.8,56.1,742.7c32.5,36.9,189.7,234.4,273.1,201.6
		c83.4-32.8,854.7-192.3,890.5-266.3c17-35.1-3.7-143.3-3.7-143.3l-337-133.6L43.9,549.9z"/>
	<path class="st2" d="M594.6,688.8c57.2,8.8,115.9,4.1,141.7-24.8c25.9-29,4.3-64.9-48.1-80.1c-52.4-15.3-119.9-9.1-158.8,31.1
		C501.8,643.4,534.5,679.5,594.6,688.8z"/>
	<g>
		<g>
			<path class="st0" d="M646.4,643.6C646.4,643.6,646.4,643.6,646.4,643.6c4.6-1.7,12-4.5,17.7-5.2c5.4-0.7,9.3,0.3,7.8,5.7
				c0,0,0,0,0,0c-1.3,4.3-5.7,7.2-11.3,9.6c-12.6,5.3-30.8,7.7-30.9,15.3c11.4,13.1,32.3,8.1,49.5-2.9c3.8-2.4,7.4-5.2,10.6-8
				c20.7-18.4,28.2-43.4-14.1-42.3c-5.7-1.6-19.5,3.8-32,8.1c-6.8,2.4-13.2,4.4-17.8,4.8c-4.6,0.4-7.4-0.8-6.8-4.9c0,0,0-0.1,0-0.1
				c2.1-3,6.2-6.2,11.2-9c0,0,0,0,0,0c7.5-4.3,16.9-7.8,23.9-9.1c6-14.3-18.5-16.2-33.8-7.1c-3,1.1-5.9,2.3-8.5,3.6
				c-4.8,2.3-8.9,4.8-12.3,7.5l0,0C568.2,633.5,592.8,667.1,646.4,643.6z"/>
		</g>
		<path class="st0" d="M585.6,599c-2.6-9.5,10.6-10,12.9-6.8s108.4,72,100.4,77.3c-8,5.3-10.8,2.3-27.8-8.8
			C652.3,648.6,585.6,599,585.6,599z"/>
	</g>
	
		<ellipse transform="matrix(0.1778 -0.9841 0.9841 0.1778 -356.3855 1036.2057)" class="st0" cx="441.9" cy="731.4" rx="31.4" ry="54"/>
	<path class="st2" d="M573.2,662.9c54.9,12.3,113,11,142.4-16.9c29.4-27.8,13.2-65.4-36-83.9c-49.3-18.5-116.3-16.2-160,22.2
		C488.6,611.5,515.6,650,573.2,662.9z"/>
	<g>
		<g>
			<path class="st0" d="M630.3,620.2C630.3,620.2,630.3,620.2,630.3,620.2c4.7-1.5,12.4-3.8,18.1-4.3c5.4-0.4,9,0.9,6.9,6.2
				c0,0,0,0,0,0c-1.9,4.2-6.6,7-12.4,9c-13.1,4.7-31.2,5.9-32.4,13.7c9.4,13.9,30.6,10.1,48.9,0c4-2.2,7.9-4.8,11.5-7.5
				c22.9-17.4,33.7-42.3-7.9-43.6c-5.4-2-19.6,2.7-32.5,6.3c-7,2-13.6,3.7-18.2,3.8c-4.6,0.1-7.1-1.2-6-5.4c0,0,0-0.1,0-0.1
				c2.4-2.9,7-5.9,12.3-8.4c0,0,0,0,0,0c7.9-3.9,17.6-6.9,24.7-7.8c7.9-14.1-15.9-17.5-32.1-9.2c-3.1,1-6.1,2-8.8,3.1
				c-5,2.1-9.4,4.4-13.1,6.8l0,0C555,605.4,574.5,640.9,630.3,620.2z"/>
		</g>
		<path class="st0" d="M576.9,571.6c-1.3-9.7,11.8-9.5,13.6-6.1c1.8,3.3,96.3,79.2,87.7,84.1c-8.6,4.9-10.9,1.7-26-10.5
			C635.4,625.6,576.9,571.6,576.9,571.6z"/>
	</g>
	
		<ellipse transform="matrix(0.2097 -0.9778 0.9778 0.2097 -351.534 959.2887)" class="st0" cx="417.7" cy="697.1" rx="32.4" ry="52.4"/>
	<g>
		<g>
			<path class="st3" d="M157.2,658.5c2.1-0.7,5.4-1.7,7.9-2c2.4-0.2,4,0.3,3.1,2.7c0,0,0,0,0,0c-0.8,1.9-2.8,3.1-5.3,4
				c-5.7,2.1-13.8,2.8-14.2,6.2c4.3,6.1,13.6,4.3,21.6-0.2c1.7-1,3.4-2.1,5-3.3c9.9-7.7,14.5-18.7-3.9-19.1
				c-2.4-0.9-8.6,1.3-14.3,2.9c-3.1,0.9-6,1.7-8,1.8c-2,0.1-3.2-0.5-2.7-2.3c0,0,0,0,0-0.1c1.1-1.3,3-2.6,5.3-3.8
				c3.5-1.7,7.7-3.1,10.8-3.5c3.3-6.2-7.2-7.6-14.3-3.9c-1.4,0.4-2.7,0.9-3.9,1.4c-2.2,0.9-4.1,2-5.7,3.1
				C123.8,652.4,132.8,667.9,157.2,658.5z"/>
		</g>
		<path class="st3" d="M133.1,637.4c-0.7-4.3,5.1-4.2,5.9-2.8s43.3,34.3,39.6,36.5c-3.8,2.2-4.8,0.8-11.6-4.5
			C159.5,660.9,133.1,637.4,133.1,637.4z"/>
	</g>
	<path class="st4" d="M879.3,364.5c0,0,136.9,80.2,242.9,131.4c37.6,18.2,71.3,32.8,93.7,38.8c-40.4,27.1-108.8,56.2-197.7,86.9
		c-169.8,58.7-414.5,123.2-682.2,190.7c0,0-90.2-20.2-229.5-183.3c-20-23.3-40.9-49.6-62.8-79.2c567.2-107.7,272.5-47.9,310.3-55.1
		C565,454.8,768.3,410.7,879.3,364.5z"/>
	<path class="st5" d="M107.5,555.8c20.6,27.6,40.3,51.9,58.9,73.3c43.4,49.7,81.3,83.6,111.9,106.5c53.3,39.9,84.5,46.7,84.5,46.7
		c40.9-10.3,81.2-20.6,120.7-30.8c225.2-58,422.9-112.9,548.5-162.1c45.5-17.8,81.6-34.9,106-51.2c-20.4-5.4-51.7-18.7-86.4-35.3
		c-49.7-23.7-106.3-54.1-148-77.1c-35.8-19.7-60.5-33.9-60.5-33.9c-21.4,8.9-50,18.4-83.5,28.3C619.4,461.6,392.9,509,241.5,535.6
		C181.9,546.1,134,553.3,107.5,555.8z"/>
	<path class="st0" d="M747.3,424.6c65.5,29.5,92,21.6,172,6.7c-42.7-23.5-72.3-40.5-72.3-40.5C821.4,401.4,787.3,412.8,747.3,424.6z
		"/>
	<path class="st0" d="M1032,589.3c45.5-17.8,81.6-34.9,106-51.2c-20.4-5.4-51.7-18.7-86.4-35.3
		C1026.6,535.5,1017.4,563.3,1032,589.3z"/>
	<path class="st0" d="M278.4,735.6c53.3,39.9,84.5,46.7,84.5,46.7c40.9-10.3,81.2-20.6,120.7-30.8
		C433.2,726.6,370.3,716.8,278.4,735.6z"/>
	<path class="st2" d="M573.6,625.6c50.1,17.7,106.4,21.9,141-3.5s27.6-65.1-15.7-88.6c-43.3-23.5-108.4-27.6-159.3,7.2
		C503.7,565.4,521,607,573.6,625.6z"/>
	<g>
		<g>
			<path class="st0" d="M638.3,587.7C638.3,587.7,638.3,587.7,638.3,587.7c4.9-1.1,12.8-2.7,18.4-2.6c5.3,0.1,8.5,1.8,5.2,7
				c0,0,0,0,0,0c-2.7,4.1-7.9,6.4-14,8c-13.7,3.5-31.5,3-34.4,10.8c5.9,15,27.2,13.2,47.1,4.6c4.4-1.9,8.7-4.1,12.8-6.5
				c26-15.5,42.1-39.7,2.3-45.1c-4.7-2.5-19.5,0.8-32.8,3.3c-7.2,1.4-13.9,2.4-18.4,2.1c-4.4-0.3-6.6-1.9-4.5-6c0,0,0-0.1,0.1-0.1
				c3-2.7,8-5.3,13.7-7.4c0,0,0,0,0,0c8.5-3.2,18.5-5.3,25.6-5.6c10.8-13.5-11.3-19.3-28.8-12.4c-3.2,0.7-6.3,1.5-9.2,2.3
				c-5.3,1.6-10,3.5-14.2,5.7l0,0C569.1,565.5,579.8,603.4,638.3,587.7z"/>
		</g>
		<path class="st0" d="M597.8,533.2c1-10,13.5-8.5,14.5-4.9c0.9,3.5,74.8,89.6,65.4,93.8c-9.4,4.2-10.9,0.7-22.7-13.1
			C641.9,593.7,597.8,533.2,597.8,533.2z"/>
	</g>
	<g>
		<g>
			<path class="st3" d="M842.5,422.3c1.9-0.7,5-1.8,7.3-2.1c2.2-0.3,3.8,0.2,3.2,2.4c0,0,0,0,0,0c-0.6,1.8-2.4,3-4.7,3.9
				c-5.2,2.2-12.8,3-12.9,6.2c4.6,5.5,13.2,3.5,20.4-1c1.6-1,3.1-2.1,4.4-3.3c8.7-7.5,12.1-17.9-5.4-17.6c-2.3-0.7-8.1,1.5-13.3,3.2
				c-2.8,0.9-5.5,1.8-7.4,1.9c-1.9,0.2-3-0.4-2.8-2.1c0,0,0,0,0-0.1c0.9-1.2,2.6-2.5,4.7-3.7c3.1-1.7,7-3.2,9.9-3.7
				c2.6-5.9-7.5-6.8-13.8-3.1c-1.3,0.5-2.4,0.9-3.5,1.4l0,0c-2,0.9-3.7,2-5.1,3C810.4,417.7,820.2,431.8,842.5,422.3z"/>
		</g>
		<path class="st3" d="M817.9,403.5c-1-3.9,4.5-4.1,5.4-2.8c0.9,1.3,43.9,30.3,40.6,32.5c-3.4,2.2-4.5,0.9-11.4-3.7
			C844.8,424.4,817.9,403.5,817.9,403.5z"/>
	</g>
	<g>
		<g>
			<path class="st3" d="M1080.2,545.2C1080.2,545.2,1080.2,545.1,1080.2,545.2c2-0.6,5.2-1.5,7.5-1.6c2.2-0.1,3.7,0.4,2.7,2.7l0,0
				c-0.9,1.7-2.9,2.8-5.3,3.6c-5.4,1.8-13,2.2-13.6,5.4c2.3,3.7,6.6,4.5,11.6,3.6c2.8-0.6,5.7-1.7,8.5-3.1c1.3-0.7,2.5-1.4,3.6-2.1
				c0,0,0,0,0,0c0.4-0.3,0.8-0.6,1.2-0.9c9.8-7,14.8-17.3-2.3-18.2c-2.2-0.9-8.1,0.9-13.5,2.3c-2.9,0.8-5.7,1.4-7.6,1.4
				c-1.9,0-2.9-0.6-2.3-2.3l0,0c0,0,0,0,0-0.1c1.1-1.2,3-2.4,5.2-3.4c3.3-1.5,7.4-2.7,10.3-3c3.5-5.8-6.1-7.4-13-4.1
				c-1.3,0.4-2.5,0.8-3.7,1.2c-2.1,0.8-4,1.7-5.6,2.7C1049.7,538.3,1056.9,553.2,1080.2,545.2z"/>
		</g>
		<path class="st3" d="M1059.4,524.5c-0.3-4.1,5-3.8,5.7-2.4c0.7,1.4,37.7,33.8,34.1,35.8c-3.6,2-4.5,0.6-10.4-4.6
			C1082.2,547.5,1059.4,524.5,1059.4,524.5z"/>
	</g>
	
		<ellipse transform="matrix(0.2538 -0.9673 0.9673 0.2538 -313.9647 883.9185)" class="st0" cx="415.9" cy="645.5" rx="51.1" ry="74.5"/>
	
		<ellipse transform="matrix(0.2207 -0.9753 0.9753 0.2207 144.8663 1211.3485)" class="st0" cx="830.5" cy="515" rx="47.2" ry="74.7"/>
	<path class="st0" d="M106.1,556.5c49.4-8.9,93.9-16.1,133.8-21.8c-7,43.8-31.2,67.6-76.1,89.8C140.1,593.3,119.5,569,106.1,556.5z"
		/>
	<g>
		<g>
			<path class="st3" d="M173.7,581.4c2.1-0.5,5.6-1.2,8.1-1.2c2.3,0,3.8,0.7,2.4,3.1c0,0,0,0,0,0c-1.2,1.8-3.4,2.9-6.1,3.6
				c-6,1.6-13.9,1.5-15.1,4.9c2.8,6.6,12.1,5.7,20.9,1.8c1.9-0.8,3.8-1.8,5.6-2.9c11.3-6.9,18.2-17.6,0.5-19.8
				c-2.1-1.1-8.6,0.5-14.4,1.6c-3.2,0.6-6.1,1.1-8.1,1c-2-0.1-2.9-0.8-2-2.6c0,0,0,0,0-0.1c1.3-1.2,3.5-2.4,6-3.3
				c3.7-1.4,8.1-2.4,11.2-2.6c4.6-6-5.2-8.4-12.9-5.3c-1.4,0.3-2.8,0.7-4,1.1c-2.3,0.7-4.4,1.6-6.2,2.6
				C142.9,572,148,588.5,173.7,581.4z"/>
		</g>
		<path class="st3" d="M155.2,557.6c0.3-4.4,5.9-3.8,6.3-2.2c0.5,1.6,34,39,29.8,40.9c-4.1,1.9-4.8,0.3-10.2-5.7
			C175.4,584,155.2,557.6,155.2,557.6z"/>
	</g>
	<g>
		<g>
			<path class="st3" d="M369.4,758.3c1.7-0.4,4.5-1,6.5-1c1.9,0,3,0.6,1.9,2.4c0,0,0,0,0,0c-0.9,1.5-2.7,2.3-4.9,2.8
				c-4.8,1.3-11.1,1.2-12,3.9c2.2,5.2,9.7,4.5,16.7,1.5c1.5-0.7,3-1.5,4.5-2.3c9-5.5,14.5-14.1,0.4-15.8c-1.7-0.9-6.9,0.4-11.5,1.3
				c-2.5,0.5-4.9,0.9-6.4,0.8l0,0c-1.6-0.1-2.3-0.7-1.6-2.1c0,0,0,0,0,0c1.1-1,2.8-1.9,4.8-2.6c3-1.1,6.5-1.9,9-2
				c3.7-4.8-4.1-6.7-10.3-4.3c-1.1,0.2-2.2,0.5-3.2,0.9c-1.9,0.6-3.5,1.3-5,2C344.8,750.8,348.9,764,369.4,758.3z"/>
		</g>
		<path class="st3" d="M354.7,739.3c0.3-3.5,4.7-3,5.1-1.8c0.4,1.2,27.1,31.2,23.8,32.7c-3.3,1.5-3.8,0.3-8.1-4.5
			C370.7,760.4,354.7,739.3,354.7,739.3z"/>
	</g>
	<path class="st6" d="M879.3,364.5c0,0,136.9,80.2,242.9,131.4c-199-28-514.9-2.4-810.9,10.2C522.2,466.5,768.3,410.7,879.3,364.5z"
		/>
	<path class="st0" d="M363.6,835.2c669.1-165.3,817.2-258.9,817.2-258.9C1100.1,632.3,363.6,835.2,363.6,835.2z"/>
	<path class="st0" d="M382.9,910.9c670.8-160.2,820.3-252.8,820.3-252.8C1121.6,713.5,382.9,910.9,382.9,910.9z"/>
	<path class="st0" d="M395.5,841.6c670.8-160.2,820.3-252.8,820.3-252.8C1134.2,644.3,395.5,841.6,395.5,841.6z"/>
	<path class="st0" d="M380.5,866.5C747.1,790,831,741.8,831,741.8C785,770.8,380.5,866.5,380.5,866.5z"/>
	<path class="st0" d="M390,878.5c366.6-76.6,450.5-124.7,450.5-124.7C794.5,782.8,390,878.5,390,878.5z"/>
	<path class="st0" d="M740.4,804c359.8-97.6,437.7-149.9,437.7-149.9C1135.8,685.2,740.4,804,740.4,804z"/>
	<path class="st0" d="M731.5,784.9c359.8-97.6,437.7-149.9,437.7-149.9C1126.9,666.2,731.5,784.9,731.5,784.9z"/>
	<path class="st9" d="M823,823.2c-1.1,10.2-160.8,54.6-166.7,43.8c-5.9-10.8,4.5-129.1-3.9-136.4c-8.3-7.3-255.9-233.1-237.2-248.9
		c28.3-23.8,173.8-46.5,176.2-36.4c2.4,10,218.6,214.4,226.2,239C825.3,709.1,824.1,812.9,823,823.2z"/>
	<path class="st0" d="M54.3,615c12.9,38.5,181,206,231.7,218.9C157.6,753,54.3,615,54.3,615z"/>
	<path class="st0" d="M46.8,700.1c12.9,38.5,181,206,231.7,218.9C150.1,838.1,46.8,700.1,46.8,700.1z"/>
	<path class="st0" d="M61.2,660.6c12.9,38.5,181,206,231.7,218.9C167.5,793.3,61.2,660.6,61.2,660.6z"/>
	<path class="st0" d="M58.3,638.9c44.6,64,181,206,231.7,218.9C161.6,776.9,58.3,638.9,58.3,638.9z"/>
	<path class="st0" d="M42.9,670c44.6,64,168.1,193.5,231.7,218.9C146.1,808.3,42.9,670,42.9,670z"/>
	<path class="st0" d="M63.6,603.7c44.6,64,168.1,193.5,231.7,218.9C166.8,742,63.6,603.7,63.6,603.7z"/>
</g>
<g>
	<path class="st1" d="M47.8,398.2C31.1,506.8,27.7,554.2,60.1,591.1c32.5,36.9,189.7,234.4,273.1,201.6
		c83.4-32.8,854.7-192.3,890.5-266.3c17-35.1-3.7-143.3-3.7-143.3l-337-133.6L47.8,398.2z"/>
	<path class="st2" d="M598.6,537.2c57.2,8.8,115.9,4.1,141.7-24.8c25.9-29,4.3-64.9-48.1-80.1c-52.4-15.3-119.9-9.1-158.8,31.1
		C505.8,491.7,538.5,527.9,598.6,537.2z"/>
	<g>
		<g>
			<path class="st0" d="M650.4,492C650.4,492,650.4,492,650.4,492c4.6-1.7,12-4.5,17.7-5.2c5.4-0.7,9.3,0.3,7.8,5.7c0,0,0,0,0,0
				c-1.3,4.3-5.7,7.2-11.3,9.6c-12.6,5.3-30.8,7.7-30.9,15.3c11.4,13.1,32.3,8.1,49.5-2.9c3.8-2.4,7.4-5.2,10.6-8
				c20.7-18.4,28.2-43.4-14.1-42.3c-5.7-1.6-19.5,3.8-32,8.1c-6.8,2.4-13.2,4.4-17.8,4.8c-4.6,0.4-7.4-0.8-6.8-4.9c0,0,0-0.1,0-0.1
				c2.1-3,6.2-6.2,11.2-9c0,0,0,0,0,0c7.5-4.3,16.9-7.8,23.9-9.1c6-14.3-18.5-16.2-33.8-7.1c-3,1.1-5.9,2.3-8.5,3.6
				c-4.8,2.3-8.9,4.8-12.3,7.5l0,0C572.2,481.9,596.8,515.5,650.4,492z"/>
		</g>
		<path class="st0" d="M589.6,447.4c-2.6-9.5,10.6-10,12.9-6.8s108.4,72,100.4,77.3c-8,5.3-10.8,2.3-27.8-8.8
			C656.3,497,589.6,447.4,589.6,447.4z"/>
	</g>
	
		<ellipse transform="matrix(0.1778 -0.9841 0.9841 0.1778 -203.8832 915.4589)" class="st0" cx="445.9" cy="579.7" rx="31.4" ry="54"/>
	<path class="st2" d="M577.2,511.3c54.9,12.3,113,11,142.4-16.9c29.4-27.8,13.2-65.4-36-83.9c-49.3-18.5-116.3-16.2-160,22.2
		C492.6,459.9,519.6,498.4,577.2,511.3z"/>
	<g>
		<g>
			<path class="st0" d="M634.3,468.6C634.3,468.6,634.3,468.6,634.3,468.6c4.7-1.5,12.4-3.8,18.1-4.3c5.4-0.4,9,0.9,6.9,6.2
				c0,0,0,0,0,0c-1.9,4.2-6.6,7-12.4,9c-13.1,4.7-31.2,5.9-32.4,13.7c9.4,13.9,30.6,10.1,48.9,0c4-2.2,7.9-4.8,11.5-7.5
				c22.9-17.4,33.7-42.3-7.9-43.6c-5.4-2-19.6,2.7-32.5,6.3c-7,2-13.6,3.7-18.2,3.8c-4.6,0.1-7.1-1.2-6-5.4c0,0,0-0.1,0-0.1
				c2.4-2.9,7-5.9,12.3-8.4c0,0,0,0,0,0c7.9-3.9,17.6-6.9,24.7-7.8c7.9-14.1-15.9-17.5-32.1-9.2c-3.1,1-6.1,2-8.8,3.1
				c-5,2.1-9.4,4.4-13.1,6.8l0,0C559,453.8,578.5,489.3,634.3,468.6z"/>
		</g>
		<path class="st0" d="M580.8,419.9c-1.3-9.7,11.8-9.5,13.6-6.1c1.8,3.3,96.3,79.2,87.7,84.1c-8.6,4.9-10.9,1.7-26-10.5
			C639.4,474,580.8,419.9,580.8,419.9z"/>
	</g>
	
		<ellipse transform="matrix(0.2097 -0.9778 0.9778 0.2097 -200.1136 843.3535)" class="st0" cx="421.7" cy="545.5" rx="32.4" ry="52.4"/>
	<g>
		<g>
			<path class="st3" d="M161.2,506.9c2.1-0.7,5.4-1.7,7.9-2c2.4-0.2,4,0.3,3.1,2.7c0,0,0,0,0,0c-0.8,1.9-2.8,3.1-5.3,4
				c-5.7,2.1-13.8,2.8-14.2,6.2c4.3,6.1,13.6,4.3,21.6-0.2c1.7-1,3.4-2.1,5-3.3c9.9-7.7,14.5-18.7-3.9-19.1
				c-2.4-0.9-8.6,1.3-14.3,2.9c-3.1,0.9-6,1.7-8,1.8c-2,0.1-3.2-0.5-2.7-2.3c0,0,0,0,0-0.1c1.1-1.3,3-2.6,5.3-3.8
				c3.5-1.7,7.7-3.1,10.8-3.5c3.3-6.2-7.2-7.6-14.3-3.9c-1.4,0.4-2.7,0.9-3.9,1.4c-2.2,0.9-4.1,2-5.7,3.1
				C127.8,500.7,136.8,516.2,161.2,506.9z"/>
		</g>
		<path class="st3" d="M137.1,485.8c-0.7-4.3,5.1-4.2,5.9-2.8c0.8,1.5,43.3,34.3,39.6,36.5c-3.8,2.2-4.8,0.8-11.6-4.5
			C163.5,509.3,137.1,485.8,137.1,485.8z"/>
	</g>
	<path class="st4" d="M883.3,212.8c0,0,136.9,80.2,242.9,131.4c37.6,18.2,71.3,32.8,93.7,38.8c-40.4,27.1-108.8,56.2-197.7,86.9
		c-169.8,58.7-414.5,123.2-682.2,190.7c0,0-90.2-20.2-229.5-183.3c-20-23.3-40.9-49.6-62.8-79.2c567.2-107.7,272.5-47.9,310.3-55.1
		C569,303.2,772.3,259,883.3,212.8z"/>
	<path class="st5" d="M111.5,404.2c20.6,27.6,40.3,51.9,58.9,73.3c43.4,49.7,81.3,83.6,111.9,106.5c53.3,39.9,84.5,46.7,84.5,46.7
		c40.9-10.3,81.2-20.6,120.7-30.8c225.2-58,422.9-112.9,548.5-162.1c45.5-17.8,81.6-34.9,106-51.2c-20.4-5.4-51.7-18.7-86.4-35.3
		c-49.7-23.7-106.3-54.1-148-77.1c-35.8-19.7-60.5-33.9-60.5-33.9c-21.4,8.9-50,18.4-83.5,28.3C623.4,310,396.9,357.3,245.5,384
		C185.9,394.4,138,401.7,111.5,404.2z"/>
	<path class="st0" d="M751.3,273c65.5,29.5,92,21.6,172,6.7c-42.7-23.5-72.3-40.5-72.3-40.5C825.4,249.8,791.3,261.2,751.3,273z"/>
	<path class="st0" d="M1036,437.7c45.5-17.8,81.6-34.9,106-51.2c-20.4-5.4-51.7-18.7-86.4-35.3
		C1030.6,383.9,1021.4,411.6,1036,437.7z"/>
	<path class="st0" d="M282.3,583.9c53.3,39.9,84.5,46.7,84.5,46.7c40.9-10.3,81.2-20.6,120.7-30.8
		C437.2,575,374.3,565.2,282.3,583.9z"/>
	<path class="st2" d="M577.6,474c50.1,17.7,106.4,21.9,141-3.5c34.6-25.4,27.6-65.1-15.7-88.6c-43.3-23.5-108.4-27.6-159.3,7.2
		C507.7,413.7,525,455.4,577.6,474z"/>
	<g>
		<g>
			<path class="st0" d="M642.3,436.1C642.3,436.1,642.3,436.1,642.3,436.1c4.9-1.1,12.8-2.7,18.4-2.6c5.3,0.1,8.5,1.8,5.2,7
				c0,0,0,0,0,0c-2.7,4.1-7.9,6.4-14,8c-13.7,3.5-31.5,3-34.4,10.8c5.9,15,27.2,13.2,47.1,4.6c4.4-1.9,8.7-4.1,12.8-6.5
				c26-15.5,42.1-39.7,2.3-45.1c-4.7-2.5-19.5,0.8-32.8,3.3c-7.2,1.4-13.9,2.4-18.4,2.1c-4.4-0.3-6.6-1.9-4.5-6c0,0,0-0.1,0.1-0.1
				c3-2.7,8-5.3,13.7-7.4c0,0,0,0,0,0c8.5-3.2,18.5-5.3,25.6-5.6c10.8-13.5-11.3-19.3-28.8-12.4c-3.2,0.7-6.3,1.5-9.2,2.3
				c-5.3,1.6-10,3.5-14.2,5.7l0,0C573.1,413.9,583.8,451.7,642.3,436.1z"/>
		</g>
		<path class="st0" d="M601.8,381.6c1-10,13.5-8.5,14.5-4.9c0.9,3.5,74.8,89.6,65.4,93.8c-9.4,4.2-10.9,0.7-22.7-13.1
			C645.9,442.1,601.8,381.6,601.8,381.6z"/>
	</g>
	<g>
		<g>
			<path class="st3" d="M846.5,270.6c1.9-0.7,5-1.8,7.3-2.1c2.2-0.3,3.8,0.2,3.2,2.4c0,0,0,0,0,0c-0.6,1.8-2.4,3-4.7,3.9
				c-5.2,2.2-12.8,3-12.9,6.2c4.6,5.5,13.2,3.5,20.4-1c1.6-1,3.1-2.1,4.4-3.3c8.7-7.5,12.1-17.9-5.4-17.6c-2.3-0.7-8.1,1.5-13.3,3.2
				c-2.8,0.9-5.5,1.8-7.4,1.9c-1.9,0.2-3-0.4-2.8-2.1c0,0,0,0,0-0.1c0.9-1.2,2.6-2.5,4.7-3.7c3.1-1.7,7-3.2,9.9-3.7
				c2.6-5.9-7.5-6.8-13.8-3.1c-1.3,0.5-2.4,0.9-3.5,1.4l0,0c-2,0.9-3.7,2-5.1,3C814.3,266.1,824.2,280.1,846.5,270.6z"/>
		</g>
		<path class="st3" d="M821.9,251.9c-1-3.9,4.5-4.1,5.4-2.8c0.9,1.3,43.9,30.3,40.6,32.5c-3.4,2.2-4.5,0.9-11.4-3.7
			C848.8,272.7,821.9,251.9,821.9,251.9z"/>
	</g>
	<g>
		<g>
			<path class="st3" d="M1084.2,393.5C1084.2,393.5,1084.2,393.5,1084.2,393.5c2-0.6,5.2-1.5,7.5-1.6c2.2-0.1,3.7,0.4,2.7,2.7l0,0
				c-0.9,1.7-2.9,2.8-5.3,3.6c-5.4,1.8-13,2.2-13.6,5.4c2.3,3.7,6.6,4.5,11.6,3.6c2.8-0.6,5.7-1.7,8.5-3.1c1.3-0.7,2.5-1.4,3.6-2.1
				c0,0,0,0,0,0c0.4-0.3,0.8-0.6,1.2-0.9c9.8-7,14.8-17.3-2.3-18.2c-2.2-0.9-8.1,0.9-13.5,2.3c-2.9,0.8-5.7,1.4-7.6,1.4
				c-1.9,0-2.9-0.6-2.3-2.3l0,0c0,0,0,0,0-0.1c1.1-1.2,3-2.4,5.2-3.4c3.3-1.5,7.4-2.7,10.3-3c3.5-5.8-6.1-7.4-13-4.1
				c-1.3,0.4-2.5,0.8-3.7,1.2c-2.1,0.8-4,1.7-5.6,2.7C1053.6,386.7,1060.9,401.6,1084.2,393.5z"/>
		</g>
		<path class="st3" d="M1063.4,372.8c-0.3-4.1,5-3.8,5.7-2.4c0.7,1.4,37.7,33.8,34.1,35.8c-3.6,2-4.5,0.6-10.4-4.6
			C1086.2,395.8,1063.4,372.8,1063.4,372.8z"/>
	</g>
	
		<ellipse transform="matrix(0.2538 -0.9673 0.9673 0.2538 -164.3145 774.6285)" class="st0" cx="419.9" cy="493.8" rx="51.1" ry="74.5"/>
	
		<ellipse transform="matrix(0.2207 -0.9753 0.9753 0.2207 295.8746 1097.0726)" class="st0" cx="834.5" cy="363.4" rx="47.2" ry="74.7"/>
	<path class="st0" d="M110,404.9c49.4-8.9,93.9-16.1,133.8-21.8c-7,43.8-31.2,67.6-76.1,89.8C144.1,441.7,123.5,417.4,110,404.9z"/>
	<g>
		<g>
			<path class="st3" d="M177.7,429.8c2.1-0.5,5.6-1.2,8.1-1.2c2.3,0,3.8,0.7,2.4,3.1c0,0,0,0,0,0c-1.2,1.8-3.4,2.9-6.1,3.6
				c-6,1.6-13.9,1.5-15.1,4.9c2.8,6.6,12.1,5.7,20.9,1.8c1.9-0.8,3.8-1.8,5.6-2.9c11.3-6.9,18.2-17.6,0.5-19.8
				c-2.1-1.1-8.6,0.5-14.4,1.6c-3.2,0.6-6.1,1.1-8.1,1c-2-0.1-2.9-0.8-2-2.6c0,0,0,0,0-0.1c1.3-1.2,3.5-2.4,6-3.3
				c3.7-1.4,8.1-2.4,11.2-2.6c4.6-6-5.2-8.4-12.9-5.3c-1.4,0.3-2.8,0.7-4,1.1c-2.3,0.7-4.4,1.6-6.2,2.6
				C146.9,420.3,152,436.9,177.7,429.8z"/>
		</g>
		<path class="st3" d="M159.2,406c0.3-4.4,5.9-3.8,6.3-2.2c0.5,1.6,34,39,29.8,40.9c-4.1,1.9-4.8,0.3-10.2-5.7
			C179.3,432.4,159.2,406,159.2,406z"/>
	</g>
	<g>
		<g>
			<path class="st3" d="M373.4,606.7c1.7-0.4,4.5-1,6.5-1c1.9,0,3,0.6,1.9,2.4c0,0,0,0,0,0c-0.9,1.5-2.7,2.3-4.9,2.8
				c-4.8,1.3-11.1,1.2-12,3.9c2.2,5.2,9.7,4.5,16.7,1.5c1.5-0.7,3-1.5,4.5-2.3c9-5.5,14.5-14.1,0.4-15.8c-1.7-0.9-6.9,0.4-11.5,1.3
				c-2.5,0.5-4.9,0.9-6.4,0.8l0,0c-1.6-0.1-2.3-0.7-1.6-2.1c0,0,0,0,0,0c1.1-1,2.8-1.9,4.8-2.6c3-1.1,6.5-1.9,9-2
				c3.7-4.8-4.1-6.7-10.3-4.3c-1.1,0.2-2.2,0.5-3.2,0.9c-1.9,0.6-3.5,1.3-5,2C348.8,599.1,352.9,612.4,373.4,606.7z"/>
		</g>
		<path class="st3" d="M358.7,587.7c0.3-3.5,4.7-3,5.1-1.8c0.4,1.2,27.1,31.2,23.8,32.7c-3.3,1.5-3.8,0.3-8.1-4.5
			C374.7,608.8,358.7,587.7,358.7,587.7z"/>
	</g>
	<path class="st6" d="M883.3,212.8c0,0,136.9,80.2,242.9,131.4c-199-28-514.9-2.4-810.9,10.2C526.2,314.9,772.3,259,883.3,212.8z"/>
	<path class="st0" d="M367.6,683.5c669.1-165.3,817.2-258.9,817.2-258.9C1104,480.7,367.6,683.5,367.6,683.5z"/>
	<path class="st0" d="M386.9,759.3c670.8-160.2,820.3-252.8,820.3-252.8C1125.6,561.9,386.9,759.3,386.9,759.3z"/>
	<path class="st0" d="M399.5,690c670.8-160.2,820.3-252.8,820.3-252.8C1138.2,492.6,399.5,690,399.5,690z"/>
	<path class="st0" d="M384.5,714.9C751,638.3,835,590.2,835,590.2C789,619.1,384.5,714.9,384.5,714.9z"/>
	<path class="st0" d="M394,726.9c366.6-76.6,450.5-124.7,450.5-124.7C798.5,631.1,394,726.9,394,726.9z"/>
	<path class="st0" d="M744.4,652.4c359.8-97.6,437.7-149.9,437.7-149.9C1139.8,533.6,744.4,652.4,744.4,652.4z"/>
	<path class="st0" d="M735.5,633.3c359.8-97.6,437.7-149.9,437.7-149.9C1130.8,514.5,735.5,633.3,735.5,633.3z"/>
	<path class="st10" d="M827,671.5c-1.1,10.2-160.8,54.6-166.7,43.8c-5.9-10.8,4.5-129.1-3.9-136.4c-8.3-7.3-255.9-233.1-237.2-248.9
		c28.3-23.8,173.8-46.5,176.2-36.4c2.4,10,218.6,214.4,226.2,239C829.3,557.4,828.1,661.3,827,671.5z"/>
	<path class="st0" d="M58.3,463.4c12.9,38.5,181,206,231.7,218.9C161.6,601.4,58.3,463.4,58.3,463.4z"/>
	<path class="st0" d="M50.8,548.4c12.9,38.5,181,206,231.7,218.9C154.1,686.4,50.8,548.4,50.8,548.4z"/>
	<path class="st0" d="M65.2,509c12.9,38.5,181,206,231.7,218.9C171.5,641.6,65.2,509,65.2,509z"/>
	<path class="st0" d="M62.3,487.2c44.6,64,181,206,231.7,218.9C165.6,625.2,62.3,487.2,62.3,487.2z"/>
	<path class="st0" d="M46.9,518.3c44.6,64,168.1,193.5,231.7,218.9C150.1,656.6,46.9,518.3,46.9,518.3z"/>
	<path class="st0" d="M67.6,452c44.6,64,168.1,193.5,231.7,218.9C170.8,590.4,67.6,452,67.6,452z"/>
</g>
<path class="st11" d="M576.5,470.6c9,30.9,38.5,46.1,84.1,47.5c45.6,1.4,183.3,6.4,175.3,11.4c-8,5-123.7,143.7-121.7,152.6
	c2,9-33.6,33.1-22.3,42.5c11.3,9.4,66.2-59.1,66.2-59.1l121.7-148c0,0-46.9-27.9-49.9-28.9C826.9,487.5,576.5,470.6,576.5,470.6z"/>
<g>
	<g>
		<path class="st12" d="M843.5,827.8c8.3-12.8,24.8-47.4,24.8-47.4l-36.8-18.8l-24.3,52.2l16.4,27.9L843.5,827.8z"/>
		<path class="st13" d="M849.3,823.5c4.3,1.1,0.7,3.8-1,10c-4,14.4,44.1,39.7,50.8,44.7c3.4,2.5-1.1,24.3-19.8,14.5
			c-16.1-8.5-67.9-35.3-85.5-44.7c-3.7-2-5.5-6-4.5-9.9c3.8-13.9,15.5-32.4,20.6-30.3C818.7,809.5,831.2,818.9,849.3,823.5z"/>
	</g>
	<g>
		<path class="st12" d="M746.6,731.8c12.2-9.5,39.8-37,39.8-37l-28.2-29.3l-40.9,41.6l5.9,31.5L746.6,731.8z"/>
		<path class="st13" d="M753.6,729.6c3.7,2.4-0.6,3.8-4.4,9.2c-8.7,12.3,28,51.4,32.6,58.1c2.4,3.5-9.4,22.6-23.7,7.5
			c-12.3-13-52-54.7-65.4-69c-2.8-3-3.2-7.4-0.8-10.8c8.4-11.9,25.8-25.8,29.9-22.1C729.5,706.7,738.1,719.5,753.6,729.6z"/>
		<path class="st14" d="M612.9,385.9c142.9,2.7,321,9.8,339.5,46.6c23.6,46.6-162.5,312-183.4,293.4c-20.9-18.7-53.9-34.9-44.1-46.6
			c9.8-11.7,179.8-203.3,144.2-206.6c-35.6-3.3-240.4,4.9-252.9-4.5C603.6,458.7,612.9,385.9,612.9,385.9z"/>
		<path class="st15" d="M612.9,385.9c142.9,2.7,321,9.8,339.5,46.6c23.6,46.6-162.5,312-183.4,293.4c-20.9-18.7-53.9-34.9-44.1-46.6
			c9.8-11.7,179.8-203.3,144.2-206.6c-35.6-3.3-240.4,4.9-252.9-4.5C603.6,458.7,612.9,385.9,612.9,385.9z"/>
	</g>
	<path class="st14" d="M577.9,386.9c-7.4,23-16.4,65.3,3.4,91.6c10.8,14.3,30.1,23.8,62.9,22.9c51.5-1.5,273.3,22,270.3,32.7
		c-3,10.7-109.3,247.8-102.1,260.4c7.2,12.6,55.6,31.7,61.6,19c6-12.7,139.6-281.5,109.6-324.3c-25.3-36.1-271.3-73.4-293.7-88.2
		C667.6,386,577.9,386.9,577.9,386.9z"/>
	<g>
		<path class="st14" d="M1126,386.5c0.7,7.9,3.3,22.6-2.1,28.1c-5.4,5.5-80.5,66.9-106.7,72.2c-30.8,6.2-128.8-31.3-130.8-32
			c-5.3-1.9-9.1-36.3-2.7-55.6c5.6-16.7,17.3-31.8,18.8-33.9c1.5-2.1,46.7,26.8,46.7,26.8l17.1,62.2L1126,386.5z"/>
		<path class="st16" d="M911.1,354.8c-38.4,41-27,93.2-21.2,95.1c65.2,21.9,98.4,31.7,115.5,31.1c17.1-0.7,119.7-54.9,121.4-83.7
			c1.4-22.8-26.4-86.3-26.4-86.3s-70.3,71-90.1,63.9C990.3,367.8,919.1,346.3,911.1,354.8z"/>
		<path class="st10" d="M1097.2,322c7.1,17.1,26,68,21.8,76.5c-12.6,25.5-95.1,72.7-95.7,66.5c-0.6-6.2-6-83.8-0.5-85.7
			C1039.1,373.8,1097.2,322,1097.2,322z"/>
		<path class="st14" d="M1007.8,381.2c-2.1,31.2,2.7,81.3-2.6,84.3c-5.3,2.9-74.5-10.6-76.7-16.8c-2.2-6.2,10-80.4,12.8-81.4
			C944.1,366.2,1007.8,381.2,1007.8,381.2z"/>
		<path class="st14" d="M928.9,391.6c-3.4,16-4.1,29.4-8.9,30.6c-4.8,1.2-26.7-3-27.7-5.7c-1.1-2.7,4-29.4,11.2-36.1
			C906.4,377.7,931.7,378.4,928.9,391.6z"/>
	</g>
	<path class="st17" d="M922.8,358.9c10.1,3.7,4.7,0.9,17.2,7.5c12.1,6.4,26.4,7.3,39,7.5c10.3,0.1,29.6,14.1,33.6,27.8
		c3.6,12.3-22.2-0.6-30.1-0.9c-30.3-1.1-11.4,10.8-19.9,15.2c-8.5,4.4-3.5-10.7-25.5-19.4c-13.2-5.3-20.3-3.7-24.9-7.6
		C907.6,385.1,922.8,358.9,922.8,358.9z"/>
	<path class="st18" d="M795.5,311.6c10.1,19.7,150.1,49.5,155.1,52.9c3.7,2.6-13.5,37.7-26.6,36.5c-10.7-1-191.6-40.3-189.1-80.5
		c1.9-30.2-29.2-159.4-29.2-159.4s67.7-31,62.5-0.3C767,168.4,790.5,301.9,795.5,311.6z"/>
	<path class="st17" d="M732.9,166.9l-37.2-16.3c3.3-15.3,12.8-42.6,18.6-55.7c6.3-14.4,17.8-21.7,17.8-21.7l4.9,16.3l15.7,9.1
		c0,0-1.5,0-3.3,4.2c-2.9,7-8,29,1.6,41.9C756.9,152.8,732.9,166.9,732.9,166.9z"/>
	<path class="st19" d="M749,103.5c-2.8,7.9-3.5,14.5-3.7,22.1c-23.8,4.7-27.6-17.9-19.6-28.9c3-4.1,11.2-7.1,11.2-7.1
		S754.4,88.3,749,103.5z"/>
	<path class="st15" d="M795.5,311.6c10.1,19.7,150.1,49.5,155.1,52.9c3.7,2.6-13.5,37.7-26.6,36.5c-10.7-1-191.6-40.3-189.1-80.5
		c1.9-30.2-29.2-159.4-29.2-159.4s67.7-31,62.5-0.3C767,168.4,790.5,301.9,795.5,311.6z"/>
	<g>
		<path class="st17" d="M790.3,73c-4.8,10.7-4,36.1-11.2,32.5c-7.2-3.6-10,22.7-17.9,19.1c-19-8.7-34.2-30.6-31.9-40.5
			c2.3-9.8,16.9-33.3,16.9-33.3L790.3,73z"/>
		<path class="st20" d="M765.7,73.4c5.5,3.6,5,5,10.1,5.1c5.2,0.1,1-8.9,9.4-6.3c8.4,2.6,17,6.3,22.5-1.7
			c7.9-11.6-4.4-15.3-12.2-17.4c-5-1.3-1-11.2-10.1-15.3c-7.2-3.2-8.5,1.2-15.1-1.4c-4-1.5-8.1-11.2-16.4-9.7
			c-15.4,2.7-11.7,17.2-25.6,21.3c-16.2,4.8-3.4,38.6,0.9,37.4c5-1.4,5.8-14.3,10.6-15.1c7.1-1.2,5.5,3.3,7.6,9.2
			c2.3,6.4,10.5,10.8,9.5,0.2C755.8,69.2,760.7,70.1,765.7,73.4z"/>
	</g>
	<path class="st10" d="M704.2,112.5c15.1-1.1,20,23.6,31.4,26.8c6.9,1.9,9.3-10.4,9.9-11.9c3,2.6,5,5.2,6.3,8.5
		c32.4,84.4-37.3,247.4-37.3,247.4s-38.4,20-110.7,9.2c-44-6.6-8.3-42-4.8-51.6c3.5-9.7,68-198.8,68-198.8S678.7,127.4,704.2,112.5z
		"/>
	<path class="st21" d="M495.8,449.8c29.3,34.1,106.8,5.8,126.5-7.8c18.7-12.9,8.3-47.1,20.2-78.3c2-5.2,4.4-10.8,7.2-16.5
		c0.4-0.8,0.8-1.6,1.2-2.4c0.4-0.7,0.8-1.4,1.1-2.2c0.3-0.6,0.7-1.3,1-1.9c0.5-0.9,1-1.9,1.5-2.8c0.5-0.9,1.1-1.9,1.7-2.8
		c0.4-0.6,0.8-1.3,1.2-2l0,0c11.2-17.7,33-44,42.7-66.2c0.9-2,1.6-4,2.3-5.9c0.1-0.4,0.3-0.8,0.4-1.2c0.1-0.4,0.3-0.8,0.4-1.2
		c0.4-1.5,0.9-3,1.3-4.6c0.1-0.4,0.2-0.8,0.3-1.2c3.7-14.8,5.1-30.9,5.2-46.8c0-0.1,0-0.1,0-0.1c0.1-5.4,0-10.7-0.2-15.9
		c-1.3-35.7-7.5-67.6-6.2-77.2c0,0-12.4,1.9-45.9,25.1c-14.1,9.7-39.8,40-46.4,65c-2.1,8.2-4.1,16.1-6,23.8
		c-7.1,29.1-12.8,54.4-21.1,73.2c-10.7,24.5-25,56.8-50.3,82.7c-7.4,7.6-16.4,14.5-25.4,20.7c-0.1,0.1-0.1,0.1-0.2,0.2
		C484,420.3,487.5,440,495.8,449.8z"/>
	<path class="st21" d="M767.5,233.3c-4.6,12.5-12.1,36.7-16.8,53.6c-5.7,21-6,34.3-6.8,42.7c-1.8,19-6.8,43.2-17.8,59.8
		c-11.8,17.8-18.6,12.1-25.7,2.5c-12.2-16.6,1.5-51.4,17.8-99.5c15.4-45.8,33.3-71.3,36.4-111.1c2.4-30.1-9.1-53.8-9.1-53.8
		C791.3,153.4,770,226.3,767.5,233.3z"/>
	<path class="st17" d="M868.6,385.6c10.1,3.7,5.9-1.8,18.4,4.8c12.1,6.4,26.2,10.6,37.6,13.9c9.8,2.9,29.9,10.3,33.8,24
		c3.6,12.3-22.2-0.9-30.1-0.9c-21.3,0.1-2.9,6.3-11.4,10.8c-8.5,4.4-12-6.2-34-15c-13.2-5.3-20.3-3.7-24.9-7.6
		C853.3,411.8,868.6,385.6,868.6,385.6z"/>
	<path class="st15" d="M637.6,378c2-5.2,9.3-25.1,12.2-30.9c0.4-0.8,0.8-1.6,1.2-2.4c0.4-0.7,0.8-1.4,1.1-2.2c0.3-0.6,0.7-1.3,1-1.9
		c0.5-0.9,1-1.9,1.5-2.8c0.5-0.9,1.1-1.9,1.7-2.8c0.4-0.6,0.8-1.3,1.2-2l0,0c11.2-17.7,33-44,42.7-66.2l0.4-17.2l-39.8-24.9
		C642.2,274.6,633.6,378.6,637.6,378z"/>
	<path class="st15" d="M767.5,233.3c-4.6,12.5-12.1,36.7-16.8,53.6c-5.7,21-6,34.3-6.8,42.7c-1.8,19-6.8,43.2-17.8,59.8
		c-11.8,17.8-18.6,12.1-25.7,2.5c-12.2-16.6,1.5-51.4,17.8-99.5c15.4-45.8,33.3-71.3,36.4-111.1c2.4-30.1-9.1-53.8-9.1-53.8
		C791.3,153.4,770,226.3,767.5,233.3z"/>
	<path class="st18" d="M752.6,318.9c8.5,20.4,142.7,66.1,147.4,69.9c3.5,2.8-16.5,36.6-29.5,34.4c-10.6-1.8-141.9-20.8-167.6-73.2
		c-13.5-27.4-46-138.7-59.8-171.3c-13.8-32.6,64.2-37.1,62.2-6.1C704.9,180.4,748.5,308.9,752.6,318.9z"/>
	<g>
		<path class="st22" d="M730.9,142.9c-1.3-0.9-15.1,24.9-33.2,33.2c-5,2.3-10.4,3.8-15.9,4c-16.3,0.6-59.5-1.9-59.5-1.9
			s7.8-10.5,12.4-19.1c10.5-5.5,37.1,5.2,45.6,4.5c6.3-0.6,12.3-2.2,17.9-4.5c10.5-4.3,19.4-10.8,26.2-16.5c3.5-2.9,4.1-7.4,8.2-7.5
			C737.9,135,732.6,144,730.9,142.9z"/>
		<path class="st23" d="M739.2,137.7c-0.1-2.6-1.8-6.8-7.3-6.7c-4.1,0.1-4.5,1.7-7.9,4.6c-10.4,8.7-25.9,19.4-44.1,21
			c-18.2,1.6-59.1-22.9-86.1-17.6c-27,5.3-35.6,29.3-74.4,34.7c-38.9,5.5-80.2-11.7-91.7-9.9c-11.5,1.8-18.4,4.1-18.2,8.7
			c0.2,4.5,5.8,12.1,13.7,15.5c8,3.4,78.6,9.4,97.4,7.3c30.6-3.5,57.3-30.6,77-32c19.7-1.4,60.8,10.6,83.9,9.8
			c25.7-1,47.2-30.5,48.8-29.3c1.7,1.2,3.2,2.3,6.5,1.5C739.1,144.8,739.3,140.3,739.2,137.7z"/>
	</g>
</g>
</svg>
