<?xml version="1.0" encoding="utf-8"?>
<!-- Generator: Adobe Illustrator 26.1.0, SVG Export Plug-In . SVG Version: 6.00 Build 0)  -->
<svg version="1.1" id="Layer_1" xmlns="http://www.w3.org/2000/svg" xmlns:xlink="http://www.w3.org/1999/xlink" x="0px" y="0px"
	 viewBox="0 0 1061.5 1370.1" style="enable-background:new 0 0 1061.5 1370.1;" xml:space="preserve">
<style type="text/css">
	.st0{fill:#CC820A;}
	.st1{fill:#F4AD00;}
	.st2{opacity:0.78;fill:#F4C83D;}
	.st3{opacity:0.19;fill:#D39333;}
	.st4{fill:#F4C83D;}
	.st5{opacity:0.15;fill:#0A0A0A;}
	.st6{fill:#FFFFFF;}
	.st7{fill:#221B2E;}
	.st8{fill:#3B3B4F;}
	.st9{opacity:0.18;fill:#0A0A0A;}
	.st10{fill:#545468;}
	.st11{fill:#EFAEA6;}
	.st12{fill:#006BAF;}
	.st13{opacity:0.14;fill:#19193B;}
	.st14{fill:#19193B;}
	.st15{fill:#0069AB;}
	.st16{opacity:0.18;fill:#1F1F3B;}
	.st17{fill:#F9B901;}
	.st18{fill:none;stroke:#419F81;stroke-width:4.4963;stroke-linecap:round;stroke-linejoin:round;stroke-miterlimit:10;}
</style>
<g>
	<g>
		<path class="st0" d="M546.4,333c242,0,504.9,192.8,492.9,538.8c-12,345.9-324.6,481.3-465.6,477.4
			C432.9,1345.2,546.4,333,546.4,333z"/>
		<g>
			<path class="st1" d="M985.4,769.3c38.6,279.6-145.7,539.2-411.6,579.8c-243.4,37.2-470.9-121.9-537.4-363.5
				c-6.2-22.4-10.9-45.5-14.2-69.2c-4.5-32.6-6-65-4.6-96.7c7-167,91.7-317.7,221.5-406.2c17.2-11.7,35.1-22.3,53.8-31.7
				c12.1-6.1,24.4-11.7,37-16.7c32.9-13.2,67.7-22.8,104-28.4c64.8-9.9,128.5-5.9,188.4,9.9C807.8,395.6,956.2,557.9,985.4,769.3z"
				/>
			<path class="st2" d="M329.8,365c-0.3,23.9-1.2,49.1-3.3,74.9c-1.6,20.5-4,41.4-7.3,62.3c0,0,0,0,0,0c-1.6,0.9-3.2,1.8-4.7,2.8
				c-1.6,0.9-3.1,1.9-4.7,2.9c-3.1,1.9-6.2,3.9-9.3,5.9c0,0-0.1,0-0.1,0.1c-1.5,1-3,2-4.4,3c0,0,0,0,0,0c-1.5,1-3,2.1-4.5,3.1
				c-1.5,1.1-3,2.1-4.4,3.2c-3,2.2-5.9,4.4-8.8,6.6c-1.4,1.1-2.9,2.3-4.3,3.4c-4.3,3.4-8.5,7-12.6,10.6c-5.5,4.8-10.8,9.8-16,15
				c-1.2,1.2-2.5,2.5-3.7,3.7c-0.1,0.1-0.2,0.2-0.3,0.3c-1.2,1.3-2.5,2.5-3.7,3.8c-1.3,1.3-2.5,2.7-3.8,4c-1.2,1.3-2.5,2.7-3.7,4.1
				c-1.2,1.4-2.4,2.7-3.6,4.1c-1.2,1.4-2.4,2.8-3.6,4.2c-2.4,2.8-4.7,5.6-7,8.5c-1.1,1.4-2.3,2.9-3.4,4.3c-1.1,1.4-2.2,2.9-3.3,4.4
				c-1,1.3-2,2.7-3,4.1c-0.1,0.1-0.2,0.2-0.3,0.3c-1.1,1.5-2.2,3-3.2,4.5c-1.1,1.5-2.1,3-3.1,4.5c0,0-0.1,0.1-0.1,0.1
				c-1,1.5-2.1,3-3.1,4.5c-1,1.5-2,3.1-3,4.6c-1,1.5-2,3.1-3,4.7c-1,1.6-2,3.1-2.9,4.7c-1,1.6-1.9,3.2-2.8,4.8
				c-1.9,3.2-3.7,6.4-5.5,9.7c-0.9,1.6-1.8,3.2-2.6,4.9c-0.9,1.6-1.7,3.3-2.6,4.9c-0.8,1.7-1.7,3.3-2.5,5c-0.8,1.6-1.6,3.3-2.4,4.9
				c-0.1,0.1-0.1,0.2-0.2,0.3c-0.8,1.6-1.5,3.2-2.3,4.8c0,0,0,0,0,0c-0.8,1.7-1.5,3.4-2.3,5.1c-0.8,1.7-1.5,3.4-2.2,5.1
				c-0.7,1.7-1.4,3.4-2.2,5.2c-0.7,1.7-1.4,3.5-2.1,5.2c-4.8,12.2-9,24.6-12.6,37.4c-1,3.6-2,7.3-2.9,11c0,0,0,0,0,0.1
				c-0.9,3.7-1.8,7.3-2.6,11c-0.4,1.9-0.8,3.7-1.2,5.6c-1.1,5.6-2.2,11.2-3.1,16.9c-0.3,1.9-0.6,3.8-0.9,5.7
				c-0.6,3.8-1.1,7.6-1.5,11.4l0,0c-32.9,14.9-71.1,24.9-115.7,28.7c7-167,91.7-317.7,221.5-406.2c17.2-11.7,35.1-22.3,53.8-31.7
				C304.9,375.7,317.2,370.1,329.8,365z"/>
			<ellipse class="st3" cx="494.6" cy="837.8" rx="364" ry="382.7"/>
			<path class="st0" d="M725,542.3c-71.9-50.8-161.2-74.7-253.7-60.6C273.5,512,136.4,705,165.2,913
				c13.4,97.2,60.7,180.4,127.4,238.4c-81.9-57.8-141.2-150.4-156.5-261.2c-28.7-207.9,108.3-401,306.1-431.2
				C547.6,442.9,649,476.2,725,542.3z"/>
			<path class="st4" d="M884.6,807.2c28.7,207.9-108.3,401-306.1,431.2c-105.4,16.1-206.7-17.3-282.8-83.4
				c71.9,50.8,161.3,74.7,253.7,60.6c197.8-30.2,334.9-223.3,306.1-431.2C842.1,687.2,794.8,604,728,546
				C810,603.8,869.3,696.5,884.6,807.2z"/>
		</g>
	</g>
	<g>
		<g>
			<g>
				<path class="st0" d="M638.2,686.5c-8.8-6.1-17.2-11.4-26.1-15.9l0,0c-3.5-1.8-7.1-3.4-10.8-4.9c-1.4-0.6-2.9-1.1-4.3-1.7
					c-11.4-4.1-24.2-7.1-39.9-8.8c-1.3-0.1-2.6-0.3-4-0.4c-3.5-0.3-7-0.6-10.8-0.7c-3.9-0.2-8-0.3-12.3-0.4
					c-6.3-0.1-12.5-0.1-18.7,0c-3.7,0.1-7.3,0.1-10.9,0.3c-12.7,0.4-25.2,1.3-37.4,2.5c-1.8,0.2-3.4,0.3-5,0.5
					c-2.2,0.2-4.1,0.3-5.9,0.4c-4.5,0.3-7.8,0.4-10.8,0.6c-2,0.2-3.8,0.4-5.7,0.7c-2.6,0.5-5.3,1.2-8.8,2.4
					c-0.7,0.2-1.4,0.5-2.1,0.8c-8.6,3.1-15.3,7.2-20.3,12.4c-2.7,2.8-4.7,6.3-5.9,10.4c-1.1,3.5-1.6,7.4-1.7,11.8l-0.2,15.7
					l-0.1,4.6l-4,301.3c0,0.4,0,0.8,0,1.2c0,1.4-0.1,2.8-0.1,4.2c-0.2,5.4-0.5,10.7-0.5,15.8c0,14.8,2.5,27.5,17,34.6
					c0.6,0.3,1.2,0.6,1.9,0.9c3.6,1.6,7.4,3.1,11.3,4.5c4.2,1.4,8.6,2.7,13.2,3.8c1.1,0.3,2.2,0.5,3.4,0.8c0,0,0,0,0,0
					c2.5,0.5,5,1.1,7.5,1.6c0,0,0,0,0,0c7.7,1.5,15.5,2.9,23.4,4.1c8.6,1.3,16.9,2.2,25.1,2.8c1.7,0.1,3.5,0.3,5.2,0.4
					c1.9,0.1,3.8,0.2,5.7,0.3c7.4,0.4,14,0.6,19.9,0.7c3.7,0.1,7.2,0.1,10.7,0c3.8,0,7.5-0.1,11-0.2c0,0,0,0,0,0
					c19.4-0.6,35-2.8,48.7-6.5c3.7-1,7.3-2.1,10.8-3.4l0,0c13.1-4.7,24.8-11.1,37-19.3c31.6-21.3,47.6-54.7,48.2-100.2
					c0.3-25.7-6.5-47.2-20.5-64.4c-13.2-16.2-29.5-27.7-49-34.6c-1.2-0.4-2.5-0.9-3.8-1.3c0.2-0.1,0.4-0.1,0.6-0.2
					c18.5-6.6,33.4-17.2,44.5-31.8c11.2-14.7,17-32.5,17.3-53.1C681.6,737.4,667.3,706.7,638.2,686.5z M573.3,733
					c17.6,16.2,13.8,40.7,13.6,53.1c-0.2,14.2-4.5,25-12.9,32.2c-8.4,7.2-21.7,10.7-40,10.4l-46.6-0.7l0.1-4.3l1.3-100.2
					c4.7-0.8,11.2-1.4,19.5-1.8c8.3-0.3,15.6-0.5,22-0.4c10.2,0.2,19.2,1.2,26.8,3.3C563.8,726.5,569.2,729.2,573.3,733z
					 M577.3,1009.5c-11.4,7.4-25.6,11-42.6,10.7c-8.5-0.1-17.4-0.6-26.8-1.4c-9.4-0.8-17-2.2-22.9-4.1l0-1.9l1.3-100.8l52.3,0.8
					c11.2,0.2,20.7,1.4,28.5,3.7c5.6,1.6,10.3,3.8,14.1,6.6c9.3,6.6,13.8,17.4,13.6,32.6C594.7,971.7,588.7,1002.1,577.3,1009.5z"/>
			</g>
			<path class="st0" d="M452.5,681.5c0,0,16.4-49.8-0.4-82.7c-14-27.4,62-32.6,60.8,2.1c-2.2,64.3-2,88.1-2,88.1L452.5,681.5z"/>
			<path class="st0" d="M431.1,716.5c0,0-46.3,0.8-83.6,0.2c-17.4-0.3-38.1-25.1-3-23.8c64.9,2.3,94.1-34.1,94.1-34.1L431.1,716.5z"
				/>
			<path class="st0" d="M438.8,1083.8c0,0-63.1-0.5-100.3-1.1c-17.4-0.3-31.8-39.9-8.9-38.5c64.9,3.7,104.1-19.9,104.1-19.9
				L438.8,1083.8z"/>
			<path class="st0" d="M553.6,683.1c0,0,9.7-47.2-0.4-82.7c-8.4-29.7,62-32.6,60.8,2.1c-2.2,64.3-2,88.1-2,88.1L553.6,683.1z"/>
			<path class="st0" d="M447.6,1054.7c0,0-2.1,45.8-2.6,82.7c-0.2,17.2,61.1,34.4,60.8-0.3c-0.5-64.3,0.3-88.2,0.3-88.2
				L447.6,1054.7z"/>
			<path class="st0" d="M548.6,1056.2c0,0-2.1,45.8-2.6,82.7c-0.2,17.2,61.1,34.4,60.8-0.3c-0.5-64.3,0.3-88.2,0.3-88.2
				L548.6,1056.2z"/>
		</g>
		<g>
			<g>
				<path class="st4" d="M621.7,673.3c-5.2-3.6-10.2-6.9-15.3-10c-3.5-2.1-7.1-4.1-10.8-6l0,0c-1.4-0.7-2.9-1.4-4.3-2.1
					c-11.5-5.3-24.1-9.3-39.7-11.8c-4.7-0.8-9.7-1.4-15-1.8c0,0,0,0,0,0c-7.1-0.6-14.8-1-23.1-1.2c-2.6,0-5.2-0.1-7.7-0.1
					c-3.7,0-7.3,0-10.9,0.1c-14.2,0.2-28.1,0.9-41.8,2.1c-2.2,0.2-4.4,0.4-6.6,0.6c-4.3,0.4-7.8,0.7-10.8,0.9l0,0
					c-7.4,0.5-11.6,0.5-16.4,1.4c0,0,0,0,0,0c-3.1,0.6-6.4,1.5-10.9,3.2c-8.6,3.1-15.3,7.2-20.3,12.4c-4.3,4.6-6.8,10.8-7.5,18.8
					c-0.1,1.1-0.1,2.3-0.2,3.5l-0.3,20.3l-0.1,4.5l-3.9,296.8c0,1.8-0.1,3.6-0.1,5.4l0,0c-0.3,7.8-0.7,15.4-0.2,22.3
					c0.9,12.5,4.8,23,18.7,28.9c2.9,1.3,5.9,2.5,9,3.6c6,2.1,12.3,3.9,19,5.4c0,0,0,0,0,0c0,0,0,0,0,0c2.5,0.5,5,1.1,7.5,1.6
					c0,0,0,0,0,0c1,0.2,2.1,0.4,3.1,0.6c2.6,0.5,5.2,1,7.8,1.4c4.1,0.7,8.3,1.4,12.5,2c10.4,1.5,20.5,2.6,30.3,3.2
					c1.9,0.1,3.8,0.2,5.7,0.3l0,0c3.8,0.2,7.4,0.4,10.8,0.5c3.2,0.1,6.2,0.2,9,0.2c7.7,0.1,14.9,0.1,21.7-0.2c0,0,0,0,0,0
					c3.8-0.1,7.5-0.3,11-0.6c19.3-1.3,34.7-4.4,48.6-9.3l0,0c3.7-1.3,7.3-2.8,10.9-4.4c8.9-4.1,17.4-9,26.1-14.9
					c31.6-21.3,47.6-54.7,48.2-100.2c0.3-25.7-6.5-47.2-20.5-64.4c-10.7-13.1-23.4-23.1-38.2-30.2c-1.1-0.5-2.1-1-3.2-1.5
					c-3.7-1.6-7.5-3-11.4-4.3c18.8-6.6,33.8-17.3,45.1-32c11.3-14.7,17-32.5,17.3-53.1C665,724.2,650.8,693.5,621.7,673.3z
					 M560.8,996.3c-11.4,7.4-25.6,11-42.6,10.7c-8.5-0.1-17.4-0.6-26.8-1.4c-4.4-0.4-8.4-0.9-12.1-1.5c-4.1-0.7-7.7-1.6-10.8-2.6
					l1.4-102.7l52.3,0.8c17,0.3,30.1,3,39.3,8.2c1.2,0.7,2.3,1.4,3.3,2.1c9.3,6.6,13.8,17.4,13.6,32.6
					C578.2,958.5,572.2,988.9,560.8,996.3z M517.6,815.5l-35.7-0.5l-10.9-0.2l1.4-104.5c4.7-0.8,11.2-1.4,19.5-1.8
					c8.3-0.3,15.6-0.5,22-0.4c15.7,0.2,28.6,2.5,37.6,7.8c2,1.2,3.7,2.5,5.3,3.9c17.6,16.2,13.8,40.7,13.6,53.1
					c-0.2,14.2-4.5,25-12.9,32.2C549.2,812.3,535.9,815.7,517.6,815.5z"/>
			</g>
			<path class="st4" d="M436,668.3c0,0-0.9-45.8-0.4-82.7c0.2-17.2,61.9-32.6,60.8,2.1c-2.2,64.3-2,88.1-2,88.1L436,668.3z"/>
			<path class="st4" d="M414.6,703.3c0,0-46.3,0.8-83.6,0.2c-17.4-0.3-33-61.4,2-60.2c64.9,2.3,89.1,2.2,89.1,2.2L414.6,703.3z"/>
			<path class="st4" d="M417.2,1011l0.8,9.4l4.3,50.2c0,0,0,0,0,0c-0.2,0-2.3,0-5.8-0.1c-15.7-0.3-60.1-1-90.4-1.5
				c-2.4,0-4.7-1.2-6.9-3.2c-8.7-7.9-14.9-28.7-10.8-42.9c2.4-8.4,8.4-14.5,19.7-14.1c5,0.2,9.7,0.3,14.2,0.5
				c13.1,0.4,24.2,0.8,33.6,1c4,0.1,7.6,0.2,10.9,0.3C408.3,1011,417.2,1011,417.2,1011z"/>
			<path class="st4" d="M537,669.9c0,0-0.9-45.8-0.4-82.7c0.2-17.2,62-32.6,60.8,2.1c-2.2,64.3-2,88.1-2,88.1L537,669.9z"/>
			<path class="st4" d="M431,1041.5c0,0-2.1,45.8-2.6,82.7c-0.2,17.2,61.1,34.4,60.8-0.3c-0.5-64.3,0.3-88.2,0.3-88.2L431,1041.5z"
				/>
			<path class="st4" d="M532.1,1043c0,0-2.1,45.8-2.6,82.7c-0.2,17.2,61.1,34.4,60.8-0.3c-0.5-64.3,0.3-88.2,0.3-88.2L532.1,1043z"
				/>
		</g>
	</g>
</g>
<g>
	<g>
		<path class="st5" d="M362.5,368.7c-42.6-0.7,226,23.7,224.2-31L468,358C462.2,358.9,366.8,365.6,362.5,368.7z"/>
		<g>
			<path class="st6" d="M398.4,588.7c-6-9.2-17.8-34.1-17.8-34.1l26.4-13.5l17.5,37.5l-11.8,20L398.4,588.7z"/>
			<path class="st7" d="M394.2,585.6c-3.1,0.8-0.5,2.7,0.7,7.2c2.8,10.3-31.7,28.6-36.5,32.1c-2.5,1.8,0.8,17.5,14.2,10.4
				c11.6-6.1,48.8-25.4,61.5-32.1c2.6-1.4,4-4.3,3.2-7.1c-2.7-10-11.1-23.3-14.8-21.7C416.2,575.5,407.1,582.3,394.2,585.6z"/>
		</g>
		<g>
			<path class="st6" d="M467.9,519.7c-8.8-6.8-28.6-26.6-28.6-26.6l20.3-21.1l29.4,29.9l-4.2,22.6L467.9,519.7z"/>
			<path class="st7" d="M462.9,518.1c-2.7,1.7,0.4,2.7,3.2,6.6c6.2,8.8-20.1,36.9-23.4,41.7c-1.7,2.5,6.8,16.2,17,5.4
				c8.9-9.4,37.4-39.3,47-49.6c2-2.2,2.3-5.3,0.6-7.7c-6-8.6-18.5-18.5-21.5-15.9C480.2,501.6,474,510.8,462.9,518.1z"/>
			<path class="st8" d="M564.1,271.1c-102.7,1.9-230.6,7.1-244,33.5c-17,33.5,116.8,224.2,131.8,210.8c15-13.4,38.7-25.1,31.7-33.5
				c-7-8.4-129.2-146.1-103.6-148.5c25.6-2.3,172.8,3.5,181.8-3.2C570.7,323.4,564.1,271.1,564.1,271.1z"/>
			<path class="st9" d="M564.1,271.1c-102.7,1.9-230.6,7.1-244,33.5c-17,33.5,116.8,224.2,131.8,210.8c15-13.4,38.7-25.1,31.7-33.5
				c-7-8.4-129.2-146.1-103.6-148.5c25.6-2.3,172.8,3.5,181.8-3.2C570.7,323.4,564.1,271.1,564.1,271.1z"/>
		</g>
		<path class="st8" d="M589.2,271.8c5.3,16.5,11.8,46.9-2.5,65.8c-7.8,10.3-21.6,17.1-45.2,16.5c-37-1.1-196.4,15.8-194.2,23.5
			c2.2,7.7,78.5,178.1,73.3,187.1c-5.2,9.1-40,22.7-44.3,13.6c-4.3-9.1-100.3-202.3-78.8-233.1c18.2-25.9,194.9-52.7,211-63.4
			C524.7,271.2,589.2,271.8,589.2,271.8z"/>
		<g>
			<path class="st8" d="M195.3,271.6c-0.5,5.7-2.4,16.2,1.5,20.2c3.9,4,57.9,48.1,76.7,51.9c22.2,4.5,92.6-22.5,94-23
				c3.8-1.3,6.6-26.1,1.9-39.9c-4-12-12.4-22.9-13.5-24.4c-1.1-1.5-33.6,19.2-33.6,19.2l-12.3,44.7L195.3,271.6z"/>
			<path class="st10" d="M349.8,248.8c27.6,29.5,19.4,66.9,15.3,68.3c-46.9,15.7-70.7,22.8-83,22.3c-12.3-0.5-86-39.4-87.3-60.2
				c-1-16.4,19-62,19-62s50.5,51,64.8,46C292.8,258.1,344,242.6,349.8,248.8z"/>
			<path class="st6" d="M216,225.2c-5.1,12.3-18.7,48.9-15.7,55c9,18.3,68.3,52.2,68.8,47.8c0.5-4.4,4.3-60.3,0.4-61.6
				C257.7,262.4,216,225.2,216,225.2z"/>
			<path class="st8" d="M280.2,267.7c1.5,22.4-1.9,58.4,1.9,60.6c3.8,2.1,53.5-7.6,55.1-12.1c1.6-4.4-7.2-57.7-9.2-58.5
				C326,257,280.2,267.7,280.2,267.7z"/>
			<path class="st8" d="M337,275.2c2.4,11.5,2.9,21.2,6.4,22c3.4,0.9,19.2-2.1,19.9-4.1c0.8-1.9-2.9-21.1-8-25.9
				C353.1,265.3,335,265.8,337,275.2z"/>
		</g>
		<path class="st11" d="M341.3,251.7c-7.3,2.6-3.4,0.6-12.4,5.4c-8.7,4.6-19,5.3-28,5.4c-7.4,0.1-21.3,10.1-24.2,20
			c-2.6,8.9,16-0.4,21.6-0.6c21.8-0.8,8.2,7.7,14.3,10.9c6.1,3.2,2.5-7.7,18.3-14c9.5-3.8,14.6-2.7,17.9-5.5
			C352.3,270.5,341.3,251.7,341.3,251.7z"/>
		<path class="st12" d="M432.8,217.7c-7.3,14.2-107.9,35.5-111.4,38c-2.7,1.8,9.7,27.1,19.1,26.3c7.7-0.7,137.7-29,135.9-57.9
			c-1.4-21.7,21-114.5,21-114.5s-48.6-22.3-44.9-0.2C453.3,114.8,436.4,210.8,432.8,217.7z"/>
		<path class="st11" d="M477.8,113.8l26.7-11.7c-2.4-11-9.2-30.6-13.3-40c-4.6-10.3-12.8-15.6-12.8-15.6l-3.5,11.7l-11.3,6.5
			c0,0,1.1,0,2.3,3c2.1,5,5.7,20.9-1.1,30.1C460.6,103.6,477.8,113.8,477.8,113.8z"/>
		<path class="st13" d="M466.2,68.2c2,5.7,2.5,10.4,2.6,15.9c17.1,3.4,19.8-12.9,14.1-20.8c-2.1-3-8.1-5.1-8.1-5.1
			S462.4,57.3,466.2,68.2z"/>
		<path class="st9" d="M432.8,217.7c-7.3,14.2-107.9,35.5-111.4,38c-2.7,1.8,9.7,27.1,19.1,26.3c7.7-0.7,137.7-29,135.9-57.9
			c-1.4-21.7,21-114.5,21-114.5s-48.6-22.3-44.9-0.2C453.3,114.8,436.4,210.8,432.8,217.7z"/>
		<g>
			<path class="st11" d="M436.5,46.3c3.4,7.7,2.9,26,8.1,23.4c5.2-2.6,7.2,16.3,12.8,13.7c13.6-6.2,24.6-22,22.9-29.1
				c-1.7-7.1-12.2-24-12.2-24L436.5,46.3z"/>
			<path class="st14" d="M454.2,46.6c-4,2.6-3.6,3.6-7.3,3.7c-3.7,0.1-0.8-6.4-6.8-4.5c-6,1.9-12.2,4.5-16.2-1.2
				c-5.7-8.4,3.2-11,8.8-12.5c3.6-0.9,0.7-8.1,7.3-11c5.2-2.3,6.1,0.8,10.9-1c2.8-1.1,5.8-8,11.8-7c11.1,1.9,8.4,12.3,18.4,15.3
				c11.6,3.5,2.4,27.7-0.6,26.9c-3.6-1-4.2-10.3-7.6-10.8c-5.1-0.8-3.9,2.4-5.5,6.6c-1.6,4.6-7.6,7.7-6.8,0.1
				C461.3,43.5,457.8,44.2,454.2,46.6z"/>
		</g>
		<path class="st6" d="M498.4,74.7c-10.9-0.8-14.3,17-22.6,19.3c-5,1.4-6.7-7.5-7.1-8.6c-2.2,1.9-3.6,3.7-4.5,6.1
			c-23.3,60.6,26.8,177.8,26.8,177.8s27.6,14.4,79.5,6.6c31.6-4.7,5.9-30.2,3.4-37.1c-2.5-6.9-48.9-142.8-48.9-142.8
			S516.7,85.4,498.4,74.7z"/>
		<path class="st15" d="M648.1,317c-21,24.5-76.7,4.2-90.9-5.6c-13.5-9.3-6-33.9-14.5-56.2c-1.4-3.8-3.1-7.7-5.2-11.9
			c-0.3-0.6-0.6-1.2-0.9-1.7c-0.3-0.5-0.5-1-0.8-1.5c-0.2-0.5-0.5-0.9-0.7-1.4c-0.4-0.7-0.7-1.3-1.1-2c-0.4-0.7-0.8-1.3-1.2-2
			c-0.3-0.5-0.6-0.9-0.9-1.4l0,0c-8-12.7-23.7-31.6-30.7-47.5c-0.6-1.4-1.2-2.8-1.7-4.2c-0.1-0.3-0.2-0.6-0.3-0.9
			c-0.1-0.3-0.2-0.6-0.3-0.9c-0.3-1.1-0.6-2.2-0.9-3.3c-0.1-0.3-0.1-0.6-0.2-0.9c-2.6-10.6-3.6-22.2-3.7-33.6c0,0,0-0.1,0-0.1
			c0-3.8,0-7.7,0.2-11.4c1-25.7,5.4-48.6,4.5-55.5c0,0,8.9,1.4,33,18c10.1,7,28.6,28.7,33.3,46.7c1.5,5.9,3,11.6,4.3,17.1
			c5.1,20.9,9.2,39.1,15.2,52.6c7.7,17.6,18,40.8,36.2,59.4c5.3,5.4,11.8,10.4,18.3,14.9c0.1,0.1,0.1,0.1,0.2,0.1
			C656.7,295.8,654.1,310,648.1,317z"/>
		<path class="st15" d="M453,161.5c3.3,9,8.7,26.4,12.1,38.5c4.1,15.1,4.3,24.7,4.9,30.7c1.3,13.6,4.9,31,12.8,43
			c8.5,12.8,13.4,8.7,18.5,1.8c8.7-11.9-1.1-36.9-12.8-71.5c-11.1-32.9-23.9-51.2-26.2-79.8c-1.7-21.6,6.5-38.7,6.5-38.7
			C435.9,104,451.1,156.4,453,161.5z"/>
		<path class="st11" d="M380.3,270.9c-7.3,2.6-4.2-1.3-13.2,3.5c-8.7,4.6-18.8,7.6-27,10c-7.1,2.1-21.5,7.4-24.3,17.3
			c-2.6,8.9,16-0.7,21.6-0.6c15.3,0,2.1,4.5,8.2,7.7s8.6-4.5,24.4-10.8c9.5-3.8,14.6-2.7,17.9-5.5
			C391.3,289.7,380.3,270.9,380.3,270.9z"/>
		<path class="st9" d="M546.3,265.5c-1.4-3.8-6.7-18-8.7-22.2c-0.3-0.6-0.6-1.2-0.9-1.7c-0.3-0.5-0.5-1-0.8-1.5
			c-0.2-0.5-0.5-0.9-0.7-1.4c-0.4-0.7-0.7-1.3-1.1-2c-0.4-0.7-0.8-1.3-1.2-2c-0.3-0.5-0.6-0.9-0.9-1.4l0,0
			c-8-12.7-23.7-31.6-30.7-47.5l-0.3-12.4l28.6-17.9C543,191.1,549.2,265.9,546.3,265.5z"/>
		<path class="st9" d="M453,161.5c3.3,9,8.7,26.4,12.1,38.5c4.1,15.1,4.3,24.7,4.9,30.7c1.3,13.6,4.9,31,12.8,43
			c8.5,12.8,13.4,8.7,18.5,1.8c8.7-11.9-1.1-36.9-12.8-71.5c-11.1-32.9-23.9-51.2-26.2-79.8c-1.7-21.6,6.5-38.7,6.5-38.7
			C435.9,104,451.1,156.4,453,161.5z"/>
		<path class="st12" d="M463.6,223c-6.1,14.7-102.6,47.5-105.9,50.2c-2.5,2,11.9,26.3,21.2,24.7c7.6-1.3,102-14.9,120.5-52.6
			c9.7-19.7,33-99.7,42.9-123.1c9.9-23.4-46.1-26.7-44.7-4.4C497.9,123.5,466.6,215.8,463.6,223z"/>
		<g>
			<path class="st16" d="M477.7,95.9c0.9-0.7,11.9,17.3,25.3,22.5c3.7,1.4,7.6,2.3,11.7,2.2c11.8-0.3,39.2-3.3,39.2-3.3
				s-6.4-8.9-10.1-14.9c-7.8-3.5-22.6,6.5-28.8,6.3c-4.6-0.1-9-1.1-13.1-2.5c-7.7-2.7-14.5-7-19.6-10.8c-2.6-1.9-3.2-5.2-6.2-5.1
				C472.3,90.6,476.5,96.8,477.7,95.9z"/>
			<path class="st17" d="M471.4,92.6c0-1.9,1-5,5-5.1c3-0.1,3.3,1.1,5.9,3c7.9,5.8,19.5,12.9,32.7,13.3c13.2,0.4,41.6-19,61.3-16.3
				c19.6,2.7,26.9,19.6,55.1,21.9c28.2,2.3,57.3-11.8,65.6-11c8.3,0.8,13.5,2.2,13.5,5.5c0,3.3-3.6,9-9.2,11.7
				c-5.6,2.8-56.2,10.1-69.8,9.4c-22.2-1.3-42.6-19.6-56.8-19.8c-14.2-0.2-43.4,10.2-60,10.6c-18.6,0.4-35.3-20-36.4-19.1
				c-1.2,0.9-2.2,1.8-4.6,1.4C471.9,97.7,471.5,94.4,471.4,92.6z"/>
		</g>
	</g>
	<path class="st18" d="M241,306.5l3.7-8.2l-6-10l10.5-5.7l-14.5-14.7c0,0,9.5-1.5,9.5-3.5c0-2-15.9-20.4-15.9-20.4"/>
</g>
</svg>
