<?xml version="1.0" encoding="utf-8"?>
<!-- Generator: Adobe Illustrator 26.1.0, SVG Export Plug-In . SVG Version: 6.00 Build 0)  -->
<svg version="1.1" id="Layer_1" xmlns="http://www.w3.org/2000/svg" xmlns:xlink="http://www.w3.org/1999/xlink" x="0px" y="0px"
	 viewBox="0 0 572.4 2024.9" style="enable-background:new 0 0 572.4 2024.9;" xml:space="preserve">
<style type="text/css">
	.st0{fill:#98D4E2;}
	.st1{opacity:0.46;fill:#1F1F39;enable-background:new    ;}
	.st2{fill:#3B3B4C;}
	.st3{fill:#FFFFFF;}
	.st4{fill:#1785BC;}
	.st5{fill:#F4AD00;}
	.st6{opacity:0.16;fill:#1F1F39;}
	.st7{fill:#E84E1B;}
	.st8{opacity:0.28;fill:#1F1F39;}
	.st9{opacity:0.9;}
	.st10{fill:none;stroke:#FFFFFF;stroke-width:10.128;stroke-linecap:round;stroke-miterlimit:10;}
	.st11{fill:#1F1F39;}
	.st12{fill:#5C5C68;}
	.st13{fill:#EFAEA6;}
	.st14{opacity:0.14;fill:#1F1F39;}
	.st15{opacity:0.46;fill:#1F1F39;}
	.st16{opacity:0.21;fill:#1F1F39;}
	.st17{fill:#0267A4;}
	.st18{opacity:9.000000e-02;fill:#1F1F39;}
	.st19{fill:#0069A8;}
	.st20{opacity:0.24;fill:#1F1F39;}
	.st21{opacity:0.55;fill:#1F1F39;}
	.st22{opacity:0.18;fill:#1F1F39;}
	.st23{opacity:0.7;}
	.st24{fill:#EED6C1;}
	.st25{fill:#703B10;}
	.st26{fill:#EAEAEA;}
	.st27{fill:#EFA88F;}
	.st28{opacity:0.14;fill:#1F1F3B;}
	.st29{fill:#D3D3D3;}
	.st30{opacity:0.24;fill:#1F1F3B;}
	.st31{fill:#FFA800;}
</style>
<path class="st0" d="M240.4,361.3c15.6,0.4,32.8,1.5,47.2,4.7c25.4,4.7,55.1,20.7,63.5,62.4c31.8,99.4,101.4,10.3,98.2,226.5
	c0.6,23.2,14.2,55.5,3.6,122.2c-6.1,38-9.5,107.4,0,165.7c18.5,114.1,9.4,170.7-1.1,291.5c-4.2,47.8-9.3,110.8-9.5,132.4
	c-0.3,21.6-24.9,175.3-97.2,197.6c-57.2,32.4-71.5-17.6-112.4-59.8c-40.9-42.1-93.7-16.8-115.2-53.3
	c-41.7-70.7-13.6-157.7-43.6-181.4c-30-23.7-29.7-117.7-14.1-168.7c15.6-51,28.7-106.9,17.9-192.1c-10.8-85.2-27.8-181.9,8.3-255
	c36.1-73.1,38.7-25.1,60.8-70.9C168.9,537.4,184.7,359.9,240.4,361.3z"/>
<g>
	<g>
		<g>
			<path class="st1" d="M565,252.8C565,252.8,565,252.8,565,252.8c0.1,0,0.1,0,0.1-0.1C565.1,252.7,565,252.8,565,252.8z"/>
			<path class="st2" d="M284.6,367.5c-14.7,6.9-22,10.8-24.2,12c-12.9,7.2,9.3,39,16.9,35.4c12.1-5.8,33.5-16.8,33.5-16.8
				L284.6,367.5z"/>
			<path class="st3" d="M532.3,284.2c-9.2,15.2-23.3,32.7-41.3,48.8c-3,2.7-6.1,5.3-9.3,7.9c-8.3,6.7-17.3,12.9-26.9,18.5
				c-7.5,4.4-15.4,8.5-23.3,12.5c-4.7,2.4-9.5,4.7-14.3,6.9c-41.5,19.3-82.8,33-96.2,38.7c-5.1,2.2-11.1,0.2-17.1-4.1
				c-18.6-13.6-36.5-50.9-23.8-59.4c4.4-3,18.3-16.4,36.3-32.6c5.1-4.6,10.6-9.5,16.3-14.4c21-18.1,44.9-37,65.5-47.8
				c13.7-7.2,29.8-12.4,46.1-16.1c45.4-10,93.1-7.1,99.3,4.3C546.7,253.4,542.5,267.4,532.3,284.2z"/>
			<path class="st4" d="M364.1,405.5c-1.6,2.1-3.1,4.2-4.7,6.3c-18.2,25-35.5,53.1-48,44.6c-5.1-3.4-6.6-10.2-6.6-17.2
				c0.1-7.2,1.8-14.6,3.1-19.4c0.4-1.4,0.7-2.5,1-3.4c0.2-0.7,0.4-1.2,0.5-1.4c0-0.1,0.1-0.2,0.1-0.2s0.1,0,0.3-0.1
				c4.1-1.9,56.2-26,57.4-20.9c0,0,0,0,0,0c0.5,2.1,0.1,4.3-0.5,6.3C365.7,403.2,364.1,405.5,364.1,405.5z"/>
			<path class="st4" d="M337.6,363.3c0,0-41.3,50.3-53.7,54.9c-12.4,4.6-4.1-23.3,3.2-28.2C294.4,385,346.2,353.1,337.6,363.3z"/>
			<path class="st4" d="M279.2,358.1c-1.2,0.6-2.5,1.1-3.9,1.3c-13.8,2.3-35.9-13.5-30.7-21.5c5.8-8.8,38.6-11.1,68.9-14.7
				c4-0.5,6.4-0.2,7.6,0.5C328.6,328.3,290.3,352.2,279.2,358.1z"/>
			<path class="st4" d="M491,333c-36.1-17.2-47.3-65.8-46.9-89.8c45.4-10,93.1-7.1,99.3,4.3C549.5,258.7,529,299.1,491,333z"/>
			<path class="st5" d="M246.8,399.8c-23.3,4.6-46.2,8.3-65.9,16.3c-19.7,8-48.5-22.2-44.6-12.6c3.9,9.6,15.1,19.6,10.6,21.7
				c-4.5,2-48.4-11-41.2-1.4c7.2,9.6,34.5,22.8,16,23.8c-18.5,1-75.6,55.7-47.9,54.2c9.5-0.5,42,28.9,83.7,0.7
				c41.8-28.2,49.1-32.7,47.4-24.9c-1.7,7.8,4.4,28.7,15.1-4.3c10.7-33,26-56.7,25.9-44.9c-0.1,11.8,6.5,2.3,10.3-9.5
				C258.8,410.8,254.6,398.2,246.8,399.8z"/>
			<path class="st6" d="M532.3,284.2c-9.2,15.2-23.3,32.7-41.3,48.8c-3,2.7-6.1,5.3-9.3,7.9c-8.3,6.7-17.3,12.9-26.9,18.5
				C403.7,388.9,338.6,410,321,417.4c-5.1,2.2-11.1,0.2-17.1-4.1C330.8,401,480.7,333,532.3,284.2z"/>
			<path class="st7" d="M212.2,421.9c-8.8,2.2-21.2,6.3-27.5,5c-12.4-2.4-4.8,5.5-1.1,7.5c3.7,2.1-45.8,2.1-37.1,7.8
				c4.1,2.7,8.2,1.3-4.7,9.5c-21.4,13.7-33.6,26.3-19.9,25.9c13.7-0.4,40.1,7.1,58.3-8.5c18.2-15.6,35.1-29.9,33.4-24.3
				c-1.7,5.6-3.9,10.6,5,0.1c9-10.5,23.2-28.4,12.9-29.7C221.2,414.2,217,420.7,212.2,421.9z"/>
			<path class="st8" d="M367.2,393.8c-15.3,7.4-48.3,22.3-59.2,25.9c0.7-2.5,1.3-4.2,1.5-4.8c0.1-0.1,0.2-0.2,0.3-0.3
				C313.8,412.8,366,388.7,367.2,393.8C367.2,393.8,367.2,393.8,367.2,393.8z"/>
			<path class="st6" d="M359.5,411.8c-18.2,25-35.5,53.1-48,44.6c-5.1-3.4-6.6-10.2-6.6-17.2c3.3,0.3,7.1,0.7,11.2,1.2
				C328.6,441.8,341,426.1,359.5,411.8z"/>
			<path class="st6" d="M279.2,358.1c-1.2,0.6-2.5,1.1-3.9,1.3c9.1-10,28.8-25.9,45.9-35.6C328.6,328.3,290.3,352.2,279.2,358.1z"/>
			<g class="st9">
				<path class="st10" d="M516.3,252.3c5-0.9,13.6,1.6,13.4,3.4"/>
				<path class="st10" d="M458.3,258.1c11.1-3.6,35.2-7.9,45-6.6"/>
			</g>
			<path class="st3" d="M71.4,528.9c-2.3-3.1-8.3-1.8-6.9,4.9c1.4,6.7-2.5,7.5-3.6,8.4c-1.2,0.9-5.5,5-0.4,7.2
				c5.1,2.2,15.9-4.2,20.1-1.3c4.2,2.8,8.8,0.1,7.8-4.6s-4.6-6.2-2-10.2c2.5-4-2.8-14.5-6.2-10.5C76.8,526.8,74.5,533.2,71.4,528.9z
				"/>
			<path class="st3" d="M21.3,546.1c-2.3,0.6-2.9,6.4,1.3,5.2c3.4-0.9,6,0,6.3,0.8c1,3.1,4.4,1.9,4.7-1.2c0.3-3.5,0.8-5.9,3.5-7.8
				c2.6-1.8,2.1-5.1-0.9-5.7c-3-0.5-7.1,3.2-8.8,0.8c-1.7-2.4-7.6,1.2-6.1,4.1C22.8,545.4,21.3,546.1,21.3,546.1z"/>
			
				<ellipse transform="matrix(0.8737 -0.4865 0.4865 0.8737 -99.1708 240.6693)" class="st11" cx="413.9" cy="311.3" rx="36.4" ry="31.5"/>
			<path class="st12" d="M437.9,314.3c-0.2,0.8-0.5,1.5-0.7,2.2c-1.7,4.5-4.9,8.7-9.1,11.9c-1.1,0.8-2.2,1.5-3.4,2.2
				c-12.4,6.9-27.2,3.8-33.2-6.9c-3.3-5.9-3.2-12.9-0.3-19.1c2.3-5.1,6.4-9.6,11.9-12.7c11.3-6.3,24.6-4.3,31.4,4.2
				c0.7,0.8,1.3,1.7,1.8,2.7C438.9,303.6,439.4,309.1,437.9,314.3z"/>
		</g>
		<g>
			<path class="st13" d="M430.7,195.2c7.5-2.4,27.2-13.6,27.7-10.8c0.5,2.8-9.6,4.7-8.9,7.5c0.7,2.8,2.4,6.7-0.6,7.8
				c-3,1.1-5.8-1.1-11.6,2.8C431.6,206.2,430.7,195.2,430.7,195.2z"/>
			<g>
				<path class="st13" d="M343.4,218.2c-5.2-3.6-4-10.3-4-10.3c0.3-4.9,9-8.1,5.3-15.1c-2.4-4.6,5.3-3.3,5.3-3.3l4.5,8l2.1,3.8
					c0,0-1.4,1.6-2.4,5c-0.7,2.4-1.5,1.4-1.1,5.7C353.4,215.2,347.9,215.9,343.4,218.2z"/>
				<path class="st14" d="M356.6,201.2c0,0-1.5,2.1-2.5,5.6c-7.7-0.7-8.6-7.4-6.1-8.3c1.6-0.5,6.5-1.1,6.5-1.1L356.6,201.2z"/>
			</g>
			<g>
				<g>
					<path class="st13" d="M362.6,185c0.4,3.8,4.7,11,2.1,11c-2.6,0.1,0.9,8-1.9,8.2c-6.6,0.4-14.3-3.6-15.3-6.8
						c-0.9-3.2-0.7-12.1-0.7-12.1L362.6,185z"/>
					<path class="st11" d="M355.9,188.8c2.1,0.2,2.2,0.7,3.6-0.1c1.4-0.7-1.1-2.7,1.6-3.2c2.7-0.5,5.7-0.8,5.9-3.9
						c0.3-4.5-3.7-3.7-6.2-3.1c-1.6,0.4-2.1-3.1-5.2-2.8c-2.5,0.2-2.2,1.6-4.4,1.9c-1.3,0.2-4-2-6.1-0.3c-3.8,3.1-0.5,6.7-3.6,10
						c-3.7,3.8,5.3,11.6,6.2,10.6c1.2-1.2-0.7-5,0.5-5.9c1.8-1.4,2,0.1,3.6,1.5c1.7,1.5,4.6,1.5,2.6-1.4
						C352.5,189.1,354,188.7,355.9,188.8z"/>
				</g>
			</g>
			<path class="st15" d="M322.8,315.4C322.8,315.4,322.8,315.4,322.8,315.4c0.1-0.1,0.1-0.1,0.1-0.1
				C322.9,315.3,322.8,315.4,322.8,315.4z"/>
			<path class="st16" d="M426,374.9c-3.9,1.9-8.2,3.3-12.1,5.1c-9.6-17.4-29.2-50.8-32-52.5c-4.9-3-51.2-7.6-60.9-11.3
				c4.2-3.8,8.6-7.7,13.3-11.7l54.3,6.2l24.2,35C411.6,346.3,423.9,368.5,426,374.9z"/>
			<g>
				<path class="st13" d="M439.8,391.7c-1.1-4.8-5.4-16.5-5.4-16.5l-12.5,3.7l6.6,17.6l10.1,2.9L439.8,391.7z"/>
				<path class="st11" d="M440.1,389.4c1.2-0.7,1,0.7,2.1,2.6c2.4,4.2,19-0.4,21.6-0.7c1.3-0.2,5.3,5.9-1.1,7.7
					c-5.6,1.6-23.3,6.6-29.4,8.3c-1.3,0.3-2.6-0.2-3.3-1.3c-2.4-4.1-4-11-2.4-11.6C430,392.9,435,392.3,440.1,389.4z"/>
			</g>
			<path class="st2" d="M350,274.8c8.8-0.9,22.3-10.1,37.6-9.6c-7.6,4.9-15.6,12.1-20.5,15.5c-3.9,2.8-10.9,10.2-12.3,10.6
				c-20.5,6.5-25.3,3.4-25.3,3.4c17.8-10,56.2-2.5,74.8,12c18.7,14.4,36.3,75.1,36.3,75.1c-7.9,6.9-16.8,10.6-18.6,9.5
				c-5.9-10.8-28.5-62.5-38.6-68.7c-10-6.2-89.7,0.2-81.2-33.1c0.7-2.9,19-13.2,28.1-14.4C349.4,272.5,350,274.8,350,274.8z"/>
			<path class="st2" d="M428.1,389.4c3-0.8,7.5-3.2,12.6-7.6c0,0-12.6-35.9-28.4-60.5C421.9,355.4,430.6,388.4,428.1,389.4z"/>
			<path class="st3" d="M339.6,205.7c4.3-0.4,5.6,8.1,8.9,9c2,0.5,1-1.5,1.9-2.4c2.4-2.5,2-3.1,2.9-1.8c15.2,23.8-9.6,70.5-9.6,70.5
				s-19.1-2.8-27.2,0.5c-12.9,5.3-13.2-5.8-12.2-8.7c4.1-11,24.7-58,24.7-58S332.3,210.2,339.6,205.7z"/>
			<path class="st17" d="M439.8,204c-18.9,8-26.6,13.5-33.3,16c-3.1,1.2-8.8,3.4-14.6,5.8c-8.2,3.4-18.7,4.7-21.1,6.2
				c-4.3,2.7-10.5,28.1-11,33.8c-0.4,5.7,9.8,6.1-3.2,14.5c-5.3,3.4-14.2,5.8-16.3,2.9c-3.6-4.9,3.5-7.8,8-22.3
				c4.2-13.8,5.2-22.7,5.9-34.7c0.6-9.1-1.5-16.3-1.5-16.3c31.5,0.5,38.1-0.2,48.5-3.7c10.4-3.4,32.6-15,35.8-15.4
				C439.5,190.4,439.4,198.7,439.8,204z"/>
			<path class="st18" d="M439.8,204c-18.9,8-26.6,13.5-33.3,16c-3.1,1.2-8.8,3.4-14.6,5.8c-8.2,3.4-18.7,4.7-21.1,6.2
				c-4.3,2.7-10.5,28.1-11,33.8c-0.4,5.7,9.8,6.1-3.2,14.5c-5.3,3.4-14.2,5.8-16.3,2.9c-3.6-4.9,3.5-7.8,8-22.3
				c4.2-13.8,5.2-22.7,5.9-34.7c0.6-9.1-1.5-16.3-1.5-16.3c31.5,0.5,38.1-0.2,48.5-3.7c10.4-3.4,32.6-15,35.8-15.4
				C439.5,190.4,439.4,198.7,439.8,204z"/>
			<path class="st19" d="M339.9,249.6c-2.1,7.7-10.6,18.1-13.6,24c-7.1,13.6-5.2,22.8-11.9,27.8c-5.6,4.2-21.4,11.2-29.9,1.1
				c-3.3-4,1.7-7.6,9.5-16.1c7.2-7.9,8.9-16.5,11.9-23.9c2.9-7.2,4.6-17.4,7.4-29.2c1.8-7.5,9-16.7,13-19.7
				c9.5-7.1,13.1-7.7,13.1-7.7C338.9,210.5,344.3,233.2,339.9,249.6z"/>
			<path class="st20" d="M324.9,276.3c0.4-0.9,0.9-1.8,1.4-2.8c3.1-5.9,11.6-16.3,13.6-24c0.8-2.8,1.4-8.7,1.7-11.7l-18-3.5
				C327.7,246.5,325.9,269.7,324.9,276.3z"/>
			<path class="st21" d="M356.4,290.4c-1.8-0.2-5.5-0.8-5.5-0.8s-0.2,0.2,2.3-1.4c1.8-0.8,8.4-6.7,14.5-7.9
				C361.6,284.6,358.1,288.8,356.4,290.4z"/>
			<g>
				<path class="st13" d="M412.6,256.6c6.7-4.3,8.4-3.8,12.1-4.8c3.7-1,11.3-2.1,11.5,5.5c0.1,3.4-0.5,5.3-4.2,6s-7-3.1-13.3-0.9
					C412.5,264.7,412.6,256.6,412.6,256.6z"/>
				<path class="st19" d="M333.7,221.2c26.8,25.5,32.7,22.8,37.5,24.2c4.8,1.4,46.1,3.4,47.6,4.6c3.6,3,2,10.9,2.9,12.8
					c1.4,2.9-39.1,0-51.7-1.2c-13.4-1.2-41-19.4-41-19.4s-14.8-7.5-9.9-15.9C324,217.9,333.7,221.2,333.7,221.2z"/>
			</g>
			<path class="st22" d="M348.7,217.6c-0.4-0.3-2.9,9-10.3,11.6c-4.4,1.5-18,1.2-23.8,0.4c1-2.1,2.8-5.3,5.3-9
				c4.2,1.4,12,3.1,14.5,2.9c1.8-0.2,3.5-0.6,5.1-1.3c3-1.2,5.5-3.1,7.5-4.7c1-0.8,1.2-2.1,2.3-2.1
				C350.7,215.4,349.2,217.9,348.7,217.6z"/>
			<path class="st5" d="M351.1,216c0-0.9-0.6-2.4-2.5-2.3c-1.4,0-1.6,0.6-2.8,1.6c-3.6,3-9,6.7-15.4,7.3c-6.3,0.6-20.5-8-29.9-6.2
				c-9.4,1.8-12.4,10.1-25.9,12c-13.5,1.9-27.9-4.1-31.9-3.5c-4,0.6-6.4,1.4-6.3,3c0.1,1.6,2,4.2,4.8,5.4c2.8,1.2,27.3,3.4,33.8,2.6
				c10.6-1.2,19.9-10.6,26.8-11c6.8-0.5,21.1,3.8,29.1,3.5c8.9-0.3,16.4-10.5,17-10.1c0.6,0.4,1.1,0.8,2.3,0.5
				C351,218.5,351.1,216.9,351.1,216z"/>
		</g>
	</g>
	<g class="st23">
		<g>
			<line class="st24" x1="123.7" y1="365.1" x2="256.6" y2="300.5"/>
			<path class="st25" d="M257.7,299.7c0.1,0.1,0.1,0.2,0.1,0.3c0.2,0.6-0.2,1.3-0.9,1.7L124,366.1c-0.7,0.3-1.4,0.1-1.6-0.4
				c-0.2-0.6,0.2-1.3,0.9-1.7l132.9-64.5C256.9,299.2,257.4,299.3,257.7,299.7z"/>
		</g>
		<g>
			<line class="st24" x1="189.7" y1="342.2" x2="239.5" y2="318"/>
			<path class="st25" d="M240.6,317.1c0.1,0.1,0.1,0.2,0.1,0.3c0.2,0.6-0.2,1.3-0.9,1.7L190,343.2c-0.7,0.3-1.4,0.1-1.6-0.4
				c-0.2-0.6,0.2-1.3,0.9-1.7l49.7-24.2C239.7,316.7,240.3,316.7,240.6,317.1z"/>
		</g>
		<g>
			<line class="st24" x1="218.7" y1="309.7" x2="268.5" y2="285.6"/>
			<path class="st25" d="M269.6,284.7c0.1,0.1,0.1,0.2,0.1,0.3c0.2,0.6-0.2,1.3-0.9,1.7l-49.7,24.2c-0.7,0.3-1.4,0.1-1.6-0.4
				c-0.2-0.6,0.2-1.3,0.9-1.7l49.7-24.2C268.7,284.2,269.3,284.3,269.6,284.7z"/>
		</g>
	</g>
</g>
<g>
	<path class="st26" d="M44.1,1585.3c3.5,9.5,63.1,91.3,63.1,91.3s457.2-259.7,440.5-256.6S44.1,1585.3,44.1,1585.3z"/>
	<path class="st3" d="M44.1,1585.3c-2-17.3,17.2-49.3,30.6-53.4C88,1527.8,547.7,1420,547.7,1420L44.1,1585.3z"/>
	<path class="st27" d="M223.1,1409.5c-3.8-1.8-0.7-3.4-6.4-3.9c-8-0.7-8.3-5.3-12.4-7.6c-1.6-0.9-6.6-2.4-11.7-1.8
		c-5.9,0.7-11.8,1.1-14.7,7.6c-2.3,5.1,12.9-3,16.8,0.4c1.8,1.6-5.6,4.2-4.8,7.8s7.5-3.6,13.4-0.9c5.1,2.3,13.7,4.8,16.2,5
		S223.1,1409.5,223.1,1409.5z"/>
	<g>
		<path class="st27" d="M194,1475.1l-14.2-0.5c-1.6-6,1.8-20.3,1.5-26c-0.4-6.2,5.6-13.5,5.6-13.5l7.5,11.4l0,1.1
			c0,0,1.5,10.7,4.5,15c1.7,2.5,2.1,6.7,6,10.1C207.7,1475.4,194,1475.1,194,1475.1z"/>
		<path class="st28" d="M194.8,1449.9c0,0,1.1,6.9,2.9,10.6c-7.3,5.7-14-2.6-12.4-5.4c0.9-1.8,4.9-6.3,4.9-6.3L194.8,1449.9z"/>
	</g>
	<path class="st3" d="M179.2,1463.8c5.4-3.2,8.7,6.2,14.7,5c3.2-0.6,2.1-1.8,3.1-3.6c0.6-1.1,1.2-2.4,3.1-1.3
		c37.5,21.4,28.8,105,34,109.1c4.2,3.4-17.6,19.8-34.1,20.4c-22.6,0.9-27.9-22.4-28.5-26.9c-0.6-4.6-8.4-82.9-8.4-82.9
		S172.2,1474.8,179.2,1463.8z"/>
	<path class="st19" d="M228.5,1581.6c1.8,5.7,3.7,9.7,6.4,11c4.9,2.4,10.4,1.6,14.9-7c0.3-0.5,0.5-1,0.7-1.5
		c5.3-14.2-10.2-44.8-13.4-52.5c-1.3-3.1-3.3-7.2-5.3-11.4c-2.4-5.3-7.6-23.3-6.1-26.6c4-8.7,25.2-24.3,39.6-40.2
		c4.9-5.5,9.1-11,11.4-16.4c3.5-8.1-12.9-18.4-30.1-26.6c-16.6-7.9-34-13.7-35-13.4c-2,0.6-3.2,2-3.9,3.8c-1.4,3.8-0.4,9.2,0.3,12.1
		c0.3,1.2,0.5,2,0.5,2c5.2,5.6,46.7,19.5,44.9,22.7c-7.5,13.6-25.9,24.4-53.3,26.1c0,0,0.1,1,0.7,3.1c0.5,1.7,1.3,4.3,2.6,7.7
		c0.8,2,1.7,4.3,2.8,6.9c7.1,16.5,1,31.5,8.9,51.6c3.4,8.7,5.8,17.8,7.8,26.1C225,1567.8,226.6,1575.6,228.5,1581.6z"/>
	<path class="st19" d="M175.1,1609.4c10.9,3.1,23.2-0.2,28.9-11.1c4.7-9-4.7-16.3-4.5-34.2c0.1-10-0.3-27.7-2.7-39.4
		c-5-24.9-15.1-54.3-17.6-61c0,0-14.6,4.6-23,20.6c-3.5,6.7-2.4,22.9,0.3,34.2c0.9,3.7,1.6,6.7,2.3,9.2c1.4,5.1,2.4,8.2,3.5,11.7
		c0.5,1.4,0.9,2.8,1.5,4.4c0,0,0,0,0,0c0.6,1.8,1.3,3.8,2,6.3c1.2,4.1,1.8,11.2,2.2,19.1l0,0
		C168.9,1586.5,169.2,1607.7,175.1,1609.4z"/>
	<g>
		<path class="st27" d="M185.8,1429.9c4,2.8,14.7,4.7,12.4,7.3c-2.3,2.6,8.4,6,6,8.8c-5.7,6.9-16.6,11.2-20.5,9.4
			c-3.9-1.8-12.1-9.7-12.1-9.7L185.8,1429.9z"/>
		<path class="st11" d="M184.1,1440c0.7-2.7,1.7-1.8,2.4-3.8c0.6-2.1-3.6-1.2-1.6-4.3c2-3.2,2.8-5.2-0.2-7.9
			c-1.9-1.7-5.4-1.8-7.1,1.2c-1.1,1.9-3.6-0.7-6.6,2.3c-2.4,2.4-1.3,4.6-2.6,7.7c-0.7,1.7-4.9,3.7-5.2,7.2
			c-0.6,6.4,5.2,4.5,5.4,10.4c0.2,6.9,15.4,4.1,16.9,3c0.6-0.4,0.7-2.6-2.3-3.1c-1.5-0.2-4.1-1.7-4-2.7c0.2-1.7-0.2-5.4,3.1-3.6
			c2.4,1.3,8.5,8.2,9.7,8.1c2.9-0.4,14.7-7.9,12.4-10.3c-2.9-2.9-7.8,8-10.6,4.8c-2.1-2.4,6.7-7.5,5.3-9.9c-1.6-2.7-7.2,9.3-9.8,8.1
			C186.1,1445.8,183.7,1441.6,184.1,1440z"/>
	</g>
	<path class="st29" d="M547.7,1420c0,0-399.4,302.9-422.4,302.2c-10.6-0.3-76.8-74.2-76.8-74.2L547.7,1420z"/>
	<path class="st3" d="M547.7,1420c0,0-537.6,337-539.6,314.1s12.2-95.4,28.4-103.9C55.3,1620.4,547.7,1420,547.7,1420z"/>
	<g>
		<path class="st13" d="M290.4,1520.6c8.7-6.2,10.9-5.5,15.7-7s14.9-3.5,15.6,6.6c0.3,4.4-0.3,7-5.2,8.2c-4.8,1.2-9.5-3.6-17.7-0.4
			C290.6,1531.3,290.4,1520.6,290.4,1520.6z"/>
		<path class="st19" d="M183.7,1478.5c37,32.1,44.7,28.2,51.1,29.7c6.4,1.5,61.2,1.7,63.2,3.2c4.9,3.8,3.3,14.3,4.6,16.8
			c2.1,3.8-51.7,2.4-68.5,1.6c-17.9-0.8-55.4-23.2-55.4-23.2s-20.1-9-14-20.5C170.8,1474.7,183.7,1478.5,183.7,1478.5z"/>
	</g>
	<g>
		<path class="st30" d="M193.6,1470c-0.6-0.2-2.9,10.6-8.8,15.5c-1.6,1.4-3.5,2.5-5.5,3.1c-6,1.9-17.7,7.8-25.7,8.9
			c1.2-2.7,0.4-9.8,1.6-14.8c6,0.3,18.6,1.3,21.7,0.1c2.3-0.9,4.4-2.1,6.2-3.5c3.4-2.7,6.1-6,8-8.7c1-1.4,0.7-3.1,2.2-3.6
			C195.3,1466.4,194.3,1470.3,193.6,1470z"/>
		<path class="st31" d="M196.1,1467.3c-0.3-0.9-1.4-2.3-3.4-1.6c-1.5,0.5-1.5,1.1-2.5,2.5c-2.9,4.2-7.6,9.7-14.2,12.2
			c-6.6,2.5-24.6-2.1-34.1,2.6c-9.5,4.8-10.1,14.3-24,20.4c-13.9,6-31.2,4.2-35.3,6c-4.1,1.8-6.4,3.4-5.9,5s3.5,3.8,6.8,4.2
			c3.3,0.4,30.4-4.8,37.2-7.6c11-4.5,18.1-17.1,25.3-19.6s23.9-2.5,32.4-5.2c9.5-3,14.3-16,15.1-15.7c0.8,0.2,1.5,0.5,2.6-0.1
			C196.8,1469.9,196.4,1468.2,196.1,1467.3z"/>
	</g>
</g>
</svg>
