<?xml version="1.0" encoding="utf-8"?>
<!-- Generator: Adobe Illustrator 26.1.0, SVG Export Plug-In . SVG Version: 6.00 Build 0)  -->
<svg version="1.1" id="Layer_1" xmlns="http://www.w3.org/2000/svg" xmlns:xlink="http://www.w3.org/1999/xlink" x="0px" y="0px"
	 viewBox="0 0 1348.8 1636.1" style="enable-background:new 0 0 1348.8 1636.1;" xml:space="preserve">
<style type="text/css">
	.st0{fill:#FFFFFF;}
	.st1{opacity:0.28;fill:#1F1F39;}
	.st2{fill:none;stroke:#FFFFFF;stroke-width:1.3556;stroke-linecap:round;stroke-linejoin:round;stroke-miterlimit:10;}
	.st3{fill:none;stroke:#FFFFFF;stroke-width:1.4408;stroke-linecap:round;stroke-linejoin:round;stroke-miterlimit:10;}
	.st4{fill:#EFAEA6;}
	.st5{opacity:0.14;fill:#1F1F3B;}
	.st6{fill:#1F1F3B;}
	.st7{fill:#3B3B4D;}
	.st8{opacity:0.46;fill:#1F1F3B;}
	.st9{opacity:0.62;fill:#1F1F3B;}
	.st10{opacity:0.43;fill:#1F1F3B;}
	.st11{fill:#244798;}
	.st12{opacity:0.25;fill:#1F1F3B;}
	.st13{fill:#201B2C;}
	.st14{fill:#EEADA5;}
	.st15{fill:#603A3E;}
	.st16{fill:#775155;}
	.st17{opacity:0.26;fill:#1F1F39;}
	.st18{fill:#F4AD00;}
	.st19{fill:none;stroke:#FFFFFF;stroke-width:2.4954;stroke-linecap:round;stroke-linejoin:round;stroke-miterlimit:10;}
	.st20{fill:none;stroke:#FFFFFF;stroke-width:2.6521;stroke-linecap:round;stroke-linejoin:round;stroke-miterlimit:10;}
	.st21{opacity:0.12;fill:#1F1F39;}
	.st22{fill:none;stroke:#FFFFFF;stroke-width:2.2948;stroke-linecap:round;stroke-linejoin:round;stroke-miterlimit:10;}
	.st23{fill:none;stroke:#FFFFFF;stroke-width:2.439;stroke-linecap:round;stroke-linejoin:round;stroke-miterlimit:10;}
	.st24{fill:none;stroke:#FFFFFF;stroke-width:2.0142;stroke-linecap:round;stroke-linejoin:round;stroke-miterlimit:10;}
	.st25{fill:none;stroke:#FFFFFF;stroke-width:2.1407;stroke-linecap:round;stroke-linejoin:round;stroke-miterlimit:10;}
	.st26{fill:none;stroke:#FFFFFF;stroke-width:2.286;stroke-linecap:round;stroke-linejoin:round;stroke-miterlimit:10;}
	.st27{fill:none;stroke:#FFFFFF;stroke-width:2.4296;stroke-linecap:round;stroke-linejoin:round;stroke-miterlimit:10;}
	.st28{fill:none;stroke:#FFFFFF;stroke-width:1.7555;stroke-linecap:round;stroke-linejoin:round;stroke-miterlimit:10;}
	.st29{fill:none;stroke:#FFFFFF;stroke-width:1.8658;stroke-linecap:round;stroke-linejoin:round;stroke-miterlimit:10;}
	.st30{fill:none;stroke:#FFFFFF;stroke-width:1.3956;stroke-linecap:round;stroke-linejoin:round;stroke-miterlimit:10;}
	.st31{fill:none;stroke:#FFFFFF;stroke-width:1.4832;stroke-linecap:round;stroke-linejoin:round;stroke-miterlimit:10;}
	.st32{fill:none;stroke:#FFFFFF;stroke-width:1.5038;stroke-linecap:round;stroke-linejoin:round;stroke-miterlimit:10;}
	.st33{fill:none;stroke:#FFFFFF;stroke-width:1.5983;stroke-linecap:round;stroke-linejoin:round;stroke-miterlimit:10;}
</style>
<path class="st0" d="M1236.4,378.9c-5.2,9.4-17,12.8-26.4,7.7c-2.5-1.4-4.5-3.2-6.1-5.3c-1.2-1.6-2.1-3.3-2.8-5.2
	c-1.8-5.1-1.5-10.8,1.3-15.9c5.2-9.4,17-12.8,26.4-7.7c6.1,3.4,9.7,9.5,10,16c0,0.9,0,1.8,0,2.7
	C1238.5,373.7,1237.7,376.4,1236.4,378.9z"/>
<path class="st1" d="M1236.4,378.9c-5.2,9.4-17,12.8-26.4,7.7c-2.5-1.4-4.5-3.2-6.1-5.3c25,7.8,31.5-4.7,34.7-14.6
	c0.1,0.6,0.2,1.2,0.2,1.8c0,0.9,0,1.8,0,2.7C1238.5,373.7,1237.7,376.4,1236.4,378.9z"/>
<path class="st2" d="M1217,355.1c0.9-0.1,1.9-0.1,2.9,0.1"/>
<path class="st2" d="M1204.7,368c0.7-4.4,3.9-10.5,9.7-12.4"/>
<path class="st0" d="M1243.3,337.4c-3.7,12.2-28.7,2.8-26.1-6.5c2.6-9.3,7.7-43.3,29.6-54.6c19.1-11.4,47.1-15.4,53.3-40.5
	c7.2-21.4-5.2-33.9-26.1-39.9c-20.2-5.8-37.7,0.8-43.6,20.8c-4.9,16.6-33.2,11.5-24.1-12.4c27-70.9,142.5-33.9,121.7,39.2
	c-8.7,32-31.9,36.8-57.8,49.2C1252.5,300.7,1247,325.1,1243.3,337.4z"/>
<path class="st3" d="M1265.7,173.3c1.3,0.1,2.5,0.3,3.8,0.5"/>
<path class="st3" d="M1214.9,206.4c3.2-12.6,17-33.1,45.1-33.4"/>
<path class="st4" d="M657.6,712.3l35.4-6c1.9-15.6-7.7-51.9-8.7-66.2c-1.1-15.7-22.4-30.2-22.4-30.2L647,641l0.4,2.8
	c0,0-0.2,27.3-6.2,39.1c-3.5,6.8-2.9,17.4-11.5,27.4C623.3,717.7,657.6,712.3,657.6,712.3z"/>
<path class="st5" d="M650.9,632.9l5-1.9c0,0,11.4,10.1,14.3,14.2c4.4,6-6.9,25.8-24.4,20L650.9,632.9z"/>
<path class="st4" d="M656.2,581.4c-9,9.7-35.8,20.6-28.8,26.2c7,5.6-19.1,20.5-11.8,26.6c17.5,15,47.2,20.1,56.4,13.2
	c9.2-6.9,27.1-32.2,27.1-32.2L656.2,581.4z"/>
<path class="st6" d="M666.9,606.2c-6.2-3.9-7.4-2.7-9.9-7.8c-2.5-5.1,8.7-5.1,2.3-12.3c-6.4-7.2-14.2-14.1-8.3-23.3
	c8.6-13.2,17.9-2.6,23.5,4.2c3.6,4.4,12.1-4.2,20.4,3.1c6.5,5.7,2.6,9.1,8.2,14.5c3.4,3.2,15.3,2.9,17.5,11.9
	c4.1,16.6-12.6,19.6-10.7,35.4c2.2,18.4-38.6,21.1-39.3,16.3c-0.8-5.6,12.2-12.4,10.9-17.5c-2-7.6-5.9-3.9-13-3.3
	c-7.6,0.6-15.9-5.6-4.4-9.4C675.6,614.1,672.5,609.7,666.9,606.2z"/>
<path class="st0" d="M573.7,1578.1c-1.5-15.3-0.4-54.2-0.4-54.2l42.4-1.5l-2.3,58.4l-28,18.6L573.7,1578.1z"/>
<path class="st6" d="M570.3,1565.5c-3.6-2.7-11.5,6.9-13.2,13.3c-3.8,14.7-51,16.6-59.5,18c-4.3,0.7-11.4,22.4,10.3,22.3
	c18.7-0.1,78.6-0.1,99.1-0.3c4.3,0,8-2.8,9.1-6.8c3.7-14.2,4.1-47.6-1.6-48.1C606.8,1565.5,583.9,1575.9,570.3,1565.5z"/>
<path class="st0" d="M736.6,1578.4c-1.6-15.3-0.7-54.2-0.7-54.2l42.4-1.7l-1.9,58.4l-27.9,18.7L736.6,1578.4z"/>
<path class="st6" d="M731.9,1560.9c-4.6,0.3-3.7,4.6-5.3,11c-3.6,14.8-57.4,24.4-65.9,25.8c-4.3,0.7-11.1,22.5,10.5,22.2
	c18.7-0.2,78.6-0.8,99.1-1.2c4.3-0.1,8-2.9,9-6.9c3.6-14.3,4.9-53.5-0.8-53.9C770.8,1559.7,752.7,1559.6,731.9,1560.9z"/>
<path class="st7" d="M797.2,1071.2c-0.5,6.9-1.3,14.5-2.2,22.7c-3.7,31-11.4,135.5-9.5,201.9c1.9,66.1-2,232.6,1.7,242.8
	c3.7,10.2-65.9,14.3-66.6,2c-0.7-12.3-5.4-128-11-239.6c-4.6-90.7-5.9-81.6-22.6-197l0,0c-0.2,0.5-4.2,11.8-10.2,29.1
	c-12.6,36.9-33.8,101.5-43.9,148.2c-15.8,72.9-7.5,262.9-14.2,269.5c-4,8.5-53,12.7-61.9-3.4c0,0-3.8-235,3.2-271.8
	c4.7-25,44.8-270.3,53.8-336.1c0,0,176.5-38.5,181.9,21.8c0.7,8.2,1,15.5,0.9,22.5c-0.1,9.4,0.4,18,0.9,27.6
	C798.4,1026.8,799.3,1044.6,797.2,1071.2z"/>
<path class="st8" d="M702.6,1070.8C702.6,1070.8,702.6,1070.8,702.6,1070.8c-0.3-0.1-0.5-0.2-0.5-0.2
	C702.2,1070.6,702.6,1070.8,702.6,1070.8z"/>
<path class="st9" d="M687.1,1104L687.1,1104c-0.2,0.6-8,22.4-13.9,39.7l10.3-73.4C683.5,1070.2,685.4,1080.9,687.1,1104z"/>
<path class="st10" d="M798.2,1053.1c-1.5-0.3-69.5-14.8-78.7-48.9c0,0,59.1,5.1,78.1,7.1C798.4,1026.8,798.8,1044.3,798.2,1053.1z"
	/>
<path class="st0" d="M692.2,670.5c-15.3-4.1-16.8,21.1-32.2,22.3c-8.1,0.6-6.3-2.9-10.2-6.7c-2.4-2.3-4.6-4.9-8.3-1.1
	c-76.1,78.1,3.1,274.9-6.5,288.6c-7.9,11.2,56.5,35.8,96.9,25.9c55.5-13.5,52.1-73.8,50.5-85.3c-1.6-11.5-37.3-207-37.3-207
	S717,692.5,692.2,670.5z"/>
<path class="st11" d="M692,830.7c2.4,30,13.7,73.3,20.9,97.4c13.1,43.5-4.8,67.6,12.9,86.2c21.3,22.5,71.3,32.6,88.5,9.8
	c13.7-18.3-11.7-62.8-21.6-105.5l0,0c-4.5-19.5-8.1-37.1-7.9-47.9c0-0.6,0-1.1,0-1.7c0-2.6,0.1-5.1,0.2-7.3c0.1-2.8,0.2-5.3,0.3-7.7
	c0.2-4.2,0.4-8,0.5-11.6c0.4-8.4,0.7-16.1,0.5-27.7c0-1,0-2,0-3c-0.1-6.5-0.4-14.3-0.9-23.9c-1.4-29.3-9.8-69.4-23.1-83.2
	c-31.6-33-70.2-33.9-70.2-33.9C690.8,688.5,686.9,766.8,692,830.7z"/>
<path class="st12" d="M758,788.8c0,0,4,46.8,26.9,80.2c0-2.6,0.1-5.1,0.2-7.3c0.1-2.8,0.2-5.3,0.3-7.7c0.2-4.2,0.4-8,0.5-11.6
	c0.4-8.4,0.7-16.1,0.5-27.7L758,788.8z"/>
<path class="st11" d="M766,702.6c59,68.6,107.7,134.1,111,141.7c9,20.3,17.5,148.3,16,156.2c-1.5,7.9-43.5,3.1-45.8-2.3
	c-2.7-6.3-2.5-97.6-15.7-126.7c-8.2-18.2-103.7-123-113.7-135.2c-10-12.1-12.3-60.7,8.9-56.2C747.8,684.5,766,702.6,766,702.6z"/>
<path class="st13" d="M894,1067.9l-0.2-8.9l-0.2-8.5c-0.1-6-2.8-11-6.5-13.1l0,0c-1.2-0.7-2.5-1-3.9-1l-28.3,0.7l-0.3,0l-0.5,0l0,0
	l-0.2,0l-6.8,0.2c-2.7,0.1-5.1,1.6-6.9,4.1c-1.7,2.3-2.7,5.5-2.9,9c0,0.5,0,0.9,0,1.4l0.2,8.2l0.2,8.9l0.1,5.1l7.1-0.2l0-0.1l-0.1-5
	l-0.2-8.9l0-1.7l0-0.1c0-0.3,0-0.6,0-0.8c0.2-5.5,3.3-9.9,7.3-10l2.1-0.1l25-0.6c1.1,0,2.1,0.3,3,0.8l0,0c2.7,1.6,4.7,5.3,4.8,9.7
	l0.1,1.9l0.2,8.9l0.1,4.8l7.1-0.2L894,1067.9z"/>
<path class="st14" d="M854.9,999.2c-1.2,8.2-3.4,6-6.5,16.6c-3.1,10.6-12.4,25.3-6.9,27c5.5,1.7,9.8-4.6,12.5-5.9
	c2.7-1.3-3.5,4.9-0.3,10.1c3.2,5.2,17,8.4,23.3,4.4c6.3-4,10.8-12.1,11.3-22.7s-4.5-25.1-5.5-29.8
	C881.9,994.3,854.9,999.2,854.9,999.2z"/>
<path class="st13" d="M854,1037L854,1037l-0.2,0l-6.8,0.1c-2.7,0.1-5.1,1.6-6.9,4.1l0,0c-1.7,2.3-2.7,5.5-2.9,9c0,0.5,0,0.9,0,1.4
	l0.2,8.2l0.2,8.9l0.1,5l7.1-0.2l-0.1-5l-0.2-8.9l0-1.7l0-0.1c0-0.3,0-0.6,0-0.8c0.2-5.5,3.3-10,7.3-10.1l1.2-4.3l0,0l0.9-3.3l0,0
	l0,0l0,0l0.7-2.5L854,1037z"/>
<path class="st15" d="M759.2,1092.9l1.8,99c0.1,5.9,4.9,10.5,10.8,10.4l0.3,0l176.5-1c19.9-0.4,19.5-14.4,19.4-20.3l1.1-93.4
	c-0.1-5.9-7.5-21.2-23.4-20.7l-157,2.8l-5.9,0.1C769.9,1070.1,759,1079.6,759.2,1092.9z"/>
<path class="st16" d="M759.2,1092.9l1.8,99c0.1,5.9,4.9,10.5,10.8,10.4l0.3,0c1.9-5.9,3.1-15.2,1.8-29.8
	c-3-35.3,6.4-75.5,14.8-102.8l-5.9,0.1C769.9,1070.1,759,1079.6,759.2,1092.9z"/>
<path class="st17" d="M657,696.9c1.5,0.4,2.4,1.8,3.1,3c0.9,1.6,1.4,3,2.4,2.4c1.3-0.8,12.6,17.7,29.3,27.9c5.3,3.3,12.5,6.4,18.8,7
	c2.4,0.2,19.1,1.3,25.9,0.7c11.3-1,56-3.8,56-3.8s-19.1-23.8-21.7-25.9c-10.4,2.8-40.3,10.1-48.4,11.3c-4,0.6-7.6,0.8-10.5,0.4
	c-1.3-0.2-2.6-0.5-3.9-0.7c-5.7-1.3-11-3.4-16-6c-9.4-4.9-17.3-11.5-23.4-17.3c-3.3-3.2-3.6-4.6-7.7-5.2c0,0-0.1,0-0.1,0
	C658.8,693.2,655.2,696.3,657,696.9z"/>
<path class="st18" d="M987,747.3c-0.5,4.6-6.6,11.9-14.9,14.8c-1.9,0.6-6.9,1.2-13.9,1.7c-24,1.7-70.5,2.2-85.1-0.4
	c-15.2-2.7-29-11.1-41.6-19.3c-12.8-8.4-24.3-16.5-34.3-17.8c-19.2-2.5-59.5,6.4-83.2,4.9c-0.8,0-1.5-0.1-2.3-0.2
	c-26-2.6-45.8-33.8-47.6-32.7c-1.2,0.7-2.4,1.5-4.1,1.5c-0.7,0-1.6-0.1-2.6-0.4c-2.3-0.7-2.3-5.3-2-7.9c0.3-2.6,2.3-6.7,7.8-6.3
	c4.1,0.3,4.4,2,7.7,5.2c8.2,7.7,19.6,17,33.5,21.6c3.1,1.1,6.4,1.9,9.8,2.4c16.7,2.6,54.2-16,81-13.7c2.5,0.2,4.9,0.6,7.2,1.2
	c26.9,7.1,34.2,31.8,73.2,39.7c39,7.9,81.9-6.9,93.4-4.4C980.6,739.9,987.5,742.7,987,747.3z"/>
<path class="st4" d="M519.8,671.7c5.6-23.4,32.4-42.6,41.4-54.6c5.1-6.7,34.9-2.1,32,4.1c-3,6.2-18.2-6.8-25.4,9.8
	c-2.7,6.3,16.2,12.2,12.6,20.8c-3.5,8.6-23.1,5.4-27,21.8C549.6,690.1,519.8,671.7,519.8,671.7z"/>
<path class="st11" d="M668.7,997c-0.4,15.9-4.7,21-10.8,26.4c-10.8,9.8-37.6,30-55.7,11.4c-1-1-2-2.2-2.9-3.4
	c-24.3-32.6-6.8-122.5-4.3-144.5c1-8.9,3.2-20.8,5.2-33.2c2.4-15.4,0.8-44.6-12.4-46.4c-16.5-2.3-112.3,42.2-137,16.5
	c-22.3-23.2,56.9-161.8,66.9-173.2c3.7-4.3,44.3,15.8,42.6,24.3c-3,15.2-50.7,88.8-47.8,92.7c6.1,8.1,57.4-47.3,128-82.1
	c0,0,0.4,2.6,0.4,8.4c0.1,4.8-0.1,11.9-1,21.6c-0.5,5.7-1.2,12.2-2.2,19.8c-6.2,47.6,20.9,81.4,15.4,139
	c-2.4,24.8-1.9,49.9-0.9,72.8C653.5,970.7,669.1,980.3,668.7,997z"/>
<path class="st11" d="M955.3,561.4c-11.1,16.4-33.3,20.7-49.7,9.6c-4.3-2.9-7.8-6.6-10.4-10.7c-1.9-3.1-3.4-6.5-4.3-10
	c-2.5-9.6-1-20.1,5-28.9c11.1-16.4,33.3-20.7,49.7-9.6c10.6,7.2,16.2,19,15.7,31c-0.1,1.6-0.2,3.2-0.5,4.9
	C960.1,552.4,958.2,557.1,955.3,561.4z"/>
<path class="st1" d="M955.3,561.4c-11.1,16.4-33.3,20.7-49.7,9.6c-4.3-2.9-7.8-6.6-10.4-10.7c44.5,18.4,58.5-3.4,66-21
	c0.1,1.1,0.1,2.2,0.1,3.4c-0.1,1.6-0.2,3.2-0.5,4.9C960.1,552.4,958.2,557.1,955.3,561.4z"/>
<path class="st19" d="M923.8,514.7c1.7,0,3.4,0.2,5.3,0.6"/>
<path class="st19" d="M899.2,536.3c2-8,8.8-18.7,19.9-21.1"/>
<path class="st11" d="M975,486.5c-8.8,21.8-53,0.3-46.7-16.3c6.3-16.6,21.3-78.1,63.3-95.2c37-17.7,88.9-20.5,104.5-65.3
	c16.8-38.1-3.9-63.1-41.3-77.5c-36.1-13.9-69.2-4.8-83.4,30.8c-11.8,29.7-62.7,15.6-42-26.7c61.4-125.4,267-38.4,216.6,92.1
	c-21.3,57.2-64.6,62-114.1,80.5C998,420.9,983.8,464.8,975,486.5z"/>
<path class="st20" d="M1043.4,189.5c2.3,0.4,4.6,0.9,6.9,1.6"/>
<path class="st20" d="M944.7,241.8c7.9-22.6,36.7-57.8,88.3-53.6"/>
<path class="st0" d="M257,769.7c4.1,17.7-6.9,35.4-24.6,39.5c-4.7,1.1-9.3,1.1-13.7,0.3c-3.3-0.6-6.5-1.8-9.4-3.4
	c-8-4.3-14.1-11.9-16.4-21.5c-4.1-17.7,6.9-35.4,24.6-39.5c11.5-2.7,23,1,30.7,8.8c1.1,1.1,2,2.2,3,3.4
	C253.9,760.8,255.9,765,257,769.7z"/>
<path class="st21" d="M257,769.7c4.1,17.7-6.9,35.4-24.6,39.5c-4.7,1.1-9.3,1.1-13.7,0.3c40.3-18.4,34.3-41.6,27.2-57.6
	c0.8,0.6,1.6,1.3,2.4,2c1.1,1.1,2,2.2,3,3.4C253.9,760.8,255.9,765,257,769.7z"/>
<path class="st22" d="M205.8,761.6c1.1-1.1,2.3-2.2,3.7-3.2"/>
<path class="st22" d="M204.9,791.7c-4.1-6.4-7-17.6-1.8-26.6"/>
<path class="st0" d="M218.9,709.5c9.2,19.6-33,35.9-40.3,21.3c-7.2-14.6-39.3-63.2-24.5-102.3c11.2-36,41.9-72.7,21.4-111.3
	c-15.1-35.1-44.9-36.9-78-20.7c-32,15.6-46.6,43.6-31.5,75.4c12.6,26.6-28.8,52-44.3,11.6c-46-119.8,141.3-203.8,197.7-88.2
	c25.1,50.2,1.3,82.4-17.2,127.3C189.1,652.9,209.8,689.9,218.9,709.5z"/>
<path class="st23" d="M61.7,477.5c1.7-1.3,3.5-2.5,5.4-3.7"/>
<path class="st23" d="M35.1,576.6c-10.3-19.5-16-61,19.2-93.1"/>
<path class="st11" d="M625.4,491.2c-2,15.8-16.5,27-32.3,25c-4.2-0.5-8-1.9-11.4-4c-2.5-1.5-4.8-3.5-6.7-5.7c-5.2-6-8-14.1-6.9-22.7
	c2-15.8,16.5-27,32.3-25c10.3,1.3,18.6,7.9,22.6,16.6c0.5,1.2,1,2.4,1.4,3.7C625.5,483,625.9,487.1,625.4,491.2z"/>
<path class="st1" d="M625.4,491.2c-2,15.8-16.5,27-32.3,25c-4.2-0.5-8-1.9-11.4-4c38.8-2.8,40.9-23.7,40-39.1
	c0.5,0.8,0.9,1.6,1.3,2.4c0.5,1.2,1,2.4,1.4,3.7C625.5,483,625.9,487.1,625.4,491.2z"/>
<path class="st24" d="M585.7,468.9c1.2-0.6,2.6-1.1,4-1.5"/>
<path class="st24" d="M575.7,493.5c-1.4-6.5-0.4-16.7,6.7-22.4"/>
<path class="st11" d="M612.4,430.1c1.6,18.9-38.1,19.4-39.6,5.2c-1.5-14.2-13-64,11.1-91.6c20.2-26.2,56.7-47,51.6-85
	c-1.7-33.5-25.7-44.1-57.8-40.9c-31.1,3.1-51.6,21.7-49,52.4c2.2,25.7-39.6,34-40-4c-1.2-112.7,178.6-124.5,189.6-12.2
	c5.4,49-24.1,68.2-53,99.5C605.1,374.4,610.8,411.2,612.4,430.1z"/>
<path class="st25" d="M553.9,191.1c1.8-0.5,3.7-1,5.6-1.4"/>
<path class="st25" d="M501.7,264.6c-2.5-19.2,5.5-55,44.2-70.7"/>
<path class="st0" d="M770.6,392.6c-9.1,15.6-29.2,21-44.8,11.9c-4.1-2.4-7.5-5.5-10.1-9.2c-2-2.7-3.5-5.7-4.5-8.9
	c-2.8-8.6-2.1-18.3,2.8-26.8c9.1-15.6,29.2-21,44.8-11.9c10.1,5.9,15.9,16.4,16.3,27.3c0,1.5,0,3-0.2,4.5
	C774.4,384,773,388.4,770.6,392.6z"/>
<path class="st21" d="M770.6,392.6c-9.1,15.6-29.2,21-44.8,11.9c-4.1-2.4-7.5-5.5-10.1-9.2c41.8,14.1,53.3-6.7,59-23.2
	c0.2,1,0.3,2,0.3,3.1c0,1.5,0,3-0.2,4.5C774.4,384,773,388.4,770.6,392.6z"/>
<path class="st26" d="M738.9,351.7c1.5-0.1,3.2,0,4.9,0.2"/>
<path class="st26" d="M717.7,373c1.4-7.5,6.9-17.6,16.9-20.5"/>
<path class="st0" d="M784,322.9c-6.7,20.5-48.5,3.5-43.7-12c4.7-15.5,14.7-72.7,52-90.9c32.7-18.4,80-24.2,91.5-66.1
	c13-35.8-7.5-57.4-42.5-68.3c-33.9-10.5-63.6-0.1-74.3,33.3c-9,27.9-56.4,18.1-40.1-21.8c48.4-118.4,241.7-51.5,203.6,70.9
	c-16,53.6-55.2,60.7-99.3,80.6C801,261.5,790.7,302.4,784,322.9z"/>
<path class="st27" d="M828.2,47.2c2.1,0.3,4.3,0.6,6.4,1"/>
<path class="st27" d="M741.2,101c5.9-21.2,30-55.1,77.4-54.4"/>
<path class="st0" d="M441,290.2c-3.1,13.5-16.7,22-30.2,18.8c-3.6-0.8-6.8-2.4-9.5-4.4c-2.1-1.6-3.8-3.4-5.3-5.5
	c-4-5.7-5.7-13-4-20.3c3.1-13.5,16.7-22,30.2-18.8c8.8,2,15.4,8.4,18.1,16.4c0.4,1.1,0.7,2.2,0.9,3.3
	C441.9,283,441.8,286.6,441,290.2z"/>
<path class="st21" d="M441,290.2c-3.1,13.5-16.7,22-30.2,18.8c-3.6-0.8-6.8-2.4-9.5-4.4c33.9,0.9,37.6-17,38.1-30.4
	c0.3,0.7,0.7,1.4,0.9,2.2c0.4,1.1,0.7,2.2,0.9,3.3C441.9,283,441.8,286.6,441,290.2z"/>
<path class="st28" d="M408.6,267.4c1.1-0.4,2.3-0.7,3.6-0.9"/>
<path class="st28" d="M397.8,287.8c-0.7-5.8,1.1-14.5,7.7-18.9"/>
<path class="st0" d="M435.1,236c-0.3,16.5-34.8,13.5-34.8,1c0-12.5-5.7-56.7,17.6-78.5c19.8-20.9,53.2-35.8,52.2-69.2
	c1.4-29.2-18.5-40.5-46.6-40.5c-27.3,0-46.7,14.3-47,41.2c-0.3,22.5-37.3,26-34.3-6.9c8.7-97.8,165.7-92.4,165.5,6
	c0.4,42.9-26.8,57-54.7,81.6C433.7,187.1,435.4,219.5,435.1,236z"/>
<path class="st29" d="M405.3,23.7c1.6-0.3,3.3-0.5,5-0.7"/>
<path class="st29" d="M353.6,82.8c-0.5-16.8,9.6-47.2,44.5-57.5"/>
<path class="st11" d="M308,400c0.5,11-8.1,20.4-19.1,20.8c-2.9,0.1-5.7-0.4-8.2-1.4c-1.9-0.8-3.7-1.8-5.2-3.1
	c-4.3-3.5-7.1-8.7-7.4-14.7c-0.5-11,8.1-20.4,19.1-20.8c7.2-0.3,13.6,3.2,17.4,8.7c0.5,0.7,1,1.5,1.4,2.4
	C307.1,394.4,307.9,397.1,308,400z"/>
<path class="st1" d="M308,400c0.5,11-8.1,20.4-19.1,20.8c-2.9,0.1-5.7-0.4-8.2-1.4c26.1-6.5,25.2-21,22.7-31.4
	c0.4,0.5,0.8,1,1.2,1.5c0.5,0.7,1,1.5,1.4,2.4C307.1,394.4,307.9,397.1,308,400z"/>
<path class="st30" d="M278.3,389.4c0.8-0.6,1.6-1.1,2.6-1.5"/>
<path class="st30" d="M274.4,407.4c-1.8-4.3-2.2-11.3,1.9-16.1"/>
<path class="st11" d="M291.9,359.8c3.3,12.7-23.8,17.8-26.4,8.2c-2.7-9.6-16.4-42.2-3.2-63.9c10.7-20.2,33.2-38.8,25.3-64.1
	c-5.1-22.7-22.7-27.1-44.3-21.1c-20.9,5.8-32.7,20.9-27.3,41.6c4.6,17.3-23,27.9-27.8,2c-14.1-76.8,107.3-106,128-30.6
	c9.4,32.8-8.4,49.4-24.5,74.1C280.4,322.6,288.7,347,291.9,359.8z"/>
<path class="st31" d="M223.9,203.5c1.2-0.6,2.4-1.1,3.6-1.6"/>
<path class="st31" d="M196.9,259.8c-4-12.8-2.7-38.2,21.9-53.5"/>
<path class="st11" d="M990.5,700.2c-10.2,6.2-23.4,2.9-29.6-7.2c-1.6-2.7-2.6-5.6-3-8.5c-0.3-2.2-0.2-4.4,0.2-6.5
	c1.1-5.9,4.5-11.3,10-14.6c10.2-6.2,23.4-2.9,29.6,7.2c4,6.6,4.1,14.5,0.8,20.9c-0.4,0.9-0.9,1.7-1.5,2.5
	C995.4,696.4,993.2,698.5,990.5,700.2z"/>
<path class="st1" d="M990.5,700.2c-10.2,6.2-23.4,2.9-29.6-7.2c-1.6-2.7-2.6-5.6-3-8.5c19.7,21.3,32.9,12.9,41.4,5.2
	c-0.2,0.6-0.5,1.3-0.8,1.9c-0.4,0.9-0.9,1.7-1.5,2.5C995.4,696.4,993.2,698.5,990.5,700.2z"/>
<path class="st32" d="M985,666.6c0.9,0.4,1.8,1,2.7,1.7"/>
<path class="st32" d="M966.1,672.3c3.1-3.9,9.5-8,16.2-6.6"/>
<path class="st11" d="M1020.1,664.1c-10.3,9.7-29.1-13.2-21.5-20.7s31.3-37.4,58.7-36.2c24.7-0.4,53.8,11.2,73.7-9.5
	c18.8-16.6,13.7-35.5-3.1-52.8c-16.3-16.7-36.7-20-53.4-4.1c-14,13.3-38.3-7.3-16.3-25.2c65.2-53.2,155.8,46.2,95.4,105
	c-26.1,25.9-51,17.7-82.7,15.4C1049.3,634,1030.5,654.4,1020.1,664.1z"/>
<path class="st33" d="M1132.4,518.7c1.1,0.8,2.3,1.7,3.4,2.6"/>
<path class="st33" d="M1065.2,522.5c10-10.4,34.7-22.4,61.9-7.1"/>
</svg>
