<?xml version="1.0" encoding="utf-8"?>
<!-- Generator: Adobe Illustrator 26.1.0, SVG Export Plug-In . SVG Version: 6.00 Build 0)  -->
<svg version="1.1" id="Layer_1" xmlns="http://www.w3.org/2000/svg" xmlns:xlink="http://www.w3.org/1999/xlink" x="0px" y="0px"
	 viewBox="0 0 1008.3 1130.6" style="enable-background:new 0 0 1008.3 1130.6;" xml:space="preserve">
<style type="text/css">
	.st0{opacity:0.46;fill:#1F1F39;}
	.st1{fill:#FFFFFF;}
	.st2{fill:#1F1F39;}
	.st3{fill:#3B3B4C;}
	.st4{opacity:0.45;fill:#1F1F39;}
	.st5{opacity:0.65;fill:#1F1F39;}
	.st6{fill:#EFAEA6;}
	.st7{opacity:0.14;fill:#1F1F39;}
	.st8{fill:#244798;}
	.st9{opacity:0.18;fill:#1F1F39;}
	.st10{fill:#83BFD1;}
	.st11{opacity:0.12;fill:#244798;}
	.st12{opacity:0.18;fill:#FFFFFF;}
</style>
<path class="st0" d="M274.8,776.8C274.8,776.8,274.8,776.8,274.8,776.8c0.2,0,0.3,0,0.3,0C275.1,776.8,274.8,776.8,274.8,776.8z"/>
<path class="st1" d="M424.5,974.5c0-8.6-2.8-30-2.8-30l-22.8,1.5l4.5,32.2l16.1,8.8L424.5,974.5z"/>
<path class="st2" d="M424.6,970.7c1.9-1.6,6.3,3.6,7.3,7.2c2.3,8.1,27.8,8.5,32.3,9.1c2.4,0.3,6.5,12.3-5.2,12.5
	c-10.1,0.2-42.4,1.1-53.4,1.3c-2.3,0-4.4-1.5-5-3.7c-2.2-7.9-3-26.4,0.1-26.8C404.9,971.2,417.4,976.7,424.6,970.7z"/>
<path class="st1" d="M213.9,1085c3.8-7.7,12.5-27.7,12.5-27.7l-22.7-9.3l-10.3,30.8l10.5,15L213.9,1085z"/>
<path class="st3" d="M429.3,956.3c-1.6,10-21.3,8.7-33.5,6.1c-4.6-2.3-16.8-92.3-24.6-117.6c-1.8-6-29.9-13.5-60.5-14.8
	c-0.8,0-1.6-0.1-2.3-0.1c-18.6-0.6-38-1.9-50-2.4c-4.3-0.2-7.6-0.2-9.6-0.1c-1.4,0.1-2.1-0.1-2,0.1c1.8,6.1,15,50.1,27.8,99.7
	c9.6,37.4-49.4,140.4-49.4,140.4c-15.8-0.1-37.6-11.1-35.8-14.5c1.8-3.4,44.1-94,40.4-120.6c-2.5-17.8-30.6-60-50.3-95.3
	c-9.5-17.1-20.4-42.5-22.2-47.4c-1.3-3.6-2.6-7.5-3.7-11.9c-8.4-32.6,94.1-26,94.1-26c38.1,21.3,136.6,23.5,159.4,59.4
	C421.7,834.4,429.3,956.3,429.3,956.3z"/>
<path class="st0" d="M221.2,818.7C221.2,818.7,221.2,818.7,221.2,818.7c0.2-0.1,0.2-0.2,0.2-0.2
	C221.4,818.5,221.2,818.7,221.2,818.7z"/>
<path class="st4" d="M168,814.4c9.1-11.6,31.5-29.2,30.3-42.9c0,0-29.3,5.8-43.7,10.3L168,814.4z"/>
<path class="st5" d="M313,829.7c-0.8,0.1-1.5,0.2-2.3,0.3c-0.8,0-1.6-0.1-2.3-0.1c-18.6-0.6-38-1.9-50-2.4c-3.9-0.4-7.1-0.5-9.6-0.1
	c-0.8,0.1-1.5,0.3-2.1,0.5c-2.3-6.8-4.3-13.7-4.3-13.7C251.1,813.8,285.6,817.8,313,829.7z"/>
<path class="st2" d="M218.2,1076.5c2.4,0.6,1.5,2.9,1.6,6.6c0.3,8.4,27.7,19.3,32,21c2.2,0.9,3.5,13.4-8,11
	c-9.9-2.1-41.5-8.7-52.3-11.1c-2.3-0.5-3.9-2.4-4-4.7c-0.3-8.2,3.2-29.7,6.3-29.3C197.8,1071.8,207.4,1073.6,218.2,1076.5z"/>
<path class="st2" d="M313.1,859.3"/>
<path class="st6" d="M327.5,514.5c-10.1-23.6,6.7-18.5,4.4-33.8c-0.4-2.5-18.3-10.9-24.3-1.9s-5.2,25.4-2.7,32.6
	c2.6,7.1,12.2,6.2,14.5,4.9C321.7,515,327.5,514.5,327.5,514.5z"/>
<path class="st6" d="M187.4,604.4l20-0.4c0,0,19.3-0.7,15-4.1c-5.8-4.6-6.6-10.4-9.2-13.7c-1.6-2.1-3.1-5.4-4.2-8.8
	c-2.1-5.9-3.3-12-3.3-12l0-1.6l-2.9-3.9l-8.5-11.5c0,0-11.3,9.1-10.3,17.8C185,574.2,184.7,596.1,187.4,604.4z"/>
<path class="st7" d="M209,577.4c-2.1-5.9-3.3-12-3.3-12l0-1.6l-2.9-3.9l-2.4-0.4c0,0-5.2,6.7-6.4,9.2
	C192.4,572.5,200.3,581.8,209,577.4z"/>
<path class="st1" d="M184.9,581.3c7.8-3.5,10.7,10.3,19,9.7c4.4-0.3,3.1-2.1,4.9-4.5c1.1-1.5,2-3.1,4.3-1.3
	c47.1,36.8,21.2,151.5,27.5,158.2c5.2,5.5-27.1,24.2-49.5,22.1c-30.7-3-33.9-36.4-34-42.8c-0.1-6.5,2.6-116.9,2.6-116.9
	S173.5,595.4,184.9,581.3z"/>
<path class="st8" d="M329.2,508.5c0.4,3,20.1,87.6-9.6,102c-13.1,6.4-60,22.8-66.9,30.3c-5.2,5.7-8.7,21.2-6.3,29
	c1.9,6.3,4,12.3,5.2,16.9c3.1,11.7,20,60.1,8.1,77.5c-7.6,11-15.2,11.2-21.3,6.9c-10.6-7.3-7.3-48.3-16.7-86.6
	c-7.3-29.6,3.6-49.2-3.3-73.5c-5.2-18.4-5.3-25.7-5.3-25.7c48.4,11.2,77.2,0.6,86.7-4.6c12.3-6.6-3.9-63,0.3-67.4
	C301.8,511.6,328.2,501.3,329.2,508.5z"/>
<path class="st7" d="M329.2,508.5c0.4,3,20.1,87.6-9.6,102c-13.1,6.4-60,22.8-66.9,30.3c-5.2,5.7-8.7,21.2-6.3,29
	c1.9,6.3,4,12.3,5.2,16.9c3.1,11.7,20,60.1,8.1,77.5c-7.6,11-15.2,11.2-21.3,6.9c-10.6-7.3-7.3-48.3-16.7-86.6
	c-7.3-29.6,3.6-49.2-3.3-73.5c-5.2-18.4-5.3-25.7-5.3-25.7c48.4,11.2,77.2,0.6,86.7-4.6c12.3-6.6-3.9-63,0.3-67.4
	C301.8,511.6,328.2,501.3,329.2,508.5z"/>
<path class="st8" d="M140,795.7c6.3,14.7,46.1-8.4,55.6-22.5c7.9-11.7-3.7-23.5-0.3-48.5c1.7-12.6,3.8-34.2,3.3-50.6
	c-0.1-1.6-0.1-3.2-0.2-4.7c-0.9-12.6-2.6-26.1-4.5-38.7c-0.9-5.7-1.7-11.3-2.6-16.5c-0.6-3.3-1.1-6.5-1.7-9.5
	c-2-11.1-3.8-19.7-4.7-23.4c0,0-20.5,3.6-34.6,24.3c-1.6,2.4-2.9,5.7-3.8,9.7c-0.8,3.3-6.6,18.8-5,34.4c1.9,18.8,4.2,32.3,5.8,43.6
	c1.7,12.4,1.5,25.1,0.5,45.7C146.9,757.1,136.8,788,140,795.7z"/>
<path class="st9" d="M168,624c0.7,4.9,26.9,54.2,30.5,63.6c-0.1-1.6-0.1-16.6-0.2-18.1c-0.9-12.6-2.6-26.1-4.5-38.7L168,624z"/>
<path class="st6" d="M203.7,530.4c3.8,6.6,17.5,16.3,12.8,18.5c-4.7,2.2,8.1,14,3.2,16.6c-11.8,6.1-29.2,5.1-33.5,0.1
	c-4.3-5.1-11.1-21.7-11.1-21.7L203.7,530.4z"/>
<path class="st2" d="M194.4,543c4-1.4,4.5-0.5,6.6-3.1c2.1-2.6-4.3-4,0.3-7.2c4.6-3.2,9.9-6.1,7.7-12c-3.1-8.6-9.8-3.8-13.8-0.7
	c-2.6,2-6.3-4-11.9-0.9c-4.4,2.4-2.7,4.8-6.5,7.1c-2.3,1.4-9-0.4-11.4,4.4c-4.5,8.8,4.5,12.7,1.4,21.3c-3.7,10.1,19,17,20,14.3
	c1.2-3.1-5.3-8.6-3.9-11.3c2.1-4.1,3.8-1.5,7.8-0.2c4.2,1.4,9.7-1.1,3.7-4.7C188.4,546.3,190.8,544.3,194.4,543z"/>
<path class="st8" d="M351.8,515.5c-2.4,5.9-6.9,10.8-14,14c-0.7,0.3-1.4,0.6-2.2,0.9c-0.9,0.3-1.8,0.6-2.7,1c-0.1,0-0.2,0.1-0.4,0.1
	c-0.9,0.3-1.8,0.6-2.6,0.9c-0.3,0.1-0.5,0.2-0.8,0.3c-3.9,1.4-7.7,2.8-11.4,4c0,0-0.1,0-0.1,0c-1.5,0.6-3,1.1-4.5,1.6
	c-0.1,0-0.2,0-0.3,0.1c-1,0.3-2,0.7-2.9,1c-0.5,0.2-1,0.4-1.5,0.5c-0.8,0.3-1.6,0.5-2.3,0.8c-23.7,8-40.1,12.7-49.1,15.3
	c-1.3,0.4-2.5,0.8-3.5,1.1c-8.7,2.7-16.1,1.7-22-1.8c-18.7-10.8-22.4-44.9-5.4-55.4c2.3-1.5,11.4-6.9,22.1-13.3
	c15.8-9.4,35.2-21.1,42.9-25.6c0.8-0.5,1.5-0.9,2.3-1.4c0.1-0.1,0.2-0.1,0.4-0.2c0.1,0,0.2-0.1,0.3-0.2c0.1,0,0.1-0.1,0.2-0.1
	c0.1,0,0.2-0.1,0.3-0.2c0,0,0,0,0,0c1-0.4,2.1-0.8,3.1-1.1c1.1-0.4,2.2-0.6,3.3-0.9c1.2-0.3,2.4-0.4,3.6-0.6
	C335.6,453,361.4,491.8,351.8,515.5z"/>
<path class="st10" d="M358.1,513.5c-2.7,6.3-7.8,11.4-16,14.4c-1.4,0.5-2.9,1-4.2,1.5c-0.8,0.3-1.5,0.5-2.2,0.8
	c-0.9,0.3-1.8,0.6-2.7,1c-0.1,0-0.2,0.1-0.4,0.1c-0.9,0.3-1.8,0.6-2.6,0.9c-0.3,0.1-0.5,0.2-0.8,0.3c-4,1.4-7.8,2.8-11.3,4
	c0,0-0.1,0-0.1,0c-1.5,0.5-3,1.1-4.5,1.6c-0.1,0-0.2,0-0.3,0.1c-1,0.3-2,0.7-2.9,1c-0.5,0.2-1,0.4-1.5,0.5c-0.8,0.3-1.6,0.5-2.3,0.8
	c-23.7,8.1-36.8,11.9-44.8,14.3c-1.5,0.4-2.9,0.8-4.3,1.1c-9.6,1.9-17.4,0.2-23.4-3.7c-18.7-12.1-19.8-45.4-1.9-55.9
	c1.9-1.1,8.4-5,16.6-9.9c13.5-8.1,31.8-19,42.8-25.6c0.8-0.5,1.5-0.9,2.3-1.4c0.1-0.1,0.2-0.1,0.4-0.2c0.1,0,0.2-0.1,0.3-0.2
	c0.1,0,0.1-0.1,0.2-0.1c0.1,0,0.2-0.1,0.3-0.2c0,0,0,0,0,0c1.2-0.7,2.3-1.4,3.2-1.9c1.9-1.2,3-1.8,3-1.8c1.3-0.5,2.6-1,3.9-1.4
	C338.6,444.1,368.9,488,358.1,513.5z"/>
<path class="st8" d="M469.5,500.2c-0.3,0.4-0.6,0.8-0.9,1.1c-2.1,2.3-4.7,4.3-7.7,5.8c-1,0.5-2,0.9-3.1,1.3
	c-0.9,0.3-1.8,0.6-2.7,0.9c-9.9,3.5-19.1,6.5-27.6,9.2c-0.9,0.3-1.8,0.6-2.7,0.8c-30.2,9.5-51.3,14.5-63,17.5c-2,0.5-3.8,1-5.2,1.4
	c-10,2.8-19.3,0.2-27.4-5.7c0,0,0,0,0,0c-2.9-2.1-5.6-4.6-8.2-7.5c-15.6-17.2-24.9-46.5-23.2-67.4c0-0.3,0-0.5,0.1-0.8
	c0.9-9,3.8-16.3,9.2-20.3c1.8-1.3,7-5.1,14-10c0.1-0.1,0.2-0.1,0.3-0.2c0.2-0.2,0.5-0.3,0.7-0.5c1.2-0.9,2.5-1.8,3.9-2.8
	c23.9-16.8,60.9-42.8,60.9-42.8c3.7-1.5,7.4-2.3,11.2-2.5c3.2-0.1,6.4,0.2,9.7,1c0.2,0.1,0.5,0.1,0.8,0.2
	c33.6,8.4,66.5,60.8,67.5,96.8C476.3,485.6,474.4,494,469.5,500.2z"/>
<path class="st10" d="M472.8,501.9c-0.5,0.4-1,0.7-1.5,1c-1.7,1.1-3.6,2-5.7,2.8c-1.5,0.5-3,1.1-4.5,1.6c-1.1,0.4-2.3,0.8-3.4,1.2
	c-0.9,0.3-1.8,0.6-2.7,0.9c-10.2,3.5-19.4,6.6-27.6,9.2c-0.9,0.3-1.8,0.6-2.7,0.8c-31.1,10-48.3,14.1-58.6,16.7
	c-1.5,0.4-3,0.7-4.5,0.8c-8.6,0.9-16.6-2.1-23.9-7.5c0,0-0.1,0-0.1-0.1c-2.7-2-5.3-4.4-7.8-7.1c-15.6-16.9-25.6-45-25.5-66
	c0-0.9,0-1.7,0.1-2.5c0.5-9.7,3.3-17.6,9-21.9c1.2-0.9,3.8-2.7,7.3-5.3c0.1-0.1,0.2-0.1,0.3-0.2c0.2-0.2,0.5-0.3,0.7-0.5
	c1.2-0.9,2.5-1.8,3.9-2.8c22.9-16.2,68.2-47.9,68.2-47.9c1.4-0.6,2.8-1.1,4.2-1.4c3.1-0.8,6.2-1.1,9.4-1c0.3,0,0.6,0,0.9,0
	c36.1,2.3,74.4,61.3,75.3,100.5C484.2,485.6,480.9,495.8,472.8,501.9z"/>
<path class="st8" d="M680.4,451.7c-3.5,2.7-7.5,4.9-12,6.6c-1.1,0.4-2.1,0.8-3.2,1.2c-3.9,1.5-7.8,2.9-11.6,4.2
	c-3,1.1-5.9,2.1-8.7,3.1c-25.4,9-47.8,16.3-67,22.2c-0.1,0-0.1,0-0.2,0.1c-33.9,10.4-58.2,16.5-72.6,20.5c-2.2,0.6-4.1,1.1-5.9,1.7
	c-13.5,4-26.4,2.1-38.1-3.9c-0.1,0-0.2-0.1-0.3-0.1c-8.5-4.4-16.3-10.8-23.4-18.8c-25.6-28.6-41.4-76-39.3-110.4
	c0.1-1.4,0.2-2.8,0.3-4.1c1.5-14.1,6.2-25.7,14.8-32.2c1.6-1.3,5-3.7,9.6-7.1c0,0,0.1,0,0.1-0.1c27.7-20.4,100.1-72.9,118.8-86.3
	c2.8-2.1,4.4-3.2,4.4-3.2c1.4-0.6,2.8-1.1,4.1-1.6c0.3-0.1,0.7-0.2,1-0.3c64.5-20.6,143.2,87.2,147.2,159
	C699.6,423,694.3,441,680.4,451.7z"/>
<path class="st10" d="M708.1,398.5c0.3,23.7-7.9,43.4-27.7,53.2c-0.5,0.2-1,0.5-1.4,0.7c-5,2.3-10,4.5-14.8,6.5
	c-3.7,1.6-7.4,3.1-11,4.6c-2.8,1.1-5.6,2.3-8.4,3.3c-3.6,1.4-7.2,2.8-10.7,4.1c-0.1,0-0.2,0.1-0.4,0.1
	c-15.2,5.6-29.5,10.3-42.5,14.1c-4.6,1.4-9.1,2.6-13.4,3.8c-0.1,0-0.1,0-0.2,0.1c-32.6,8.9-56.2,12.8-67.9,16.2
	c-13.1,3.9-25.6,2.2-37-3.4c-1.1-0.5-2.2-1.1-3.3-1.7c-7-3.9-13.6-9.3-19.7-15.8c-24.9-26.5-41-70.8-41.3-105.2c0-2.1,0-4.2,0.1-6.2
	c0.8-16.3,5.6-29.8,15.2-37.2c10.1-7.8,85.1-62.2,117.8-85.8c3.3-2.4,6.2-4.5,8.6-6.2c0.4-0.3,0.7-0.5,1-0.8
	c3.5-2.5,5.4-3.9,5.4-3.9C623.6,209.9,707.3,324,708.1,398.5z"/>
<path class="st10" d="M680.1,454.4c-4.9,1.8-9.7,3.6-14.4,5.3c-4,1.4-7.9,2.9-11.7,4.2c-6.9,2.5-13.5,4.8-19.9,7
	c-0.1,0-0.2,0.1-0.4,0.1c-15.8,5.5-29.9,10.1-42.5,14.1c-40.8,13-65.5,19-80.4,23.1c-2,0.5-3.9,1-5.8,1.2
	c-11.9,1.9-23.2-0.8-33.7-6.6c-0.9-0.5-1.8-1.1-2.7-1.6c-6.9-4.3-13.5-10-19.5-16.7c-24.5-27.3-40.6-71.4-41.3-105.7
	c0-2.1,0-4.1,0-6.1c0.6-16.9,5.3-30.9,15-38.3c0,0,0.1,0,0.1-0.1c10.6-8.1,86.1-62.8,118.8-86.5c3.3-2.4,6.2-4.5,8.6-6.2
	c4.1-3,6.4-4.7,6.4-4.7C622.2,208.6,705.8,323,710,397.8C711.4,424.4,702.9,445.9,680.1,454.4z"/>
<path class="st8" d="M855.2,373.8c-1.2,1.8-2.5,3.5-3.8,5.1c-1.1,1.4-2.1,2.7-3.2,4c-9.9,11.6-22,21.6-36.7,29.6
	c-130.5,70.3-61,48-81.8,55.5c0,0,0,0,0,0c-1.3,0.5-3.1,1.1-5.2,1.9c-24.6,8.7-48.5,5.4-70.5-6c-0.1-0.1-0.3-0.1-0.4-0.2
	c-0.1-0.1-0.2-0.1-0.4-0.2c-14.5-7.6-28.1-18.8-40.6-32.3c-43.9-47.7-72.7-124.8-71-181.2c0-0.6,0-1.2,0.1-1.8c0-0.1,0-0.1,0-0.2
	c1-24.7,8-45.2,22.2-57.4c1.4-1.2,3.1-2.5,5.2-3.9c30.4-21.3,132.4-71.9,132.4-71.9c9.7-4.9,19.1-8.3,28.4-10.4
	c4-0.9,8-1.5,11.9-1.9C852.7,91.3,923.9,276.4,855.2,373.8z"/>
<path class="st10" d="M946.8,402.4c-4.3,1.9-8.7,3.8-13.3,5.6c-67.9,27.4-164.3,47.9-199,58.7c-1.6,0.5-3.2,1-4.9,1.4c0,0,0,0,0,0
	c-22.3,5.6-44,1.9-64-8.3c-0.2-0.1-0.3-0.2-0.5-0.3c-0.3-0.2-0.7-0.4-1-0.5c-14.3-7.5-27.8-18.4-40.1-31.5
	c-45.2-48-75.1-126.3-73.8-183.7c0-0.1,0-0.3,0-0.4c0-0.5,0-1.1,0.1-1.6c0.8-23,6.7-42.5,18.9-55.1c1.1-1.1,2.2-2.2,3.4-3.2
	c21.1-18,199.1-160,199.1-160C896.8-52.5,1072.9,346.4,946.8,402.4z"/>
<path class="st1" d="M606.7,421.3"/>
<path class="st11" d="M933.6,408c-67.9,27.4-164.3,47.9-199,58.7c-1.6,0.5-3.2,1-4.9,1.4c0,0,0,0,0,0c-1.3,0.5-3.1,1.1-5.2,1.9
	c-24.6,8.7-48.5,5.4-70.5-6c-6.9,2.5-13.5,4.8-19.9,7c-0.1,0-0.2,0.1-0.4,0.1c-15.2,5.6-29.5,10.3-42.5,14.1
	c-40.8,13-65.5,19-80.4,23.1c-2,0.5-3.9,1-5.8,1.2c-2.2,0.6-4.1,1.1-5.9,1.7c-13.5,4-26.4,2.1-38.1-3.9c-1.1,0.4-2.3,0.8-3.4,1.2
	c-0.9,0.3-1.8,0.6-2.7,0.9c-9.9,3.5-19.1,6.5-27.6,9.2c-0.9,0.3-1.8,0.6-2.7,0.8c-31.1,10-48.3,14.1-58.6,16.7
	c-1.5,0.4-3,0.7-4.5,0.8c-2,0.5-3.8,1-5.2,1.4c-10,2.8-19.3,0.2-27.4-5.7c-3.9,1.4-7.7,2.8-11.4,4c0,0-0.1,0-0.1,0
	c-1.5,0.6-3,1.1-4.5,1.6c-0.1,0-0.2,0-0.3,0.1c-1,0.3-2,0.7-2.9,1c-0.5,0.2-1,0.4-1.5,0.5c-0.8,0.3-1.6,0.5-2.3,0.8
	c-23.7,8.1-36.8,11.9-44.8,14.3c-1.5,0.4-2.9,0.8-4.3,1.1c-1.3,0.4-2.5,0.8-3.5,1.1c-8.7,2.7-16.1,1.7-22-1.8l-2-1.7
	c0,0,1.4-0.4,4.1-1.3c11-3.4,43.2-13.4,87.2-27.2c3-0.9,6-1.9,9.1-2.9c7-2.2,14.3-4.5,21.8-6.9c2.1-0.6,4.1-1.3,6.2-2
	c24.5-7.7,51.4-16.3,79.3-25.2c3.9-1.2,7.8-2.5,11.6-3.7c0.2-0.1,0.5-0.2,0.7-0.2c8.7-2.8,17.4-5.6,26.3-8.4
	c2.6-0.8,5.2-1.7,7.9-2.5c42.9-13.9,87.1-28.3,128.7-42.2c3.8-1.3,7.6-2.5,11.4-3.8c26.3-8.8,51.4-17.4,74.4-25.5
	c3.3-1.2,6.5-2.3,9.7-3.4c0.6-0.2,1.3-0.4,1.9-0.7c55-19.5,95.8-35.4,107.9-43.5c0.1-0.1,0.2-0.1,0.3-0.2l33.2,24.8l13.6,10.2
	l63.8,13l2.7,3.4L933.6,408z"/>
<path class="st6" d="M265.8,535.6c-0.7-3,7.6-13.4,5.9-15.1c-3.2-3.2-6.8,3.2-11.3-2.8c-3.5-4.7,5.2-15.1-2-14.4
	c-16.9,1.7-21.2,14.2-12.7,25.9c6.6,9.1,3.7,18.3,7.3,27.1c3.7,8.8,18.2-7.6,18.2-7.6S267.2,541.4,265.8,535.6z"/>
<path class="st8" d="M176.6,589.9c45.9,15.7,118.1,87.9,70.8-41.8c-1.1-3.1,22.5-17.8,24.5-13.1c85,203.2-86.8,104.7-107,97.8
	c-8.6-2.9-15.9-31.1-4.3-35.5C172.3,593,176.6,589.9,176.6,589.9z"/>
<polygon class="st12" points="217.6,516.8 732.4,151.7 745.3,214.5 216.6,524.8 "/>
<ellipse transform="matrix(0.9219 -0.3875 0.3875 0.9219 -16.581 347.8857)" class="st8" cx="854.4" cy="215.1" rx="105.4" ry="205.5"/>
<path class="st1" d="M956.7,214.3c5.8,19.4,9.6,38.4,11.5,56.5c0.4,3.6,0.7,7.2,0.9,10.8c1.2,18.5,0.2,35.8-3,50.9
	c-1.4,6.5-3.1,12.5-5.3,18.2c-5.2,13.7-12.8,24.6-22.7,32.1c-0.6,0.5-1.3,0.9-2,1.4c-8.8,6-18.7,8.8-29.3,8.8
	c-12.6,0-26.1-4.1-39.9-11.7c-3.6-2-7.2-4.2-10.7-6.6c-10.5-7.2-21.1-16.4-31.4-27.4c-3.9-4.2-7.8-8.6-11.6-13.3
	c-0.8-0.9-1.5-1.9-2.3-2.8c-4-5-7.9-10.3-11.7-15.9c-7-10.2-13.7-21.2-19.9-32.9c-2.1-3.9-4.1-8-6.1-12.1
	c-6.4-13.3-12-26.7-16.6-40.1c-6.5-18.9-11.2-37.6-14.1-55.5c-1.6-10.1-2.7-19.9-3.1-29.4c-0.5-10.7-0.3-20.9,0.6-30.5
	c1.3-13.6,4.1-25.9,8.4-36.6c5.4-13.4,13.1-24.1,23.1-31.2c0.3-0.3,0.7-0.5,1.1-0.7c9.2-6.2,19.5-9,30.5-8.8
	c12.7,0.3,26.3,4.6,40.2,12.6c7.7,4.4,15.4,9.9,23.1,16.4c10.7,9.1,21.3,20.1,31.4,32.9c3.1,4,6.2,8.1,9.3,12.4
	c10.2,14.4,19.8,30.7,28.5,48.5c0.2,0.4,0.4,0.8,0.6,1.3C944.6,178.9,951.5,196.8,956.7,214.3z"/>
<path class="st1" d="M644.9,180.3c22.9-3.5,26.2-13.4,30.4-44.3c3,29.3,6.8,40.4,30.1,43.7c-20.3,8.4-27.5,11.4-31.1,45.2
	C669.3,190.7,664.8,187.6,644.9,180.3z"/>
</svg>
