<?xml version="1.0" encoding="utf-8"?>
<!-- Generator: Adobe Illustrator 26.1.0, SVG Export Plug-In . SVG Version: 6.00 Build 0)  -->
<svg version="1.1" id="Layer_1" xmlns="http://www.w3.org/2000/svg" xmlns:xlink="http://www.w3.org/1999/xlink" x="0px" y="0px"
	 viewBox="0 0 1117.34 1218.43" style="enable-background:new 0 0 1117.34 1218.43;" xml:space="preserve">
<style type="text/css">
	.st0{fill:#EFAEA6;}
	.st1{opacity:0.14;fill:#1F1F3B;}
	.st2{fill:#FFFFFF;}
	.st3{fill:#1F1F39;}
	.st4{fill:#3B3B4C;}
	.st5{opacity:0.44;fill:#1F1F39;}
	.st6{opacity:0.46;fill:#1F1F39;}
	.st7{fill:#244798;stroke:#244798;stroke-miterlimit:10;}
	.st8{fill:#244798;}
	.st9{fill:#1F1F3B;}
	.st10{opacity:0.65;fill:#1F1F39;}
	.st11{opacity:0.18;fill:#1F1F39;}
	.st12{fill:#F4AD00;}
	.st13{opacity:0.38;fill:#D36426;}
</style>
<g>
	<g>
		<path class="st0" d="M648.32,243.14c-1.1-8.76,1.51-24.07-3.77-32c-3.99-5.99-8.69-14.6-5.99-19.29
			c4.99-8.65,14.26,10.6,15.45,4.22c3.55-19.07,35.21-14.87,35.81-3.41c1,19.12-5.15,39.42-6.42,52.45
			c-0.37,3.78,1.31,26.68-5.01,34.08c-7.54,8.84-23.62,1.97-28.82,1.56C644.12,280.32,649.43,251.89,648.32,243.14z"/>
	</g>
	<path class="st0" d="M104.66,490.24c-8.2-3.26-6.81-13.81-11.29-22.22c-3.81-7.16-15.35-7.92-13.02,3.05
		c5.08,23.88-53.49-21.32-57.28,11.87c-1.94,16.96,11.37,31.39,22.32,34.84c18.26,5.75,39.45,4.89,52.38,6.92
		c3.75,0.59,25.5,7.95,34.25,3.69c10.44-5.09,7.82-22.37,8.73-27.51C141.72,495.48,112.87,493.5,104.66,490.24z"/>
	<path class="st0" d="M449.62,493.13l37.78-12.7c0,0,36.09-9.65,25.82-13.58c-13.71-5.26-13.53-6.54-20.53-12.18
		c-3.83-3.09-13.04-18.38-17.07-24.55c-0.06-0.1-0.13-0.2-0.2-0.3c-7.06-10.81-14.14-21.88-14.14-21.88l-1.03-2.96l-4.91-3.59
		l-1.17-0.86l-24.88-18.18c0,0-8.65,25.05-1.5,41C434.29,437.89,439.47,478.85,449.62,493.13z"/>
	<path class="st1" d="M475.41,429.82c-7.06-10.81-14.14-21.88-14.14-21.88l-1.03-2.96l-4.91-3.59l-1.17-0.86l-4.57,0.61
		c0,0-12.52,12.95-13.27,18.54C435.26,427.63,455.44,437.33,475.41,429.82z"/>
	<path class="st2" d="M1026.96,846.64c-15.62-4.46-56.13-10.67-56.13-10.67l-9.17,42.4l60.92,8.76l24.29-24.69L1026.96,846.64z"/>
	<path class="st3" d="M1026.16,843.94c0.24-4.67,3.82-1.64,10.8-1.34c15.98,0.68,32.31-54.07,36.06-61.95
		c1.93-4.07,25.85-4.52,19.59,16.71c-5.41,18.36-22.52,77.23-28.56,97.28c-1.26,4.19-5.15,7.04-9.48,6.87
		c-15.45-0.61-37.51-8.17-36.36-13.92C1017.99,878.32,1025.18,863.39,1026.16,843.94z"/>
	<g>
		<path class="st2" d="M151.06,1019.43c13.8,8.83,51.16,26.66,51.16,26.66l21.23-37.36l-56.35-26.27l-30.69,16.17L151.06,1019.43z"
			/>
		<path class="st3" d="M153.93,1023.82c-1.83,4.25-4.19,0.18-10.7-2.56c-14.91-6.26-49.19,38.8-55.44,44.79
			c-3.23,3.09-26.05-4.9-12.83-22.4c11.43-15.13,47.85-63.72,60.47-80.2c2.64-3.44,7.3-4.72,11.34-3.04
			c14.44,6,32.75,20.78,29.68,25.7C173.48,994.8,161.54,1006.12,153.93,1023.82z"/>
	</g>
	<path class="st4" d="M987.22,897.35c-11.4-2.19-208.43-58.3-232.74-58.36c-7.18-0.01-84.14,10.2-152.45,19.46
		c-56.67,7.67-107.37,14.7-107.37,14.7s0,0.09-0.02,0.25c-0.53,8.55-15.23,235.2-57.32,256.67
		c-65.01,33.19-258.31-70.22-267.04-75.62c-8.74-5.4,28.38-73.6,36.26-68.23c7.89,5.41,161.12,82.56,177.29,63.91
		c7.34-8.47-9.31-123.71-15.2-194.89c-1.8-21.73-4.83-35.97-4.83-35.97c-0.14-1.8-0.27-3.39-0.41-4.74
		c-0.28-2.94-0.49-4.78-0.64-5.28c-2.75-9.43,119.56-63.65,119.56-63.65l50.79,2.64c78.11,4.8,185.17,6.13,220.86,9.83
		c38.64,4,244.22,67.03,250.62,70.44C1010.94,831.92,999.23,899.67,987.22,897.35z"/>
	<path class="st5" d="M429.16,790.57c-7.02,18.93-39.41,42.85-60.53,64.68c-2.85-21.62-4.83-35.98-4.83-35.98
		c-0.14-1.8-0.28-3.39-0.41-4.75c6.12-2.93,11.47-1.99,25.22-7.94c0.44-0.19,0.86-0.45,1.22-0.76l17.59-14.94
		C411.22,787.66,430.89,785.92,429.16,790.57z"/>
	<g>
		<g>
			<path class="st2" d="M154.94,1199.14c0.54-0.24,0.96-0.73,1.07-1.36c4.1-22.65,15.35-39.59,34.4-51.79
				c0.86-0.55,1.1-1.69,0.56-2.54c-0.55-0.86-1.68-1.1-2.54-0.56c-19.95,12.78-31.74,30.53-36.03,54.23c-0.18,1,0.48,1.96,1.48,2.14
				C154.25,1199.34,154.62,1199.29,154.94,1199.14z"/>
		</g>
		<g>
			<path class="st2" d="M150.99,1166.49c0.39-0.17,0.71-0.47,0.91-0.88c5.3-10.87,11.18-19.11,18.51-25.93
				c7.14-6.64,15.69-11.96,26.94-16.76c0.01,0,0.01,0,0.02-0.01c0.92-0.4,1.35-1.48,0.95-2.41c-0.4-0.93-1.48-1.37-2.41-0.97
				c-22.99,9.8-36.7,22.69-47.32,44.47c-0.44,0.91-0.07,2.01,0.85,2.46C149.95,1166.7,150.52,1166.7,150.99,1166.49z"/>
		</g>
	</g>
	<path class="st6" d="M471.53,809.34c0,0,0.04,0.01,0.1,0.04c0.04-0.39,0.04-0.57,0.04-0.62
		C471.62,808.84,471.53,809.34,471.53,809.34z"/>
	<path class="st2" d="M432.92,447.42c13.18-1.45,18.62,18.66,34.35,18.29c8.3-0.2,7.8-10.65,11.36-14.74
		c2.19-2.51,7.35-6.52,9.03-5.04c81.5,71.85,19.1,281.69,30.13,294.23c9.02,10.25-54.02,40.96-95.85,35.37
		c-57.37-7.66-59.29-67.3-58.68-78.79c0.61-11.49,19.46-207.63,19.46-207.63S409.84,471.61,432.92,447.42z"/>
	<path class="st7" d="M432.91,447.42c0,0-18.54,7.16-39.71,16.29c-32.67,12.98-134.79,43.31-159.47,44.29
		c-28.91,1.15-117.33-22.08-122.02-23.18c-6.47-1.52-28.38,44.07-18.29,50.04c3.74,2.21,109.55,30.65,141.39,30.23
		c18.39-0.25,112.76-15.51,120.38-8.62c9.25,8.36,12.48,37.69,6.54,61.48c-5.23,20.91-6.62,44.19-13.88,73.08
		c-7.04,27.99-51.56,98.31-34.65,112.98c21.52,18.68,96.53,9.65,116.15-14.65c3.43-4.26,5.24-8.59,6.03-13.19
		c3.01-17.21-8.05-38.21-0.63-73.01c5.23-24.49,12.81-68.21,12.59-98.02C446.87,541.73,435.96,465.03,432.91,447.42z"/>
	<path class="st8" d="M637.9,245.83c-2.54,14.41-13.36,116.06-26.6,130.36c-11.95,12.9-62.52,44.12-124.98,69.46
		c0,0-1.5,24.05,5.99,57.14c9.89,43.74-12.95,77.87-2.91,130.99c8.5,44.99,10.42,103.26-0.43,132.52
		c-6.35,17.11-4.33,26.56,18.82,27.35c12.5,0.43,45.35-10.13,53.53-33.05c11.2-31.37-11.41-99.71-15.78-120.68
		c-1.7-8.16-2.72-27.83-3.86-39.48c-1.79-18.34,9.27-79.56,19.75-90.35c13.37-13.78,76.81-75.27,95.55-101.09
		c16.41-22.61,29.62-137.19,32.15-153.63C690.44,246.72,639.89,234.53,637.9,245.83z"/>
	<g>
		<path class="st0" d="M402.45,400.5c0,0,21.54,19.46,31.33,23.83c0.41,0.18,0.84,0.33,1.3,0.46c10.63,3,35.04-7.57,47.4-24.11
			c5.32-7.13-21.51-15.35-16.28-21.86c3.05-3.79-4.72-6.88-13.76-10.19c-6.14-2.24-12.86-4.57-17.17-7.29
			c-0.24-0.15-0.48-0.31-0.71-0.46l-22.71,28.02L402.45,400.5z"/>
		<path class="st9" d="M395.92,417.99c1.75,17.21,39.54,11.34,39.17,6.8c-0.43-5.3-13.71-8.8-13.57-13.69
			c0.22-7.37,4.55-4.8,11.2-5.72c7.11-0.99,13.39-8.36,2.11-9.52c-9.3-0.95-9.59-4.29-6.94-7.87c0.56-0.77,1.27-1.54,2.04-2.31
			c4.86-4.8,6.23-3.95,7.42-9.12c1.19-5.16-9.03-2.87-4.62-10.72c0.84-1.5,3.96-2.08,5.13-4.22c3.87-7.07,6.24-10.73,0.91-16.37
			c-10.27-10.87-20.16-1.01-23.87,6.34c-2.39,4.73-11.9-1.35-17.98,7.03c-4.77,6.58-0.51,8.82-4.51,14.88
			c-2.42,3.65-13.32,5.79-13.5,14.41c-0.02,0.85,0.01,1.66,0.08,2.42C380.21,403.89,394.5,404.01,395.92,417.99z"/>
	</g>
	<path class="st4" d="M313.59,912.14"/>
	<path class="st10" d="M602.03,858.46c-56.67,7.67-107.37,14.7-107.37,14.7s0,0.09-0.02,0.25c-0.06-0.14-0.08-0.21-0.08-0.21
		l2.68-24.35C497.24,848.85,558.09,844.65,602.03,858.46z"/>
	<g>
		<path class="st11" d="M461.29,471.35c-0.15-0.2-0.75,0.09-1.74,0.73c-4.55,2.95-17.21,13.33-31.08,18.53
			c-3.72,1.4-7.54,2.42-11.31,2.81c-5.41,0.57-10.91,0.4-16.22-0.98l-0.01,0c-0.35-0.09-0.7-0.18-1.05-0.29
			c-0.1-0.02-0.22-0.06-0.33-0.09c-8.68-2.59-41.64-15.94-41.64-15.94s15.35-4.76,18-6.2c-2.72-1.45-18.23-5.62-20.92-7.05
			c-1.47-0.8-2.93-1.57-4.4-2.34c3.2-2.57,6.2-4.96,8.97-7.12c1.4,0.81,2.82,1.6,4.25,2.41c2.15,1.2,4.35,2.41,6.55,3.6
			c14.3,7.75,28.68,14.74,33.41,15.85c3.76,0.87,7.52,1.37,11.26,1.52c0.92,0.05,1.84,0.07,2.75,0.07c1.8,0.02,3.58-0.04,5.35-0.16
			c3.97-0.27,7.86-0.84,11.6-1.62c7.43-1.53,14.27-3.85,20.04-6.12c4.42-1.74,6.49-6.04,10.62-4.76
			C470.88,465.88,462.58,473.07,461.29,471.35z"/>
		<path class="st12" d="M466.36,475.77c-3.57-0.33-4.75-1.97-6.03-3.69c-0.1-0.12-0.37-0.12-0.78,0
			c-3.1,0.89-14.52,7.88-28.36,11.86c-7.08,2.03-14.79,3.27-22.35,2.5c-2.36-0.24-4.7-0.67-6.99-1.34
			c-10.93-3.18-24.9-10.49-38.74-17.9c-2.72-1.45-5.43-2.91-8.12-4.34c-1.47-0.8-2.93-1.57-4.4-2.34
			c-11.2-5.9-21.64-11.02-29.49-13.02c-20.14-5.16-55.74,12.92-87.48,6.3c-19.46-4.06-88.16-33.62-95.05-39.61
			c-6.87-6-9.95-15.41-8.67-20c1.28-4.59,9.04-4.65,21.09-2.58c12.05,2.05,47.83,32.88,88.52,40.35
			c40.68,7.46,57.12-13.52,85.85-9.89c15.86,2,33.01,14.53,48.34,26.08c2,1.5,3.96,2.99,5.89,4.44
			c10.08,7.55,19.12,13.96,26.16,15.62c5.61,1.32,11.25,1.75,16.76,1.56c5.19-0.17,10.25-0.89,15.07-1.94
			c7.1-1.51,13.64-3.75,19.18-5.93c4.42-1.74,5.33-3.26,9.46-2c5.47,1.7,5.83,6.45,5.11,9.06
			C470.59,471.56,468.81,476,466.36,475.77z"/>
	</g>
	<g>
		<g>
			<path class="st12" d="M439.52,150.78c3.53,2.63,10.1,5.23,20.91,7.65c13.31,2.97,22.29,4.98,28.23,6.31
				c2.87,0.64,4.67,3.49,4.04,6.36c-5.68,25.79-8.67,42.42-9.96,50.11c-0.47,2.79,1.33,5.47,4.1,6.09l7.2,1.61
				c2.86,0.64,5.7-1.14,6.37-3.99l11.51-49.21c0.67-2.87,3.54-4.66,6.42-3.98l7.36,1.72c2.88,0.67,4.66,3.54,3.99,6.41l-8.79,36.21
				c-0.68,2.89,1.13,5.78,4.03,6.43l9.77,2.18c2.95,0.66,5.85-1.25,6.41-4.22l6.39-35.06c0.58-3.07,3.65-4.98,6.66-4.16
				c16.65,4.56,29.43,7.71,36.28,9.35c3.01,0.72,4.78,3.83,3.86,6.79l-5.29,16.92c-0.93,2.98,0.89,6.12,3.93,6.81
				c8.17,1.83,22.64,5.06,25.83,5.77c3.18,0.72,5.05-13.87,5.87-22.44c0.3-3.2,3.35-5.4,6.48-4.7l97.34,21.77l8.74,1.95l8.94,2
				c3.35,0.75,6.53-1.81,6.5-5.25l-0.04-5.48c-0.01-1.26,0.43-2.48,1.23-3.45l5.62-6.76c0.84-1.01,1.27-2.29,1.23-3.6l-0.15-4.34
				c-0.08-2.44-1.8-4.5-4.17-5.03l-19.71-4.4l-267.83-59.89c-0.9-0.2-10.07-2.36-15.71-3.48
				C445.67,122.29,425.57,140.41,439.52,150.78z"/>
			<path class="st12" d="M816.52,150.05c38.97,8.72,63.48,47.36,54.77,86.32c-1.69,7.56-4.51,14.59-8.24,20.92
				c-15.49,26.31-46.67,40.87-78.08,33.85c-33.36-7.47-56.14-36.87-56.52-69.63c-0.04-3.32,0.15-6.67,0.59-10.03
				c0.28-2.21,0.67-4.43,1.16-6.65c1.41-6.3,3.6-12.23,6.45-17.69C751.42,158.8,783.85,142.74,816.52,150.05z M837.09,228.72
				c4.49-20.07-8.15-39.98-28.21-44.47c-20.07-4.48-39.98,8.15-44.47,28.22c-4.48,20.07,8.15,39.98,28.22,44.46
				C812.69,261.42,832.6,248.79,837.09,228.72z"/>
		</g>
		<path class="st13" d="M439.52,150.78c3.53,2.63,10.1,5.23,20.91,7.65c13.31,2.97,22.29,4.98,28.23,6.31
			c2.87,0.64,4.67,3.49,4.04,6.36c-5.68,25.79-8.67,42.42-9.96,50.11c-0.47,2.79,1.33,5.47,4.1,6.09l7.2,1.61
			c2.86,0.64,5.7-1.14,6.37-3.99l11.51-49.21c0.67-2.87,3.54-4.66,6.42-3.98l7.36,1.72c2.88,0.67,4.66,3.54,3.99,6.41l-8.79,36.21
			c-0.68,2.89,1.13,5.78,4.03,6.43l9.77,2.18c2.95,0.66,5.85-1.25,6.41-4.22l6.39-35.06c0.58-3.07,3.65-4.98,6.66-4.16
			c16.65,4.56,29.43,7.71,36.28,9.35c3.01,0.72,4.78,3.83,3.86,6.79l-5.29,16.92c-0.93,2.98,0.89,6.12,3.93,6.81
			c8.17,1.83,22.64,5.06,25.83,5.77c3.18,0.72,5.05-13.87,5.87-22.44c0.3-3.2,3.35-5.4,6.48-4.7l97.34,21.77
			c0.38,32.77,23.16,62.17,56.52,69.63c31.41,7.02,62.59-7.54,78.08-33.85c-31.75,18.91-47.66,28.89-76.19,21.8
			c-36.68-9.12-41.62-31.73-48.84-49.17c-1.33-3.21-1.67-12.88-2.91-13.56c-3.49-1.93-1.93-0.99-8.39-2.56
			c-6.46-1.57-61.36-14.94-68.57-16.08c-8.82-1.4-198.43-53.83-216.79-48.26C440.63,149.68,440.02,150.12,439.52,150.78z"/>
	</g>
	<path class="st0" d="M642.71,208.26c-2.66-3.77-10.92-18.6-6.87-20.62c6.21-3.1,11.08,2.22,12.86,5.76
		c1.77,3.55,7.98,13.3,7.98,14.63C656.68,209.37,645.37,212.03,642.71,208.26z"/>
	<path class="st2" d="M581.08,71.99c26.27-4.89,29.67-16.68,33.43-52.99c4.5,34.2,9.28,47.07,36.24,50.14
		c-23.1,10.52-31.22,14.33-34.14,54.12C609.58,83.28,604.32,79.89,581.08,71.99z"/>
	<path class="st2" d="M735.41,354.89c25.81-4.81,29.16-16.39,32.85-52.07c4.42,33.6,9.12,46.25,35.61,49.26
		c-22.7,10.34-30.68,14.08-33.55,53.18C763.41,365.98,758.25,362.65,735.41,354.89z"/>
</g>
</svg>
