<?xml version="1.0" encoding="utf-8"?>
<!-- Generator: Adobe Illustrator 26.1.0, SVG Export Plug-In . SVG Version: 6.00 Build 0)  -->
<svg version="1.1" id="Layer_1" xmlns="http://www.w3.org/2000/svg" xmlns:xlink="http://www.w3.org/1999/xlink" x="0px" y="0px"
	 viewBox="0 0 1009.4 1578.8" style="enable-background:new 0 0 1009.4 1578.8;" xml:space="preserve">
<style type="text/css">
	.st0{fill:#FFFFFF;}
	.st1{fill:#1F1F39;}
	.st2{fill:#3B3B4C;}
	.st3{opacity:0.4;fill:#1F1F39;enable-background:new    ;}
	.st4{opacity:0.46;fill:#1F1F39;enable-background:new    ;}
	.st5{fill:#EFAEA6;}
	.st6{opacity:0.14;fill:#1F1F39;enable-background:new    ;}
	.st7{fill:#244798;}
	.st8{fill:#603A3E;}
	.st9{opacity:0.18;fill:#1F1F39;enable-background:new    ;}
	.st10{fill:#F4AD00;}
	.st11{fill:#FFFFFF;stroke:#3B3B4D;stroke-width:9;stroke-miterlimit:10;}
	.st12{fill:none;stroke:#244798;stroke-width:18;stroke-linecap:round;stroke-linejoin:round;stroke-miterlimit:10;}
</style>
<path class="st0" d="M236.7,1228.5c-4.2-16.2-9.8-58.1-9.8-58.1l43.4-8.6l7.7,63l-25.7,24.6L236.7,1228.5z"/>
<path class="st1" d="M232.1,1222.1c-4.8-0.2-2,3.8-2.3,11c-0.6,16.5-57.7,28.6-66,31.7c-4.3,1.6-6.8,26.2,15.3,21.6
	c19.1-4,80.4-16.5,101.3-21c4.4-0.9,7.6-4.7,7.8-9.2c0.7-15.9-5.2-39.3-11.1-38.6C267.8,1216.7,252,1222.8,232.1,1222.1z"/>
<path class="st2" d="M470.2,746.2c-52.3-11.4-275.4,133.2-286.7,148.4c-27.2,36.5,36.4,307.6,36.4,307.6s69.5,6.4,69-2.7
	s-42.3-240.9-35.8-253.3c6.5-12.4,181.1-73.6,207.8-109.9C487.6,799.9,470.2,746.2,470.2,746.2z"/>
<path class="st3" d="M470.2,746.2c-52.3-11.4-275.4,133.2-286.7,148.4c-27.2,36.5,36.4,307.6,36.4,307.6s69.5,6.4,69-2.7
	s-42.3-240.9-35.8-253.3c6.5-12.4,181.1-73.6,207.8-109.9C487.6,799.9,470.2,746.2,470.2,746.2z"/>
<path class="st2" d="M262.4,1272l-48.6,11.4c-4.4,1-7.1,5.4-6,9.7l0,0c1,4.4,5.4,7.1,9.7,6l48.6-11.4c4.4-1,7.1-5.4,6-9.7l0,0
	C271.1,1273.7,266.7,1271,262.4,1272z"/>
<path class="st0" d="M394.3,1131c113.4,19.1,189.9,126.5,170.8,239.9s-126.5,189.9-239.9,170.8s-189.9-126.5-170.8-239.9
	C173.5,1188.4,280.9,1111.9,394.3,1131z M329.1,1518.6c100.7,16.9,196-51,212.9-151.6c16.9-100.7-51-196-151.6-212.9
	c-100.7-16.9-196,51-212.9,151.6C160.6,1406.4,228.5,1501.7,329.1,1518.6z"/>
<path class="st4" d="M459.1,943L459.1,943c-0.3-0.2-0.4-0.3-0.4-0.3C458.8,942.7,459.1,943,459.1,943z"/>
<path class="st1" d="M415.2,900.2l-72.7,487.4c-0.7,4.4,2.4,8.6,6.8,9.2l0,0c4.4,0.7,8.6-2.4,9.2-6.8l72.7-487.4
	c0.7-4.4-2.4-8.6-6.8-9.2l0,0C420,892.7,415.9,895.8,415.2,900.2z"/>
<path class="st1" d="M530.2,880.5c8.4,13.8-8.1,47.6-28.1,50.8c-20,3.2-129.7-5.7-141.2-16.7c-10.6-10.1-6.7-39.4,8.9-43.1
	c24.3-5.7,96.5,12.6,114,13.1C501.3,885.2,520.4,864.5,530.2,880.5z"/>
<path class="st0" d="M482.3,1275.4c-14.5-8.3-48.3-33.8-48.3-33.8l24.3-37l50.3,38.6l-0.5,35.5L482.3,1275.4z"/>
<path class="st1" d="M474.6,1274.2c-3.5,3.3,1.3,4.1,6.2,9.3c11.3,12-20.1,61.2-23.6,69.3c-1.8,4.2,13.9,23.2,26.1,4.2
	c10.6-16.4,44.6-68.9,56-87c2.4-3.8,2-8.7-1.1-12c-10.9-11.7-31.6-23.8-35.3-19.1C495.7,1244.9,489,1260.5,474.6,1274.2z"/>
<path class="st2" d="M242.7,1043.4c8.8,66.5,200.2,224.6,200.2,224.6c36.3,1.5,46.3-32.8,48.9-39.6
	c-19.2-35.8-171.9-155.5-168.4-188.4c2.9-27.9,166.9-109.1,202.7-177.5c0-0.1,0.1-0.1,0.1-0.2c4.5-8.7,2.7-16.1,3.7-26.5
	c0.9-8.6,0.8-17.6-0.2-27.1c-0.3-3.2-0.8-6.4-1.3-9.7c-1.7-10.2-11.4-43-42.2-34.2c-27.4,7.8-52.3,4.2-59.9,17.4
	c-5.3,9.2-2.7,29.3-6.7,39.9c-3.6,9.5-8,16.6-20,25.9C360.2,878.7,233.9,976.8,242.7,1043.4z"/>
<path class="st2" d="M542.3,1308.9l-36.2,34.3c-3.3,3.1-3.4,8.2-0.3,11.5l0,0c3.1,3.3,8.2,3.4,11.5,0.3l36.2-34.3
	c3.3-3.1,3.4-8.2,0.3-11.5l0,0C550.7,1306,545.5,1305.9,542.3,1308.9z"/>
<ellipse class="st1" cx="357" cy="1345.4" rx="51.5" ry="51.5"/>
<path class="st5" d="M173.7,596.6c-9.2-3.9-20.6-11-31.7-18.1c-10.8-6.8-21.1-10.7-32.1-11.1c-9.7-0.4-44.5-15.8-44.4-30.4
	c0-6.2,19.9-8.9,29.5-2.8c24.8,15.7,18.5-7.7,24.9-6.9c7.4,0.9,4.6,18.6,29.1,19.4c13.6,0.5,36.3,11.9,40.2,16.1
	C193.3,566.9,173.7,596.6,173.7,596.6z"/>
<path class="st3" d="M457,830.5c13.4,30,32.8,44.4,60.3,45.4c13.3-17.3,11.5-29.8,12.5-40.2c0.9-8.6,0.8-17.6-0.2-27.1
	c-13.7-3.8-17-21.7-41.6-29.2c-8.9-2.7-29.9,21.3-29.9,21.3C454.1,814.1,453,821.6,457,830.5z"/>
<path class="st5" d="M449.2,480.4c-0.8,4.6-2,9-3.6,12.2c-3.2,6.4-2.7,16.4-10.8,25.8c-6.1,7.1,26.4,1.9,26.4,1.9l33.4-5.7
	c1.8-14.7-11-47.4-12-60.9c-1.1-14.8-17.8-30-17.8-30l-13.7,28.7l-0.3,0.6l0.4,2.6C451.3,455.7,451.3,468.8,449.2,480.4z"/>
<path class="st6" d="M450.8,453.1l0.4,2.6c0,0,0,13.1-2.1,24.7c17.7,7.7,29.2-12.2,24.9-18.1c-2.8-3.9-13.6-13.3-13.6-13.3l-9.3,3.5
	L450.8,453.1z"/>
<path class="st0" d="M492.2,488.5c-13.2-6.2-18.5,17.1-32.6,15.8c-7.5-0.6-5.3-3.7-8.2-7.7c-1.8-2.5-3.4-5.2-7.4-2.3
	c-81,60.9-40.1,255.7-51,267c-8.9,9.2,48.4,34.9,86.5,31.9c52.3-4.1,34.8-52.2,35.1-63.1c0.3-10.9,19.6-199.4,19.6-199.4
	S511.1,512.7,492.2,488.5z"/>
<path class="st7" d="M130.9,578c4.4,2.7,124.5,72.8,158.5,62.5c23.7-7.2,78.2-47.8,91.9-38.7c4.3,2.9,2.7,20.8,3.7,34.6
	c1.3,16.7-7.5,64.3-9.6,71.9c-5.6,19.6-28.7,71.9-15.4,87.4c14.7,17.3,25.5,19.4,36.1,12.3c11.4-7.6,12.8-78.1,30.7-146
	c13.2-49.8-4.8-83.4,7.5-124.3c9.3-31,9.6-43.4,9.6-43.4c-82.3,23.3-138.7,86.6-163.2,93.1c-23,6.1-133.4-52.7-140.7-45.4
	C137.4,544.7,128.7,576.6,130.9,578z"/>
<path class="st5" d="M797.8,595.3c10.3-2.9,17.2-3.6,30.1-9.5c12.5-5.7,17.6-8.5,30.8-10.5c10.3-1.5,37.3-10.4,44.7-24.1
	c6.6-12.2-5.7-31.8-15-22.7c-37.1,36.5-41-0.6-47.4,1.9c-10.8,4.2,5.6,20.6-20.5,18.3c-14.5-1.2-29,5.6-33.8,9.4
	C781.8,561.9,797.8,595.3,797.8,595.3z"/>
<path class="st5" d="M468.5,401c-9.9,7.5-36.5,13.3-30.9,19.7s-21,15.9-15.2,22.9c13.9,16.8,40.7,26.4,50.3,21.5
	c9.6-4.9,30.3-25.6,30.3-25.6L468.5,401z"/>
<path class="st1" d="M474.5,425.8c-5.1-4.6-6.5-3.7-8-8.9c-1.5-5.2,8.9-3.3,4.1-11.1c-4.9-7.7-11-15.5-4-23
	c10.1-10.9,17.1,0.5,21.2,7.8c2.7,4.7,11.9-1.9,18.5,6.2c5.2,6.4,1,8.9,5.3,14.8c2.6,3.6,13.7,5.2,14.4,13.9
	c1.2,16.2-14.8,16.2-15.5,31.2c-0.8,17.5-39.2,13.4-39.1,8.8c0.2-5.4,13.3-9.5,12.9-14.5c-0.6-7.4-4.8-4.6-11.6-5.2
	c-7.2-0.7-13.9-7.8-2.6-9.5C481.4,434.6,479.2,430,474.5,425.8z"/>
<g>
	<path class="st8" d="M597.1,1237c-0.9-0.2-1.7-0.9-2-1.8c-12.8-33.8-35-56.7-67.8-70.1c-1.5-0.6-2.2-2.3-1.6-3.8
		c0.6-1.5,2.3-2.2,3.8-1.6c34.4,14,57.7,38.1,71.1,73.4c0.6,1.5-0.2,3.2-1.7,3.7C598.2,1237.1,597.6,1237.2,597.1,1237z"/>
</g>
<g>
	<path class="st8" d="M593.9,1185.5c-0.6-0.2-1.2-0.5-1.7-1.1c-11.3-15.3-22.7-26.3-36-34.8c-12.9-8.2-27.6-14-46.3-18.2l0,0
		c-1.5-0.4-2.5-1.9-2.2-3.4c0.3-1.6,1.9-2.5,3.4-2.2c38.3,8.6,63.1,24.6,85.7,55.1c0.9,1.3,0.7,3.1-0.6,4
		C595.5,1185.5,594.7,1185.7,593.9,1185.5z"/>
</g>
<g>
	<path class="st8" d="M119.7,1350.2c0.4,0.4,0.6,1.1,0.5,1.7c-5.3,23.5-1.3,44.4,12.1,63.9c0.6,0.9,0.4,2.1-0.5,2.7
		s-2.1,0.4-2.7-0.5c-14-20.4-18.2-42.3-12.7-66.9c0.2-1,1.3-1.7,2.3-1.5C119.1,1349.8,119.4,1350,119.7,1350.2z"/>
</g>
<g>
	<path class="st8" d="M102.6,1380.1c0.3,0.3,0.5,0.7,0.5,1.2c0.7,12.6,3,23,7.3,32.5c4.2,9.3,10.3,17.9,19.1,27.1l0,0
		c0.7,0.8,0.7,2-0.1,2.7s-2,0.7-2.7,0c-18.2-18.8-26.1-36.8-27.5-62.1c-0.1-1.1,0.8-2,1.8-2C101.7,1379.5,102.2,1379.7,102.6,1380.1
		z"/>
</g>
<g>
	<path class="st8" d="M373.7,32.9c-0.1,0.5-0.5,0.9-1,1c-17.9,5.6-30.5,16.5-38.4,33.1c-0.4,0.7-1.3,1.1-2,0.7s-1.1-1.3-0.7-2
		c8.3-17.5,21.5-28.8,40.2-34.7c0.8-0.2,1.6,0.2,1.9,1C373.8,32.3,373.8,32.6,373.7,32.9z"/>
</g>
<g>
	<path class="st8" d="M346.9,33.1c-0.1,0.3-0.3,0.6-0.6,0.8c-8.3,5.4-14.3,11-19.1,17.6c-4.6,6.5-8.1,13.9-10.8,23.5l0,0
		c-0.2,0.8-1.1,1.2-1.8,1c-0.8-0.2-1.3-1.1-1-1.9c5.6-19.6,14.6-32,31.2-42.8c0.7-0.5,1.6-0.3,2.1,0.4
		C346.9,32.2,347,32.6,346.9,33.1z"/>
</g>
<path class="st7" d="M492.2,488.5c47.7,17.1,157.9,82.7,185.3,86.5c27.7,3.8,145.5-37.6,149.8-28.1c4.4,9.5,12.8,32,5.9,39.8
	s-139.9,48.6-163,45.2c-31.5-4.7-95.1-44.9-104.5-29.4c-19.2,31.6-30.7,88.4-9.1,188.8c4.3,19.8,0,73.2-23.9,64.6
	c-23.9-8.5-74.7-29.6-76.1-50.3s18.3-67.8,5.4-118.4C445.7,623,492.2,488.5,492.2,488.5z"/>
<path class="st9" d="M462.2,508.3c0.2-0.2,0.8,0.1,1.7,0.8c4.4,3.2,16.6,14.2,30.3,20.1c3.7,1.6,7.4,2.8,11.2,3.4
	c5.4,0.8,10.9,0.9,16.3-0.2l0,0c0.4-0.1,0.7-0.1,1.1-0.2c0.1,0,0.2-0.1,0.3-0.1c8.8-2.2,21.1-3.8,38.1-11
	c-1.6-2.4-24.3-11.2-25.9-13.4c2.8-1.3,31.2-1.4,34-2.7c1.5-0.7,3-1.4,4.5-2.1c-3.1-2.7-6-5.3-8.7-7.6c-1.4,0.7-2.9,1.5-4.4,2.2
	c-2.2,1.1-4.5,2.2-6.7,3.3c-14.7,7.1-29.5,13.4-34.3,14.3c-3.8,0.7-7.6,1-11.4,1c-0.9,0-1.8,0-2.8-0.1c-1.8-0.1-3.6-0.2-5.4-0.4
	c-4-0.5-7.8-1.2-11.6-2.2c-7.4-1.9-14.1-4.5-19.8-7.1c-4.4-2-6.2-6.4-10.4-5.3C452.9,502.4,460.9,510,462.2,508.3z"/>
<path class="st10" d="M458,515.3c3.4-0.2,4.6-1.7,5.9-3.2c0.1-0.1,0.4-0.1,0.7,0c2.9,1,13.4,8.1,26.4,12.6
	c6.6,2.3,13.9,3.8,21.1,3.4c2.2-0.1,4.5-0.4,6.7-1c10.5-2.5,24.1-8.8,37.6-15.3c2.7-1.3,5.3-2.5,7.9-3.8c1.4-0.7,2.9-1.4,4.3-2
	c10.9-5.1,21.1-9.5,28.6-11.1c19.4-4,52.4,14.8,82.9,9.9c18.7-3,85.3-28,92.1-33.4s10.2-14.2,9.1-18.6c-1-4.4-8.4-4.8-19.9-3.4
	s-46.9,29.1-86,34.4c-39,5.3-53.7-15.4-81.2-13.3c-15.2,1.2-32,12.3-47.1,22.6c-2,1.3-3.9,2.7-5.8,4c-9.9,6.7-18.8,12.4-25.6,13.7
	c-5.4,1-10.8,1.2-16,0.7c-4.9-0.4-9.7-1.3-14.2-2.5c-6.7-1.8-12.8-4.2-18-6.5c-4.1-1.9-4.9-3.3-8.9-2.3c-5.3,1.4-5.8,5.9-5.3,8.4
	C454.2,511.1,455.7,515.4,458,515.3z"/>
<path class="st11" d="M57.4,387.9c-5.7,7-21.6,92.1-12.7,96.6c14.4,7.2,90.7,9.1,99.1,2.3c8.5-6.8,17.8-91.5,14.4-96.6
	S63.4,380.6,57.4,387.9z"/>
<path class="st12" d="M67.5,435.1c8.3,16.5,10.1,26.2,23.5,26.5c15.7,0.3,31.8-29.9,102.8-80.5"/>
<path class="st11" d="M846.5,392.3c-6.6,6.2-33.6,88.5-25.4,94.1c13.3,9,88.7,21,98,15.4s29.7-88.4,27.1-93.8
	C943.4,402.5,853.4,385.8,846.5,392.3z"/>
<path class="st12" d="M850.2,440.4c6.1,17.5,6.5,27.3,19.8,29.4c15.5,2.4,35.5-25.4,112.5-66.2"/>
<path class="st11" d="M152.9,192.8c-3.6,8.3,3.7,94.6,13.5,96.5c15.8,3.1,89.8-15.4,96.2-24.2c6.4-8.8-7.3-92.9-11.9-96.9
	C246,164.1,156.7,184.1,152.9,192.8z"/>
<path class="st12" d="M175.2,235.5c12.4,13.7,16.7,22.6,29.7,19.3c15.2-3.9,22.7-37.3,77.6-105"/>
<path class="st11" d="M582.6,105.7c-6.2,6.5-28.7,90.2-20.2,95.3c13.8,8.3,89.7,16.1,98.7,10s24.8-89.9,21.8-95.2
	C679.9,110.5,589.1,98.8,582.6,105.7z"/>
<path class="st12" d="M589,153.5c7,17.1,8,26.9,21.4,28.3c15.7,1.6,34-27.3,108.7-72.3"/>
<path class="st11" d="M381.4,73.3c-6.3,6.5-29.4,90-21,95.1c13.7,8.4,89.5,16.9,98.6,10.8c9-6,25.6-89.6,22.6-95
	C478.8,78.9,388,66.5,381.4,73.3z"/>
<path class="st11" d="M784.8,208.4c-4.7,7.7-8.4,94.3,1.1,97.4c15.3,5.1,91-3.8,98.5-11.7c7.4-7.9,4.7-93.1,0.6-97.7
	C880.9,191.9,789.7,200.3,784.8,208.4z"/>
</svg>
