<?xml version="1.0" encoding="utf-8"?>
<!-- Generator: Adobe Illustrator 26.1.0, SVG Export Plug-In . SVG Version: 6.00 Build 0)  -->
<svg version="1.1" id="Layer_1" xmlns="http://www.w3.org/2000/svg" xmlns:xlink="http://www.w3.org/1999/xlink" x="0px" y="0px"
	 viewBox="0 0 936.4 1069.5" style="enable-background:new 0 0 936.4 1069.5;" xml:space="preserve">
<style type="text/css">
	.st0{fill:#EFAEA6;}
	.st1{fill:#EEADA5;}
	.st2{fill:#FFFFFF;}
	.st3{fill:#1F1F39;}
	.st4{fill:#3B3B4C;}
	.st5{opacity:0.57;fill:#1F1F39;}
	.st6{opacity:0.14;fill:#1F1F3B;}
	.st7{fill:#244798;}
	.st8{fill:#191939;}
	.st9{opacity:0.24;fill:#1F1F3B;}
	.st10{fill:#F4AD00;}
	.st11{opacity:0.15;fill:#1F1F3B;}
</style>
<path class="st0" d="M800,198.8c24.6-15.5,62-9.5,79.4-12.2c9.8-1.5,38.6-3.5,37.6,4.6c-0.7,5.8-24.6,4.6-44.5,12.9
	c-7.5,3.1,1.9,24-8.2,28.5c-10.2,4.4-22.6-14.6-39.9-3.8C807.2,239.6,800,198.8,800,198.8z"/>
<path class="st1" d="M191.1,377.6c-2.9,14-9,39.7,1.7,52.5c10.7,12.8,43.8,21.8,55.5,12.4c11.7-9.4-19.1-21.8-20.2-25.7
	c-3.5-12.2-4.6-38.4,1.4-45C235.4,365.3,191.1,377.6,191.1,377.6z"/>
<path class="st2" d="M577.1,992.7c0.6-16.5-2.9-58-2.9-58l-42.6,0.8l5.8,62.3l29.2,18.3L577.1,992.7z"/>
<path class="st3" d="M580.1,985.6c4.4-1.2,2.7,3.2,4.4,10.1c4,15.8,60.1,15.4,68.6,16.8c4.4,0.7,11.8,23.8-9.9,24
	c-18.8,0.2-79,0.9-99.6,1c-4.3,0-8.1-2.9-9.2-7.2c-3.9-15.2-3.3-38.9,2.4-39.5C545.5,987.8,561.6,990.4,580.1,985.6z"/>
<path class="st2" d="M141.1,885.4c15.7-4.1,54-19.3,54-19.3l-12.3-41.4L125.6,848l-9.3,33.8L141.1,885.4z"/>
<path class="st3" d="M148.6,886.2c2.3,4-2.3,3.5-8.4,7.2c-13.8,8.4,1.8,63.2,2.8,71.9c0.6,4.5-19.3,18.3-25.4-2.9
	c-5.3-18.3-22.3-77-28-97.1c-1.2-4.2,0.6-8.8,4.3-11c13.3-8.2,35.8-14.3,37.9-8.8C137.1,853,139.1,869.5,148.6,886.2z"/>
<path class="st4" d="M587.7,972.5c-3.8,0.4-7.4,0.8-10.9,1.2c-20.9,2-34.4,1.8-41.5,1.5c-3.9-0.2-5.8-0.5-5.8-0.5
	c-4-17.8-5-87.6-8.5-148.3c-0.7-12.5-1.5-24.5-2.5-35.7c-2.2-25.4-5.2-46-9.5-55.7c-13.4-30.5-41.1-93.8-60.9-139v0
	c-12.7-29.1-22.2-50.8-22.6-51.6c-9.3,67-12.3,106.9-33.5,178c-5.1,13.8-13.5,27.3-24.3,40.2c-8.5,10.1-18.4,19.9-29.1,29.2
	c-67.4,58.4-168.6,99.1-168.6,99.1c-2.7-4.1-5.2-8.3-7.3-12.5c-8.1-15.6-12.1-30.7-13.1-40.1c-0.7-6.3,0-10.2,1.8-10
	c16.5-9.7,53.8-31.1,89.1-55.1c13-8.9,25.8-18.1,37.2-27.3c23.6-19.1,41.1-37.8,42-52c2.4-39.4-8.6-186.7-0.6-282.8
	c0.8-9.9,141.7-16.9,141.7-16.9l34.1,1.5c28.2,67.8,75,292,82,327.8c2.4,12.4,4.6,44.5,6.3,81.8c0.5,10.5,0.9,21.4,1.4,32.3
	C586.9,900.3,588.2,965.7,587.7,972.5z"/>
<path class="st5" d="M448.2,595.9c-14.4-27.7-22.6-51.6-22.6-51.6c2.4-20.1,3.6-43.6,3.6-43.6S443.6,562.1,448.2,595.9z"/>
<path class="st0" d="M535.9,86c-1.4,14.4,5.5,50.6,1,65.9l-35.2,1.3c0,0-34.1,0.8-26.6-5.8c10-8.8,6-4.3,10.5-10.6
	c2.7-3.8,5.7-11.4,8.5-19.6c3.7-11.2,7-23.7,8.5-29.8c0.6-2.4,0.9-3.8,0.9-3.8l0-2.8l19.7-29C523.3,51.9,537.4,70.3,535.9,86z"/>
<path class="st6" d="M495.8,111.2c3.7-11.2,5.2-17.6,6.8-23.7l8.5-2c0,0,15.7,1.8,17.9,6.3C532.3,98.6,512.3,121.4,495.8,111.2z"/>
<path class="st2" d="M496.8,116.4c13.8-0.5,9,23.1,21.7,27.5c6.7,2.3,6-1.3,10.1-3.9c2.5-1.6,5-3.5,7.2,0.8
	c45.2,88.4-58.6,254.7-53.8,269.4c4,12.1-65,19.1-96.6,1.3c-79.4-44.8-32.8-62.5-22.1-89.5c4.1-10.3,80.4-182.9,80.4-182.9
	S470.8,131.4,496.8,116.4z"/>
<path class="st7" d="M825.9,236c-8.7,6.5-109.9,11.2-144.5,12.3c-34.9,1.1-81.1,1.8-99,3.7c-8.1,0.9-29.8,6.1-34.1,13.6
	c-4.3,7.5-7.9,16-9.9,24c-0.9,3.7-1.6,7.3-1.7,10.6c-0.6,11.3-9.9,57.8-11.1,65.7c-3,19.7,2.8,64.2-4.4,74.7
	c-7.2,10.5-13,16.4-19.2,19.3c-6.3,2.8-50.1,6.6-56.4-4.1c-3.4-5.8-6.8-20-4-33.6c0.1-0.3,0.1-0.7,0.2-1
	c3.5-14.6,19.8-34.1,25.9-54.4c5.9-19.8,11.9-41.6,15.6-63.7c8.6-51.4,37.5-75.5,43.3-118.2c0.6-4.6,1.3-8.9,1.9-12.7
	c0.3-1.8,0.6-3.4,0.9-5c1.5-8.6,3-14.8,4.1-19c1.3-5.1,2.2-7.3,2.2-7.3c0.2,0.1,0.4,0.2,0.7,0.4c52.9,28.4,133.2,45.5,148.2,46.3
	c20.6,1.1,117.1-2.6,140.9-4.3C835.3,182.5,831.7,231.6,825.9,236z"/>
<path class="st0" d="M547.9,60.5c0,0-2.6,5.3-6.1,11.9c-4.3,8.1-10,18-14,22.4c-0.3,0.3-0.6,0.6-1,0.9c-8.6,7.1-34.8,7.7-52.2-2.1
	c-7.4-4.2,14.2-22.6,7-26.3c-4.1-2.1,1.7-8,8.7-14.6c4.9-4.6,10.3-9.6,13.4-13.9c0.2-0.2,0.3-0.5,0.5-0.7L547.9,60.5z"/>
<path class="st8" d="M560.3,73.4c0.5,1.6,0.5,3.2,0.2,4.7c-2.7,13.4-32.5,21.3-33.6,17.5l0,0c-1.5-4.9,9.4-13.5,7.5-17.9
	c-2.9-6.5-5.9-2.4-12.3-0.5c-6.9,2-15.3-2-5.4-7.7c2.6-1.5,4.3-2.9,5.3-4.1c2.6-3.3-0.4-5.5-4.5-7.1c-6.2-2.3-7.1-1-10.1-5.1
	c-3-4.1,7.2-6.3,0.3-11.5c-1.3-1-2.7-2-4-3c-5.2-4-9.6-8.2-7.4-15c0.2-0.5,0.3-0.9,0.5-1.4c1.3-3.1,2.9-5,4.5-6.2
	c0.6-0.5,1.3-0.8,2-1l0,0c4.9-1.6,10.5,2.4,14.6,5.7c0.3,0.3,0.6,0.5,0.9,0.8c0.8,0.7,1.7,0.8,2.7,0.7c3.9-0.6,9.5-5.8,16.4-1.8
	c6.8,3.9,3.7,7.7,9.5,11.5c3.5,2.3,14.3-0.3,17.6,7.4c1.1,2.5,1.5,4.8,1.5,6.9C566.4,56,557,62,560.3,73.4z"/>
<path class="st0" d="M666.5,139.7"/>
<path class="st7" d="M494.4,117c-2.3,16.5-38.1,83-37.1,141.9c0.8,47-35.9,82.5-42.1,104.8c-6.1,22-10.1,71.6-33.2,78.9
	c-23.1,7.3-67.5,16.9-81.4,13c-11.4-3.2-13.9-44.1-1-63.1c10.5-15.4,51.7-63.5,63.1-94.8c2.5-6.9,4.3-12.7,5-17
	c0.1-0.3,0.1-0.6,0.1-0.9c0.5-3.7,0.9-7.5,1.2-11.3c1.5-17.1,1.7-34.4,3.2-41.5l0-0.1c0.1-0.7,0.3-1.2,0.4-1.7c0,0,0,0,0,0
	c0.1-0.1,0.1-0.3,0.2-0.4c0,0,0,0,0-0.1c0-0.1,0.1-0.1,0.1-0.2c0,0,0,0,0,0c-7.4,2-71.6,15.3-101.8,48.2
	c-8.9,13.1-15.8,29.9-21.4,46.5l0,0.1c-1.4,4-2.6,8-3.9,12l-0.1,0.4c-8,25.9-13.1,48.9-18.1,53.4c-2.6,0.8-5.2,1.4-7.9,1.9
	c-11.1,2.1-22,2.1-30.2-0.3c-3-0.8-5.6-2-7.7-3.4c0-0.1,5.2-27.4,13.1-58.9c0.7-2.9,1.5-5.9,2.2-8.8l0,0c7.3-28.2,16.5-58,25.9-73.4
	c27.9-46.2,117.5-76.7,169-101.5C426.2,124.2,494.4,117,494.4,117z"/>
<path class="st9" d="M514.4,150.5c-1.2-1.4-23.4,24.6-45.3,29.4c-6.1,1.3-12.3,1.7-18.4,0.5c-17.8-3.5-61.1-18.8-82.4-27.5
	c16.9-10.6,23-8.3,33.7-16.8c14.6,9.5,42.3,23.7,51.7,25.1c7,1,13.9,0.6,20.6-0.5c12.5-2.2,24.1-7.3,33-12.1
	c4.6-2.4,6.5-7.4,10.9-6.5C524.2,143.4,515.9,152.3,514.4,150.5z"/>
<path class="st10" d="M524.9,146.7c0.6-3-0.1-8.2-6-9.5c-4.5-1-5.3,0.8-9.9,3.3c-13.7,7.3-33.5,15.5-53.6,12.6
	c-20.1-2.8-57.6-41.5-88.2-42.4c-30.7-0.9-46.7,24.3-90.3,20.5c-43.6-3.8-83.6-34.1-96.5-35.1c-12.9-1-21.1,0-22.2,5.2
	c-1.1,5.2,2.8,15.4,10.5,21.3c7.7,5.9,82.5,31.2,103.3,33.5c34.1,3.9,70.6-20.2,92.3-16.7c21.7,3.5,62.8,27.9,88,32.9
	c28.1,5.6,59.6-22.7,61.1-20.9c1.5,1.8,2.8,3.5,6.6,3.4C522.7,154.8,524.3,149.7,524.9,146.7z"/>
<path class="st9" d="M410.8,210.7c-2.4,5-26.3,52.4-41.9,64.7c0.1-0.3,0.1-0.6,0.1-0.9c0.5-3.7,0.9-7.5,1.2-11.3
	c1.5-17.1,1.7-34.4,3.2-41.5l0-0.1c0.1-0.7,0.3-1.2,0.4-1.7c0,0,0,0,0,0c0.1-0.2,0.1-0.3,0.2-0.4c0.1-0.1,0.1-0.2,0.1-0.2
	c0,0,0,0,0,0S413.5,205.2,410.8,210.7z"/>
<path class="st1" d="M227.3,374.9c4.8-9.4-22,1.1-22,1.1l10.2,31.8C215.5,407.8,222.5,384.3,227.3,374.9z"/>
<path class="st1" d="M219.1,388.6c2.5,5,6.6,13.6,6.8,15.7c0.2,2.2,1.8,12.2,3.3,13.5c1.5,1.4,7.9,5.5,7.9,5.5l2.3,2.7l-2.8,1.2
	c0,0-21.4-1.2-21.8-2.3c-0.5-1.2-2.3-27.7-2.3-27.7L219.1,388.6z"/>
<path class="st10" d="M64.4,183.1c0,0,459.4,83.9,454,66.9c-5.4-17-26.8-65.5-2.9-54c23.9,11.5,165.6,125.6,164.8,159
	c-0.8,33.4-174.3,139.8-183.1,137.3c-10.5-2.9,17.8-64.5,10.6-64.1c-7.2,0.5-464.4-4-482.8-20.2C18.5,402.1,36.6,177.6,64.4,183.1z"
	/>
<path class="st11" d="M362.3,234.2c-33.6,13-67.5,24.5-77.5,37c-9.9,12.5-46.7,112.8-45.6,119c1.1,6.2-5.9,29.5-0.3,33.7
	c5.6,4.2-13.1,1.2-13.1,1.2L205.3,376l67.8-141.2l65.5-6.1L362.3,234.2z"/>
<path class="st1" d="M191.1,377.6c-2.9,14-9,39.7,1.7,52.5c10.7,12.8,43.8,21.8,55.5,12.4c11.7-9.4-19.1-21.8-20.2-25.7
	c-3.5-12.2-4.6-38.4,1.4-45C235.4,365.3,191.1,377.6,191.1,377.6z"/>
<path class="st7" d="M429.2,210.8c-45.9,5.5-142,39.8-155.5,57.6c-13.5,17.7-42.5,129.9-46.8,133.4c-4.2,3.5-40-3.9-45-4.8
	s22.9-135.2,38-155.7c14.2-19.3,55.1-44.7,55.1-44.7L429.2,210.8z"/>
</svg>
