<?xml version="1.0" encoding="utf-8"?>
<!-- Generator: Adobe Illustrator 26.1.0, SVG Export Plug-In . SVG Version: 6.00 Build 0)  -->
<svg version="1.1" id="Layer_1" xmlns="http://www.w3.org/2000/svg" xmlns:xlink="http://www.w3.org/1999/xlink" x="0px" y="0px"
	 viewBox="0 0 1718.6 1367.4" style="enable-background:new 0 0 1718.6 1367.4;" xml:space="preserve">
<style type="text/css">
	.st0{fill:#FFFFFF;}
	.st1{fill:#66BF9D;}
	.st2{fill:none;stroke:#1B5B44;stroke-width:1.5669;stroke-miterlimit:10;}
	.st3{fill:none;stroke:#1B5B44;stroke-width:1.2908;stroke-miterlimit:10;}
	.st4{fill:#1B5B44;}
	.st5{fill:#3EB58A;}
	.st6{fill:#87C9A6;}
	.st7{fill:none;stroke:#1B5B44;stroke-width:1.3165;stroke-miterlimit:10;}
	.st8{fill:none;stroke:#FFFFFF;stroke-width:18.2927;stroke-linecap:round;stroke-miterlimit:10;}
	.st9{fill:none;stroke:#1B5B44;stroke-width:1.4309;stroke-miterlimit:10;}
	.st10{fill:none;stroke:#1B5B44;stroke-width:1.2673;stroke-miterlimit:10;}
	.st11{fill:none;stroke:#1B5B44;stroke-width:1.6021;stroke-miterlimit:10;}
	.st12{fill:none;stroke:#1B5B44;stroke-width:1.4978;stroke-miterlimit:10;}
	.st13{fill:none;stroke:#1B5B44;stroke-width:1.2338;stroke-miterlimit:10;}
	.st14{fill:#1E6E56;}
	.st15{fill:none;stroke:#1B5B44;stroke-width:1.2303;stroke-miterlimit:10;}
	.st16{fill:none;stroke:#1B5B44;stroke-width:2.0656;stroke-miterlimit:10;}
	.st17{fill:none;stroke:#1B5B44;stroke-width:1.3283;stroke-miterlimit:10;}
	.st18{fill:#E84E19;}
	.st19{fill:#EFAEA6;}
	.st20{opacity:0.2;fill:#AF7572;enable-background:new    ;}
	.st21{opacity:0.65;fill:#AF7572;enable-background:new    ;}
	.st22{opacity:0.14;fill:#1F1F3B;enable-background:new    ;}
	.st23{fill:#1F1F39;}
	.st24{fill:#3B3B4C;}
	.st25{opacity:0.44;fill:#1F1F39;enable-background:new    ;}
	.st26{fill:#603A3E;}
	.st27{opacity:0.46;fill:#1F1F39;enable-background:new    ;}
	.st28{fill:#244798;}
	.st29{fill:#1F1F3B;}
	.st30{opacity:0.65;fill:#1F1F39;enable-background:new    ;}
	.st31{opacity:0.18;fill:#1F1F39;enable-background:new    ;}
	.st32{fill:#F4AD00;}
	.st33{fill:#201B2C;}
	.st34{fill:#775155;}
</style>
<path class="st0" d="M953.9,401.2c24.4-4.3,27.7-15.2,31.5-48.8c3.9,31.7,8.2,43.7,33.1,46.8c-21.5,9.5-29.1,13-32.2,49.8
	C980.2,411.9,975.4,408.7,953.9,401.2z"/>
<path class="st1" d="M1372.7,972.8c-13.5-6.3-31.2-22.2-44.7-19.7c-17,3.1-49.8,33.5-74,44.1c-36.1,15.7-59.5,16.4-61.4,20.1
	c-1.9,3.7,14,33.2,26.7,30c14.9-3.8,44.5-7.9,64.6-24c17.8-14.2,32.6-26.2,44.7-31.9C1342.6,984.8,1377.6,975.1,1372.7,972.8z"/>
<path class="st0" d="M1271.7,1011.8c8.3-0.8,17.7-3.7,23.6-9.4s5-10.6-2-11c-7.1-0.5-18,3.1-26.7,11
	C1260.4,1008,1263,1012.6,1271.7,1011.8z"/>
<path class="st2" d="M1271.7,1011.8c8.3-0.8,17.7-3.7,23.6-9.4s5-10.6-2-11c-7.1-0.5-18,3.1-26.7,11
	C1260.4,1008,1263,1012.6,1271.7,1011.8z"/>
<path class="st3" d="M1323.9,959c-7.2,1.7-35.7,28.2-60.6,39.2c-24.8,10.9-55.3,20.6-58,20.7c-9.8,0.4,6.7,25.5,18.8,22.4
	c4-1,30.2-5.5,49.3-17.7c11-7.1,38.6-28.3,49.6-34.3c28.3-15.3,41.6-13.6,38.6-15C1347.9,968,1332.9,956.8,1323.9,959z"/>
<path class="st4" d="M1234,1025.9c3.2,2.2,9.8,1.5,14.6-1.5c4.8-3.1,6.1-7.3,2.9-9.5s-9.8-1.5-14.6,1.5
	C1232,1019.4,1230.7,1023.7,1234,1025.9z"/>
<path class="st4" d="M1311.3,984.6c3.6,1.5,9.8,0.4,13.9-2.5s4.5-6.4,0.9-7.9s-9.8-0.4-13.9,2.5C1308,979.5,1307.7,983,1311.3,984.6
	z"/>
<path class="st4" d="M1329.3,959.1c-7.6,5.3-23.7,17.6-26.4,17.8c-2.7,0.2-4.6-0.4-4.6-0.4l23.7-16.9l4.3-1L1329.3,959.1z"/>
<path class="st4" d="M1255.8,1031.8c-2.4-1-4.2-2.3-6.2-1.8s-35.3,8.5-33.7,9.3c1.6,0.8,6,2.6,6,2.6l9.8-2.4l15.9-4.4L1255.8,1031.8
	z"/>
<path class="st1" d="M196.6,679c-13.5-6.3-31.2-22.2-44.7-19.7c-17,3.1-49.8,33.5-74,44.1c-36.1,15.7-59.5,16.4-61.4,20.1
	c-1.9,3.7,14,33.2,26.7,30c14.9-3.8,44.5-7.9,64.6-24c17.8-14.2,32.6-26.2,44.7-31.9C166.5,691.1,201.5,681.3,196.6,679z"/>
<path class="st0" d="M95.5,718.1c8.3-0.8,17.7-3.7,23.6-9.4c6-5.6,5-10.6-2-11c-7.1-0.5-18,3.1-26.7,11
	C84.2,714.3,86.9,718.9,95.5,718.1z"/>
<path class="st2" d="M95.5,718.1c8.3-0.8,17.7-3.7,23.6-9.4c6-5.6,5-10.6-2-11c-7.1-0.5-18,3.1-26.7,11
	C84.2,714.3,86.9,718.9,95.5,718.1z"/>
<path class="st3" d="M147.7,665.2c-7.2,1.7-35.7,28.2-60.6,39.2c-24.8,10.9-55.3,20.6-58,20.7c-9.8,0.4,6.7,25.5,18.8,22.4
	c4-1,30.2-5.5,49.3-17.7c11-7.1,38.6-28.3,49.6-34.3c28.3-15.3,41.6-13.6,38.6-15C171.8,674.3,156.8,663.1,147.7,665.2z"/>
<path class="st4" d="M57.9,732.2c3.2,2.2,9.8,1.5,14.6-1.5c4.8-3.1,6.1-7.3,2.9-9.5s-9.8-1.5-14.6,1.5
	C55.9,725.7,54.6,730,57.9,732.2z"/>
<path class="st4" d="M135.1,690.8c3.6,1.5,9.8,0.4,13.9-2.5c4.1-2.9,4.5-6.4,0.9-7.9s-9.8-0.4-13.9,2.5
	C131.9,685.8,131.5,689.3,135.1,690.8z"/>
<path class="st4" d="M153.2,665.4c-7.6,5.3-23.7,17.6-26.4,17.8s-4.6-0.4-4.6-0.4l23.7-16.9l4.3-1L153.2,665.4z"/>
<path class="st4" d="M79.7,738.1c-2.4-1-4.2-2.3-6.2-1.8s-35.3,8.5-33.7,9.3s6,2.6,6,2.6l9.8-2.4l15.9-4.4L79.7,738.1z"/>
<path class="st5" d="M655.9,1003.3c18.7-0.3,49.4-6.5,60.9-0.1c14.5,8.1,18.9,44.3,38.2,58.5c15.5,11.4,54.4,29.6,53.3,33.1
	c-1.1,3.5-49.3,23.6-59.4,16.9c-11.9-7.9-38.1-21-45.2-40c-6.2-16.8-11.3-31-18.8-39.4C676.2,1022.6,649.1,1003.4,655.9,1003.3z"/>
<path class="st6" d="M732.1,1068.1c-2,0-4.2-0.5-6.5-1.5c-8.7-3.8-14.6-9.3-15.7-14.7c-0.5-2.2-0.2-4.1,0.9-5.5
	c1.1-1.4,3.1-2.2,5.6-2.2c1.2,0,2.5,0.2,3.9,0.6c7,1.9,15.1,7.9,17.4,17c0.5,1.8,0.2,3.3-0.6,4.5
	C736.1,1067.4,734.3,1068.1,732.1,1068.1z"/>
<path class="st4" d="M716.4,1043.6v1c1.2,0,2.4,0.2,3.8,0.5c6.8,1.9,14.8,7.7,17,16.7c0.4,1.6,0.2,3-0.5,4c-0.9,1.1-2.5,1.7-4.5,1.7
	c-1.9,0-4.1-0.5-6.3-1.5c-8.5-3.7-14.3-9.1-15.4-14.4c-0.5-2.1-0.2-3.8,0.8-5.1c1.1-1.3,2.9-2,5.2-2L716.4,1043.6 M716.4,1043.6
	c-5.1,0-8.1,3.2-7,8.3c1.4,6.3,8.4,11.7,16,15.1c2.5,1.1,4.8,1.6,6.7,1.6c4.5,0,7.2-2.6,6.1-7c-2.3-9-10.3-15.4-17.8-17.4
	C718.9,1043.8,717.6,1043.6,716.4,1043.6L716.4,1043.6z"/>
<path class="st7" d="M716.2,1009.1c5.8,3.7,12.8,33.5,28.8,50.3c15.9,16.6,46.8,31.3,49.4,32.3c9.5,3.6-35.7,20.2-45.3,13.8
	c-3.2-2.1-25.8-14.3-35-30.1c-5.3-9.1-15.6-34.6-21.8-42.9c-15.9-21.2-30.6-24.4-26.5-24.4C684.7,1008,708.8,1004.5,716.2,1009.1z"
	/>
<path class="st4" d="M751.6,1090.4c-5.1,0.6-11.1-2.1-13.4-6.1c-2.4-4-0.2-7.6,4.9-8.2c5.1-0.6,11.1,2.1,13.4,6.1
	C758.9,1086.1,756.7,1089.8,751.6,1090.4z"/>
<path class="st4" d="M707.9,1032.9c-4.8-0.1-10.2-3-11.9-6.5c-1.7-3.6,0.8-6.4,5.6-6.3c4.8,0.1,10.2,3,11.9,6.5
	C715.3,1030.1,712.7,1033,707.9,1032.9z"/>
<path class="st4" d="M710.6,1007.4c3.3,6.6,9.4,21.4,12,22.5s5,1.2,5,1.2l-9.9-20.9l-3.5-2.2L710.6,1007.4z"/>
<path class="st4" d="M724.9,1087.6c3.2,0.1,6.1-0.3,7.7,0.8c1.6,1.1,28.5,18.3,26.3,18.4c-2.3,0.1-8.2,0-8.2,0l-7.9-5.1l-12.4-8.7
	L724.9,1087.6z"/>
<path class="st8" d="M818.9,792.6"/>
<path class="st5" d="M963.7,954.1c-15-15.2-77.5-90.8-79.3-97.6c-2.2-8.5-56.9,25.7-53.8,36c3.1,10.2,75.1,94.9,83.1,95.2
	C927.6,988.4,970.7,961.1,963.7,954.1z"/>
<path class="st9" d="M953.8,953.2c-11.2-14.3-68.5-80-71.6-87.8c-2.8-7.2-45.6,20.7-42.9,29.5c2.7,8.9,68.7,86,76.2,86.3
	C927.4,981.7,957.7,958.2,953.8,953.2z"/>
<path class="st6" d="M900.3,940.5c-3.5,0-7.3-1-10.8-2.9c-7.3-3.9-11.1-13-8.5-19.8c1.9-4.8,7.8-8.3,14-8.3c3.1,0,6,0.9,8.5,2.5
	c6,3.9,9.7,8.8,10.6,13.9c0.6,3.4-0.2,6.8-2.3,9.4C909.2,938.6,905.1,940.5,900.3,940.5L900.3,940.5z"/>
<path class="st4" d="M895,910c3,0,5.8,0.8,8.2,2.4c5.9,3.8,9.5,8.6,10.3,13.5c0.6,3.3-0.2,6.5-2.2,9c-2.5,3.2-6.4,5-11,5
	c-3.4,0-7.1-1-10.6-2.9c-7-3.8-10.8-12.6-8.3-19.1C883.3,913.3,889,910,895,910 M895,908.9c-6.4,0-12.5,3.5-14.5,8.6
	c-2.8,7.2,1.3,16.4,8.7,20.4c3.7,2,7.6,3,11.1,3c4.9,0,9.1-1.9,11.9-5.4c4.7-6.1,3.5-16.3-8.4-24.1C901.1,909.7,898,908.9,895,908.9
	L895,908.9z"/>
<path class="st4" d="M865.2,898c-1.2,4.8,2.2,8.7,7.5,8.7c5.3,0.1,10.5-3.8,11.7-8.5c1.2-4.8-2.2-8.7-7.5-8.7
	C871.5,889.4,866.3,893.2,865.2,898z"/>
<path class="st4" d="M911.6,952.5c-0.1,4.3,3.7,7.3,8.5,6.9c4.8-0.5,8.7-4.3,8.7-8.5c0.1-4.3-3.7-7.3-8.5-6.9
	C915.6,944.4,911.7,948.2,911.6,952.5z"/>
<path class="st4" d="M951.8,959.8c0,0-19.8-20.7-20.4-24.6c-0.6-3.9,1.7-6,1.7-6l21.6,25.2L951.8,959.8z"/>
<path class="st4" d="M861.1,925.2c1.5-4.7,3.6-6.5,1.9-9.2c-1.7-2.6-19.7-28.5-20.7-27.4s-3.9,4.3-3,6.3
	c0.9,1.9,20.5,28.7,20.5,28.7L861.1,925.2z"/>
<path class="st5" d="M1153.4,690.3c-8.1,22.1-44.5,120.5-52.1,127.9c-7.7,7.4,42.5,9.1,49.8-2.2s52.8-127.8,46.6-133.4
	C1191.4,676.9,1157.2,680,1153.4,690.3z"/>
<path class="st10" d="M1154.8,695.9c-7,19.1-39.1,110.5-45.7,117c-6.7,6.4,35.7,4.8,42-5.1c6.3-9.8,46.1-114.3,40.7-119.2
	C1186.4,683.8,1158.1,687,1154.8,695.9z"/>
<path class="st6" d="M1145.9,769.2c-1.4,0-2.6-0.5-3.5-1.5c-1.4-1.6-1.9-4.4-1.4-7.8c1.9-13.7,9.3-23.1,15.8-26.4
	c1.4-0.7,2.8-1.1,4.1-1.1c1.6,0,2.9,0.6,3.9,1.7c1.7,1.9,2.4,5.3,1.9,9.5c-0.9,8.2-6.3,16.8-14.3,23
	C1150,768.2,1147.8,769.2,1145.9,769.2L1145.9,769.2z"/>
<path class="st4" d="M1160.8,732.7c1.4,0,2.6,0.5,3.5,1.6c1.6,1.8,2.3,5.1,1.8,9.1c-0.9,8-6.2,16.5-14.1,22.7
	c-2.2,1.7-4.3,2.6-6.1,2.6c-1.3,0-2.3-0.5-3.1-1.4c-1.3-1.5-1.8-4.2-1.3-7.5c1.9-13.5,9.1-22.8,15.5-26.1
	C1158.3,733.1,1159.6,732.7,1160.8,732.7 M1160.8,731.8c-1.3,0-2.7,0.4-4.3,1.2c-6.9,3.5-14.2,13.4-16,26.8
	c-0.9,6.3,1.5,9.9,5.4,9.9c1.9,0,4.3-0.9,6.7-2.8c7-5.5,13.4-13.9,14.5-23.3C1167.9,736.3,1165.2,731.8,1160.8,731.8L1160.8,731.8z"
	/>
<path class="st4" d="M1137.7,796.8c3.9-0.5,8.1-5.1,9.3-10.3s-1-9-5-8.5c-3.9,0.5-8.1,5.1-9.3,10.3
	C1131.6,793.4,1133.8,797.3,1137.7,796.8z"/>
<ellipse transform="matrix(0.5169 -0.856 0.856 0.5169 -47.1908 1343.4894)" class="st4" cx="1166.8" cy="713.6" rx="9.5" ry="5.5"/>
<path class="st4" d="M1160.6,690.6c0,0-8.9,29.2-12,33.3c-3,4-5.7,4.9-5.7,4.9l12.5-34.8L1160.6,690.6z"/>
<path class="st4" d="M1167.8,768.1c-4.5,3.7-6.8,4.5-8.4,7.9c-1.5,3.4-16.1,37-14.7,36.4c1.3-0.6,5.1-2.2,6.4-4.5
	s15.9-37.6,15.9-37.6L1167.8,768.1z"/>
<path class="st1" d="M1077.4,438.6c4.9-14.1,5.9-37.8,17-45.8c14.1-10.1,58.7-12.3,83.2-22.3c36.4-14.9,53.2-31.2,57.3-30
	c4,1.2,14.1,33.2,2.9,40c-13.1,8.1-36.7,26.4-62.3,29.6c-22.5,2.9-41.5,5.1-54,9.8C1107,425.4,1075.6,443.7,1077.4,438.6z"/>
<path class="st0" d="M1175.8,393.3c-6.3,5.4-15,10.1-23.2,10.4s-11.1-3.7-6.5-9.1s14.7-10.7,26.5-11.5
	C1181,382.6,1182.4,387.6,1175.8,393.3z"/>
<path class="st2" d="M1175.8,393.3c-6.3,5.4-15,10.1-23.2,10.4s-11.1-3.7-6.5-9.1s14.7-10.7,26.5-11.5
	C1181,382.6,1182.4,387.6,1175.8,393.3z"/>
<path class="st3" d="M1101.6,393.9c6.2-4,45.1-5.9,70.3-16.2c25.1-10.2,53.3-25.3,55.3-27.2c7.1-6.7,13.6,22.6,3,29.1
	c-3.5,2.1-25,17.9-47.1,23c-12.8,3-47.2,7.9-59.2,11.7c-30.7,9.6-38.7,20.3-37.6,17.2C1091.3,417.5,1093.8,398.9,1101.6,393.9z"/>
<path class="st4" d="M1212.2,376.1c-0.7,3.9-5.7,8.1-11.3,9.4c-5.6,1.3-9.5-0.7-8.8-4.6s5.7-8.1,11.3-9.4
	C1208.9,370.2,1212.9,372.3,1212.2,376.1z"/>
<path class="st4" d="M1128.7,402.7c-1.4,3.6-6.6,7.3-11.5,8.3c-4.9,0.9-7.7-1.3-6.3-4.9c1.4-3.6,6.6-7.3,11.5-8.3
	S1130.1,399.1,1128.7,402.7z"/>
<path class="st4" d="M1097.9,397.9c9.1-1.8,29.2-4.7,31.2-6.5s2.9-3.6,2.9-3.6l-28.7,5.2l-3.7,2.4L1097.9,397.9z"/>
<path class="st4" d="M1201.3,395.9c1-2.4,1.3-4.6,3.1-5.7c1.8-1.1,30.7-19.4,30.2-17.7c-0.5,1.7-2.3,6.1-2.3,6.1l-8.5,5.4l-14.2,8.4
	L1201.3,395.9z"/>
<path class="st1" d="M546.3,609.7c14.7-2.2,36.3-12.2,48.5-6c15.4,7.9,38,46.4,58.2,63.5c30,25.5,52.3,32.8,53,37
	c0.8,4.1-23,27.8-34.2,21.1c-13.2-7.9-40.3-20.4-55-41.6c-12.9-18.7-23.7-34.5-33.6-43.4C571.7,629.9,541,610.5,546.3,609.7z"/>
<path class="st0" d="M631.9,676.1c-7.7-3.1-15.8-8.7-19.9-15.8c-4.1-7.1-1.8-11.6,5.1-10c6.9,1.6,16.3,8.1,22.4,18.2
	C643.8,675.8,640,679.4,631.9,676.1z"/>
<path class="st2" d="M631.9,676.1c-7.7-3.1-15.8-8.7-19.9-15.8c-4.1-7.1-1.8-11.6,5.1-10c6.9,1.6,16.3,8.1,22.4,18.2
	C643.8,675.8,640,679.4,631.9,676.1z"/>
<path class="st3" d="M597.1,610.5c6.4,3.7,26.1,37.3,46.8,54.9c20.6,17.6,47.1,35.6,49.6,36.5c9.2,3.2-13.8,22.5-24.5,16.1
	c-3.5-2.1-27.4-14-42.1-31.2c-8.5-9.9-28.8-38.2-37.7-47.1c-22.7-22.8-35.9-25-32.6-25.4C571.5,612.3,589.1,605.9,597.1,610.5z"/>
<path class="st4" d="M663.9,700.5c-3.7,1.2-9.8-1.4-13.6-5.7s-3.8-8.8,0-9.9s9.8,1.4,13.6,5.7C667.7,694.9,667.7,699.3,663.9,700.5z
	"/>
<path class="st4" d="M601.8,638.6c-3.9,0.4-9.5-2.4-12.6-6.4c-3.1-3.9-2.4-7.4,1.5-7.8c3.9-0.4,9.5,2.4,12.6,6.4
	C606.3,634.7,605.7,638.2,601.8,638.6z"/>
<path class="st4" d="M591.9,609.1c5.8,7.2,17.6,23.7,20.2,24.7c2.6,1,4.6,0.9,4.6,0.9l-17.8-23l-3.8-2.2L591.9,609.1z"/>
<path class="st4" d="M641.3,699.9c2.6-0.2,4.7-0.9,6.5,0.1c1.8,1.1,31.4,18.3,29.6,18.6s-6.5,0.7-6.5,0.7l-8.7-5.1l-14-8.7
	L641.3,699.9z"/>
<path class="st1" d="M1154.9,1302.1c11.5-9.4,24.8-29.1,38.5-30.1c17.3-1.2,56.5,20.3,82.5,24.6c38.8,6.4,61.7,1.3,64.5,4.4
	s-5.4,35.7-18.5,35.6c-15.4,0-45,3.2-68.5-7.4c-20.7-9.4-38.1-17.4-51.1-19.9C1187,1306.4,1150.7,1305.5,1154.9,1302.1z"/>
<path class="st0" d="M1262.4,1315.1c-8.2,1.3-18,0.7-25.2-3.3s-7.5-9-0.7-11.2s18.2-1.4,28.6,4.1
	C1272.5,1308.7,1271,1313.7,1262.4,1315.1z"/>
<path class="st2" d="M1262.4,1315.1c-8.2,1.3-18,0.7-25.2-3.3s-7.5-9-0.7-11.2s18.2-1.4,28.6,4.1
	C1272.5,1308.7,1271,1313.7,1262.4,1315.1z"/>
<path class="st3" d="M1198.9,1276.7c7.4-0.1,41.5,18.6,68.3,23.1c26.7,4.5,58.7,6.4,61.3,5.8c9.6-2-0.2,26.4-12.7,26.4
	c-4.1,0-30.7,2.1-52.2-5.1c-12.4-4.1-44.3-18-56.5-21.1c-31.2-7.9-43.6-3-41.1-5C1177.8,1291.4,1189.6,1276.9,1198.9,1276.7z"/>
<path class="st4" d="M1302.4,1319.5c-2.6,2.9-9.1,3.9-14.6,2.1c-5.4-1.8-7.7-5.6-5.1-8.5s9.1-3.9,14.6-2.1
	S1305,1316.6,1302.4,1319.5z"/>
<path class="st4" d="M1217.4,1298.4c-3.1,2.3-9.4,2.8-14.1,1s-5.9-5.1-2.8-7.5c3.1-2.3,9.4-2.8,14.1-1
	C1219.2,1292.7,1220.5,1296.1,1217.4,1298.4z"/>
<path class="st4" d="M1193.7,1278.2c8.7,3.2,27.3,11.3,30,10.8s4.4-1.5,4.4-1.5l-27.1-10.6l-4.4,0.1L1193.7,1278.2z"/>
<path class="st4" d="M1282.7,1330.6c2.1-1.5,3.6-3.2,5.6-3.2c2.1,0,36.3-0.5,35,0.7s-5.2,4-5.2,4l-10.1,0.1l-16.5-0.3L1282.7,1330.6
	z"/>
<path class="st5" d="M730.8,409.5c-20.9-11.7-111.8-73.4-115.7-80c-5-8.5-53.1,45.5-46.5,55.5s110.5,78.5,119.2,76.4
	C702.7,457.7,740.4,414.9,730.8,409.5z"/>
<path class="st11" d="M719.8,411.7c-16.5-11.9-98.7-64.5-104.5-71.9c-5.3-6.8-42.6,36.5-36.9,45.2c5.7,8.7,100.8,70.9,108.9,68.9
	C700.3,450.5,725.5,415.8,719.8,411.7z"/>
<path class="st6" d="M651.8,415.6c-2,0-4-0.2-6-0.7c-9-2-16-10.5-15.3-18.6c0.7-7.5,8.8-14,17.4-14c1.7,0,3.3,0.2,4.9,0.7
	c7.6,2.3,13.2,6.5,15.7,11.6c1.7,3.5,1.9,7.4,0.5,10.9C666.6,411.7,660,415.6,651.8,415.6L651.8,415.6z"/>
<path class="st4" d="M647.9,382.9c1.6,0,3.2,0.2,4.7,0.7c7.5,2.3,12.9,6.3,15.4,11.3c1.6,3.4,1.8,7.1,0.5,10.4
	c-2.4,6-8.7,9.7-16.6,9.7c-1.9,0-3.9-0.2-5.9-0.7c-8.8-1.9-15.6-10.1-14.9-18C631.7,389.2,639.6,382.9,647.9,382.9 M647.9,381.8
	c-9.1,0-17.4,6.9-18,14.5c-0.8,8.6,6.5,17.2,15.8,19.2c2.1,0.5,4.2,0.7,6.2,0.7c8.4,0,15.2-3.9,17.7-10.4c3.2-8-1.3-18.6-16.6-23.2
	C651.3,382,649.6,381.8,647.9,381.8L647.9,381.8z"/>
<ellipse transform="matrix(0.7098 -0.7044 0.7044 0.7098 -86.4622 544.5173)" class="st4" cx="617.6" cy="377.2" rx="11.5" ry="9"/>
<ellipse transform="matrix(0.7643 -0.6448 0.6448 0.7643 -110.1731 539.6171)" class="st4" cx="683.1" cy="420.5" rx="9.9" ry="8.4"/>
<path class="st4" d="M719.7,419.4c0,0-27.8-16.1-29.6-20.1c-1.9-4-0.1-7-0.1-7l31.1,20.3L719.7,419.4z"/>
<path class="st4" d="M611.4,410.6c0.2-5.5,1.8-8.1-0.8-10.5c-2.6-2.3-30.1-24.5-30.8-23s-2.9,5.9-1.3,7.7
	c1.6,1.8,31.1,24.4,31.1,24.4L611.4,410.6z"/>
<path class="st5" d="M1690.7,765c-23.6-4.4-129.2-34.3-135.1-39.4c-7.4-6.5-36,59.9-26.6,67.4c9.4,7.4,129.6,39.5,137.2,34.8
	C1679.3,819.6,1701.6,767.1,1690.7,765z"/>
<path class="st11" d="M1681,770.5c-19.4-6.1-114-30-121.9-35.2c-7.2-4.8-28.9,48.1-20.7,54.5c8.1,6.4,118.1,35.4,125.1,30.9
	C1674.8,813.6,1687.8,772.6,1681,770.5z"/>
<path class="st6" d="M1609.7,797.2c-8.6,0-16.6-5.7-18.3-12.9c-0.9-3.9,0.3-8.5,3.3-12.4c3.4-4.5,8.4-7.1,13.7-7.2
	c0.4,0,0.7,0,1.1,0c9.7,0,15,3.4,17.6,6.2s4,6.3,3.8,10c-0.5,8.4-8.3,15.1-19.1,16.3C1611.1,797.1,1610.4,797.2,1609.7,797.2z"/>
<path class="st4" d="M1609.5,765.2c7.4,0,13.5,2.1,17.2,6c2.5,2.7,3.8,6.1,3.6,9.6c-0.4,8.1-8.1,14.6-18.6,15.7
	c-0.7,0.1-1.4,0.1-2,0.1c-8.3,0-16.1-5.5-17.7-12.5c-0.9-3.7,0.3-8.2,3.2-11.9c3.3-4.3,8.2-6.9,13.2-7
	C1608.8,765.2,1609.1,765.2,1609.5,765.2 M1609.5,764c-0.4,0-0.7,0-1.1,0c-11.3,0.3-19.6,11.6-17.6,20.4
	c1.8,7.7,10.2,13.4,18.9,13.4c0.7,0,1.4,0,2.2-0.1c11.3-1.2,19.1-8.2,19.6-16.8C1631.9,772.4,1624.7,764,1609.5,764L1609.5,764z"/>
<path class="st4" d="M1564.2,776.1c2,5.1,7.5,6.6,12.5,3.3c4.9-3.3,7.3-10.2,5.3-15.3s-7.5-6.6-12.5-3.3
	C1564.6,764.2,1562.2,771,1564.2,776.1z"/>
<path class="st4" d="M1641.7,796.8c2.6,4,8.1,4.4,12.2,0.9s5.3-9.5,2.6-13.4c-2.6-4-8.1-4.4-12.2-0.9
	C1640.2,786.8,1639,792.8,1641.7,796.8z"/>
<path class="st4" d="M1683.4,777.9c0,0-31.4-6.4-34.5-9.7c-3-3.2-2.3-6.6-2.3-6.6l36,9.4L1683.4,777.9z"/>
<path class="st4" d="M1577.8,803.8c-1.6-5.3-0.9-8.3-4.1-9.6c-3.2-1.4-36.3-13.7-36.5-12.1s-0.9,6.5,1.2,7.7s37.2,13.4,37.2,13.4
	L1577.8,803.8z"/>
<path class="st5" d="M585.6,865.7c-22.2-7.8-121.1-42.6-128.7-50.1c-7.5-7.6-8.5,42.6,3,49.8c11.4,7.1,128.6,50.8,134.1,44.5
	C599.5,903.4,595.9,869.3,585.6,865.7z"/>
<path class="st10" d="M579.9,867.2c-19.2-6.7-111.1-37.3-117.7-43.9c-6.5-6.6-4.2,35.8,5.7,41.9c9.9,6.2,115,44.3,119.8,38.8
	C592.6,898.5,588.9,870.3,579.9,867.2z"/>
<path class="st6" d="M534.8,879.8c-0.7,0-1.4,0-2.2-0.1c-8.2-0.8-16.9-6-23.2-13.9c-2.6-3.2-3.4-6.3-2.4-8.5c0.9-2,3.3-3.1,6.7-3.1
	c0.7,0,1.4,0,2.2,0.1c13.7,1.7,23.3,8.9,26.7,15.3c1.4,2.6,1.6,5,0.5,6.8C541.7,878.6,538.8,879.8,534.8,879.8L534.8,879.8z"/>
<path class="st4" d="M513.7,854.6c0.7,0,1.4,0,2.1,0.1c13.6,1.7,23,8.8,26.3,15.1c1.3,2.5,1.5,4.7,0.5,6.4c-1.2,2-4,3.1-7.8,3.1
	c-0.7,0-1.4,0-2.2-0.1c-8.1-0.8-16.6-5.9-22.9-13.8c-2.5-3.1-3.3-6-2.3-8C508.3,855.6,510.5,854.6,513.7,854.6 M513.7,853.7
	c-7.7,0-10,5.7-4.7,12.4c5.6,7,14.1,13.2,23.5,14.1c0.8,0.1,1.5,0.1,2.2,0.1c7.8,0,11.5-4.6,8.2-10.8c-3.6-6.9-13.6-14-27-15.6
	C515.1,853.7,514.4,853.7,513.7,853.7L513.7,853.7z"/>
<path class="st4" d="M478.9,851.6c0.6,3.9,5.2,8,10.5,9.1c5.2,1.1,9-1.2,8.4-5.1c-0.6-3.9-5.2-8-10.5-9.1
	C482.1,845.4,478.3,847.7,478.9,851.6z"/>
<path class="st4" d="M554.2,878.1c1.3,3.6,6,7.2,10.6,7.9s7.3-1.7,6-5.3s-6-7.2-10.6-7.9C555.6,872.1,552.9,874.4,554.2,878.1z"/>
<path class="st4" d="M585.3,872.9c0,0-29.3-8.5-33.4-11.5s-5-5.6-5-5.6l35,12L585.3,872.9z"/>
<path class="st4" d="M508,881.3c-3.8-4.5-4.6-6.8-8-8.3s-37.3-15.5-36.7-14.2c0.6,1.3,2.3,5.1,4.6,6.3c2.3,1.2,37.9,15.3,37.9,15.3
	L508,881.3z"/>
<path class="st5" d="M1085,274.1c1.8-14.1,11.1-34.9,5-46.4c-7.8-14.6-45-35.6-61.6-54.6c-24.8-28.3-32.2-49.4-36.2-50.1
	s-26.2,22.4-19.6,33c7.8,12.5,20.1,38.2,40.6,51.9c18.1,12.1,33.4,22.1,42,31.4C1065.3,250.2,1084.4,279.2,1085,274.1z"/>
<path class="st0" d="M1020.2,193.3c3.1,7.3,8.5,15,15.4,18.8s11.1,1.5,9.4-5.1c-1.6-6.6-8-15.5-17.8-21.1
	C1020.3,182,1016.9,185.7,1020.2,193.3z"/>
<path class="st12" d="M1020.2,193.3c3.1,7.3,8.5,15,15.4,18.8s11.1,1.5,9.4-5.1c-1.6-6.6-8-15.5-17.8-21.1
	C1020.3,182,1016.9,185.7,1020.2,193.3z"/>
<path class="st13" d="M1083.4,225.6c-3.6-6.1-36-24.3-53.2-43.8c-17.1-19.4-34.8-44.4-35.7-46.8c-3.2-8.8-21.3,13.5-15,23.7
	c2.1,3.3,13.8,25.9,30.5,39.8c9.6,8,37,26.9,45.6,35.2c22.2,21.3,24.5,33.9,24.8,30.8C1082.2,250.1,1088,233.2,1083.4,225.6z"/>
<path class="st4" d="M996.4,163.1c-1.1,3.6,1.5,9.4,5.6,12.9c4.2,3.5,8.4,3.5,9.5-0.1s-1.5-9.4-5.6-12.9
	C1001.7,159.5,997.4,159.5,996.4,163.1z"/>
<path class="st4" d="M1056.4,221.5c-0.3,3.7,2.5,9.1,6.3,11.9c3.8,2.9,7.1,2.2,7.5-1.5c0.3-3.7-2.5-9.1-6.3-11.9
	C1060.1,217.1,1056.8,217.8,1056.4,221.5z"/>
<path class="st4" d="M1084.8,230.5c-7-5.4-22.9-16.5-23.9-18.9s-1-4.4-1-4.4l22.3,16.7l2.1,3.6L1084.8,230.5z"/>
<path class="st4" d="M997.3,184.7c0.2-2.4,0.8-4.5-0.2-6.2s-18-29.7-18.3-28s-0.6,6.2-0.6,6.2l5,8.2l8.6,13.2L997.3,184.7z"/>
<path class="st5" d="M897.2,22.6c-13.9,3.2-36.6,1.8-45.2,11.6c-11,12.4-17.6,54.6-29.5,76.8c-17.8,33.1-35,47.5-34.3,51.4
	c0.8,4,30.2,16.7,37.8,6.8c9-11.7,28.7-32.2,34.4-56.2c5-21.1,9-39,14.7-50.4C881.7,49.5,902.3,21.5,897.2,22.6z"/>
<path class="st0" d="M844.3,111.7c5.8-5.5,11.1-13.3,12.2-21c1.1-7.8-2.5-10.9-8-7.1c-5.6,3.8-11.7,12.9-13.5,24.1
	C833.6,115.5,838.3,117.4,844.3,111.7z"/>
<path class="st12" d="M844.3,111.7c5.8-5.5,11.1-13.3,12.2-21c1.1-7.8-2.5-10.9-8-7.1c-5.6,3.8-11.7,12.9-13.5,24.1
	C833.6,115.5,838.3,117.4,844.3,111.7z"/>
<path class="st13" d="M852.3,41.2c-4.4,5.5-10.1,42.3-22.4,65.2c-12.2,22.8-29.4,48.1-31.4,49.8c-7.1,6.1,20.1,15.2,27.4,5.7
	c2.4-3.1,19.5-22,26.6-42.5c4.1-11.8,12.3-44,17-55.1c12.2-28.3,23.2-34.8,20.1-34C875.7,33.7,857.9,34.2,852.3,41.2z"/>
<path class="st4" d="M824.4,144.6c3.7-0.3,8.3-4.7,10.1-9.8s0.3-9.1-3.5-8.8c-3.7,0.3-8.3,4.7-10.1,9.8
	C819.1,140.9,820.6,144.8,824.4,144.6z"/>
<path class="st4" d="M858,67.8c3.6-1,7.6-5.5,9-10.1s-0.4-7.5-4-6.5s-7.6,5.5-9,10.1S854.4,68.8,858,67.8z"/>
<path class="st4" d="M856.5,38.1c-2.6,8.5-7.4,27.2-9.3,29c-1.9,1.8-3.7,2.4-3.7,2.4l7.8-26.7l2.6-3.3L856.5,38.1z"/>
<path class="st4" d="M844.2,136.1c-2.4,0.7-4.5,0.8-5.7,2.4c-1.2,1.6-21.5,27.2-19.9,26.9c1.7-0.3,6.1-1.6,6.1-1.6l6-7.6l9.4-12.7
	L844.2,136.1z"/>
<path class="st5" d="M937.8,313.1c9.2-2.2,22.2-13.9,20.4-16.8s-37.7-20.1-56.5-30.3c-3.5,6.8-9.4,12.7-16.6,16.6
	c-3.7,2-8,3.6-10.3,6.8c3.1-1,6.3,0.6,9,2.2c8.2,4.8,16.5,9.6,24.7,14.4c4.9,2.9,10.3,5.1,15.7,7.2
	C928,314.5,932.6,314.4,937.8,313.1z"/>
<path class="st14" d="M879.3,289.5c13.4,8,26.8,15.5,41.3,21.9c-1.5-2.8-3.2-3.8-3.5-7.2c-0.3-4.8,2.9-6.9,0.5-8.8
	c-3.7-3-15-1.7-18.3-1.3C894,294.9,898.1,295.5,879.3,289.5z"/>
<path class="st5" d="M917.7,295.3c-12.9-8.1-26.1-14.4-39.2-21.7c-5.9-3.3-12.6-8.8-19.6-9.4c-8.8-0.7-17.3,5.4-24.1,10.9
	c-6.8,5.6-11.7,12.7-16.4,19.7c-4.7,7.1-17.1,15.8-15.8,20.2c1.3,4.4,48.9,33.8,55.7,31.8s15.2-21.8,25.1-31.7
	C893.3,305.4,904,295.3,917.7,295.3z"/>
<path class="st0" d="M899.2,284.7c-3,3.6-7.8,5.8-13.2,7l0,0c-0.5,0.1-1,0.2-1.5,0.3c-0.3,0.1-0.6,0.1-0.9,0.1l0,0
	c-3.4,0.5-7.1,0.6-10.6,0.4c-10.9-0.7-16.5-7.7-10.9-14.3c3-3.6,8.6-9.3,10-8.4C874,271,899.2,284.7,899.2,284.7z"/>
<path class="st15" d="M917.3,306.9c0,0,10,3.1,16,1.8c4.4-0.9,13.8-7.3,16-10.1c2.2-2.8-44.8-27.7-46.4-25.8
	c-2.4,2.8-8.3,9.3-8.3,9.3"/>
<path class="st16" d="M899.2,284.7c-3,3.6-7.8,5.8-13.2,7l0,0c-0.5,0.1-1,0.2-1.5,0.3c-0.3,0.1-0.6,0.1-0.9,0.1l0,0
	c-3.4,0.5-7.1,0.6-10.6,0.4c-10.9-0.7-16.5-7.7-10.9-14.3c3-3.6,9.1-7,10-8.4"/>
<ellipse transform="matrix(0.9998 -1.810414e-02 1.810414e-02 0.9998 -5.3289 15.5316)" class="st4" cx="855.2" cy="302.1" rx="10.7" ry="7.4"/>
<path class="st15" d="M865.3,266c0,0-15.3,4.5-25.7,14c-9.5,8.7-28.5,31.5-25.6,32.9c2.9,1.3,39.9,26.3,43.9,22.3
	s17.3-23.5,29.9-33.7c6.9-5.6,24.1-9.5,24.1-9.5"/>
<path class="st5" d="M288.3,536.9c9.2,2.1,26.1-2.6,25.7-6c-0.3-3.4-24.9-34.8-37.2-52.2c-6.1,4.6-14.1,7.3-22.2,7.5
	c-4.2,0.1-8.7-0.3-12.3,1.5c3.2,0.5,5.4,3.3,7.1,5.9c5.3,7.9,10.5,15.9,15.8,23.8c3.2,4.8,6.9,9.1,10.9,13.4
	C278.8,533.7,283.1,535.7,288.3,536.9z"/>
<path class="st14" d="M246.3,489.8c8.5,13.2,17.2,25.7,27.4,37.9c-0.1-3.2-1.2-4.8,0.1-7.9c1.8-4.5,5.7-4.9,4.4-7.7
	c-2-4.3-12.7-8.2-15.9-9.3C257,501.1,260.5,503.5,246.3,489.8z"/>
<path class="st5" d="M278.1,512c-8-12.9-17-24.5-25.5-36.8c-3.8-5.5-7.4-13.4-13.4-17.1c-7.6-4.6-17.9-2.9-26.4-0.9
	s-16.1,6.2-23.5,10.4c-7.4,4.2-22.3,6.6-23.1,11.1s28.9,52,35.9,53.2s23.3-12.8,36.5-17.3C251.8,510.2,265.8,505.9,278.1,512z"/>
<path class="st0" d="M266.2,494.3c-4.3,1.9-9.5,1.8-14.9,0.4l0,0c-0.5-0.1-1-0.3-1.4-0.4c-0.3-0.1-0.6-0.2-0.8-0.3l0,0
	c-3.3-1.1-6.6-2.6-9.7-4.4c-9.5-5.5-11.3-14.2-3.5-17.6c4.3-1.9,11.8-4.5,12.7-3.1C249.7,470.8,266.2,494.3,266.2,494.3z"/>
<path class="st15" d="M272.6,522.2c0,0,7.6,7.2,13.5,8.7c4.4,1.1,15.6-0.4,18.8-1.9c3.2-1.5-27.9-44.7-30.2-43.7
	c-3.4,1.5-11.6,4.7-11.6,4.7"/>
<path class="st16" d="M266.2,494.3c-4.3,1.9-9.5,1.8-14.9,0.4l0,0c-0.5-0.1-1-0.3-1.4-0.4c-0.3-0.1-0.6-0.2-0.8-0.3l0,0
	c-3.3-1.1-6.6-2.6-9.7-4.4c-9.5-5.5-11.3-14.2-3.5-17.6c4.3-1.9,11.3-2.2,12.7-3.1"/>
<path class="st4" d="M210.7,492.9c3.2,4.2,9.5,6.6,14.2,5.2c4.6-1.4,5.8-5.9,2.7-10.2c-3.2-4.2-9.5-6.6-14.2-5.2
	C208.7,484.1,207.5,488.6,210.7,492.9z"/>
<path class="st15" d="M244.1,462.5c0,0-15.7-2.8-29.2,1.1c-12.4,3.6-39.5,15.6-37.5,18.1s24.1,41.3,29.5,39.4
	c5.3-1.9,25.9-13.4,41.8-17c8.6-1.9,25.8,2.1,25.8,2.1"/>
<path class="st5" d="M319.1,1011.5c7.7-5.6,15.2-21.4,12.4-23.4c-2.8-2-42.6-4.1-63.8-6.3c-0.6,7.7-3.8,15.4-9,21.7
	c-2.7,3.2-6,6.3-6.9,10.3c2.5-2.1,6.1-1.9,9.1-1.4c9.4,1.3,18.9,2.5,28.3,3.8c5.7,0.8,11.4,0.8,17.3,0.6
	C310.5,1016.5,314.8,1014.6,319.1,1011.5z"/>
<path class="st14" d="M256,1012.1c15.5,2.3,30.7,4,46.6,4.3c-2.5-2.1-4.4-2.2-5.9-5.3c-2.2-4.3,0.1-7.5-2.9-8.3
	c-4.5-1.3-14.5,4.2-17.4,5.9C271.6,1011.5,275.7,1010.5,256,1012.1z"/>
<path class="st5" d="M293.7,1002.8c-15-2.5-29.6-3.3-44.5-5c-6.7-0.7-15-3.3-21.6-1.1c-8.4,2.7-13.9,11.6-18,19.3s-6,16.2-7.6,24.5
	s-9.7,21.2-6.8,24.7c2.9,3.6,58.1,12.4,63.7,8c5.5-4.4,5.7-26,11-38.9C275,1021.4,281,1008.1,293.7,1002.8z"/>
<path class="st0" d="M272.5,1000.1c-1.4,4.5-4.9,8.4-9.5,11.5l0,0c-0.4,0.3-0.8,0.6-1.3,0.8c-0.2,0.2-0.5,0.3-0.7,0.5l0,0
	c-3,1.8-6.3,3.3-9.7,4.4c-10.4,3.5-18.1-0.8-15.6-9c1.4-4.5,4.4-11.8,6-11.6C244,997.1,272.5,1000.1,272.5,1000.1z"/>
<path class="st15" d="M297.7,1013.6c0,0,10.4-1,15.5-4.4c3.7-2.6,10-12,10.9-15.4s-52-8.3-52.8-6c-1.1,3.5-4.1,11.8-4.1,11.8"/>
<path class="st16" d="M272.5,1000.1c-1.4,4.5-4.9,8.4-9.5,11.5l0,0c-0.4,0.3-0.8,0.6-1.3,0.8c-0.2,0.2-0.5,0.3-0.7,0.5l0,0
	c-3,1.8-6.3,3.3-9.7,4.4c-10.4,3.5-18.1-0.8-15.6-9c1.4-4.5,5.7-10,6-11.6"/>
<path class="st4" d="M234.9,1041c5.3,0.4,11.2-2.8,13.3-7.2c2-4.4-0.6-8.3-5.9-8.7c-5.3-0.4-11.2,2.8-13.3,7.2
	C227,1036.7,229.6,1040.6,234.9,1041z"/>
<path class="st15" d="M234,995.8c0,0-12.4,10-18.3,22.8c-5.5,11.7-14.2,40-11,40.1s47,9,49.1,3.7c2.1-5.2,6.9-28.3,14.7-42.6
	c4.2-7.8,18.6-18,18.6-18"/>
<path class="st5" d="M1276.4,562.8c-6-7.3-9.4-24.5-6.2-25.7s42.3,6.7,63.4,9.8c-1.3,7.6-0.2,15.8,3.3,23.2
	c1.8,3.8,4.2,7.6,4.1,11.7c-1.9-2.7-5.4-3.3-8.5-3.7c-9.5-1.1-18.9-2.2-28.4-3.4c-5.7-0.7-11.3-2.1-16.9-3.7
	C1283.5,569.9,1279.8,566.9,1276.4,562.8z"/>
<path class="st14" d="M1337.4,579.2c-15.6-1.7-30.7-3.8-46.2-7.4c2.9-1.4,4.8-1.1,7.1-3.6c3.2-3.6,1.8-7.2,4.9-7.3
	c4.7-0.1,13,7.7,15.4,10C1322.4,574.6,1318.7,572.7,1337.4,579.2z"/>
<path class="st5" d="M1303.3,560.7c15.2,1.3,29.5,4.2,44.3,6.3c6.7,0.9,15.3,0.5,21.2,4.3c7.5,4.7,10.6,14.7,12.7,23.2
	s1.7,17.2,1.3,25.7c-0.5,8.5,4.1,22.9,0.4,25.6c-3.7,2.7-59.4-2.5-63.6-8.1c-4.2-5.7,1-26.6-1-40.4
	C1316.6,583.4,1314.2,569,1303.3,560.7z"/>
<path class="st0" d="M1324.4,563.4c0.3,4.7,2.7,9.3,6.3,13.5l0,0c0.3,0.4,0.7,0.7,1,1.1c0.2,0.2,0.4,0.4,0.6,0.6l0,0
	c2.4,2.5,5.3,4.7,8.3,6.7c9.2,6,17.8,3.8,17.3-4.8c-0.2-4.7-1.3-12.6-2.9-12.7C1352.8,567.6,1324.4,563.4,1324.4,563.4z"/>
<path class="st15" d="M1296.6,570.2c0,0-9.8-3.5-13.9-8.2c-3-3.4-6.6-14.1-6.7-17.7c-0.1-3.5,52.5,4.9,52.6,7.4
	c0.2,3.7,1,12.4,1,12.4"/>
<path class="st16" d="M1324.4,563.4c0.3,4.7,2.7,9.3,6.3,13.5l0,0c0.3,0.4,0.7,0.7,1,1.1c0.2,0.2,0.4,0.4,0.6,0.6l0,0
	c2.4,2.5,5.3,4.7,8.3,6.7c9.2,6,17.8,3.8,17.3-4.8c-0.2-4.7-3.1-11.1-2.9-12.7"/>
<path class="st4" d="M1350.6,612.4c-5.2-0.9-10.2-5.6-11-10.3c-0.9-4.8,2.7-7.9,7.9-6.9s10.2,5.6,11,10.3
	C1359.4,610.2,1355.9,613.3,1350.6,612.4z"/>
<path class="st15" d="M1362.7,568.9c0,0,9.5,12.7,12.1,26.6c2.4,12.7,3.8,42.3,0.6,41.6c-3.2-0.7-47.7-3-48.5-8.6
	c-0.7-5.6,0.4-29.2-3.6-44.9c-2.1-8.6-13.5-22.1-13.5-22.1"/>
<path class="st5" d="M1045.2,550.2c-18.1-3.5-47.1-15.1-59.1-10.5c-15.2,5.8-24.1,42.2-44.7,53.5c-16.5,9.1-56.6,21-56,24.8
	s44.7,32.7,55.4,27.6c12.5-6.1,39.7-15,49.1-33.3c8.3-16.2,15-29.9,23.4-37.2C1022.9,566.5,1051.8,551.5,1045.2,550.2z"/>
<path class="st6" d="M964.8,603.8c-2.9,0-5.2-0.9-6.4-2.6c-0.9-1.4-1-3.1-0.3-5.1c3.5-9,12.1-13.7,19.1-14.5
	c0.6-0.1,1.1-0.1,1.7-0.1c3.2,0,5.6,1,7,2.9c1.2,1.7,1.4,3.9,0.5,6.3c-1.9,5.4-8.3,10-17.2,12.4
	C967.7,603.6,966.2,603.8,964.8,603.8L964.8,603.8z"/>
<path class="st4" d="M979,582c3,0,5.3,1,6.6,2.7c1.1,1.5,1.3,3.6,0.5,5.9c-1.8,5.2-8.1,9.7-16.8,12.1c-1.5,0.4-3,0.6-4.3,0.6
	c-2.7,0-4.9-0.9-5.9-2.4c-0.8-1.2-0.9-2.8-0.2-4.7c3.4-8.8,11.8-13.4,18.7-14.1C977.9,582,978.4,582,979,582 M979,581
	c-0.6,0-1.1,0-1.7,0.1c-7.5,0.8-16.1,6-19.5,14.8c-1.9,5,1.4,8.4,7.1,8.4c1.4,0,2.9-0.2,4.6-0.6c7.9-2.1,15.4-6.5,17.5-12.7
	C988.9,585.2,985.4,581,979,581L979,581z"/>
<path class="st17" d="M985.9,545.8c-6.2,2.8-16.8,32.2-34.5,46.6c-17.6,14.3-49.5,24.1-52.2,24.7c-9.7,2,32,26.9,42.1,21.9
	c3.3-1.6,26.9-10.3,37.9-24.9c6.3-8.4,19.6-32.8,26.7-40.2c18.2-19.1,32.8-19.7,28.9-20.5C1016.6,550.1,993.7,542.3,985.9,545.8z"/>
<path class="st4" d="M940.9,623.2c4.8,1.5,11-0.3,13.8-3.9c2.8-3.7,1.2-7.8-3.7-9.3s-11,0.3-13.8,3.9
	C934.4,617.5,936.1,621.7,940.9,623.2z"/>
<path class="st4" d="M990.8,571.7c4.7,0.8,10.3-1.3,12.4-4.7c2.2-3.4,0.1-6.7-4.6-7.5c-4.7-0.8-10.3,1.3-12.4,4.7
	C984.1,567.5,986.1,570.9,990.8,571.7z"/>
<path class="st4" d="M991.6,545c-4.1,6.2-11.9,20.4-14.6,21s-5,0.4-5,0.4l12.4-19.7l3.7-1.6L991.6,545z"/>
<path class="st4" d="M967.1,624.9c-3.1-0.5-5.9-1.4-7.6-0.6c-1.7,0.8-30.1,13.9-27.9,14.4c2.2,0.5,7.9,1.4,7.9,1.4l8.3-3.9l13.1-6.8
	L967.1,624.9z"/>
<path class="st18" d="M830,630.9c-6.1-25.8,37.9-45.5,37.9-45.5s11.6,19.7,12.6,22.7s-38.4,33.3-33.8,47
	C851.3,668.8,830,630.9,830,630.9z"/>
<path class="st0" d="M751.3,1324.1c-15.5,19.9-26.5,23.5-34.5,13.8s4.7-2,9-15.5s2.7-13.9,13.6-10.8
	C750.4,1314.7,751.3,1324.1,751.3,1324.1z"/>
<path class="st0" d="M1781.6,951.7c-11-6.4-24.2-13-26.2-3.2s-25.8-16.4-25.8-16.4s20-14.1,35.1-6.9
	C1779.8,932.4,1781.6,951.7,1781.6,951.7z"/>
<path class="st19" d="M1150.9,314.4c-1.2-9.5,1.6-26.1-4.1-34.7c-4.3-6.5-9.4-15.8-6.5-20.9c5.4-9.4,17.5-7.9,24.2-5.8
	c17.6,5.7,30.8-5.8,31.4,6.6c1.1,20.7-5.6,42.7-7,56.9c-0.4,4.1,1.4,28.9-5.4,37c-8.2,9.6-25.6,2.1-31.2,1.7
	C1146.3,354.8,1152.1,323.9,1150.9,314.4z"/>
<path class="st20" d="M1193,258.4c-1.3-4.9-31.8-11.2-34.5-9s-7.4,16.7-7.7,22.1c-0.3,5.4,7.5,11.7,23.8,9.9
	c16.3-1.8,16.7-5.6,16.4-8.3C1190.7,270.4,1193,258.4,1193,258.4z"/>
<path class="st19" d="M1194.4,253.7c-0.1-4.8-28.2-12-37.9-6.8c-5.4,2.9-6.6,14.2-6.9,19.6s9.3,11,25.7,10.5
	c8-0.2,10.6-0.7,13.5-5.5C1190.1,269.3,1194.4,258.5,1194.4,253.7z"/>
<path class="st19" d="M566.2,584.8c-8.9-3.5-7.4-15-12.2-24.1c-4.1-7.8-16.6-8.6-14.1,3.3c5.5,25.9-36.5-11.6-40.6,24.4
	c-2.1,18.4-9.2,22.5,2.7,26.2c19.8,6.2,42.8,5.3,56.8,7.5c4.1,0.6,27.7,8.6,37.1,4c11.3-5.5,8.5-24.3,9.5-29.8
	C606.3,590.5,575,588.3,566.2,584.8z"/>
<path class="st21" d="M501.3,611.5c-4.4-2.5-2.9-33.6-0.1-35.7c2.8-2.1,18-3,23.4-1.9c5.3,1.1,22.7-3.7,16.9,11.6
	s-24.4,33.2-26.9,32.3C512.1,616.9,501.3,611.5,501.3,611.5z"/>
<path class="st19" d="M935.4,585.5l41-13.8c0,0,39.1-10.5,28-14.7c-14.9-5.7-14.7-7.1-22.3-13.2c-4.2-3.4-14.1-19.9-18.5-26.6
	c-0.1-0.1-0.1-0.2-0.2-0.3c-7.7-11.7-15.3-23.7-15.3-23.7L947,490l-5.3-3.9l-1.3-0.9l-27-19.7c0,0-9.4,27.2-1.6,44.5
	C918.8,525.6,924.4,570,935.4,585.5z"/>
<path class="st22" d="M963.4,516.9c-7.7-11.7-15.3-23.7-15.3-23.7L947,490l-5.3-3.9l-1.3-0.9l-5,0.7c0,0-13.6,14-14.4,20.1
	C919.8,514.5,941.7,525,963.4,516.9z"/>
<path class="st0" d="M1561.5,968.9c-16.9-4.8-60.9-11.6-60.9-11.6l-9.9,46l66.1,9.5L1583,986L1561.5,968.9z"/>
<path class="st23" d="M1560.6,965.9c0.3-5.1,4.1-1.8,11.7-1.5c17.3,0.7,35-58.6,39.1-67.2c2.1-4.4,28-4.9,21.2,18.1
	c-5.9,19.9-24.4,83.7-31,105.5c-1.4,4.5-5.6,7.6-10.3,7.4c-16.8-0.7-40.7-8.9-39.4-15.1C1551.7,1003.2,1559.5,987,1560.6,965.9z"/>
<path class="st0" d="M611.7,1156.2c15,9.6,55.5,28.9,55.5,28.9l23-40.5l-61.1-28.5l-33.3,17.5L611.7,1156.2z"/>
<path class="st23" d="M614.8,1161c-2,4.6-4.5,0.2-11.6-2.8c-16.2-6.8-53.3,42.1-60.1,48.6c-3.5,3.4-28.2-5.3-13.9-24.3
	c12.4-16.4,51.9-69.1,65.6-87c2.9-3.7,7.9-5.1,12.3-3.3c15.7,6.5,35.5,22.5,32.2,27.9C636,1129.5,623,1141.8,614.8,1161z"/>
<path class="st24" d="M1518.4,1023.8c-12.4-2.4-226-63.2-252.4-63.3c-7.8,0-91.2,11.1-165.3,21.1c-61.4,8.3-116.4,15.9-116.4,15.9
	s0,0.1,0,0.3c-0.6,9.3-16.5,255-62.2,278.3c-70.5,36-285.8-91.3-295.3-97.1c-9.5-5.9,36.5-64.7,45-58.9
	c8.6,5.9,174.7,89.5,192.3,69.3c8-9.2-10.1-134.1-16.5-211.3c-1.9-23.6-5.2-39-5.2-39c-0.2-2-0.3-3.7-0.4-5.1
	c-0.3-3.2-0.5-5.2-0.7-5.7c-3-10.2,129.7-69,129.7-69l55.1,2.9c84.7,5.2,200.8,6.6,239.5,10.7c41.9,4.3,264.8,72.7,271.8,76.4
	C1544.1,952.9,1531.4,1026.4,1518.4,1023.8z"/>
<path class="st25" d="M913.2,908.1c-7.6,20.5-42.7,46.5-65.6,70.1c-3.1-23.4-5.2-39-5.2-39c-0.2-2-0.3-3.7-0.4-5.1
	c6.6-3.2,12.4-2.2,27.3-8.6c0.5-0.2,0.9-0.5,1.3-0.8l19.1-16.2C893.8,904.9,915.1,903,913.2,908.1z"/>
<path class="st26" d="M615.9,1351.1c0.6-0.3,1-0.8,1.2-1.5c4.4-24.6,16.6-42.9,37.3-56.2c0.9-0.6,1.2-1.8,0.6-2.8s-1.8-1.2-2.8-0.6
	c-21.6,13.9-34.4,33.1-39.1,58.8c-0.2,1.1,0.5,2.1,1.6,2.3C615.1,1351.3,615.5,1351.3,615.9,1351.1z"/>
<path class="st26" d="M611.6,1315.7c0.4-0.2,0.8-0.5,1-1c5.7-11.8,12.1-20.7,20.1-28.1c7.7-7.2,17-13,29.2-18.2l0,0
	c1-0.4,1.5-1.6,1-2.6c-0.4-1-1.6-1.5-2.6-1.1c-24.9,10.6-39.8,24.6-51.3,48.2c-0.5,1-0.1,2.2,0.9,2.7
	C610.5,1315.9,611.1,1315.9,611.6,1315.7z"/>
<path class="st27" d="M959.2,928.4C959.2,928.4,959.2,928.4,959.2,928.4c0.1-0.4,0.1-0.6,0.1-0.7
	C959.3,927.9,959.2,928.4,959.2,928.4z"/>
<path class="st0" d="M917.3,535.9c14.3-1.6,20.2,20.2,37.2,19.8c9-0.2,8.5-11.6,12.3-16c2.4-2.7,8-7.1,9.8-5.5
	c88.4,77.9,20.7,305.5,32.7,319.1c9.8,11.1-58.6,44.4-103.9,38.4c-62.2-8.3-64.3-73-63.6-85.4c0.7-12.5,21.1-225.1,21.1-225.1
	S892.3,562.2,917.3,535.9z"/>
<path class="st28" d="M920,892.4c-0.9,5-2.8,9.7-6.5,14.3c-21.3,26.4-102.6,36.1-125.9,15.9c-18.3-15.9,29.9-92.2,37.6-122.5
	c7.9-31.3,9.4-56.6,15-79.2c1.1-4.3,1.9-8.8,2.4-13.2c2.7-22.5-1.1-45.9-9.5-53.4c-0.5-0.4-1.3-0.8-2.4-1.1
	c-17.6-4.5-109.4,10.2-128.1,10.4c-34.5,0.5-149.3-30.4-153.3-32.8c-11-6.5,12.8-55.9,19.8-54.3c5.1,1.2,101,26.4,132.3,25.1
	c26.8-1.1,137.5-34,172.9-48c22.9-9.9,43.1-17.7,43.1-17.7c3.3,19.1,15.1,102.3,15.6,171c0.2,32.3-8,79.7-13.7,106.3
	C911.2,851,923.2,873.8,920,892.4z"/>
<path class="st28" d="M1139.6,317.4c-2.8,15.6-14.5,125.9-28.8,141.4c-13,14-67.8,47.8-135.5,75.3c0,0-1.6,26.1,6.5,62
	c10.7,47.4-14,84.4-3.2,142c9.2,48.8,11.3,112-0.5,143.7c-6.9,18.6-4.7,28.8,20.4,29.7c13.6,0.5,49.2-11,58-35.8
	c12.1-34-12.4-108.1-17.1-130.9c-1.8-8.9-3-30.2-4.2-42.8c-1.9-19.9,10.1-86.3,21.4-98c14.5-14.9,83.3-81.6,103.6-109.6
	c17.8-24.5,32.1-148.8,34.9-166.6C1196.5,318.3,1141.7,305.1,1139.6,317.4z"/>
<path class="st19" d="M884.3,485.1c0,0,23.4,21.1,34,25.8c0.4,0.2,0.9,0.4,1.4,0.5c11.5,3.3,38-8.2,51.4-26.1
	c5.8-7.7-23.3-16.6-17.7-23.7c3.3-4.1-5.1-7.5-14.9-11c-6.7-2.4-13.9-5-18.6-7.9c-0.3-0.2-0.5-0.3-0.8-0.5l-24.6,30.4L884.3,485.1z"
	/>
<path class="st29" d="M877.2,504c1.9,18.7,42.9,12.3,42.5,7.4c-0.5-5.7-14.9-9.5-14.7-14.8c0.2-8,4.9-5.2,12.1-6.2
	c7.7-1.1,14.5-9.1,2.3-10.3c-10.1-1-10.4-4.7-7.5-8.5c0.6-0.8,1.4-1.7,2.2-2.5c5.3-5.2,6.8-4.3,8-9.9c1.3-5.6-9.8-3.1-5-11.6
	c0.9-1.6,4.3-2.3,5.6-4.6c4.2-7.7,6.8-11.6,1-17.8c-11.1-11.8-21.9-1.1-25.9,6.9c-2.6,5.1-12.9-1.5-19.5,7.6
	c-5.2,7.1-0.6,9.6-4.9,16.1c-2.6,4-14.4,6.3-14.6,15.6c0,0.9,0,1.8,0.1,2.6C860.1,488.7,875.6,488.9,877.2,504z"/>
<path class="st24" d="M787.9,1039.9"/>
<path class="st30" d="M1100.7,981.7c-61.4,8.3-116.4,15.9-116.4,15.9s0,0.1,0,0.3c-0.1-0.2-0.1-0.2-0.1-0.2l2.9-26.4
	C987,971.3,1053,966.7,1100.7,981.7z"/>
<path class="st31" d="M948.1,561.9c-0.2-0.2-0.8,0.1-1.9,0.8c-4.9,3.2-18.7,14.5-33.7,20.1c-4,1.5-8.2,2.6-12.3,3.1
	c-5.9,0.6-11.8,0.4-17.6-1.1l0,0c-0.4-0.1-0.8-0.2-1.1-0.3c-0.1,0-0.2-0.1-0.4-0.1c-9.4-2.8-45.1-17.3-45.1-17.3s16.6-5.2,19.5-6.7
	c-3-1.6-19.8-6.1-22.7-7.6c-1.6-0.9-3.2-1.7-4.8-2.5c3.5-2.8,6.7-5.4,9.7-7.7c1.5,0.9,3.1,1.7,4.6,2.6c2.3,1.3,4.7,2.6,7.1,3.9
	c15.5,8.4,31.1,16,36.2,17.2c4.1,0.9,8.2,1.5,12.2,1.6c1,0.1,2,0.1,3,0.1c1.9,0,3.9,0,5.8-0.2c4.3-0.3,8.5-0.9,12.6-1.8
	c8.1-1.7,15.5-4.2,21.7-6.6c4.8-1.9,7-6.5,11.5-5.2C958.5,556,949.5,563.8,948.1,561.9z"/>
<path class="st32" d="M953.6,566.7c-3.9-0.4-5.2-2.1-6.5-4c-0.1-0.1-0.4-0.1-0.9,0c-3.4,1-15.7,8.5-30.7,12.9
	c-7.7,2.2-16,3.5-24.2,2.7c-2.6-0.3-5.1-0.7-7.6-1.5c-11.9-3.5-27-11.4-42-19.4c-3-1.6-5.9-3.2-8.8-4.7c-1.6-0.9-3.2-1.7-4.8-2.5
	c-12.1-6.4-23.5-11.9-32-14.1c-21.8-5.6-60.4,14-94.9,6.8c-21.1-4.4-95.6-36.5-103.1-43s-10.8-16.7-9.4-21.7c1.4-5,9.8-5,22.9-2.8
	c13.1,2.2,51.9,35.7,96,43.8s61.9-14.7,93.1-10.7c17.2,2.2,35.8,15.8,52.4,28.3c2.2,1.6,4.3,3.2,6.4,4.8
	c10.9,8.2,20.7,15.1,28.4,16.9c6.1,1.4,12.2,1.9,18.2,1.7c5.6-0.2,11.1-1,16.3-2.1c7.7-1.6,14.8-4.1,20.8-6.4
	c4.8-1.9,5.8-3.5,10.3-2.2c5.9,1.8,6.3,7,5.5,9.8C958.1,562.1,956.2,566.9,953.6,566.7z"/>
<path class="st33" d="M518.2,563L518.2,563c0.1,0.2,0.2,0.3,0.3,0.4c1.5,2.2,2.2,4.7,1.8,7.1c0,0.2-0.1,0.3-0.1,0.5
	s-0.1,0.4-0.1,0.6l-2.1,7.6l0,0l0,0l-0.1,0.3l0,0l-0.2,0.6l-2.4,8.4l-6.3,22.4c-0.4,1.5-1.2,2.8-2.3,3.9c-3.3,3.4-9.2,4.8-15.2,3.2
	l-8.5-2.3l-13.5-3.7c-0.1,0-0.2-0.1-0.1-0.3l2.1-7.3c0-0.1,0.1-0.2,0.2-0.2l13.5,3.7l0,0l2,0.5c4.4,1.2,8.8,0.2,11.3-2.3
	c0.8-0.8,1.5-1.8,1.8-3l5.3-18.9l2.3-8.2l0,0l0.6-2.3c0.6-2.2,0.1-4.4-1.3-6.4c-1.2-1.7-3.1-3.2-5.3-4.1c-0.5-0.2-1.1-0.4-1.7-0.6
	h-0.1l-1.7-0.5l-13.7-3.7h-0.1c-0.1,0-0.2-0.1-0.1-0.3l2.1-7.3c0-0.1,0.1-0.2,0.2-0.2h0.1l13.8,3.7l8.2,2.2
	C512.9,557.8,516.2,560.2,518.2,563z"/>
<path class="st26" d="M494.8,456l-102-28.4c-6.2-1.7-12.7,2.3-14.6,9v0.2l-58.9,196.8c-6.4,22.3,8.2,26.2,14.2,27.9l95.5,30
	c6.1,1.7,24.3-1.8,29.1-19.7L508.5,496l1.9-6.6C514.6,474.9,508.5,459.8,494.8,456z"/>
<path class="st34" d="M494.8,456l-102-28.4c-6.2-1.7-12.7,2.3-14.6,9l0,0c0,0.1,0,0.2,0.1,0.2c5.4,3.9,14.5,8,29.8,11.1
	c37.1,7.5,75.1,30.3,100.2,47.9c0.1,0.1,0.3,0,0.3-0.1l1.8-6.3C514.6,474.9,508.5,459.8,494.8,456z"/>
<path class="st19" d="M488.7,606.4c-8.4-5.3,7.1-36.5,15.3-39.8c4.7-1.9,14.3,2.9,19.3,5s6,13.2-1.4,27.7c-3.6,7.1-5.1,9.3-10.7,9.8
	C508.6,609.3,492.8,608.9,488.7,606.4z"/>
<path class="st5" d="M867.9,712.2C849,726.9,756.7,786.4,749,787.4c-9.8,1.3,21.1,66.6,32.9,64.5c11.8-2.1,115.4-70.9,116.9-79.8
	C901.2,756.9,876.6,705.5,867.9,712.2z"/>
<path class="st11" d="M865.6,723.1c-17.4,10.5-98,65.6-107.1,68c-8.3,2.2,16.9,53.5,27.1,51.6c10.2-1.8,104.7-65,106-73.3
	C893.7,756.3,871.6,719.5,865.6,723.1z"/>
<path class="st6" d="M823.5,801.1c-2.6,0-4.9-0.6-7-1.7c-3.5-1.9-6.2-5.9-7.1-10.7c-1.1-5.5,0.3-11,3.7-15
	c5.4-6.4,11.6-9.9,17.5-9.9c3.6,0,7,1.3,9.5,3.8c6,5.9,5.8,16.2-0.4,25.1C836,797.8,829.6,801.1,823.5,801.1L823.5,801.1z"/>
<path class="st4" d="M830.6,764.3c3.5,0,6.7,1.3,9.1,3.6c5.8,5.7,5.6,15.7-0.5,24.3c-3.5,5-9.7,8.2-15.6,8.2c-2.5,0-4.7-0.5-6.7-1.6
	c-3.4-1.8-5.9-5.7-6.8-10.3c-1-5.3,0.3-10.7,3.5-14.6C818.8,767.8,824.8,764.3,830.6,764.3 M830.6,763.1c-5.5,0-12,3-18,10.1
	c-7.3,8.7-4.3,22.4,3.6,26.7c2.2,1.2,4.7,1.7,7.3,1.7c6.2,0,12.7-3.3,16.6-8.7c6.6-9.3,6.5-19.8,0.4-25.8
	C837.9,764.6,834.5,763.1,830.6,763.1L830.6,763.1z"/>
<path class="st4" d="M792.4,814.4c5.1,1.9,9.9-1.3,10.7-7.2s-2.8-12.2-7.9-14.1c-5.1-1.9-9.9,1.3-10.7,7.2
	C783.7,806.2,787.3,812.5,792.4,814.4z"/>
<path class="st4" d="M859.2,770c4.7,0.6,8.7-3.2,8.8-8.5c0.1-5.4-3.6-10.2-8.3-10.9c-4.7-0.6-8.7,3.2-8.8,8.5
	C850.8,764.5,854.5,769.4,859.2,770z"/>
<path class="st4" d="M872.6,726.3c0,0-25.6,19.3-30.1,19.4c-4.4,0.1-6.5-2.7-6.5-2.7l30.9-20.7L872.6,726.3z"/>
<path class="st4" d="M822.2,822.6c-5-2.3-6.8-4.8-9.9-3.3c-3.2,1.5-34.3,18.1-33.2,19.4c1.1,1.3,4.3,4.9,6.6,4.2s34.6-19,34.6-19
	L822.2,822.6z"/>
<path class="st5" d="M1069.3,1134.5c-13.3-5-31.4-18.8-44.1-15.5c-16,4.2-44.9,35.6-67.2,47.5c-33.2,17.7-55.5,20.1-57,23.8
	c-1.6,3.7,15.8,30.6,27.7,26.6c14-4.7,41.8-10.9,59.8-27.7c15.9-14.8,29.1-27.4,40.2-33.7
	C1041.5,1148.2,1074.1,1136.3,1069.3,1134.5z"/>
<path class="st0" d="M975.9,1179.2c7.8-1.3,16.6-4.9,21.8-10.7c5.3-5.8,4-10.4-2.8-10.3s-16.9,4.3-24.6,12.5
	C964.8,1176.5,967.7,1180.6,975.9,1179.2z"/>
<path class="st12" d="M975.9,1179.2c7.8-1.3,16.6-4.9,21.8-10.7c5.3-5.8,4-10.4-2.8-10.3s-16.9,4.3-24.6,12.5
	C964.8,1176.5,967.7,1180.6,975.9,1179.2z"/>
<path class="st13" d="M1021.7,1125c-6.7,2.1-31.9,29.5-54.8,41.8c-22.8,12.2-51.2,23.7-53.8,24c-9.3,1.1,8.3,23.8,19.6,20
	c3.7-1.3,28.4-7.5,45.7-20.6c10-7.6,34.6-29.8,44.7-36.4c25.9-16.7,38.6-16.1,35.7-17.1C1045.3,1131.8,1030.1,1122.3,1021.7,1125z"
	/>
<path class="st4" d="M941,1195.5c3.3,1.9,9.4,0.7,13.8-2.6c4.4-3.3,5.3-7.4,2-9.3s-9.4-0.7-13.8,2.6
	C938.7,1189.4,937.8,1193.6,941,1195.5z"/>
<path class="st4" d="M1011.6,1150.3c3.5,1.2,9.4-0.3,13.1-3.4c3.7-3,3.8-6.4,0.2-7.6c-3.5-1.2-9.4,0.3-13.1,3.4
	C1008.1,1145.7,1008,1149.1,1011.6,1150.3z"/>
<path class="st4" d="M1026.9,1124.7c-6.9,5.6-21.3,18.6-23.9,19c-2.6,0.4-4.5-0.1-4.5-0.1l21.3-17.9l4-1.2L1026.9,1124.7z"/>
<path class="st4" d="M962.2,1199.5c-2.3-0.7-4.2-1.8-6.1-1.2c-1.9,0.6-33,10.7-31.5,11.4c1.6,0.7,5.9,2,5.9,2l9.2-3l14.8-5.3
	L962.2,1199.5z"/>
<path class="st25" d="M842.5,707.6c2.7-22.5-1.1-45.9-9.5-53.4c-0.5-0.4-1.3-0.8-2.4-1.1C857.2,656.2,874.8,662.4,842.5,707.6z"/>
</svg>
