<?xml version="1.0" encoding="utf-8"?>
<!-- Generator: Adobe Illustrator 26.1.0, SVG Export Plug-In . SVG Version: 6.00 Build 0)  -->
<svg version="1.1" id="Layer_1" xmlns="http://www.w3.org/2000/svg" xmlns:xlink="http://www.w3.org/1999/xlink" x="0px" y="0px"
	 viewBox="0 0 1715.9 1364.8" style="enable-background:new 0 0 1715.9 1364.8;" xml:space="preserve">
<style type="text/css">
	.st0{fill:#FFFFFF;}
	.st1{fill:#66BF9D;}
	.st2{fill:none;stroke:#1B5B44;stroke-width:1.5669;stroke-miterlimit:10;}
	.st3{fill:none;stroke:#1B5B44;stroke-width:1.2908;stroke-miterlimit:10;}
	.st4{fill:#1B5B44;}
	.st5{fill:#3EB58A;}
	.st6{fill:#87C9A6;}
	.st7{fill:none;stroke:#1B5B44;stroke-width:1.3165;stroke-miterlimit:10;}
	.st8{fill:none;stroke:#FFFFFF;stroke-width:18.2927;stroke-linecap:round;stroke-miterlimit:10;}
	.st9{fill:none;stroke:#1B5B44;stroke-width:1.4309;stroke-miterlimit:10;}
	.st10{fill:none;stroke:#1B5B44;stroke-width:1.2673;stroke-miterlimit:10;}
	.st11{fill:none;stroke:#1B5B44;stroke-width:1.6021;stroke-miterlimit:10;}
	.st12{fill:none;stroke:#1B5B44;stroke-width:1.4978;stroke-miterlimit:10;}
	.st13{fill:none;stroke:#1B5B44;stroke-width:1.2338;stroke-miterlimit:10;}
	.st14{fill:#1E6E56;}
	.st15{fill:none;stroke:#1B5B44;stroke-width:1.2303;stroke-miterlimit:10;}
	.st16{fill:none;stroke:#1B5B44;stroke-width:2.0656;stroke-miterlimit:10;}
	.st17{fill:none;stroke:#1B5B44;stroke-width:1.3283;stroke-miterlimit:10;}
	.st18{fill:#E84E19;}
	.st19{fill:#EFAEA6;}
	.st20{opacity:0.2;fill:#AF7572;}
	.st21{opacity:0.65;fill:#AF7572;}
	.st22{opacity:0.14;fill:#1F1F3B;}
	.st23{fill:#1F1F39;}
	.st24{fill:#3B3B4C;}
	.st25{opacity:0.44;fill:#1F1F39;}
	.st26{fill:#603A3E;}
	.st27{opacity:0.46;fill:#1F1F39;}
	.st28{fill:#244798;}
	.st29{fill:#1F1F3B;}
	.st30{opacity:0.65;fill:#1F1F39;}
	.st31{opacity:0.18;fill:#1F1F39;}
	.st32{fill:#F4AD00;}
	.st33{fill:#201B2C;}
	.st34{fill:#775155;}
</style>
<path class="st0" d="M953.9,395.8c24.4-4.3,27.7-15.2,31.5-48.8c3.9,31.7,8.2,43.7,33.1,46.8c-21.5,9.5-29.1,13-32.2,49.8
	C980.2,406.6,975.4,403.4,953.9,395.8z"/>
<path class="st1" d="M1372.7,967.4c-13.5-6.3-31.2-22.2-44.7-19.7c-17,3.1-49.8,33.5-74,44.1c-36.1,15.7-59.5,16.4-61.4,20.1
	c-1.9,3.7,14,33.2,26.7,30c14.9-3.8,44.5-7.9,64.6-24c17.8-14.2,32.6-26.2,44.7-31.9C1342.6,979.5,1377.6,969.7,1372.7,967.4z"/>
<path class="st0" d="M1271.7,1006.5c8.3-0.8,17.7-3.7,23.6-9.4s5-10.6-2-11c-7.1-0.5-18,3.1-26.7,11
	C1260.4,1002.7,1263,1007.3,1271.7,1006.5z"/>
<path class="st2" d="M1271.7,1006.5c8.3-0.8,17.7-3.7,23.6-9.4s5-10.6-2-11c-7.1-0.5-18,3.1-26.7,11
	C1260.4,1002.7,1263,1007.3,1271.7,1006.5z"/>
<path class="st3" d="M1323.9,953.6c-7.2,1.7-35.7,28.2-60.6,39.2c-24.8,10.9-55.3,20.6-58,20.7c-9.8,0.4,6.7,25.5,18.8,22.4
	c4-1,30.2-5.5,49.3-17.7c11-7.1,38.6-28.3,49.6-34.3c28.3-15.3,41.6-13.6,38.6-15C1347.9,962.7,1332.9,951.5,1323.9,953.6z"/>
<path class="st4" d="M1234,1020.6c3.2,2.2,9.8,1.5,14.6-1.5c4.8-3.1,6.1-7.3,2.9-9.5c-3.2-2.2-9.8-1.5-14.6,1.5
	C1232,1014.1,1230.7,1018.4,1234,1020.6z"/>
<path class="st4" d="M1311.3,979.2c3.6,1.5,9.8,0.4,13.9-2.5c4.1-2.9,4.5-6.4,0.9-7.9c-3.6-1.5-9.8-0.4-13.9,2.5
	C1308,974.2,1307.7,977.7,1311.3,979.2z"/>
<path class="st4" d="M1329.3,953.8c-7.6,5.3-23.7,17.6-26.4,17.8c-2.7,0.2-4.6-0.4-4.6-0.4l23.7-16.9l4.3-1L1329.3,953.8z"/>
<path class="st4" d="M1255.8,1026.5c-2.4-1-4.2-2.3-6.2-1.8c-2,0.5-35.3,8.5-33.7,9.3c1.6,0.8,6,2.6,6,2.6l9.8-2.4l15.9-4.4
	L1255.8,1026.5z"/>
<path class="st1" d="M196.6,673.7c-13.5-6.3-31.2-22.2-44.7-19.7c-17,3.1-49.8,33.5-74,44.1c-36.1,15.7-59.5,16.4-61.4,20.1
	c-1.9,3.7,14,33.2,26.7,30c14.9-3.8,44.5-7.9,64.6-24c17.8-14.2,32.6-26.2,44.7-31.9C166.5,685.8,201.5,676,196.6,673.7z"/>
<path class="st0" d="M95.5,712.7c8.3-0.8,17.7-3.7,23.6-9.4c6-5.6,5-10.6-2-11c-7.1-0.5-18,3.1-26.7,11
	C84.2,709,86.9,713.5,95.5,712.7z"/>
<path class="st2" d="M95.5,712.7c8.3-0.8,17.7-3.7,23.6-9.4c6-5.6,5-10.6-2-11c-7.1-0.5-18,3.1-26.7,11
	C84.2,709,86.9,713.5,95.5,712.7z"/>
<path class="st3" d="M147.7,659.9c-7.2,1.7-35.7,28.2-60.6,39.2c-24.8,10.9-55.3,20.6-58,20.7c-9.8,0.4,6.7,25.5,18.8,22.4
	c4-1,30.2-5.5,49.3-17.7c11-7.1,38.6-28.3,49.6-34.3c28.3-15.3,41.6-13.6,38.6-15C171.8,669,156.8,657.8,147.7,659.9z"/>
<path class="st4" d="M57.9,726.9c3.2,2.2,9.8,1.5,14.6-1.5c4.8-3.1,6.1-7.3,2.9-9.5c-3.2-2.2-9.8-1.5-14.6,1.5
	C55.9,720.4,54.6,724.7,57.9,726.9z"/>
<path class="st4" d="M135.1,685.5c3.6,1.5,9.8,0.4,13.9-2.5c4.1-2.9,4.5-6.4,0.9-7.9c-3.6-1.5-9.8-0.4-13.9,2.5
	C131.9,680.5,131.5,684,135.1,685.5z"/>
<path class="st4" d="M153.2,660.1c-7.6,5.3-23.7,17.6-26.4,17.8c-2.7,0.2-4.6-0.4-4.6-0.4l23.7-16.9l4.3-1L153.2,660.1z"/>
<path class="st4" d="M79.7,732.8c-2.4-1-4.2-2.3-6.2-1.8c-2,0.5-35.3,8.5-33.7,9.3c1.6,0.8,6,2.6,6,2.6l9.8-2.4l15.9-4.4L79.7,732.8
	z"/>
<path class="st5" d="M655.9,997.9c18.7-0.3,49.4-6.5,60.9-0.1c14.5,8.1,18.9,44.3,38.2,58.5c15.5,11.4,54.4,29.6,53.3,33.1
	c-1.1,3.5-49.3,23.6-59.4,16.9c-11.9-7.9-38.1-21-45.2-40c-6.2-16.8-11.3-31-18.8-39.4C676.2,1017.3,649.1,998,655.9,997.9z"/>
<path class="st6" d="M732.1,1062.7c-2,0-4.2-0.5-6.5-1.5c-8.7-3.8-14.6-9.3-15.7-14.7c-0.5-2.2-0.2-4.1,0.9-5.5
	c1.1-1.4,3.1-2.2,5.6-2.2c1.2,0,2.5,0.2,3.9,0.6c7,1.9,15.1,7.9,17.4,17c0.5,1.8,0.2,3.3-0.6,4.5
	C736.1,1062.1,734.3,1062.7,732.1,1062.7z"/>
<path class="st4" d="M716.4,1038.3v1c1.2,0,2.4,0.2,3.8,0.5c6.8,1.9,14.8,7.7,17,16.7c0.4,1.6,0.2,3-0.5,4c-0.9,1.1-2.5,1.7-4.5,1.7
	c-1.9,0-4.1-0.5-6.3-1.5c-8.5-3.7-14.3-9.1-15.4-14.4c-0.5-2.1-0.2-3.8,0.8-5.1c1.1-1.3,2.9-2,5.2-2L716.4,1038.3 M716.4,1038.3
	c-5.1,0-8.1,3.2-7,8.3c1.4,6.3,8.4,11.7,16,15.1c2.5,1.1,4.8,1.6,6.7,1.6c4.5,0,7.2-2.6,6.1-7c-2.3-9-10.3-15.4-17.8-17.4
	C718.9,1038.4,717.6,1038.3,716.4,1038.3L716.4,1038.3z"/>
<path class="st7" d="M716.2,1003.8c5.8,3.7,12.8,33.5,28.8,50.3c15.9,16.6,46.8,31.3,49.4,32.3c9.5,3.6-35.7,20.2-45.3,13.8
	c-3.2-2.1-25.8-14.3-35-30.1c-5.3-9.1-15.6-34.6-21.8-42.9c-15.9-21.2-30.6-24.4-26.5-24.4C684.7,1002.6,708.8,999.1,716.2,1003.8z"
	/>
<path class="st4" d="M751.6,1085.1c-5.1,0.6-11.1-2.1-13.4-6.1c-2.4-4-0.2-7.6,4.9-8.2c5.1-0.6,11.1,2.1,13.4,6.1
	C758.9,1080.8,756.7,1084.5,751.6,1085.1z"/>
<path class="st4" d="M707.9,1027.6c-4.8-0.1-10.2-3-11.9-6.5c-1.7-3.6,0.8-6.4,5.6-6.3c4.8,0.1,10.2,3,11.9,6.5
	C715.3,1024.8,712.7,1027.6,707.9,1027.6z"/>
<path class="st4" d="M710.6,1002.1c3.3,6.6,9.4,21.4,12,22.5c2.6,1.1,5,1.2,5,1.2l-9.9-20.9l-3.5-2.2L710.6,1002.1z"/>
<path class="st4" d="M724.9,1082.3c3.2,0.1,6.1-0.3,7.7,0.8c1.6,1.1,28.5,18.3,26.3,18.4c-2.3,0.1-8.2,0-8.2,0l-7.9-5.1l-12.4-8.7
	L724.9,1082.3z"/>
<path class="st8" d="M818.9,787.2"/>
<path class="st5" d="M963.7,948.8c-15-15.2-77.5-90.8-79.3-97.6c-2.2-8.5-56.9,25.7-53.8,36c3.1,10.2,75.1,94.9,83.1,95.2
	C927.6,983,970.7,955.8,963.7,948.8z"/>
<path class="st9" d="M953.8,947.9c-11.2-14.3-68.5-80-71.6-87.8c-2.8-7.2-45.6,20.7-42.9,29.5c2.7,8.9,68.7,86,76.2,86.3
	C927.4,976.4,957.7,952.8,953.8,947.9z"/>
<path class="st6" d="M900.3,935.1c-3.5,0-7.3-1-10.8-2.9c-7.3-3.9-11.1-13-8.5-19.8c1.9-4.8,7.8-8.3,14-8.3c3.1,0,6,0.9,8.5,2.5
	c6,3.9,9.7,8.8,10.6,13.9c0.6,3.4-0.2,6.8-2.3,9.4C909.2,933.3,905.1,935.1,900.3,935.1C900.3,935.1,900.3,935.1,900.3,935.1z"/>
<path class="st4" d="M895,904.7c3,0,5.8,0.8,8.2,2.4c5.9,3.8,9.5,8.6,10.3,13.5c0.6,3.3-0.2,6.5-2.2,9c-2.5,3.2-6.4,5-11,5
	c-3.4,0-7.1-1-10.6-2.9c-7-3.8-10.8-12.6-8.3-19.1C883.3,908,889,904.7,895,904.7 M895,903.6c-6.4,0-12.5,3.5-14.5,8.6
	c-2.8,7.2,1.3,16.4,8.7,20.4c3.7,2,7.6,3,11.1,3c4.9,0,9.1-1.9,11.9-5.4c4.7-6.1,3.5-16.3-8.4-24.1C901.1,904.4,898,903.6,895,903.6
	L895,903.6z"/>
<path class="st4" d="M865.2,892.6c-1.2,4.8,2.2,8.7,7.5,8.7c5.3,0.1,10.5-3.8,11.7-8.5c1.2-4.8-2.2-8.7-7.5-8.7
	C871.5,884.1,866.3,887.9,865.2,892.6z"/>
<path class="st4" d="M911.6,947.2c-0.1,4.3,3.7,7.3,8.5,6.9c4.8-0.5,8.7-4.3,8.7-8.5c0.1-4.3-3.7-7.3-8.5-6.9
	C915.6,939.1,911.7,942.9,911.6,947.2z"/>
<path class="st4" d="M951.8,954.5c0,0-19.8-20.7-20.4-24.6c-0.6-3.9,1.7-6,1.7-6l21.6,25.2L951.8,954.5z"/>
<path class="st4" d="M861.1,919.9c1.5-4.7,3.6-6.5,1.9-9.2c-1.7-2.6-19.7-28.5-20.7-27.4c-1,1.1-3.9,4.3-3,6.3
	c0.9,1.9,20.5,28.7,20.5,28.7L861.1,919.9z"/>
<path class="st5" d="M1153.4,685c-8.1,22.1-44.5,120.5-52.1,127.9c-7.7,7.4,42.5,9.1,49.8-2.2c7.3-11.3,52.8-127.8,46.6-133.4
	C1191.4,671.6,1157.2,674.7,1153.4,685z"/>
<path class="st10" d="M1154.8,690.6c-7,19.1-39.1,110.5-45.7,117s35.7,4.8,42-5.1c6.3-9.8,46.1-114.3,40.7-119.2
	C1186.4,678.4,1158.1,681.7,1154.8,690.6z"/>
<path class="st6" d="M1145.9,763.9c-1.4,0-2.6-0.5-3.5-1.5c-1.4-1.6-1.9-4.4-1.4-7.8c1.9-13.7,9.3-23.1,15.8-26.4
	c1.4-0.7,2.8-1.1,4.1-1.1c1.6,0,2.9,0.6,3.9,1.7c1.7,1.9,2.4,5.3,1.9,9.5c-0.9,8.2-6.3,16.8-14.3,23
	C1150,762.9,1147.8,763.9,1145.9,763.9C1145.9,763.9,1145.9,763.9,1145.9,763.9z"/>
<path class="st4" d="M1160.8,727.4c1.4,0,2.6,0.5,3.5,1.6c1.6,1.8,2.3,5.1,1.8,9.1c-0.9,8-6.2,16.5-14.1,22.7
	c-2.2,1.7-4.3,2.6-6.1,2.6c-1.3,0-2.3-0.5-3.1-1.4c-1.3-1.5-1.8-4.2-1.3-7.5c1.9-13.5,9.1-22.8,15.5-26.1
	C1158.3,727.8,1159.6,727.4,1160.8,727.4 M1160.8,726.5c-1.3,0-2.7,0.4-4.3,1.2c-6.9,3.5-14.2,13.4-16,26.8
	c-0.9,6.3,1.5,9.9,5.4,9.9c1.9,0,4.3-0.9,6.7-2.8c7-5.5,13.4-13.9,14.5-23.3C1167.9,730.9,1165.2,726.5,1160.8,726.5L1160.8,726.5z"
	/>
<path class="st4" d="M1137.7,791.4c3.9-0.5,8.1-5.1,9.3-10.3s-1-9-5-8.5s-8.1,5.1-9.3,10.3C1131.6,788.1,1133.8,791.9,1137.7,791.4z
	"/>
<ellipse transform="matrix(0.5169 -0.856 0.856 0.5169 -42.6472 1340.9073)" class="st4" cx="1166.8" cy="708.2" rx="9.5" ry="5.5"/>
<path class="st4" d="M1160.6,685.3c0,0-8.9,29.2-12,33.3c-3,4-5.7,4.9-5.7,4.9l12.5-34.8L1160.6,685.3z"/>
<path class="st4" d="M1167.8,762.7c-4.5,3.7-6.8,4.5-8.4,7.9c-1.5,3.4-16.1,37-14.7,36.4c1.3-0.6,5.1-2.2,6.4-4.5
	c1.3-2.3,15.9-37.6,15.9-37.6L1167.8,762.7z"/>
<path class="st1" d="M1077.4,433.3c4.9-14.1,5.9-37.8,17-45.8c14.1-10.1,58.7-12.3,83.2-22.3c36.4-14.9,53.2-31.2,57.3-30
	c4,1.2,14.1,33.2,2.9,40c-13.1,8.1-36.7,26.4-62.3,29.6c-22.5,2.9-41.5,5.1-54,9.8C1107,420.1,1075.6,438.4,1077.4,433.3z"/>
<path class="st0" d="M1175.8,388c-6.3,5.4-15,10.1-23.2,10.4c-8.2,0.3-11.1-3.7-6.5-9.1c4.6-5.4,14.7-10.7,26.5-11.5
	C1181,377.3,1182.4,382.3,1175.8,388z"/>
<path class="st2" d="M1175.8,388c-6.3,5.4-15,10.1-23.2,10.4c-8.2,0.3-11.1-3.7-6.5-9.1c4.6-5.4,14.7-10.7,26.5-11.5
	C1181,377.3,1182.4,382.3,1175.8,388z"/>
<path class="st3" d="M1101.6,388.6c6.2-4,45.1-5.9,70.3-16.2c25.1-10.2,53.3-25.3,55.3-27.2c7.1-6.7,13.6,22.6,3,29.1
	c-3.5,2.1-25,17.9-47.1,23c-12.8,3-47.2,7.9-59.2,11.7c-30.7,9.6-38.7,20.3-37.6,17.2C1091.3,412.1,1093.8,393.6,1101.6,388.6z"/>
<path class="st4" d="M1212.2,370.8c-0.7,3.9-5.7,8.1-11.3,9.4c-5.6,1.3-9.5-0.7-8.8-4.6c0.7-3.9,5.7-8.1,11.3-9.4
	C1208.9,364.9,1212.9,367,1212.2,370.8z"/>
<path class="st4" d="M1128.7,397.4c-1.4,3.6-6.6,7.3-11.5,8.3c-4.9,0.9-7.7-1.3-6.3-4.9c1.4-3.6,6.6-7.3,11.5-8.3
	S1130.1,393.8,1128.7,397.4z"/>
<path class="st4" d="M1097.9,392.6c9.1-1.8,29.2-4.7,31.2-6.5c2.1-1.8,2.9-3.6,2.9-3.6l-28.7,5.2l-3.7,2.4L1097.9,392.6z"/>
<path class="st4" d="M1201.3,390.6c1-2.4,1.3-4.6,3.1-5.7s30.7-19.4,30.2-17.7c-0.5,1.7-2.3,6.1-2.3,6.1l-8.5,5.4l-14.2,8.4
	L1201.3,390.6z"/>
<path class="st1" d="M546.3,604.4c14.7-2.2,36.3-12.2,48.5-6c15.4,7.9,38,46.4,58.2,63.5c30,25.5,52.3,32.8,53,37
	c0.8,4.1-23,27.8-34.2,21.1c-13.2-7.9-40.3-20.4-55-41.6c-12.9-18.7-23.7-34.5-33.6-43.4C571.7,624.6,541,605.1,546.3,604.4z"/>
<path class="st0" d="M631.9,670.8c-7.7-3.1-15.8-8.7-19.9-15.8c-4.1-7.1-1.8-11.6,5.1-10c6.9,1.6,16.3,8.1,22.4,18.2
	C643.8,670.4,640,674.1,631.9,670.8z"/>
<path class="st2" d="M631.9,670.8c-7.7-3.1-15.8-8.7-19.9-15.8c-4.1-7.1-1.8-11.6,5.1-10c6.9,1.6,16.3,8.1,22.4,18.2
	C643.8,670.4,640,674.1,631.9,670.8z"/>
<path class="st3" d="M597.1,605.2c6.4,3.7,26.1,37.3,46.8,54.9c20.6,17.6,47.1,35.6,49.6,36.5c9.2,3.2-13.8,22.5-24.5,16.1
	c-3.5-2.1-27.4-14-42.1-31.2c-8.5-9.9-28.8-38.2-37.7-47.1c-22.7-22.8-35.9-25-32.6-25.4C571.5,606.9,589.1,600.6,597.1,605.2z"/>
<path class="st4" d="M663.9,695.2c-3.7,1.2-9.8-1.4-13.6-5.7c-3.8-4.3-3.8-8.8,0-9.9c3.7-1.2,9.8,1.4,13.6,5.7
	C667.7,689.5,667.7,694,663.9,695.2z"/>
<path class="st4" d="M601.8,633.3c-3.9,0.4-9.5-2.4-12.6-6.4c-3.1-3.9-2.4-7.4,1.5-7.8c3.9-0.4,9.5,2.4,12.6,6.4
	C606.3,629.4,605.7,632.9,601.8,633.3z"/>
<path class="st4" d="M591.9,603.8c5.8,7.2,17.6,23.7,20.2,24.7c2.6,1,4.6,0.9,4.6,0.9l-17.8-23l-3.8-2.2L591.9,603.8z"/>
<path class="st4" d="M641.3,694.5c2.6-0.2,4.7-0.9,6.5,0.1c1.8,1.1,31.4,18.3,29.6,18.6c-1.7,0.4-6.5,0.7-6.5,0.7l-8.7-5.1l-14-8.7
	L641.3,694.5z"/>
<path class="st1" d="M1154.9,1296.8c11.5-9.4,24.8-29.1,38.5-30.1c17.3-1.2,56.5,20.3,82.5,24.6c38.8,6.4,61.7,1.3,64.5,4.4
	c2.8,3.1-5.4,35.7-18.5,35.6c-15.4,0-45,3.2-68.5-7.4c-20.7-9.4-38.1-17.4-51.1-19.9C1187,1301.1,1150.7,1300.2,1154.9,1296.8z"/>
<path class="st0" d="M1262.4,1309.8c-8.2,1.3-18,0.7-25.2-3.3c-7.2-4-7.5-9-0.7-11.2c6.8-2.2,18.2-1.4,28.6,4.1
	C1272.5,1303.4,1271,1308.4,1262.4,1309.8z"/>
<path class="st2" d="M1262.4,1309.8c-8.2,1.3-18,0.7-25.2-3.3c-7.2-4-7.5-9-0.7-11.2c6.8-2.2,18.2-1.4,28.6,4.1
	C1272.5,1303.4,1271,1308.4,1262.4,1309.8z"/>
<path class="st3" d="M1198.9,1271.4c7.4-0.1,41.5,18.6,68.3,23.1c26.7,4.5,58.7,6.4,61.3,5.8c9.6-2-0.2,26.4-12.7,26.4
	c-4.1,0-30.7,2.1-52.2-5.1c-12.4-4.1-44.3-18-56.5-21.1c-31.2-7.9-43.6-3-41.1-5C1177.8,1286,1189.6,1271.5,1198.9,1271.4z"/>
<path class="st4" d="M1302.4,1314.2c-2.6,2.9-9.1,3.9-14.6,2.1s-7.7-5.6-5.1-8.5s9.1-3.9,14.6-2.1S1305,1311.3,1302.4,1314.2z"/>
<path class="st4" d="M1217.4,1293.1c-3.1,2.3-9.4,2.8-14.1,1c-4.7-1.8-5.9-5.1-2.8-7.5c3.1-2.3,9.4-2.8,14.1-1
	C1219.2,1287.4,1220.5,1290.8,1217.4,1293.1z"/>
<path class="st4" d="M1193.7,1272.9c8.7,3.2,27.3,11.3,30,10.8c2.7-0.5,4.4-1.5,4.4-1.5l-27.1-10.6l-4.4,0.1L1193.7,1272.9z"/>
<path class="st4" d="M1282.7,1325.3c2.1-1.5,3.6-3.2,5.6-3.2c2.1,0,36.3-0.5,35,0.7c-1.3,1.2-5.2,4-5.2,4l-10.1,0.1l-16.5-0.3
	L1282.7,1325.3z"/>
<path class="st5" d="M730.8,404.2c-20.9-11.7-111.8-73.4-115.7-80c-5-8.5-53.1,45.5-46.5,55.5c6.6,10,110.5,78.5,119.2,76.4
	C702.7,452.3,740.4,409.5,730.8,404.2z"/>
<path class="st11" d="M719.8,406.3c-16.5-11.9-98.7-64.5-104.5-71.9c-5.3-6.8-42.6,36.5-36.9,45.2c5.7,8.7,100.8,70.9,108.9,68.9
	C700.3,445.2,725.5,410.5,719.8,406.3z"/>
<path class="st6" d="M651.8,410.3c-2,0-4-0.2-6-0.7c-9-2-16-10.5-15.3-18.6c0.7-7.5,8.8-14,17.4-14c1.7,0,3.3,0.2,4.9,0.7
	c7.6,2.3,13.2,6.5,15.7,11.6c1.7,3.5,1.9,7.4,0.5,10.9C666.6,406.4,660,410.3,651.8,410.3C651.8,410.3,651.8,410.3,651.8,410.3z"/>
<path class="st4" d="M647.9,377.6c1.6,0,3.2,0.2,4.7,0.7c7.5,2.3,12.9,6.3,15.4,11.3c1.6,3.4,1.8,7.1,0.5,10.4
	c-2.4,6-8.7,9.7-16.6,9.7c-1.9,0-3.9-0.2-5.9-0.7c-8.8-1.9-15.6-10.1-14.9-18C631.7,383.9,639.6,377.6,647.9,377.6 M647.9,376.4
	c-9.1,0-17.4,6.9-18,14.5c-0.8,8.6,6.5,17.2,15.8,19.2c2.1,0.5,4.2,0.7,6.2,0.7c8.4,0,15.2-3.9,17.7-10.4c3.2-8-1.3-18.6-16.6-23.2
	C651.3,376.7,649.6,376.4,647.9,376.4L647.9,376.4z"/>
<ellipse transform="matrix(0.7098 -0.7044 0.7044 0.7098 -82.6988 542.9507)" class="st4" cx="617.6" cy="371.8" rx="11.5" ry="9"/>
<ellipse transform="matrix(0.7643 -0.6448 0.6448 0.7643 -106.7309 538.4182)" class="st4" cx="683.2" cy="415.2" rx="9.9" ry="8.4"/>
<path class="st4" d="M719.7,414.1c0,0-27.8-16.1-29.6-20.1c-1.9-4-0.1-7-0.1-7l31.1,20.3L719.7,414.1z"/>
<path class="st4" d="M611.4,405.3c0.2-5.5,1.8-8.1-0.8-10.5c-2.6-2.3-30.1-24.5-30.8-23c-0.7,1.5-2.9,5.9-1.3,7.7
	c1.6,1.8,31.1,24.4,31.1,24.4L611.4,405.3z"/>
<path class="st5" d="M1690.7,759.7c-23.6-4.4-129.2-34.3-135.1-39.4c-7.4-6.5-36,59.9-26.6,67.4c9.4,7.4,129.6,39.5,137.2,34.8
	C1679.3,814.3,1701.6,761.7,1690.7,759.7z"/>
<path class="st11" d="M1681,765.2c-19.4-6.1-114-30-121.9-35.2c-7.2-4.8-28.9,48.1-20.7,54.5c8.1,6.4,118.1,35.4,125.1,30.9
	C1674.8,808.3,1687.8,767.3,1681,765.2z"/>
<path class="st6" d="M1609.7,791.8c-8.6,0-16.6-5.7-18.3-12.9c-0.9-3.9,0.3-8.5,3.3-12.4c3.4-4.5,8.4-7.1,13.7-7.2
	c0.4,0,0.7,0,1.1,0c9.7,0,15,3.4,17.6,6.2c2.6,2.8,4,6.3,3.8,10c-0.5,8.4-8.3,15.1-19.1,16.3
	C1611.1,791.8,1610.4,791.8,1609.7,791.8z"/>
<path class="st4" d="M1609.5,759.9c7.4,0,13.5,2.1,17.2,6c2.5,2.7,3.8,6.1,3.6,9.6c-0.4,8.1-8.1,14.6-18.6,15.7
	c-0.7,0.1-1.4,0.1-2,0.1c-8.3,0-16.1-5.5-17.7-12.5c-0.9-3.7,0.3-8.2,3.2-11.9c3.3-4.3,8.2-6.9,13.2-7
	C1608.8,759.9,1609.1,759.9,1609.5,759.9 M1609.5,758.7c-0.4,0-0.7,0-1.1,0c-11.3,0.3-19.6,11.6-17.6,20.4
	c1.8,7.7,10.2,13.4,18.9,13.4c0.7,0,1.4,0,2.2-0.1c11.3-1.2,19.1-8.2,19.6-16.8C1631.9,767.1,1624.7,758.7,1609.5,758.7
	L1609.5,758.7z"/>
<path class="st4" d="M1564.2,770.8c2,5.1,7.5,6.6,12.5,3.3c4.9-3.3,7.3-10.2,5.3-15.3c-2-5.1-7.5-6.6-12.5-3.3
	C1564.6,758.9,1562.2,765.7,1564.2,770.8z"/>
<path class="st4" d="M1641.7,791.5c2.6,4,8.1,4.4,12.2,0.9c4.1-3.5,5.3-9.5,2.6-13.4c-2.6-4-8.1-4.4-12.2-0.9
	C1640.2,781.5,1639,787.5,1641.7,791.5z"/>
<path class="st4" d="M1683.4,772.6c0,0-31.4-6.4-34.5-9.7c-3-3.2-2.3-6.6-2.3-6.6l36,9.4L1683.4,772.6z"/>
<path class="st4" d="M1577.8,798.5c-1.6-5.3-0.9-8.3-4.1-9.6c-3.2-1.4-36.3-13.7-36.5-12.1c-0.2,1.7-0.9,6.5,1.2,7.7
	c2.1,1.2,37.2,13.4,37.2,13.4L1577.8,798.5z"/>
<path class="st5" d="M585.6,860.4c-22.2-7.8-121.1-42.6-128.7-50.1c-7.5-7.6-8.5,42.6,3,49.8c11.4,7.1,128.6,50.8,134.1,44.5
	C599.5,898.1,595.9,864,585.6,860.4z"/>
<path class="st10" d="M579.9,861.8c-19.2-6.7-111.1-37.3-117.7-43.9c-6.5-6.6-4.2,35.8,5.7,41.9c9.9,6.2,115,44.3,119.8,38.8
	C592.6,893.2,588.9,865,579.9,861.8z"/>
<path class="st6" d="M534.8,874.5c-0.7,0-1.4,0-2.2-0.1c-8.2-0.8-16.9-6-23.2-13.9c-2.6-3.2-3.4-6.3-2.4-8.5c0.9-2,3.3-3.1,6.7-3.1
	c0.7,0,1.4,0,2.2,0.1c13.7,1.7,23.3,8.9,26.7,15.3c1.4,2.6,1.6,5,0.5,6.8C541.7,873.3,538.8,874.5,534.8,874.5
	C534.8,874.5,534.8,874.5,534.8,874.5z"/>
<path class="st4" d="M513.7,849.3c0.7,0,1.4,0,2.1,0.1c13.6,1.7,23,8.8,26.3,15.1c1.3,2.5,1.5,4.7,0.5,6.4c-1.2,2-4,3.1-7.8,3.1
	c-0.7,0-1.4,0-2.2-0.1c-8.1-0.8-16.6-5.9-22.9-13.8c-2.5-3.1-3.3-6-2.3-8C508.3,850.3,510.5,849.3,513.7,849.3 M513.7,848.4
	c-7.7,0-10,5.7-4.7,12.4c5.6,7,14.1,13.2,23.5,14.1c0.8,0.1,1.5,0.1,2.2,0.1c7.8,0,11.5-4.6,8.2-10.8c-3.6-6.9-13.6-14-27-15.6
	C515.1,848.4,514.4,848.4,513.7,848.4L513.7,848.4z"/>
<path class="st4" d="M478.9,846.3c0.6,3.9,5.2,8,10.5,9.1c5.2,1.1,9-1.2,8.4-5.1c-0.6-3.9-5.2-8-10.5-9.1
	C482.1,840.1,478.3,842.4,478.9,846.3z"/>
<path class="st4" d="M554.2,872.8c1.3,3.6,6,7.2,10.6,7.9s7.3-1.7,6-5.3c-1.3-3.6-6-7.2-10.6-7.9
	C555.6,866.7,552.9,869.1,554.2,872.8z"/>
<path class="st4" d="M585.3,867.6c0,0-29.3-8.5-33.4-11.5s-5-5.6-5-5.6l35,12L585.3,867.6z"/>
<path class="st4" d="M508,876c-3.8-4.5-4.6-6.8-8-8.3c-3.4-1.5-37.3-15.5-36.7-14.2c0.6,1.3,2.3,5.1,4.6,6.3
	c2.3,1.2,37.9,15.3,37.9,15.3L508,876z"/>
<path class="st5" d="M1085,268.8c1.8-14.1,11.1-34.9,5-46.4c-7.8-14.6-45-35.6-61.6-54.6c-24.8-28.3-32.2-49.4-36.2-50.1
	c-4-0.7-26.2,22.4-19.6,33c7.8,12.5,20.1,38.2,40.6,51.9c18.1,12.1,33.4,22.1,42,31.4C1065.3,244.9,1084.4,273.9,1085,268.8z"/>
<path class="st0" d="M1020.2,188c3.1,7.3,8.5,15,15.4,18.8c6.9,3.8,11.1,1.5,9.4-5.1c-1.6-6.6-8-15.5-17.8-21.1
	C1020.3,176.6,1016.9,180.4,1020.2,188z"/>
<path class="st12" d="M1020.2,188c3.1,7.3,8.5,15,15.4,18.8c6.9,3.8,11.1,1.5,9.4-5.1c-1.6-6.6-8-15.5-17.8-21.1
	C1020.3,176.6,1016.9,180.4,1020.2,188z"/>
<path class="st13" d="M1083.4,220.2c-3.6-6.1-36-24.3-53.2-43.8c-17.1-19.4-34.8-44.4-35.7-46.8c-3.2-8.8-21.3,13.5-15,23.7
	c2.1,3.3,13.8,25.9,30.5,39.8c9.6,8,37,26.9,45.6,35.2c22.2,21.3,24.5,33.9,24.8,30.8C1082.2,244.8,1088,227.8,1083.4,220.2z"/>
<path class="st4" d="M996.4,157.8c-1.1,3.6,1.5,9.4,5.6,12.9c4.2,3.5,8.4,3.5,9.5-0.1c1.1-3.6-1.5-9.4-5.6-12.9
	C1001.7,154.1,997.4,154.2,996.4,157.8z"/>
<path class="st4" d="M1056.4,216.2c-0.3,3.7,2.5,9.1,6.3,11.9c3.8,2.9,7.1,2.2,7.5-1.5c0.3-3.7-2.5-9.1-6.3-11.9
	C1060.1,211.8,1056.8,212.5,1056.4,216.2z"/>
<path class="st4" d="M1084.8,225.2c-7-5.4-22.9-16.5-23.9-18.9c-1-2.4-1-4.4-1-4.4l22.3,16.7l2.1,3.6L1084.8,225.2z"/>
<path class="st4" d="M997.3,179.4c0.2-2.4,0.8-4.5-0.2-6.2c-1-1.7-18-29.7-18.3-28c-0.3,1.7-0.6,6.2-0.6,6.2l5,8.2l8.6,13.2
	L997.3,179.4z"/>
<path class="st5" d="M897.2,17.3c-13.9,3.2-36.6,1.8-45.2,11.6c-11,12.4-17.6,54.6-29.5,76.8c-17.8,33.1-35,47.5-34.3,51.4
	c0.8,4,30.2,16.7,37.8,6.8c9-11.7,28.7-32.2,34.4-56.2c5-21.1,9-39,14.7-50.4C881.7,44.2,902.3,16.1,897.2,17.3z"/>
<path class="st0" d="M844.3,106.4c5.8-5.5,11.1-13.3,12.2-21c1.1-7.8-2.5-10.9-8-7.1c-5.6,3.8-11.7,12.9-13.5,24.1
	C833.6,110.2,838.3,112.1,844.3,106.4z"/>
<path class="st12" d="M844.3,106.4c5.8-5.5,11.1-13.3,12.2-21c1.1-7.8-2.5-10.9-8-7.1c-5.6,3.8-11.7,12.9-13.5,24.1
	C833.6,110.2,838.3,112.1,844.3,106.4z"/>
<path class="st13" d="M852.3,35.8c-4.4,5.5-10.1,42.3-22.4,65.2c-12.2,22.8-29.4,48.1-31.4,49.8c-7.1,6.1,20.1,15.2,27.4,5.7
	c2.4-3.1,19.5-22,26.6-42.5c4.1-11.8,12.3-44,17-55.1c12.2-28.3,23.2-34.8,20.1-34C875.7,28.4,857.9,28.9,852.3,35.8z"/>
<path class="st4" d="M824.4,139.2c3.7-0.3,8.3-4.7,10.1-9.8c1.8-5.1,0.3-9.1-3.5-8.8c-3.7,0.3-8.3,4.7-10.1,9.8
	C819.1,135.5,820.6,139.5,824.4,139.2z"/>
<path class="st4" d="M858,62.5c3.6-1,7.6-5.5,9-10.1c1.4-4.6-0.4-7.5-4-6.5c-3.6,1-7.6,5.5-9,10.1C852.6,60.6,854.4,63.5,858,62.5z"
	/>
<path class="st4" d="M856.5,32.8c-2.6,8.5-7.4,27.2-9.3,29c-1.9,1.8-3.7,2.4-3.7,2.4l7.8-26.7l2.6-3.3L856.5,32.8z"/>
<path class="st4" d="M844.2,130.8c-2.4,0.7-4.5,0.8-5.7,2.4c-1.2,1.6-21.5,27.2-19.9,26.9c1.7-0.3,6.1-1.6,6.1-1.6l6-7.6l9.4-12.7
	L844.2,130.8z"/>
<path class="st5" d="M937.8,307.8c9.2-2.2,22.2-13.9,20.4-16.8c-1.8-2.9-37.7-20.1-56.5-30.3c-3.5,6.8-9.4,12.7-16.6,16.6
	c-3.7,2-8,3.6-10.3,6.8c3.1-1,6.3,0.6,9,2.2c8.2,4.8,16.5,9.6,24.7,14.4c4.9,2.9,10.3,5.1,15.7,7.2C928,309.2,932.6,309,937.8,307.8
	z"/>
<path class="st14" d="M879.3,284.2c13.4,8,26.8,15.4,41.3,21.9c-1.5-2.8-3.2-3.8-3.5-7.2c-0.3-4.8,2.9-6.9,0.5-8.8
	c-3.7-3-15-1.7-18.3-1.3C894,289.6,898.1,290.2,879.3,284.2z"/>
<path class="st5" d="M917.7,290c-12.9-8.1-26.1-14.4-39.2-21.7c-5.9-3.3-12.6-8.8-19.6-9.4c-8.8-0.7-17.3,5.4-24.1,10.9
	c-6.8,5.6-11.7,12.7-16.4,19.7c-4.7,7.1-17.1,15.8-15.8,20.2c1.3,4.4,48.9,33.8,55.7,31.8c6.8-2,15.2-21.8,25.1-31.7
	C893.3,300,904,290,917.7,290z"/>
<path class="st0" d="M899.2,279.4c-3,3.6-7.8,5.8-13.2,7l0,0c-0.5,0.1-1,0.2-1.5,0.3c-0.3,0.1-0.6,0.1-0.9,0.1l0,0
	c-3.4,0.5-7.1,0.6-10.6,0.4c-10.9-0.7-16.5-7.7-10.9-14.3c3-3.6,8.6-9.3,10-8.4C874,265.6,899.2,279.4,899.2,279.4z"/>
<path class="st15" d="M917.3,301.6c0,0,10,3.1,16,1.8c4.4-0.9,13.8-7.3,16-10.1c2.2-2.8-44.8-27.7-46.4-25.8
	c-2.4,2.8-8.3,9.3-8.3,9.3"/>
<path class="st16" d="M899.2,279.4c-3,3.6-7.8,5.8-13.2,7l0,0c-0.5,0.1-1,0.2-1.5,0.3c-0.3,0.1-0.6,0.1-0.9,0.1l0,0
	c-3.4,0.5-7.1,0.6-10.6,0.4c-10.9-0.7-16.5-7.7-10.9-14.3c3-3.6,9.1-7,10-8.4"/>
<ellipse transform="matrix(0.9998 -1.810349e-02 1.810349e-02 0.9998 -5.2325 15.5307)" class="st4" cx="855.2" cy="296.8" rx="10.7" ry="7.4"/>
<path class="st15" d="M865.3,260.7c0,0-15.3,4.5-25.7,14c-9.5,8.7-28.5,31.5-25.6,32.9c2.9,1.3,39.9,26.3,43.9,22.3
	c4-4,17.3-23.5,29.9-33.7c6.9-5.6,24.1-9.5,24.1-9.5"/>
<path class="st5" d="M288.3,531.6c9.2,2.1,26.1-2.6,25.7-6c-0.3-3.4-24.9-34.8-37.2-52.2c-6.1,4.6-14.1,7.3-22.2,7.5
	c-4.2,0.1-8.7-0.3-12.3,1.5c3.2,0.5,5.4,3.3,7.1,5.9c5.3,7.9,10.5,15.9,15.8,23.8c3.2,4.8,6.9,9.1,10.9,13.4
	C278.8,528.4,283.1,530.4,288.3,531.6z"/>
<path class="st14" d="M246.3,484.4c8.5,13.2,17.2,25.7,27.4,37.9c-0.1-3.2-1.2-4.8,0.1-7.9c1.8-4.5,5.7-4.9,4.4-7.7
	c-2-4.3-12.7-8.2-15.9-9.3C257,495.8,260.5,498.2,246.3,484.4z"/>
<path class="st5" d="M278.1,506.7c-8-12.9-17-24.5-25.5-36.8c-3.8-5.5-7.4-13.4-13.4-17.1c-7.6-4.6-17.9-2.9-26.4-0.9
	c-8.5,2-16.1,6.2-23.5,10.4c-7.4,4.2-22.3,6.6-23.1,11.1c-0.8,4.5,28.9,52,35.9,53.2c7,1.2,23.3-12.8,36.5-17.3
	C251.8,504.9,265.8,500.6,278.1,506.7z"/>
<path class="st0" d="M266.2,489c-4.3,1.9-9.5,1.8-14.9,0.4l0,0c-0.5-0.1-1-0.3-1.4-0.4c-0.3-0.1-0.6-0.2-0.8-0.3l0,0
	c-3.3-1.1-6.6-2.6-9.7-4.4c-9.5-5.5-11.3-14.2-3.5-17.6c4.3-1.9,11.8-4.5,12.7-3.1C249.7,465.5,266.2,489,266.2,489z"/>
<path class="st15" d="M272.6,516.8c0,0,7.6,7.2,13.5,8.7c4.4,1.1,15.6-0.4,18.8-1.9c3.2-1.5-27.9-44.7-30.2-43.7
	c-3.4,1.5-11.6,4.7-11.6,4.7"/>
<path class="st16" d="M266.2,489c-4.3,1.9-9.5,1.8-14.9,0.4l0,0c-0.5-0.1-1-0.3-1.4-0.4c-0.3-0.1-0.6-0.2-0.8-0.3l0,0
	c-3.3-1.1-6.6-2.6-9.7-4.4c-9.5-5.5-11.3-14.2-3.5-17.6c4.3-1.9,11.3-2.2,12.7-3.1"/>
<path class="st4" d="M210.7,487.5c3.2,4.2,9.5,6.6,14.2,5.2c4.6-1.4,5.8-5.9,2.7-10.2c-3.2-4.2-9.5-6.6-14.2-5.2
	C208.7,478.7,207.5,483.3,210.7,487.5z"/>
<path class="st15" d="M244.1,457.2c0,0-15.7-2.8-29.2,1.1c-12.4,3.6-39.5,15.6-37.5,18.1c2,2.5,24.1,41.3,29.5,39.4
	c5.3-1.9,25.9-13.4,41.8-17c8.6-1.9,25.8,2.1,25.8,2.1"/>
<path class="st5" d="M319.1,1006.2c7.7-5.6,15.2-21.4,12.4-23.4c-2.8-2-42.6-4.1-63.8-6.3c-0.6,7.7-3.8,15.4-9,21.7
	c-2.7,3.2-6,6.3-6.9,10.3c2.5-2.1,6.1-1.9,9.1-1.4c9.4,1.3,18.9,2.5,28.3,3.8c5.7,0.8,11.4,0.8,17.3,0.6
	C310.5,1011.2,314.8,1009.3,319.1,1006.2z"/>
<path class="st14" d="M256,1006.8c15.5,2.3,30.7,4,46.6,4.3c-2.5-2.1-4.4-2.2-5.9-5.3c-2.2-4.3,0.1-7.5-2.9-8.3
	c-4.5-1.3-14.5,4.2-17.4,5.9C271.6,1006.1,275.7,1005.2,256,1006.8z"/>
<path class="st5" d="M293.7,997.5c-15-2.5-29.6-3.3-44.5-5c-6.7-0.7-15-3.3-21.6-1.1c-8.4,2.7-13.9,11.6-18,19.3s-6,16.2-7.6,24.5
	c-1.6,8.3-9.7,21.2-6.8,24.7c2.9,3.6,58.1,12.4,63.7,8c5.5-4.4,5.7-26,11-38.9C275,1016.1,281,1002.7,293.7,997.5z"/>
<path class="st0" d="M272.5,994.8c-1.4,4.5-4.9,8.4-9.5,11.5l0,0c-0.4,0.3-0.8,0.6-1.3,0.8c-0.2,0.2-0.5,0.3-0.7,0.5l0,0
	c-3,1.8-6.3,3.3-9.7,4.4c-10.4,3.5-18.1-0.8-15.6-9c1.4-4.5,4.4-11.8,6-11.6C244,991.7,272.5,994.8,272.5,994.8z"/>
<path class="st15" d="M297.7,1008.3c0,0,10.4-1,15.5-4.4c3.7-2.6,10-12,10.9-15.4c0.9-3.4-52-8.3-52.8-6c-1.1,3.5-4.1,11.8-4.1,11.8
	"/>
<path class="st16" d="M272.5,994.8c-1.4,4.5-4.9,8.4-9.5,11.5l0,0c-0.4,0.3-0.8,0.6-1.3,0.8c-0.2,0.2-0.5,0.3-0.7,0.5l0,0
	c-3,1.8-6.3,3.3-9.7,4.4c-10.4,3.5-18.1-0.8-15.6-9c1.4-4.5,5.7-10,6-11.6"/>
<path class="st4" d="M234.9,1035.7c5.3,0.4,11.2-2.8,13.3-7.2c2-4.4-0.6-8.3-5.9-8.7c-5.3-0.4-11.2,2.8-13.3,7.2
	C227,1031.4,229.6,1035.3,234.9,1035.7z"/>
<path class="st15" d="M234,990.5c0,0-12.4,10-18.3,22.8c-5.5,11.7-14.2,40-11,40.1c3.2,0.1,47,9,49.1,3.7
	c2.1-5.2,6.9-28.3,14.7-42.6c4.2-7.8,18.6-18,18.6-18"/>
<path class="st5" d="M1276.4,557.5c-6-7.3-9.4-24.5-6.2-25.7c3.2-1.2,42.3,6.7,63.4,9.8c-1.3,7.6-0.2,15.8,3.3,23.2
	c1.8,3.8,4.2,7.6,4.1,11.7c-1.9-2.7-5.4-3.3-8.5-3.7c-9.5-1.1-18.9-2.2-28.4-3.4c-5.7-0.7-11.3-2.1-16.9-3.7
	C1283.5,564.5,1279.8,561.6,1276.4,557.5z"/>
<path class="st14" d="M1337.4,573.9c-15.6-1.7-30.7-3.8-46.2-7.4c2.9-1.4,4.8-1.1,7.1-3.6c3.2-3.6,1.8-7.2,4.9-7.3
	c4.7-0.1,13,7.7,15.4,10C1322.4,569.3,1318.7,567.3,1337.4,573.9z"/>
<path class="st5" d="M1303.3,555.4c15.2,1.3,29.5,4.2,44.3,6.3c6.7,0.9,15.3,0.5,21.2,4.3c7.5,4.7,10.6,14.7,12.7,23.2
	c2.1,8.5,1.7,17.2,1.3,25.7c-0.5,8.5,4.1,22.9,0.4,25.6s-59.4-2.5-63.6-8.1c-4.2-5.7,1-26.6-1-40.4
	C1316.6,578.1,1314.2,563.7,1303.3,555.4z"/>
<path class="st0" d="M1324.4,558.1c0.3,4.7,2.7,9.3,6.3,13.5l0,0c0.3,0.4,0.7,0.7,1,1.1c0.2,0.2,0.4,0.4,0.6,0.6l0,0
	c2.4,2.5,5.3,4.7,8.3,6.7c9.2,6,17.8,3.8,17.3-4.8c-0.2-4.7-1.3-12.6-2.9-12.7C1352.8,562.3,1324.4,558.1,1324.4,558.1z"/>
<path class="st15" d="M1296.6,564.9c0,0-9.8-3.5-13.9-8.2c-3-3.4-6.6-14.1-6.7-17.7c-0.1-3.5,52.5,4.9,52.6,7.4
	c0.2,3.7,1,12.4,1,12.4"/>
<path class="st16" d="M1324.4,558.1c0.3,4.7,2.7,9.3,6.3,13.5l0,0c0.3,0.4,0.7,0.7,1,1.1c0.2,0.2,0.4,0.4,0.6,0.6l0,0
	c2.4,2.5,5.3,4.7,8.3,6.7c9.2,6,17.8,3.8,17.3-4.8c-0.2-4.7-3.1-11.1-2.9-12.7"/>
<path class="st4" d="M1350.6,607.1c-5.2-0.9-10.2-5.6-11-10.3s2.7-7.9,7.9-6.9c5.2,0.9,10.2,5.6,11,10.3
	C1359.4,604.9,1355.9,608,1350.6,607.1z"/>
<path class="st15" d="M1362.7,563.5c0,0,9.5,12.7,12.1,26.6c2.4,12.7,3.8,42.3,0.6,41.6c-3.2-0.7-47.7-3-48.5-8.6
	c-0.7-5.6,0.4-29.2-3.6-44.9c-2.1-8.6-13.5-22.1-13.5-22.1"/>
<path class="st5" d="M1045.2,544.9c-18.1-3.5-47.1-15.1-59.1-10.5c-15.2,5.8-24.1,42.2-44.7,53.5c-16.5,9.1-56.6,21-56,24.8
	c0.6,3.8,44.7,32.7,55.4,27.6c12.5-6.1,39.7-15,49.1-33.3c8.3-16.2,15-29.9,23.4-37.2C1022.9,561.2,1051.8,546.2,1045.2,544.9z"/>
<path class="st6" d="M964.8,598.5c-2.9,0-5.2-0.9-6.4-2.6c-0.9-1.4-1-3.1-0.3-5.1c3.5-9,12.1-13.7,19.1-14.5
	c0.6-0.1,1.1-0.1,1.7-0.1c3.2,0,5.6,1,7,2.9c1.2,1.7,1.4,3.9,0.5,6.3c-1.9,5.4-8.3,10-17.2,12.4
	C967.7,598.2,966.2,598.5,964.8,598.5L964.8,598.5z"/>
<path class="st4" d="M979,576.7c3,0,5.3,1,6.6,2.7c1.1,1.5,1.3,3.6,0.5,5.9c-1.8,5.2-8.1,9.7-16.8,12.1c-1.5,0.4-3,0.6-4.3,0.6
	c-2.7,0-4.9-0.9-5.9-2.4c-0.8-1.2-0.9-2.8-0.2-4.7c3.4-8.8,11.8-13.4,18.7-14.1C977.9,576.7,978.4,576.7,979,576.7 M979,575.7
	c-0.6,0-1.1,0-1.7,0.1c-7.5,0.8-16.1,6-19.5,14.8c-1.9,5,1.4,8.4,7.1,8.4c1.4,0,2.9-0.2,4.6-0.6c7.9-2.1,15.4-6.5,17.5-12.7
	C988.9,579.9,985.4,575.7,979,575.7L979,575.7z"/>
<path class="st17" d="M985.9,540.5c-6.2,2.8-16.8,32.2-34.5,46.6c-17.6,14.3-49.5,24.1-52.2,24.7c-9.7,2,32,26.9,42.1,21.9
	c3.3-1.6,26.9-10.3,37.9-24.9c6.3-8.4,19.6-32.8,26.7-40.2c18.2-19.1,32.8-19.7,28.9-20.5C1016.6,544.7,993.7,537,985.9,540.5z"/>
<path class="st4" d="M940.9,617.9c4.8,1.5,11-0.3,13.8-3.9c2.8-3.7,1.2-7.8-3.7-9.3s-11,0.3-13.8,3.9S936.1,616.4,940.9,617.9z"/>
<path class="st4" d="M990.8,566.3c4.7,0.8,10.3-1.3,12.4-4.7c2.2-3.4,0.1-6.7-4.6-7.5c-4.7-0.8-10.3,1.3-12.4,4.7
	C984.1,562.2,986.1,565.6,990.8,566.3z"/>
<path class="st4" d="M991.6,539.7c-4.1,6.2-11.9,20.4-14.6,21s-5,0.4-5,0.4l12.4-19.7l3.7-1.6L991.6,539.7z"/>
<path class="st4" d="M967.1,619.6c-3.1-0.5-5.9-1.4-7.6-0.6c-1.7,0.8-30.1,13.9-27.9,14.4s7.9,1.4,7.9,1.4l8.3-3.9l13.1-6.8
	L967.1,619.6z"/>
<path class="st18" d="M830,625.6c-6.1-25.8,37.9-45.5,37.9-45.5s11.6,19.7,12.6,22.7c1,3-38.4,33.3-33.8,47
	C851.3,663.5,830,625.6,830,625.6z"/>
<path class="st0" d="M751.3,1318.7c-15.5,19.9-26.5,23.5-34.5,13.8c-8-9.7,4.7-2,9-15.5c4.3-13.5,2.7-13.9,13.6-10.8
	C750.4,1309.4,751.3,1318.7,751.3,1318.7z"/>
<path class="st0" d="M1781.6,946.3c-11-6.4-24.2-13-26.2-3.2c-2,9.8-25.8-16.4-25.8-16.4s20-14.1,35.1-6.9
	C1779.8,927,1781.6,946.3,1781.6,946.3z"/>
<path class="st19" d="M1150.9,309.1c-1.2-9.5,1.6-26.1-4.1-34.7c-4.3-6.5-9.4-15.8-6.5-20.9c5.4-9.4,17.5-7.9,24.2-5.8
	c17.6,5.7,30.8-5.8,31.4,6.6c1.1,20.7-5.6,42.7-7,56.9c-0.4,4.1,1.4,28.9-5.4,37c-8.2,9.6-25.6,2.1-31.2,1.7
	C1146.3,349.4,1152.1,318.6,1150.9,309.1z"/>
<path class="st20" d="M1193,253c-1.3-4.9-31.8-11.2-34.5-9c-2.7,2.2-7.4,16.7-7.7,22.1c-0.3,5.4,7.5,11.7,23.8,9.9
	c16.3-1.8,16.7-5.6,16.4-8.3C1190.7,265.1,1193,253,1193,253z"/>
<path class="st19" d="M1194.4,248.4c-0.1-4.8-28.2-12-37.9-6.8c-5.4,2.9-6.6,14.2-6.9,19.6c-0.3,5.4,9.3,11,25.7,10.5
	c8-0.2,10.6-0.7,13.5-5.5C1190.1,264,1194.4,253.2,1194.4,248.4z"/>
<path class="st19" d="M566.2,579.5c-8.9-3.5-7.4-15-12.2-24.1c-4.1-7.8-16.6-8.6-14.1,3.3c5.5,25.9-36.5-11.6-40.6,24.4
	c-2.1,18.4-9.2,22.5,2.7,26.2c19.8,6.2,42.8,5.3,56.8,7.5c4.1,0.6,27.7,8.6,37.1,4c11.3-5.5,8.5-24.3,9.5-29.8
	C606.3,585.2,575,583,566.2,579.5z"/>
<path class="st21" d="M501.3,606.2c-4.4-2.5-2.9-33.6-0.1-35.7c2.8-2.1,18-3,23.4-1.9c5.3,1.1,22.7-3.7,16.9,11.6
	c-5.8,15.3-24.4,33.2-26.9,32.3C512.1,611.6,501.3,606.2,501.3,606.2z"/>
<path class="st19" d="M935.4,580.2l41-13.8c0,0,39.1-10.5,28-14.7c-14.9-5.7-14.7-7.1-22.3-13.2c-4.2-3.4-14.1-19.9-18.5-26.6
	c-0.1-0.1-0.1-0.2-0.2-0.3c-7.7-11.7-15.3-23.7-15.3-23.7l-1.1-3.2l-5.3-3.9l-1.3-0.9l-27-19.7c0,0-9.4,27.2-1.6,44.5
	C918.8,520.3,924.4,564.7,935.4,580.2z"/>
<path class="st22" d="M963.4,511.5c-7.7-11.7-15.3-23.7-15.3-23.7l-1.1-3.2l-5.3-3.9l-1.3-0.9l-5,0.7c0,0-13.6,14-14.4,20.1
	C919.8,509.2,941.7,519.7,963.4,511.5z"/>
<path class="st0" d="M1561.5,963.5c-16.9-4.8-60.9-11.6-60.9-11.6l-9.9,46l66.1,9.5l26.3-26.8L1561.5,963.5z"/>
<path class="st23" d="M1560.6,960.6c0.3-5.1,4.1-1.8,11.7-1.5c17.3,0.7,35-58.6,39.1-67.2c2.1-4.4,28-4.9,21.2,18.1
	c-5.9,19.9-24.4,83.7-31,105.5c-1.4,4.5-5.6,7.6-10.3,7.4c-16.8-0.7-40.7-8.9-39.4-15.1C1551.7,997.9,1559.5,981.7,1560.6,960.6z"/>
<path class="st0" d="M611.7,1150.9c15,9.6,55.5,28.9,55.5,28.9l23-40.5l-61.1-28.5l-33.3,17.5L611.7,1150.9z"/>
<path class="st23" d="M614.8,1155.7c-2,4.6-4.5,0.2-11.6-2.8c-16.2-6.8-53.3,42.1-60.1,48.6c-3.5,3.4-28.2-5.3-13.9-24.3
	c12.4-16.4,51.9-69.1,65.6-87c2.9-3.7,7.9-5.1,12.3-3.3c15.7,6.5,35.5,22.5,32.2,27.9C636,1124.2,623,1136.5,614.8,1155.7z"/>
<path class="st24" d="M1518.4,1018.5c-12.4-2.4-226-63.2-252.4-63.3c-7.8,0-91.2,11.1-165.3,21.1c-61.4,8.3-116.4,15.9-116.4,15.9
	s0,0.1,0,0.3c-0.6,9.3-16.5,255-62.2,278.3c-70.5,36-285.8-91.3-295.3-97.1c-9.5-5.9,36.5-64.7,45-58.9
	c8.6,5.9,174.7,89.5,192.3,69.3c8-9.2-10.1-134.1-16.5-211.3c-1.9-23.6-5.2-39-5.2-39c-0.2-2-0.3-3.7-0.4-5.1
	c-0.3-3.2-0.5-5.2-0.7-5.7c-3-10.2,129.7-69,129.7-69l55.1,2.9c84.7,5.2,200.8,6.6,239.5,10.7c41.9,4.3,264.8,72.7,271.8,76.4
	C1544.1,947.6,1531.4,1021,1518.4,1018.5z"/>
<path class="st25" d="M913.2,902.7c-7.6,20.5-42.7,46.5-65.6,70.1c-3.1-23.4-5.2-39-5.2-39c-0.2-2-0.3-3.7-0.4-5.1
	c6.6-3.2,12.4-2.2,27.3-8.6c0.5-0.2,0.9-0.5,1.3-0.8l19.1-16.2C893.8,899.6,915.1,897.7,913.2,902.7z"/>
<path class="st26" d="M615.9,1345.8c0.6-0.3,1-0.8,1.2-1.5c4.4-24.6,16.6-42.9,37.3-56.2c0.9-0.6,1.2-1.8,0.6-2.8
	c-0.6-0.9-1.8-1.2-2.8-0.6c-21.6,13.9-34.4,33.1-39.1,58.8c-0.2,1.1,0.5,2.1,1.6,2.3C615.1,1346,615.5,1345.9,615.9,1345.8z"/>
<path class="st26" d="M611.6,1310.4c0.4-0.2,0.8-0.5,1-1c5.7-11.8,12.1-20.7,20.1-28.1c7.7-7.2,17-13,29.2-18.2c0,0,0,0,0,0
	c1-0.4,1.5-1.6,1-2.6c-0.4-1-1.6-1.5-2.6-1.1c-24.9,10.6-39.8,24.6-51.3,48.2c-0.5,1-0.1,2.2,0.9,2.7
	C610.5,1310.6,611.1,1310.6,611.6,1310.4z"/>
<path class="st27" d="M959.2,923.1c0,0,0,0,0.1,0c0-0.4,0-0.6,0-0.7C959.3,922.5,959.2,923.1,959.2,923.1z"/>
<path class="st0" d="M917.3,530.6c14.3-1.6,20.2,20.2,37.2,19.8c9-0.2,8.5-11.6,12.3-16c2.4-2.7,8-7.1,9.8-5.5
	c88.4,77.9,20.7,305.5,32.7,319.1c9.8,11.1-58.6,44.4-103.9,38.4c-62.2-8.3-64.3-73-63.6-85.4c0.7-12.5,21.1-225.1,21.1-225.1
	S892.3,556.9,917.3,530.6z"/>
<path class="st28" d="M920,887.1c-0.9,5-2.8,9.7-6.5,14.3c-21.3,26.4-102.6,36.1-125.9,15.9c-18.3-15.9,29.9-92.2,37.6-122.5
	c7.9-31.3,9.4-56.6,15-79.2c1.1-4.3,1.9-8.8,2.4-13.2c2.7-22.5-1.1-45.9-9.5-53.4c-0.5-0.4-1.3-0.8-2.4-1.1
	c-17.6-4.5-109.4,10.2-128.1,10.4c-34.5,0.5-149.3-30.4-153.3-32.8c-11-6.5,12.8-55.9,19.8-54.3c5.1,1.2,101,26.4,132.3,25.1
	c26.8-1.1,137.5-34,172.9-48c22.9-9.9,43.1-17.7,43.1-17.7c3.3,19.1,15.1,102.3,15.6,171c0.2,32.3-8,79.7-13.7,106.3
	C911.2,845.7,923.2,868.5,920,887.1z"/>
<path class="st28" d="M1139.6,312c-2.8,15.6-14.5,125.9-28.8,141.4c-13,14-67.8,47.8-135.5,75.3c0,0-1.6,26.1,6.5,62
	c10.7,47.4-14,84.4-3.2,142c9.2,48.8,11.3,112-0.5,143.7c-6.9,18.6-4.7,28.8,20.4,29.7c13.6,0.5,49.2-11,58-35.8
	c12.1-34-12.4-108.1-17.1-130.9c-1.8-8.9-3-30.2-4.2-42.8c-1.9-19.9,10.1-86.3,21.4-98c14.5-14.9,83.3-81.6,103.6-109.6
	c17.8-24.5,32.1-148.8,34.9-166.6C1196.5,313,1141.7,299.8,1139.6,312z"/>
<path class="st19" d="M884.3,479.8c0,0,23.4,21.1,34,25.8c0.4,0.2,0.9,0.4,1.4,0.5c11.5,3.3,38-8.2,51.4-26.1
	c5.8-7.7-23.3-16.6-17.7-23.7c3.3-4.1-5.1-7.5-14.9-11c-6.7-2.4-13.9-5-18.6-7.9c-0.3-0.2-0.5-0.3-0.8-0.5l-24.6,30.4L884.3,479.8z"
	/>
<path class="st29" d="M877.2,498.7c1.9,18.7,42.9,12.3,42.5,7.4c-0.5-5.7-14.9-9.5-14.7-14.8c0.2-8,4.9-5.2,12.1-6.2
	c7.7-1.1,14.5-9.1,2.3-10.3c-10.1-1-10.4-4.7-7.5-8.5c0.6-0.8,1.4-1.7,2.2-2.5c5.3-5.2,6.8-4.3,8-9.9c1.3-5.6-9.8-3.1-5-11.6
	c0.9-1.6,4.3-2.3,5.6-4.6c4.2-7.7,6.8-11.6,1-17.8c-11.1-11.8-21.9-1.1-25.9,6.9c-2.6,5.1-12.9-1.5-19.5,7.6
	c-5.2,7.1-0.6,9.6-4.9,16.1c-2.6,4-14.4,6.3-14.6,15.6c0,0.9,0,1.8,0.1,2.6C860.1,483.4,875.6,483.6,877.2,498.7z"/>
<path class="st24" d="M787.9,1034.6"/>
<path class="st30" d="M1100.7,976.4c-61.4,8.3-116.4,15.9-116.4,15.9s0,0.1,0,0.3c-0.1-0.2-0.1-0.2-0.1-0.2l2.9-26.4
	C987,965.9,1053,961.4,1100.7,976.4z"/>
<path class="st31" d="M948.1,556.6c-0.2-0.2-0.8,0.1-1.9,0.8c-4.9,3.2-18.7,14.5-33.7,20.1c-4,1.5-8.2,2.6-12.3,3.1
	c-5.9,0.6-11.8,0.4-17.6-1.1l0,0c-0.4-0.1-0.8-0.2-1.1-0.3c-0.1,0-0.2-0.1-0.4-0.1c-9.4-2.8-45.1-17.3-45.1-17.3s16.6-5.2,19.5-6.7
	c-3-1.6-19.8-6.1-22.7-7.6c-1.6-0.9-3.2-1.7-4.8-2.5c3.5-2.8,6.7-5.4,9.7-7.7c1.5,0.9,3.1,1.7,4.6,2.6c2.3,1.3,4.7,2.6,7.1,3.9
	c15.5,8.4,31.1,16,36.2,17.2c4.1,0.9,8.2,1.5,12.2,1.6c1,0.1,2,0.1,3,0.1c1.9,0,3.9,0,5.8-0.2c4.3-0.3,8.5-0.9,12.6-1.8
	c8.1-1.7,15.5-4.2,21.7-6.6c4.8-1.9,7-6.5,11.5-5.2C958.5,550.7,949.5,558.4,948.1,556.6z"/>
<path class="st32" d="M953.6,561.4c-3.9-0.4-5.2-2.1-6.5-4c-0.1-0.1-0.4-0.1-0.9,0c-3.4,1-15.7,8.5-30.7,12.9
	c-7.7,2.2-16,3.5-24.2,2.7c-2.6-0.3-5.1-0.7-7.6-1.5c-11.9-3.5-27-11.4-42-19.4c-3-1.6-5.9-3.2-8.8-4.7c-1.6-0.9-3.2-1.7-4.8-2.5
	c-12.1-6.4-23.5-11.9-32-14.1c-21.8-5.6-60.4,14-94.9,6.8c-21.1-4.4-95.6-36.5-103.1-43c-7.5-6.5-10.8-16.7-9.4-21.7
	c1.4-5,9.8-5,22.9-2.8c13.1,2.2,51.9,35.7,96,43.8c44.1,8.1,61.9-14.7,93.1-10.7c17.2,2.2,35.8,15.8,52.4,28.3
	c2.2,1.6,4.3,3.2,6.4,4.8c10.9,8.2,20.7,15.1,28.4,16.9c6.1,1.4,12.2,1.9,18.2,1.7c5.6-0.2,11.1-1,16.3-2.1
	c7.7-1.6,14.8-4.1,20.8-6.4c4.8-1.9,5.8-3.5,10.3-2.2c5.9,1.8,6.3,7,5.5,9.8C958.1,556.8,956.2,561.6,953.6,561.4z"/>
<path class="st33" d="M518.2,557.6C518.2,557.7,518.2,557.7,518.2,557.6c0.1,0.2,0.2,0.3,0.3,0.4c1.5,2.2,2.2,4.7,1.8,7.1
	c0,0.2-0.1,0.3-0.1,0.5c0,0.2-0.1,0.4-0.1,0.6l-2.1,7.6c0,0,0,0,0,0l0,0l-0.1,0.3c0,0,0,0,0,0l-0.2,0.6l-2.4,8.4l-6.3,22.4
	c-0.4,1.5-1.2,2.8-2.3,3.9c-3.3,3.4-9.2,4.8-15.2,3.2l-8.5-2.3l-13.5-3.7c-0.1,0-0.2-0.1-0.1-0.3l2.1-7.3c0-0.1,0.1-0.2,0.2-0.2
	l13.5,3.7l0,0l2,0.5c4.4,1.2,8.8,0.2,11.3-2.3c0.8-0.8,1.5-1.8,1.8-3l5.3-18.9l2.3-8.2l0,0l0.6-2.3c0.6-2.2,0.1-4.4-1.3-6.4
	c-1.2-1.7-3.1-3.2-5.3-4.1c-0.5-0.2-1.1-0.4-1.7-0.6l-0.1,0l-1.7-0.5l-13.7-3.7l-0.1,0c-0.1,0-0.2-0.1-0.1-0.3l2.1-7.3
	c0-0.1,0.1-0.2,0.2-0.2l0.1,0l13.8,3.7l8.2,2.2C512.9,552.5,516.2,554.8,518.2,557.6z"/>
<path class="st26" d="M494.8,450.7l-102-28.4c-6.2-1.7-12.7,2.3-14.6,9l0,0.2l-58.9,196.8c-6.4,22.3,8.2,26.2,14.2,27.9l95.5,30
	c6.1,1.7,24.3-1.8,29.1-19.7l50.5-175.6l1.9-6.6C514.6,469.6,508.5,454.5,494.8,450.7z"/>
<path class="st34" d="M494.8,450.7l-102-28.4c-6.2-1.7-12.7,2.3-14.6,9l0,0c0,0.1,0,0.2,0.1,0.2c5.4,3.9,14.5,8,29.8,11.1
	c37.1,7.5,75.1,30.3,100.2,47.9c0.1,0.1,0.3,0,0.3-0.1l1.8-6.3C514.6,469.6,508.5,454.5,494.8,450.7z"/>
<path class="st19" d="M488.7,601c-8.4-5.3,7.1-36.5,15.3-39.8c4.7-1.9,14.3,2.9,19.3,5c5,2.1,6,13.2-1.4,27.7
	c-3.6,7.1-5.1,9.3-10.7,9.8C508.6,604,492.8,603.6,488.7,601z"/>
<path class="st5" d="M867.9,706.9c-18.9,14.7-111.2,74.2-118.9,75.2c-9.8,1.3,21.1,66.6,32.9,64.5c11.8-2.1,115.4-70.9,116.9-79.8
	C901.2,751.6,876.6,700.1,867.9,706.9z"/>
<path class="st11" d="M865.6,717.8c-17.4,10.5-98,65.6-107.1,68c-8.3,2.2,16.9,53.5,27.1,51.6c10.2-1.8,104.7-65,106-73.3
	C893.7,751,871.6,714.2,865.6,717.8z"/>
<path class="st6" d="M823.5,795.8c-2.6,0-4.9-0.6-7-1.7c-3.5-1.9-6.2-5.9-7.1-10.7c-1.1-5.5,0.3-11,3.7-15
	c5.4-6.4,11.6-9.9,17.5-9.9c3.6,0,7,1.3,9.5,3.8c6,5.9,5.8,16.2-0.4,25.1C836,792.4,829.6,795.8,823.5,795.8
	C823.5,795.8,823.5,795.8,823.5,795.8z"/>
<path class="st4" d="M830.6,759c3.5,0,6.7,1.3,9.1,3.6c5.8,5.7,5.6,15.7-0.5,24.3c-3.5,5-9.7,8.2-15.6,8.2c-2.5,0-4.7-0.5-6.7-1.6
	c-3.4-1.8-5.9-5.7-6.8-10.3c-1-5.3,0.3-10.7,3.5-14.6C818.8,762.4,824.8,759,830.6,759 M830.6,757.8c-5.5,0-12,3-18,10.1
	c-7.3,8.7-4.3,22.4,3.6,26.6c2.2,1.2,4.7,1.7,7.3,1.7c6.2,0,12.7-3.3,16.6-8.7c6.6-9.3,6.5-19.8,0.4-25.8
	C837.9,759.3,834.5,757.8,830.6,757.8L830.6,757.8z"/>
<path class="st4" d="M792.4,809.1c5.1,1.9,9.9-1.3,10.7-7.2c0.8-5.9-2.8-12.2-7.9-14.1c-5.1-1.9-9.9,1.3-10.7,7.2
	C783.7,800.9,787.3,807.2,792.4,809.1z"/>
<path class="st4" d="M859.2,764.7c4.7,0.6,8.7-3.2,8.8-8.5c0.1-5.4-3.6-10.2-8.3-10.9c-4.7-0.6-8.7,3.2-8.8,8.5
	C850.8,759.2,854.5,764,859.2,764.7z"/>
<path class="st4" d="M872.6,720.9c0,0-25.6,19.3-30.1,19.4s-6.5-2.7-6.5-2.7l30.9-20.7L872.6,720.9z"/>
<path class="st4" d="M822.2,817.2c-5-2.3-6.8-4.8-9.9-3.3c-3.2,1.5-34.3,18.1-33.2,19.4c1.1,1.3,4.3,4.9,6.6,4.2
	c2.3-0.7,34.6-19,34.6-19L822.2,817.2z"/>
<path class="st5" d="M1069.3,1129.2c-13.3-5-31.4-18.8-44.1-15.5c-16,4.2-44.9,35.6-67.2,47.5c-33.2,17.7-55.5,20.1-57,23.8
	c-1.6,3.7,15.8,30.6,27.7,26.6c14-4.7,41.8-10.9,59.8-27.7c15.9-14.8,29.1-27.4,40.2-33.7C1041.5,1142.9,1074.1,1131,1069.3,1129.2z
	"/>
<path class="st0" d="M975.9,1173.9c7.8-1.3,16.6-4.9,21.8-10.7c5.3-5.8,4-10.4-2.8-10.3c-6.8,0.1-16.9,4.3-24.6,12.5
	C964.8,1171.1,967.7,1175.3,975.9,1173.9z"/>
<path class="st12" d="M975.9,1173.9c7.8-1.3,16.6-4.9,21.8-10.7c5.3-5.8,4-10.4-2.8-10.3c-6.8,0.1-16.9,4.3-24.6,12.5
	C964.8,1171.1,967.7,1175.3,975.9,1173.9z"/>
<path class="st13" d="M1021.7,1119.7c-6.7,2.1-31.9,29.5-54.8,41.8c-22.8,12.2-51.2,23.7-53.8,24c-9.3,1.1,8.3,23.8,19.6,20
	c3.7-1.3,28.4-7.5,45.7-20.6c10-7.6,34.6-29.8,44.7-36.4c25.9-16.7,38.6-16.1,35.7-17.1C1045.3,1126.5,1030.1,1117,1021.7,1119.7z"
	/>
<path class="st4" d="M941,1190.1c3.3,1.9,9.4,0.7,13.8-2.6c4.4-3.3,5.3-7.4,2-9.3c-3.3-1.9-9.4-0.7-13.8,2.6
	C938.7,1184.1,937.8,1188.3,941,1190.1z"/>
<path class="st4" d="M1011.6,1145c3.5,1.2,9.4-0.3,13.1-3.4c3.7-3,3.8-6.4,0.2-7.6c-3.5-1.2-9.4,0.3-13.1,3.4
	C1008.1,1140.4,1008,1143.8,1011.6,1145z"/>
<path class="st4" d="M1026.9,1119.4c-6.9,5.6-21.3,18.6-23.9,19c-2.6,0.4-4.5-0.1-4.5-0.1l21.3-17.9l4-1.2L1026.9,1119.4z"/>
<path class="st4" d="M962.2,1194.1c-2.3-0.7-4.2-1.8-6.1-1.2c-1.9,0.6-33,10.7-31.5,11.4c1.6,0.7,5.9,2,5.9,2l9.2-3l14.8-5.3
	L962.2,1194.1z"/>
<path class="st25" d="M842.5,702.3c2.7-22.5-1.1-45.9-9.5-53.4c-0.5-0.4-1.3-0.8-2.4-1.1C857.2,650.9,874.8,657,842.5,702.3z"/>
</svg>
