<?xml version="1.0" encoding="utf-8"?>
<!-- Generator: Adobe Illustrator 26.1.0, SVG Export Plug-In . SVG Version: 6.00 Build 0)  -->
<svg version="1.1" id="Layer_1" xmlns="http://www.w3.org/2000/svg" xmlns:xlink="http://www.w3.org/1999/xlink" x="0px" y="0px"
	 viewBox="0 0 974.2 725.3" style="enable-background:new 0 0 974.2 725.3;" xml:space="preserve">
<style type="text/css">
	.st0{fill:#EFAEA6;}
	.st1{opacity:0.46;fill:#1F1F39;}
	.st2{fill:#23233D;}
	.st3{fill:#464656;}
	.st4{opacity:0.14;fill:#1F1F39;}
	.st5{fill:#FFFFFF;}
	.st6{fill:#244798;}
	.st7{opacity:8.000000e-02;fill:#1F1F39;}
	.st8{opacity:0.52;fill:#1F1F39;}
	.st9{opacity:0.17;fill:#1F1F39;}
	.st10{opacity:0.18;fill:#1F1F39;}
	.st11{fill:#F4AA08;}
	.st12{fill:#1F1F39;}
</style>
<path class="st0" d="M512.8,208.9c-1.2-13.1,8.1-19,9.4-25.1c1.4-6.1,1.8-27.1,14.2-25.8c8,0.8,6.7,10.3,2.8,17.6
	c-3.2,6.1,7.2,1.6,7.1,4.2c-0.3,4.1-4.4,4.3-6.9,6.6c-3.3,3-8.7,16.6-9.7,22.8C528.1,220.1,512.8,208.9,512.8,208.9z"/>
<path class="st1" d="M506.9,495.6C506.9,495.6,506.9,495.6,506.9,495.6c-0.1-0.1-0.2-0.1-0.2-0.1
	C506.8,495.5,506.9,495.6,506.9,495.6z"/>
<path class="st0" d="M621.6,665.6c-7.6-0.8-26.4-5.1-26.4-5.1l3.3-19.9l28.2,6.8l6.4,14.9L621.6,665.6z"/>
<path class="st2" d="M618.2,666.5c-0.8,2,1.3,1.5,4.3,2.7c6.9,2.9,3,29.2,3,33.3c0,2.1,10.1,7.1,11.7-3.1c1.4-8.8,5.8-37,7.2-46.7
	c0.3-2-0.8-4-2.7-4.8c-6.7-2.8-17.6-4.1-18.3-1.4C621.5,650.4,621.6,658.1,618.2,666.5z"/>
<path class="st0" d="M226.5,551.4c6.2-4.4,23.3-13.5,23.3-13.5l10.6,17.2l-25.7,13.4l-14.6-7L226.5,551.4z"/>
<path class="st2" d="M228.5,548.4c-0.7-2.1-1.9-0.2-5.1,0.8c-7.2,2.4-21.4-20.1-24.1-23.1c-1.4-1.6-12.3,1.3-6.8,10
	c4.8,7.5,19.9,31.7,25.2,39.9c1.1,1.7,3.2,2.5,5.2,1.9c6.9-2.3,16-8.5,14.7-10.9C236.6,562.8,231.4,557,228.5,548.4z"/>
<path class="st3" d="M232.6,541.7c0.9,1.5,1.7,3,2.5,4.4c4.5,7.7,8.5,13,11.2,16.4c2.4,2.9,3.8,4.3,3.8,4.3
	c16.5-6.6,67.5-32,93.5-46.8c8.6-4.9,48.2-11.6,82.1-11.7c23.9,0,43.4,0.5,43.4,0.5c0,0,0.1,0.6,0.3,1.7
	c1.7,10.5,12.1,76.2,20.7,105.8c13.5,33.8,114.6,50.3,114.6,50.3c0.6-1.2,1.2-2.5,1.7-3.7l0,0c3.7-7.9,6.2-14.7,7.1-18.8
	c0.7-2.9,0.6-4.4-0.3-4.2c-17.8-7.1-87.7-24.2-88.9-41.4c-0.4-5.3-0.5-54,0.9-76.8c0.2-3.7,0.5-7.5,0.9-11.4
	c0.6-6.8,1.2-13.7,1.6-20.2c0.1-2.1,0.3-4.2,0.3-6.2c0.1-2.6,0.2-5.1,0.1-7.4c-0.1-5-1.1-12.1-1.4-16.4c0-0.3-0.3-0.6-0.9-0.9
	c-3.7-1.9-10.2-7.6-25.3-8.6c-3.3-0.2-0.9-6.5-4.1-6.7c-1.6-0.1-5.5-3.8-7-3.9c-0.6,0-6.3-2.9-6.9-3c-7.1-0.6-4.8,2.1-4.8,2.1
	s14.4-12.5-11.8,2.6c-28.1,16.2-113.1,38.2-131.2,46.1C319.7,494.7,234.9,536.5,232.6,541.7z"/>
<path class="st0" d="M514.9,333.9c8.4,2,11.4-3,11.4-3c4.7-4.7,10.6-16.6,11.5-23c1.1-7,0.4-6.8,0.4-6.8l-12.2,2.7l-5.7,1.3
	c0,0-0.3,2.9-3,7c-1.9,2.9-0.1,2.8-4.8,6.4C508.9,321,513.1,327.2,514.9,333.9z"/>
<path class="st4" d="M520.2,305c0,0-0.8,3.5-3.4,7.6c7.7,7.2,15.4,2.1,14-1.2c-0.9-2.1-4.8-7.6-4.8-7.6L520.2,305z"/>
<path class="st0" d="M529.2,282.5c-4.1,3.7-15.7,7.1-13,9.7c2.7,2.6-8.8,7.7-6,10.6c6.7,6.9,18.9,10.1,23,7.6
	c4.1-2.5,12.6-12.3,12.6-12.3L529.2,282.5z"/>
<path class="st2" d="M532.7,293.2c-2.4-1.8-3-1.4-3.8-3.6c-0.8-2.2,3.8-1.8,1.4-5c-2.4-3.2-5.4-6.4-2.5-9.9c4.1-5.1,7.6-0.4,9.6,2.6
	c1.3,1.9,5.2-1.3,8.4,2.1c2.5,2.6,0.7,3.9,2.9,6.3c1.3,1.5,6.2,1.8,6.8,5.6c1.1,7-6,7.6-5.9,14.2c0.2,7.7-16.9,7.3-17,5.2
	c-0.1-2.4,5.6-4.7,5.3-6.8c-0.5-3.2-2.3-1.9-5.3-1.9c-3.2,0-6.4-2.9-1.5-4.1C536,296.8,534.9,294.9,532.7,293.2z"/>
<path class="st5" d="M534.6,323.4c-6.2-4.2-15.2,7.4-20.9,6c-3.5-0.8-0.3-3-0.8-5.2c-1.5-5.6-0.4-6.4-2.9-5
	c-42.7,23.1-48.1,126-48.1,126s21.5,25.9,38.9,17.4c21.4-10.5,30.1-3.9,30.9-9.1c3-20,11.2-107.7,11.2-107.7
	S541.6,336.3,534.6,323.4z"/>
<path class="st6" d="M511.4,318.7c-13.5-20.1-11.9-50.2-7.7-63.1c4.2-12.9,31.5-54.9,34.9-59.2c3.2-3.9-15.5-7-22.9-6
	c-7.3,0.9-30.1,44.5-37.7,58.7c-6.2,11.5-7.2,89.2-5.8,99.3c1.2,8.5-9.7,40.9-13.8,49.9c-4.1,8.9-3.4,26.8-13.8,50.6
	c-4.4,10,22.4,11.6,27.9,9c9.4-4.5,4.7-31.8,10.1-57.3c5.1-24.3,4-40,12.8-58.7C502.2,327.9,511.4,318.7,511.4,318.7z"/>
<path class="st7" d="M511.4,318.7c-13.5-20.1-11.9-50.2-7.7-63.1c4.2-12.9,31.5-54.9,34.9-59.2c3.2-3.9-15.5-7-22.9-6
	c-7.3,0.9-30.1,44.5-37.7,58.7c-6.2,11.5-7.2,89.2-5.8,99.3c1.2,8.5-9.7,40.9-13.8,49.9c-4.1,8.9-3.4,26.8-13.8,50.6
	c-4.4,10,22.4,11.6,27.9,9c9.4-4.5,4.7-31.8,10.1-57.3c5.1-24.3,4-40,12.8-58.7C502.2,327.9,511.4,318.7,511.4,318.7z"/>
<path class="st8" d="M494.2,460.4c0.3,1,0.2,13,0.9,14.3c0,0,0,0,0,0c4.9,9,19.4,24.1,31.2,35.6c0.6-6.8,1.2-13.7,1.6-20.2
	c0.8-0.1,1.6-0.3,2.4-0.5l-2-5.8l-4-11.4L494.2,460.4z"/>
<path class="st6" d="M498.5,385.8c-0.2,0.8-0.5,1.6-0.7,2.4l0,0c-0.1,0.3-0.2,0.6-0.3,1c-0.3,1.2-0.6,2.6-0.7,4
	c-0.1,0.5-0.1,0.9-0.2,1.4c-1.4,13.4,1.7,32,1.4,42c0,0.5,0,0.9,0,1.4c0,1.4-0.1,2.7-0.2,3.9c-0.1,1.7-0.2,3.2-0.4,4.6
	c-0.6,5.2-1.5,8.4-2.2,10.8c-0.6,1.9-1,3.2-1.1,4.6c-0.1,1.1,0,2.3,0.4,3.8c0,0,0,0,0,0c0.4,1.3,1,2.9,1.9,4.9
	c3.5,7.8,12.5,17.4,25.2,19.3c0.8,0.1,1.6,0.2,2.4,0.2c4.4,0.3,9.1-0.4,14.2-2.3c8.3-3.2-3.5-11-4.5-14.6
	c-4.8-17.6,2.6-22.9,4.2-36.5c1.6-13.2,7.6-30,13.2-50c1.2-4.3,1.6-9.3,1.5-14.4c0,0,0,0,0-0.1c0-1.3-0.1-2.6-0.2-3.9
	c-0.1-2-0.3-3.9-0.6-5.9c0,0,0,0,0-0.1c-0.3-2.1-0.6-4.1-1-6.1c-0.8-4.1-1.9-7.7-3-10.1c-8.4-18.5-13.2-22.4-13.2-22.4
	c0,0,0,0,0,0.1c-1.4,3.2-6.7,10-12.9,18.9c-0.8,1.1-1.6,2.3-2.4,3.4c-0.6,0.9-1.3,1.8-1.9,2.8c-0.7,1.1-1.5,2.2-2.2,3.3
	c-1.1,1.7-2.2,3.4-3.3,5.2c-2.5,4.1-4.9,8.4-7.1,12.7c0,0,0,0,0,0C502.3,375.3,500.1,380.5,498.5,385.8z"/>
<path class="st9" d="M497.8,441.8c0.1-1.7,0.2-3.5,0.3-5.3c0.3-11.4-3.7-34.1-0.5-47.4c1.6-6.8,7.7-20.2,9.8-25l28.2,14
	C515.3,385.7,501.9,431,497.8,441.8z"/>
<path class="st10" d="M516.4,332.1c0.7,0,6.9,11.3,15.1,15.1c2.3,1,4.7,1.7,7.3,1.8c7.4,0.3,7.9,0.3,9.9-0.5c-1-3.3-0.9-2.8-3.6-8
	c-6.7,2.3-1.9,1.3-5.7,1c-2.9-0.3-5.6-1-8.1-2c-4.8-1.9-8.8-4.9-11.9-7.5c-1.6-1.3-1.9-3.4-3.7-3.4
	C513.2,328.5,509.8,332.1,516.4,332.1z"/>
<path class="st11" d="M511.9,326.4c0.1-1.4,1-3.7,4-3.7c2.3,0,2.5,1,4.4,2.6c5.7,4.8,14.3,10.7,24.3,11.5c10,0.9,32.6-12.7,47.4-9.8
	c14.9,2.9,19.6,16.1,41.1,19.1c21.4,3,44.2-6.5,50.5-5.6c6.3,1,10.2,2.3,10.1,4.8c-0.1,2.5-3.2,6.7-7.6,8.5
	c-4.4,1.9-43.3,5.3-53.7,4.1c-16.9-1.9-31.6-16.8-42.5-17.5c-10.8-0.7-33.5,5.9-46.2,5.5c-14.2-0.5-26-16.8-26.9-16.1
	c-0.9,0.6-1.8,1.3-3.6,0.8C512,330.4,511.8,327.9,511.9,326.4z"/>
<path class="st8" d="M425.7,508.3c23.9,0,43.4,0.5,43.4,0.5c0,0,0.1,0.6,0.3,1.7c-0.6-5.8-2.7-14-2.7-14S437.8,500.6,425.7,508.3z"
	/>
<path class="st12" d="M828.6,77.2c-0.6,15.4-47.7,162.4-47.7,162.4S-5.7,82.7,20,79.1C45.7,75.6,828.6,77.2,828.6,77.2z"/>
<path class="st12" d="M20,79.1c0,0,723.6,247.2,756.5,235.2c15.2-5.6,75.7-144.3,75.7-144.3L20,79.1z"/>
<path class="st6" d="M20,79.1c0,0,940,230.5,932,196.3c-8-34.2-63.5-132.4-90.9-136.8C829.1,133.4,20,79.1,20,79.1z"/>
<path class="st6" d="M828.6,77.2c-5.4-26-48.5-63.1-69.9-62.7C737.4,14.9,20,79.1,20,79.1L828.6,77.2z"/>
<path class="st9" d="M432.4,195.9c-7.7,9.7-5.6,18.6-5.6,18.6l5.4,2L432.4,195.9z"/>
<path class="st0" d="M436.7,251.1c-7-11.1-1.4-20.6-3-26.7c-1.6-6.1-10.7-25,1-29.5c7.5-2.9,10.6,6.2,10.4,14.5
	c-0.1,6.9,7.2-1.8,8.2,0.6c1.6,3.8-1.9,5.9-3.1,9c-1.6,4.2-0.3,18.8,1.7,24.7C455.4,254.1,436.7,251.1,436.7,251.1z"/>
<path class="st6" d="M544.9,353.2c-48.6-34.3-64.8-47-69.8-57.7c-5-10.7-20.9-66.4-23.1-68.6c-5.4-5.4-21.2,13.6-21.2,13.6
	c1.3,5.1,15.2,52.7,19.6,65.6c6.3,18.2,55.7,60.9,55.7,60.9s17.7,22.3,30.8,13.1C550.2,370.9,544.9,353.2,544.9,353.2z"/>
</svg>
