<?xml version="1.0" encoding="utf-8"?>
<!-- Generator: Adobe Illustrator 26.1.0, SVG Export Plug-In . SVG Version: 6.00 Build 0)  -->
<svg version="1.1" id="Layer_1" xmlns="http://www.w3.org/2000/svg" xmlns:xlink="http://www.w3.org/1999/xlink" x="0px" y="0px"
	 viewBox="0 0 692.8 1051.1" style="enable-background:new 0 0 692.8 1051.1;" xml:space="preserve">
<style type="text/css">
	.st0{fill:#F5B1B4;}
	.st1{fill:#0267A4;}
	.st2{fill:none;stroke:#1F1F39;stroke-width:5.1603;stroke-linecap:round;stroke-miterlimit:10;}
	.st3{fill:#1F1F39;}
	.st4{opacity:0.14;fill:#1F1F3B;}
	.st5{fill:#419F81;}
	.st6{opacity:0.12;fill:#1F1F3B;}
	.st7{fill:#F4AD00;}
	.st8{fill:#244798;}
	.st9{opacity:9.000000e-02;fill:#1F1F3B;}
	.st10{fill:#8DC9DB;}
	.st11{fill:#FFACB2;}
	.st12{opacity:0.11;fill:#1F1F3B;}
	.st13{opacity:0.15;fill:#1F1F3B;}
	.st14{opacity:0.1;fill:#1F1F3B;}
</style>
<path class="st0" d="M185.1,142.9c112.4,67.5,135.2,92.3,148.4,104.7c18.2,17,81.3,95,89.9,96.9c8.5,1.9,47,17.9,29.7,33.8
	c-14.6,13.4-23.5,12.6-29.9,8.6c-10-6.2-8-17.5-21.5-24.1c-13.5-6.6-75.1-78.2-91.9-83.9c-16.8-5.7-121.7-69.9-137.3-84.2
	C156.9,180.5,157.4,126.3,185.1,142.9z"/>
<path class="st1" d="M635.9,403.9c-2,7-4.4,14.5-7.3,22.2c-12.4,33.9-31.7,70.7-44.4,74.1c-22.2,6-59.9-5.4-114.2-46.6
	c-5.5-4.2-6.7-16-5-30.5c2.6-21.5,11.5-49,22.2-66.6c6.2-10.1,12.9-17,19.3-17.6c12.1-1.2,122.6,15.9,132.7,31
	C642.4,374.2,640.6,387.5,635.9,403.9z"/>
<path class="st2" d="M476.5,432.7c-10.5-9.7-54.1-42-47.6-61.5c5.2-15.5,63.9-15.4,74.6-14.6"/>
<path class="st3" d="M480.3,428.6c1.9,0.8,2.4,3.9,1.2,7c-1.3,3.1-3.8,4.9-5.8,4.1c-1.9-0.8-2.4-3.9-1.2-7
	C475.8,429.7,478.4,427.8,480.3,428.6z"/>
<path class="st3" d="M507.5,350.7c1.9,0.8,2.4,3.9,1.2,7s-3.8,4.9-5.8,4.1c-1.9-0.8-2.4-3.9-1.2-7
	C503,351.7,505.6,349.9,507.5,350.7z"/>
<path class="st4" d="M635.9,403.9c-2,7-4.4,14.5-7.3,22.2c-5.5-0.5-9.8-1.2-9.8-1.2l-98.3-73.1C536.7,358.5,603.3,384.8,635.9,403.9
	z"/>
<path class="st5" d="M559.1,570.4c-6.9-0.3-16.3-5.5-27.2-14.1c-13-10.3-28.1-25.5-43.5-43.1c-14.6-16.7-29.3-35.6-42.8-54.5
	c-3.6-5.1-1.2-16.5,4.7-30.1c8.2-18.9,23-42.1,37.3-58.4c13.3-15.1,26.2-24.3,33-18.5c32.4,27.3,144,60.6,148.4,96.2
	C671.2,465.9,582.1,571.4,559.1,570.4z"/>
<path class="st2" d="M458,440.9c-7.2-12.4-39-56.3-26.9-73c9.6-13.2,65.5,4.5,75.5,8.4"/>
<path class="st3" d="M462.8,438.1c1.6,1.3,1.1,4.5-1,7c-2.1,2.5-5.1,3.5-6.7,2.2c-1.6-1.3-1.1-4.5,1-7
	C458.2,437.8,461.3,436.8,462.8,438.1z"/>
<path class="st3" d="M512.2,371.9c1.6,1.3,1.1,4.5-1,7c-2.1,2.5-5.1,3.5-6.7,2.2c-1.6-1.3-1.1-4.5,1-7
	C507.6,371.6,510.6,370.6,512.2,371.9z"/>
<path class="st6" d="M622.4,475.7c-2.1,15.5-5.7,18.1-9.3,23c-3.3,4.6-41.4,44.9-81.2,57.7c-13-10.3-28.1-25.5-43.5-43.1
	c-1.6-16.2-0.4-30.5-0.4-30.5l35.7-101.9C615,453.3,624.5,460.1,622.4,475.7z"/>
<path class="st7" d="M416.4,455.3c-6-22.4,86-87.9,107.4-74.5c10.3,6.5,91.1,77,91.1,95.1c0,36.8-115.4,95-136.7,86.1
	C457,553.2,434.1,521.2,416.4,455.3z"/>
<path class="st2" d="M434.1,442.8c-2.4-14.1-17.1-66.4,0-77.8c13.6-9.1,59.9,26.9,68,34"/>
<path class="st3" d="M439.6,441.9c1,1.8-0.5,4.6-3.3,6.2c-2.9,1.6-6,1.5-7.1-0.3c-1-1.8,0.5-4.6,3.3-6.2
	C435.5,440,438.6,440.1,439.6,441.9z"/>
<path class="st3" d="M508.8,396.9c1,1.8-0.5,4.6-3.3,6.2c-2.9,1.6-6,1.5-7.1-0.3c-1-1.8,0.5-4.6,3.3-6.2
	C504.6,395,507.8,395.1,508.8,396.9z"/>
<path class="st0" d="M619.5,854.7c-4.9-5.1-23.7-27.7-28-33.3c-4.3-5.6-156.5,25.6-189.7-3.4c-27.3-23.8-69.4-136.3-74.8-149.9
	c-3.9-9.8-10.5-18.3-13.5-29.3c-3.3-12.1-0.4-12,13.9-12c0,0-8.5-28.2,44.4-20.6c4.5,0.6,9.8,31.6,14.2,42.8
	c1.7,4.4,9.7,10,11.7,15.1c19.7,51.3,35.4,95.8,40.1,105.1c6.5,12.8,126.4,12.4,146.6,12.4c20.2,0,15.4-6.2,27.4-1.6
	C623.7,784.7,624.4,859.9,619.5,854.7z"/>
<path class="st0" d="M246.9,611.3c-0.3,2-1.4,6.6-3.2,13.2c-2.3,8.7-5.7,20.8-9.8,35.2c-20.6,72.1-58.6,198.8-62.7,209.5
	c-5.5,14.3-28.6,84.5-30.3,106.6c-1.7,22.1,5.1,17.7-0.6,30.1c-5.7,12.4-92.9-13.6-87.3-18.2c5.7-4.6,40.6-6.4,46.7-10.3
	c5.1-3.3,42.8-219.3,60-310.3c1.1-6,2.2-11.4,3.1-16.2c1.8-9.3,3.2-16.2,4.1-20.1c8.5-36,22.4-24,51-19.9
	C217.9,611,249.7,593.8,246.9,611.3z"/>
<path class="st8" d="M585.8,776.6c-1.6,1.1-2.2,3.2-1.5,5.1c3.3,9,8.9,14.5,11.4,16.3c4.6,3.3,13.1,6.8,18.1,22.4
	c5,15.6,0.1,28.5,3,34.2c2.9,5.7,11.5,34.6,21.6,29.8c9.1-5.7,11-36.2,5.8-48.4c-5.2-12.2-19.1-43.3-17.5-43.3
	c4.1-1.5,3.4-3.5,3.4-3.5c-4.2-9.6-8.4-22.9-11.1-24.7c-2.7-1.8-13.3-0.7-18.9,2.5C596.1,769.3,589.4,774,585.8,776.6z"/>
<path class="st8" d="M145.5,992.3c-0.3-2.1-1.9-3.8-3.9-4.2c-9.6-1.5-17.2,1-19.9,2.5c-5.1,2.8-12.1,9.3-28.5,5.8
	c-16.4-3.4-25.9-15.1-32.3-15.2s-36.5-7.1-36.8,5.3c1,12,27.9,30,41.3,31.4c13.4,1.4,47.9,4.3,47.2,5.9c-0.5,4.8,1.7,5.2,1.7,5.2
	c10.5,1,24.5,3.9,27.4,2.3c2.8-1.6,6.7-12.7,6.3-19.9C147.5,1006.3,146.2,997.3,145.5,992.3z"/>
<path class="st9" d="M329.2,673.5l3.5,9.6c0,0,60.1,9.8,72.1,0c-1.8-5.9-11.7-20.8-11.7-20.8L329.2,673.5z"/>
<path class="st9" d="M244.3,622c-2.3,8.7-5.7,20.8-9.8,35.2c-32.5-7.7-54,10.2-73.5,3.6c1.1-6,1.4-7.5,2.4-12.3
	c1.7-4.7,3.2-8.7,3.9-10.4c3.4-8.3,6.6-13.8,10-17.2h28.5c4.4,1.7,9.3,3.6,14.9,5.3C220.7,626.1,235.8,620.7,244.3,622z"/>
<path class="st10" d="M312.6,674.3c-28.7-6.2-48.3-21-75.5-25.4c-43.9-7.1-57.7,9.9-70.2,8c-11.7-1.8-16.3-10.5-17.1-22.6
	c-1-14.7,3.7-34.5,8.5-53.4c3.6-14.1,7.2-27.6,8.6-38.2c4.8-36.5,17.6-66.9,15.9-150c-0.2-10.8-0.6-20.6-1.1-29.3
	c-0.1-1.4-0.2-2.8-0.3-4.1c-0.8-11.1-2.9-20.7-5.5-28.9c-1.2-4-2.6-7.6-4-11c-2.8-7-5.7-12.8-7.8-17.8c-5.5-12.9-12.6-20-21.2-27.3
	c-0.6-0.5-1.1-0.9-1.6-1.4c-21.7-19.1-20-33.9,1.6-62c12.6-16.4,2.1-58.1,25.6-70l33.3-10.5c0,0,2.8-0.5,10.5,1.1
	c4.1,0.8,9.5,2.3,16.5,4.6c4.4,1.5,9.8,5,15.7,10.1c7.5,6.4,15.8,15.4,23.7,25.7c3.9,5.1,7,10.2,9.5,15.3
	c6.7,13.8,9.3,27.8,13.2,43.3c14,55.8-19.4,115.2,21.1,182c2,3.4,4.3,6.7,6.7,10.1c1.7,2.4,3.5,4.8,5.4,7.1
	c21.4,27,34.6,58.5,45.2,89.2c2.8,8,5.4,16,7.9,23.8c4.1,12.6,8,24.8,12.1,36.2c5,13.8,10.3,26.4,16.7,37.2
	c7.4,12.6,16.2,22.7,27.6,29.4C488.7,678.3,371.9,687.1,312.6,674.3z"/>
<path class="st11" d="M174.2,107.4c4.6,22.1,3.4,33.5,0,39.7c-3.4,6.1-7.2,21.1-0.5,20.9c3.3-0.1,23-9.3,30.1-14.7
	c7.2-5.4,11.4-15.9,11.4-15.9s-15.4-28-25.9-51.5C178.8,62.4,174.2,107.4,174.2,107.4z"/>
<path class="st0" d="M174.2,107.4c4.6,22.1,3.4,33.5,0,39.7c-3.4,6.1-7.2,21.1-0.5,20.9c3.3-0.1,23-9.3,30.1-14.7
	c7.2-5.4,11.4-15.9,11.4-15.9s-15.4-28-25.9-51.5C178.8,62.4,174.2,107.4,174.2,107.4z"/>
<path class="st12" d="M176,117.6c0,0,0.6,2.9,1.3,15c20.8-4.8,25.3-29.3,20.3-30.3c-5.2-0.9-16.8,0.5-16.8,0.5L176,117.6z"/>
<path class="st13" d="M260.9,210.2c-13,56.1-37.5,143.9-78,152.9c-0.4,0.1-0.9,0.2-1.3,0.3c-0.1-1.4-0.2-2.8-0.3-4.1
	c-0.8-11.1-2.9-20.7-5.5-28.9L260.9,210.2z"/>
<path class="st0" d="M166.8,48c-3.6,9.5,2,12.3-5.2,21c-5.7,6.9-11,7.7-9.3,11c1.8,3.3,8.5,2.2,7.8,5.6c-0.6,3.4-7.1,9.4-3.4,11.1
	c2.4,1.1,5.2,1.2,2.2,3c-1.2,0.7-3.5-0.4-1.6,3.8c1.9,4.2-1.8,13.2,5,15.7c6.8,2.4,31.4-7.6,39.8-13.5c10.4-7.4,15.8-24.4,15.8-24.4
	l-8.6-26.5L166.8,48z"/>
<path class="st3" d="M170.5,51.4c4.5,1.1,13.7,5.6,13.9,21.4c0.1,9.6,4.6,7.8,8.7,0.6c1.6-2.8,7.7-3.2,10.1,1.1
	c2.5,4.6-1.8,9.1-5.1,12.7c-2.4,2.7-2.8,7.7-1.5,11.1c5,12.9-15.8,39.2,50.6,66.2c23.9,4.4,24.4,0.2,40.5-0.4
	c17-0.7,29.4,28.5,45,14c33.9-31.5,66.8,14.3,78.9,4c19-16.1-6.3-49.6-37.3-55.7c-18.2-3.6-37.9,3.1-45.7-1.6
	c-8.9-5.4,0.5-21.4-27.6-28c-28-6.6-31.1-0.1-39.2-6.2c-8.1-6.1-10.4-57.9-43.6-66.8c-23.4-6.3-44-2.4-51.6,7.4
	C163.6,34.7,156.3,48,170.5,51.4z"/>
<path class="st0" d="M260.9,210.2c-6.5,29.8-50.9,142.2-88.3,146.3c-8.3,0.9-16-2.3-23.4-8.1c-2.1-1.7-4.2-3.6-6.3-5.7
	c-25.7-26.2-47.1-81.8-73.7-102.1c-23.9-18.3-20.4-49.9-11.3-56.9c13.1-10,6.4,10.7,27.2,14.6c13.8,2.6-3.5,15.5,19,36.5
	c20.2,18.9,47.5,67.6,61.2,73c0.7,0.3,1.5,0.5,2.1,0.5c0.9,0,1.8-0.2,2.5-0.7C186,296,208.8,196.6,220,192
	C230.2,187.7,267.5,180.4,260.9,210.2z"/>
<path class="st0" d="M170.3,307.2c0.1,0,0.2,0,0.3,0C170.5,307.2,170.3,307.2,170.3,307.2C170.2,307.2,170.3,307.2,170.3,307.2z"/>
<path class="st14" d="M277.2,187c-44.7-9.1-60.1-33.7-65.9-42.9L244,146c7.5,6.4,15.8,15.4,23.7,25.7
	C271.6,176.8,274.7,181.9,277.2,187z"/>
<path class="st0" d="M447.9,382.6c-6.1,5.8-18.6,10.1-23.1,3c-3.8-6-10.6-17.5-5.9-22.1c4.7-4.5,8.2-7.7,18.9-7.4
	c10.7,0.3,6.2-0.6,15.4,8C462.1,372.8,451.7,379,447.9,382.6z"/>
<path class="st12" d="M389.2,579.1c-17.4,6-63.8,22-73.6,24.3c-12.1,2.9-74.6,30.1-83.6,34c-9,3.9-33.1,9.2-41.3,8
	c-8.7-1.2-13.7-14-23.9-14.6c-7.7-0.4-9.9,2-17.2,3.4c-1-14.7,3.7-34.5,8.5-53.4l218.9-38C381.2,555.4,385.1,567.6,389.2,579.1z"/>
<path class="st5" d="M437,501.6c-1.1,5.3-12.8,16.3-30.7,29.7c-7.7,5.8-16.6,12.1-26.4,18.6c-62.8,42.2-159.1,93.8-190.8,86.8
	c-28.6-6.3-105.7-159.2-95.3-211.6c1.7-8.6,17.6-21.1,40.1-34.5c2.2-1.3,4.5-2.7,6.8-4v0c29.2-16.8,67.1-34.5,99.2-47.4h0
	c2.5-1,5-2,7.4-3c23.9-9.3,43.7-15.6,52.7-16.2c22.5-1.4,70.6,63.7,100,130.8C410.9,475.6,442.4,475.4,437,501.6z"/>
<path class="st3" d="M170.3,307.2c0.1,0,0.2,0,0.3,0C170.5,307.2,170.3,307.2,170.3,307.2c-0.1,0.1-0.2,0.2-0.4,0.3
	c-0.4,0.3-0.9,0.5-1.3,0.6c-0.1,0-0.2,0-0.4,0.1c0,0,0,0,0,0c-0.7,0.1-1.3,0.3-1.8,0.6c-8.9,4.2-15.2,19.6-19.5,37.6
	c-1.1,4.5-2,9.2-2.8,13.9c-0.7,4-1.3,8-1.8,11.9c-0.6,5-1.2,9.9-1.6,14.5v0c-0.7,8-1,15.2-1,20.8c0,0.9,0,1.7,0,2.4
	c0,1.8-1.4,3.3-3.2,3.4h-0.1c-1.8,0-3.2-1.4-3.3-3.2c0-0.4,0-0.7,0-1.1c0-4.2,0.2-10.7,0.7-18.3c0.4-5.1,0.9-10.8,1.6-16.8
	c0.6-4.7,1.3-9.5,2.1-14.4c0.3-1.6,0.6-3.2,0.9-4.8c0.9-4.9,1.9-9.4,3-13.6c0.6-2.3,1.2-4.6,1.9-6.7c1.8-5.9,3.8-11,6-15.4
	c3.3-6.6,7-11.4,11.2-14.3c1-0.7,2-1.3,3.1-1.8c3-1.4,6.8-1.7,11.3-1.2C173.3,304.1,171.7,306,170.3,307.2z"/>
<path class="st3" d="M266.2,356c-1.4,1.2-3.5,1-4.6-0.4c-0.4-0.5-1.1-1.2-2-2c-0.7-0.6-1.4-1.3-2.3-2c-3.9-3.2-10-7.6-17.3-12.4
	c-6.8-4.5-14.8-9.3-23.2-14c-1.8-1-3.6-2-5.4-2.9c1.2-1.8,2.4-3.6,3.6-5.5c1.7,0.9,3.4,1.8,5,2.7c10,5.5,19.6,11.4,27.5,16.8
	c8.2,5.6,14.6,10.5,17.9,13.7c0.3,0.3,0.6,0.6,0.8,0.9c0.2,0.2,0.4,0.4,0.5,0.6C267.7,352.8,267.5,354.9,266.2,356z"/>
<path class="st3" d="M143.6,409.8c1,2.5-1.4,5.7-5.4,7.2c-3.9,1.5-7.9,0.8-8.8-1.7c-1-2.5,1.4-5.7,5.4-7.2S142.6,407.4,143.6,409.8z
	"/>
<path class="st3" d="M272.9,352c1,2.5-1.4,5.7-5.4,7.2c-3.9,1.5-7.9,0.8-8.8-1.7c-1-2.5,1.4-5.7,5.4-7.2
	C268,348.8,272,349.6,272.9,352z"/>
<path class="st14" d="M406.3,531.3c-7.7,5.8-16.6,12.1-26.4,18.6c-10.5-6-19.8-13.5-19.8-13.5l-47.9-172.8
	C358.1,422.5,395.3,488.1,406.3,531.3z"/>
<path class="st7" d="M398.8,563c-10.2,20.7-290.6,85.3-311.3,64.6c-8.2-8.2-16.1-37.5-21.4-72.9c-0.4-2.5-0.7-5-1.1-7.5
	c-1.2-9-2.2-18.3-3-27.7c-0.7-8-1.2-16.1-1.6-24.1c-1.6-37.7,0.8-73.5,9.8-92.6c3.7-7.9,22.2-16.2,47.2-23.8
	c2.5-0.8,5.1-1.5,7.7-2.3c32.4-9.2,73.4-17.2,107.6-22c2.7-0.4,5.3-0.7,7.9-1.1c25.5-3.3,46.1-4.6,55-3
	C327.3,356.4,409,542.3,398.8,563z"/>
<path class="st3" d="M175.1,301.3c-0.1,0.1-0.1,0.2-0.2,0.3c-1.6,2.5-3.1,4.4-4.6,5.6c-0.6,0-1.1,0-1.5,0.1
	c-0.3,0.1-0.6,0.1-0.9,0.2c0,0,0,0-0.1,0c-0.5,0.1-1,0.3-1.5,0.5c-7.1,2.8-15,11.9-23,26.3c-1,1.8-2,3.6-2.9,5.5
	c-1.3,2.5-2.6,5.2-3.9,8c-1.7,3.6-3.3,7.3-4.8,11c-2.5,6.2-4.7,12.2-6.6,17.8c-2.8,8.1-4.9,15.2-6.1,20c-0.2,0.9-0.4,1.7-0.6,2.4
	c-0.3,1.5-1.7,2.6-3.2,2.6c-0.2,0-0.5,0-0.7-0.1c-1.8-0.4-2.9-2.2-2.5-3.9c0.1-0.3,0.2-0.7,0.2-1.1c1-4.1,2.7-10.3,5.1-17.6
	c2-6.3,4.6-13.3,7.4-20.5c1.8-4.4,3.7-8.9,5.7-13.3c1.8-3.8,3.5-7.4,5.3-10.7c0.4-0.7,0.7-1.4,1.1-2.1c0,0,0,0,0,0
	c7.6-14.1,15.3-23.5,22.9-28.3c1.7-1,3.3-1.8,5-2.4c0.9-0.3,1.8-0.6,2.6-0.7c1-0.2,2.2-0.3,3.3-0.2
	C172.1,300.7,173.6,300.9,175.1,301.3z"/>
<path class="st3" d="M254.1,377.3c-1.6,0.8-3.6,0.1-4.4-1.5c-0.3-0.6-0.8-1.4-1.4-2.4c-2.7-4-8.3-10.8-15.6-18.8
	c-2.6-2.9-5.5-5.9-8.5-8.9c-3.3-3.4-6.9-6.8-10.6-10.3c-2.4-2.2-4.7-4.3-7-6.3c1.3-1.7,2.5-3.5,3.8-5.4c2.7,2.3,5.2,4.6,7.7,6.9
	c4.4,4.1,8.7,8.3,12.7,12.3c3.6,3.7,6.9,7.2,9.9,10.6c6.6,7.4,11.7,13.7,14,17.6c0.4,0.6,0.7,1.2,1,1.7
	C256.4,374.5,255.8,376.5,254.1,377.3z"/>
<path class="st3" d="M122.2,400c0.3,2.6-2.8,5.2-7,5.7c-4.2,0.5-7.8-1.1-8.2-3.7c-0.3-2.6,2.8-5.2,7-5.7
	C118.2,395.7,121.9,397.3,122.2,400z"/>
<path class="st3" d="M261.7,375.1c0.3,2.6-2.8,5.2-7,5.7c-4.2,0.5-7.8-1.1-8.2-3.7c-0.3-2.6,2.8-5.2,7-5.7
	C257.7,370.8,261.3,372.4,261.7,375.1z"/>
<path class="st4" d="M240.4,461.3c-0.2,26.2-3.9,91.2-7.3,99.1c-5.4,12.9-10.1,15-32.1,12.9c-15.8-1.5-97.2-10.1-135-18.7
	c-1.2-9-3.3-25.8-4.1-35.2c-0.7-8-1.2-16.1-1.6-24.1l1.9-6.1l166-94.8C237.5,418.3,240.6,435.1,240.4,461.3z"/>
<path class="st1" d="M76.4,368.4c16.4-24.5,156.7,0.2,163.4,31.7c3.2,15.2-8.6,161-17.5,165.3C201.6,575.5,42,548,34.1,519.8
	C29.9,504.9,55.5,399.8,76.4,368.4z"/>
<path class="st3" d="M175.2,301c-0.1,0.1-0.1,0.2-0.2,0.3c-0.1,0.1-0.1,0.2-0.2,0.3c-1.6,2.5-3.1,4.4-4.6,5.6c0.1,0,0.2,0,0.3,0
	c-0.1,0-0.2,0-0.3,0c-0.8,0-1.6,0.1-2.4,0.3c0,0,0,0-0.1,0c-0.6,0.1-1.1,0.3-1.7,0.4c-5.4,1.6-11.1,5.6-16.8,11
	c-4.2,3.9-8.3,8.5-12.4,13.4c0,0,0,0,0,0c-0.5,0.6-0.9,1.1-1.4,1.7c-6.5,8.1-12.6,16.7-17.6,24.1c-1.9,2.8-3.6,5.4-5.2,7.7
	c-1.9,2.9-3.6,5.5-5.1,7.5c-0.5,0.7-1,1.4-1.4,2c-1.1,1.5-3.1,1.8-4.6,0.7c-1.5-1.1-1.8-3.1-0.7-4.6c0.2-0.3,0.4-0.6,0.6-0.9
	c1.5-2.1,3.5-5.1,5.7-8.4c0.9-1.3,1.8-2.7,2.7-4.1c5.9-8.8,13.3-19.6,21.4-29.5c8.8-10.7,18.5-20.2,28-24.9c1.8-0.9,3.6-1.6,5.3-2.1
	c2-0.6,4-0.9,6-1C172.3,300.6,173.7,300.7,175.2,301z"/>
<path class="st3" d="M207.3,396.4c0.1,1.8-1.3,3.4-3.1,3.4H204c-1.7,0-3.2-1.4-3.3-3.1c0-0.8-0.1-1.7-0.2-2.8
	c-0.4-4.8-1.2-12.5-2.5-21.5c-0.6-3.7-1.2-7.7-1.9-11.7c-0.1-0.7-0.3-1.4-0.4-2.2c-0.7-3.6-1.4-7.2-2.2-10.8
	c-0.2-0.8-0.4-1.7-0.6-2.5c1.8-1.7,3.6-3.6,5.4-5.6c0.5,2.1,1.1,4.3,1.6,6.6c0.7,3.1,1.4,6.3,2,9.4c0.2,1.3,0.5,2.6,0.7,3.8
	c1,5.4,1.8,10.6,2.4,15.4c1.2,8.4,1.9,15.5,2.1,19.7C207.2,395.2,207.2,395.8,207.3,396.4z"/>
<path class="st3" d="M109.3,377.7c-0.7,2.5-4.6,3.7-8.6,2.5c-4.1-1.2-6.8-4.1-6-6.7c0.7-2.5,4.6-3.7,8.6-2.5
	C107.4,372.2,110.1,375.1,109.3,377.7z"/>
<path class="st3" d="M211.9,400.7c-0.7,2.5-4.6,3.7-8.6,2.5c-4.1-1.2-6.8-4.1-6-6.7c0.7-2.5,4.6-3.7,8.6-2.5
	C210,395.2,212.7,398.2,211.9,400.7z"/>
<path class="st12" d="M167.9,307.5c-0.1,0.2-0.3,0.4-0.5,0.7c-5.3,7.7-15.5,29.2-18.2,40.2c-2.1-1.7-4.2-3.6-6.3-5.7l13.4-34.3
	l9-0.6L167.9,307.5z"/>
</svg>
