<?xml version="1.0" encoding="utf-8"?>
<!-- Generator: Adobe Illustrator 26.1.0, SVG Export Plug-In . SVG Version: 6.00 Build 0)  -->
<svg version="1.1" id="Layer_1" xmlns="http://www.w3.org/2000/svg" xmlns:xlink="http://www.w3.org/1999/xlink" x="0px" y="0px"
	 viewBox="0 0 874.7 1536" style="enable-background:new 0 0 874.7 1536;" xml:space="preserve">
<style type="text/css">
	.st0{fill:none;stroke:#606060;stroke-width:5;stroke-miterlimit:10;}
	.st1{fill:#FFFFFF;}
	.st2{fill:#1F1F39;}
	.st3{fill:#3B3B4C;}
	.st4{opacity:0.57;fill:#1F1F39;enable-background:new    ;}
	.st5{fill:#201B2C;}
	.st6{fill:#EEADA5;}
	.st7{fill:#603A3E;}
	.st8{fill:#775155;}
	.st9{fill:#EFAEA6;}
	.st10{opacity:0.14;fill:#1F1F39;enable-background:new    ;}
	.st11{fill:#244798;}
	.st12{opacity:0.28;fill:#1F1F39;enable-background:new    ;}
	.st13{opacity:0.18;fill:#1F1F39;enable-background:new    ;}
	.st14{fill:#F4AD00;}
</style>
<path class="st0" d="M844.6,1382.9c-4.9,16.6-13.5,26.1-26.7,26.4c-42.1,1-106,5.2-175,9.2c-16.9,1-34.1,2-51.4,2.9
	c-107.8,5.7-218,8.9-271.1-2.7c-6.5-1.4-12.1-3-16.8-4.9c-43-17.2-27.1-148.1,4.7-302c9.5-45.8,20.4-93.6,31.5-141
	c43.6-184.9,91.6-364.5,77.4-397.8c-0.2-0.5-0.4-1-0.7-1.4C383.1,511,219.7,451.3,222,268.3c0-2.5,0.1-5,0.2-7.4
	c0.7-17,3.1-33,7-47.9C264.5,77.7,419.9,25.4,512.9,22.5c3.8-0.1,7.5-0.2,11.1-0.1c23.6,0.3,46,3,67,7.6
	c143.4,31.9,226.1,156.6,223.5,250c-1.5,53.7-23,100.7-50.6,140.3l0,0c-19.2,27.6-41.4,51.7-61.8,72c-40,40-73.2,65.7-63.7,75.8
	c4.7,5,22.2,48.6,45.1,113.5c3.3,9.2,6.6,18.8,10.1,28.8c0.5,1.5,1,3,1.6,4.5c2.3,6.7,4.6,13.5,7,20.5c4.2,12.3,8.4,25,12.7,38.1
	c0.4,1.3,0.9,2.6,1.3,3.9c2,6,3.9,12,5.9,18.1c0,0.1,0,0.1,0,0.1c0.7,2.2,1.4,4.3,2.1,6.5c0.7,2.3,1.5,4.6,2.2,6.8
	c1,3,2,6.1,2.9,9.2c0.7,2.2,1.4,4.5,2.2,6.7c10,31.3,20.1,64.1,30,97.4c7.3,24.7,14.6,49.6,21.5,74.6c0.3,1,0.5,1.9,0.8,2.9
	c1.3,4.7,2.6,9.3,3.8,13.9c0.8,3.1,1.7,6.1,2.5,9.2c1.6,6,3.2,12,4.8,17.9c2.3,8.7,4.6,17.5,6.8,26.1c4.1,15.8,8,31.4,11.7,46.8
	c0.3,1.4,0.7,2.9,1,4.3c15.6,65.5,27.4,126.4,32.3,175.4C850.8,1331.6,850.5,1362.6,844.6,1382.9z"/>
<path class="st1" d="M176.9,1444.4c11.2-7.5,37.1-29.8,37.1-29.8l-20.9-29.1l-38.5,33.9l1.9,29L176.9,1444.4z"/>
<path class="st2" d="M183.1,1443c2.9,2.5-0.9,3.4-4.6,7.9c-8.5,10.3,18.6,49,21.8,55.5c1.6,3.4-10.1,19.6-20.7,4.6
	c-9.1-12.9-38.4-54.2-48.3-68.4c-2.1-3-1.9-7,0.4-9.8c8.2-10,24.2-20.9,27.3-17.3C165,1420.1,171,1432.5,183.1,1443z"/>
<path class="st3" d="M166.7,1408.7c5.1,9.7,14.7,21.3,22.9,26.2c4.3,2.6,8.3,3.3,11,0.9c4.2-3.7,25.4-22,50.4-46.7
	c35.7-35.2,79-83.2,91.6-120.5c17.6-59.1,20-92.1,27.7-147.7l0,0c0.5,1.2,8.3,19,18.7,42.7l0,0c16.4,37.6,39.4,90,50.5,115.3
	c3.6,8.1,6,25.2,7.8,46.2c0.8,9.2,1.5,19.3,2.1,29.6c1.3,23.3,2.1,49.8,3,71.3c15,0,34.8-0.7,52.5-0.7c-0.5-19-2-39.4-2.9-61.4
	c-0.3-9.1-0.7-18.1-1.1-26.8c-1.4-30.9-3.2-57.5-5.2-67.8c-4.5-23.2-29.1-141.3-50.8-218.9c-4-14.5-8-27.5-11.7-38.3
	c-1.9-5.6-3.8-10.5-5.5-14.8l-17.4-0.7l-10.9-0.5c0,0-18.1,0.9-40.1,2.5c-15.4,1.1-32.7,2.6-47,4.3c-0.5,0.1-0.9,0.1-1.4,0.2
	c-16.5,2-28.8,4.4-29.1,7.1c-1,11.9-1.6,24.7-1.8,38.1c0,1.5-0.1,3-0.1,4.5c-0.1,9.3-0.1,18.9-0.1,28.5c0.1,14.3,0.5,28.7,0.9,42.8
	c1.7,53.3,4.5,102.1,1.5,120.8c-1.8,11-15.9,31.9-33.8,54.7c-33.6,42.7-80.6,92-84,94.6C161.8,1396.2,163.2,1402,166.7,1408.7z"/>
<path class="st4" d="M389.1,1163.7c-12-23-18.7-42.8-18.7-42.8c2-16.7,3-36.2,3-36.2S385.3,1135.6,389.1,1163.7z"/>
<path class="st5" d="M123.6,1045.7l2.9-6.2c2-4.4,5.7-7.3,9.1-7.6l0,0c1.1-0.1,2.2,0,3.2,0.5l20.8,9.6l0.6,0.3l0,0l0.1,0.1l5,2.3
	c2,0.9,3.3,2.8,3.8,5.3c0.4,1.9,0.3,4-0.3,6.3l0,0c-0.1,0.2-0.1,0.4-0.2,0.7c-0.1,0.2-0.2,0.4-0.2,0.7c-0.1,0.3-0.3,0.7-0.4,1
	l-2.8,6l0,0l-4.8,10.3l-5.2-2.4v-0.1l4.7-10.2l0,0l0.6-1.2c0.1-0.2,0.2-0.4,0.3-0.6c1.7-4.2,0.8-8.5-2.2-9.8l-1.5-0.7l-18.3-8.5
	c-0.8-0.4-1.6-0.5-2.5-0.4c-2.5,0.3-5.2,2.4-6.7,5.7l-0.7,1.4l0,0l-4.7,10.1l-5.2-2.4L123.6,1045.7z"/>
<path class="st6" d="M171.8,1014c-1.8,6.5,0.6,5.5-0.6,14.4c-1.1,8.9,1,22.8-3.6,22.3s-5.8-6.6-7.4-8.4s1,4.8-3,7.6
	c-4,2.8-15.3,0.7-18.7-4.3s-4.1-12.5-1-20.5s11.5-17.2,13.7-20.3C153.4,1001.6,171.8,1014,171.8,1014z"/>
<path class="st5" d="M159.9,1062.3L159.9,1062.3L159.9,1062.3l0.6-1.3c0.1-0.2,0.2-0.4,0.2-0.5c1.7-4.2,0.8-8.5-2.1-9.9l0.5-3.5l0,0
	l0.4-2.8v-0.1l0.3-2l0.4,0.2l0,0l0.1,0.1l5,2.3c2,0.9,3.3,2.9,3.8,5.3c0.4,1.9,0.3,4.1-0.3,6.3l0,0c-0.1,0.2-0.1,0.4-0.2,0.7
	c-0.1,0.2-0.2,0.4-0.2,0.7c-0.1,0.3-0.3,0.7-0.4,1l-2.8,6l0,0l-4.8,10.2l-5.2-2.4L159.9,1062.3z"/>
<path class="st7" d="M219.4,1110.2l-34.4,75.2c-2,4.5-7.3,6.4-11.8,4.4l-0.2-0.1l-134.8-59.6c-15.1-6.9-10.1-17.5-8.1-22l30.3-71.9
	c2-4.5,12.8-13.7,24.8-8l119.3,54.5l4.5,2C218.8,1089.2,224,1100.1,219.4,1110.2z"/>
<path class="st8" d="M219.4,1110.2l-34.4,75.2c-2,4.5-7.3,6.4-11.8,4.4l-0.2-0.1c0.5-5.2,2.7-12.6,8.5-23.4c14.1-26,20.3-60,23-83.6
	l4.5,2C218.8,1089.2,224,1100.1,219.4,1110.2z"/>
<path class="st9" d="M433,811.2l-27.5-12.7c1.8-13.3-1.1-45.5,2.8-57c4.3-12.6,5.4-11.8,5.4-11.8l18.1,15.1l8.5,7.1
	c0,0-1.9,5.1-1.1,14.3c0.6,6.4,2.5,14.9,7.3,25C450.1,798.9,433,811.2,433,811.2z"/>
<path class="st10" d="M440.2,752c0,0-1.8,6.5-1,15.7c-19.1,5.4-27.3-20.4-22-24.8c3.3-2.7,14.5,2,14.5,2L440.2,752z"/>
<path class="st9" d="M439.2,704.9c3.9,9.4,20.2,24.4,13.7,26.5s8.3,19.8,1.4,22.2c-16.6,5.9-39.3,1.5-44-5.9
	c-4.8-7.4-10.9-30.3-10.9-30.3L439.2,704.9z"/>
<path class="st2" d="M424.9,719.7c5.5-1.1,6,0.1,9.2-2.9s-4.9-6,1.6-9.4s15.7-10.1,11.5-17.3c-6.8-11.6-16.8-4.5-22.7-1.2
	c-3.8,2.1-4.9-4-12.9-1.1c-6.2,2.3-1.6,4.2-7.1,6.6c-3.3,1.4-11.7-2.1-15.7,3.7c-7.4,10.7,3.8,17.4-1.8,28.1
	c-6.5,12.5,22.1,25.5,23.9,22.3c2.1-3.8-5.5-12.2-3.2-15.4c3.4-4.9,5.3-1.2,10.2,1.2c5.3,2.5,12.9,0.3,5.7-5.5
	C416.5,722.9,419.9,720.6,424.9,719.7z"/>
<path class="st4" d="M348.2,1028.5c-4.3,15.7-69,53.3-69,53.3l1.4-45.7C280.6,1036.1,352.5,1012.8,348.2,1028.5z"/>
<path class="st9" d="M632.6,816.3c5.3-5.3,8.2-9.1,16.2-15c7.7-5.7,13.8-9.6,15.7-18.1c1.5-7,16.8-22.5,19.3-21.5
	c19.9,7.8,9.5,21.8,6.1,26.2c-11.9,15.1,4.9,12.2,5.4,18.9s-15.8-1.5-27.9,9.8c-7.3,6.8-13.5,15.5-17.4,17.3
	C646.1,835.6,632.6,816.3,632.6,816.3z"/>
<path class="st1" d="M403.6,774.1c12.3-1.6,15.6,13.8,25.2,15.6c5.8,1.1,6.3-4.2,9.3-6.8c1.9-1.6,4.9,0.1,9.5,1.1
	c12.1,2.5-16,243.5-16,243.5s-35,5.4-59.6,1.8s-63-17.5-61-26s68-219.4,68-219.4S391.3,775.7,403.6,774.1z"/>
<path class="st11" d="M401.5,774.4c-0.6,14.1-22.7,71.3-16.1,118.8c1.4,9.8,0.6,19.2-1.2,28c-1.4,6.8-3.5,13.4-5.9,19.5
	c-6.6,17.2-15.2,31.6-16.8,41.8c-1.9,12.8-2.6,30.2-8.9,42.4c-2.8,5.4-6.6,9.7-12.2,12.2c-18.1,8.2-51,11.5-60.7,11.1
	c-9.7-0.3-49.5-11.4-33.5-21.3c25-15.5,45.6-44,57.2-68.6c4.2-8.9,7.2-17.2,8.8-24.3c0.7-3,1.3-5.7,1.7-8.1c0.4-2.7,0.7-5,0.7-6.9
	c0-3,0-6.2-0.1-9.3c-0.5-14.1-2-28.1-1.5-34.1v-0.1c0.1-0.8,0.2-1.4,0.3-1.9c0-0.1,0-0.1,0.1-0.2c-5.8,2.4-70.9,34.5-92.2,64.3
	c-26.8,43.7-39.1,76.4-43.8,85.4c0,0.1-0.1,0.1-0.2,0.1c-12.3-4.5-31.4-12-34.4-16.6v-0.1c0.7-19.4,29.3-62.1,44.7-91.3
	c14.4-27.4,93.8-86.6,133.2-111.9c26.2-16.8,80.9-29.3,80.9-29.3C401.5,774.2,401.5,774.3,401.5,774.4z"/>
<path class="st12" d="M313.4,873.8l-0.4,2.5l0,0c-0.4,6.3,1.1,19.9,1.5,33.5c0.1,3.1,0.1,6.2,0.1,9.3c0,3.6-0.9,8.8-2.4,15
	c-1.2,5.2-1.3,11.2-2.8,17.4c0.8-0.9,0.4-2.2,1.3-3.3c4.8-6.4,25.6-69.8,25.9-83.6C336.6,864.6,321,868.5,313.4,873.8z"/>
<path class="st13" d="M424.3,798c-1.2-1-16.7,23.9-35.4,30.9c-5.2,1.9-10.6,3.1-16.2,3c-16.3-0.5-53.2-9.8-73.4-14.2
	c7.1-5.5,12.2-9.3,21.3-14.2c14.4,6,43.2,12.1,51.8,11.9c6.3-0.1,12.4-1.4,18.1-3.3c10.7-3.6,20.1-9.5,27.3-14.7
	c3.7-2.7,4.5-7.1,8.6-6.9C431.9,790.7,425.9,799.3,424.3,798z"/>
<path class="st14" d="M433,793.4c0.1-2.6-1.4-6.9-6.8-7.1c-4.1-0.2-4.6,1.4-8.2,4.1c-11,8-27.2,17.6-45.4,18
	c-18.3,0.4-57.5-26.9-84.7-23.3c-27.3,3.5-37.5,26.8-76.6,29.7c-39.2,2.8-79.3-17-90.9-16.1c-11.6,1-18.7,2.9-18.8,7.4
	c-0.1,4.5,4.9,12.5,12.7,16.4c7.7,3.9,77.8,14.7,96.7,13.8c30.7-1.5,59.2-26.7,79-26.7c19.7-0.1,60,14.7,83.1,15.4
	c25.7,0.8,49.1-27.3,50.7-26s3.1,2.5,6.4,2C432.3,800.5,432.9,796,433,793.4z"/>
<path class="st11" d="M640.8,795.6c5.7-7,33.1,27.9,26.1,33c-10.5,7.5-77.4,94-109.4,79.7c-30.3-13.6-57.6-39.3-72.6-33.9
	c-8.2,3-12.8,8-20.1,35.7c-2.6,9.7-5.9,22.5-6.6,28.6c-1,8.5-3.1,21.4-3.1,25c0.1,16.3,1.3,94.5-15.3,87.8
	c-17.6-7.1-50.6,7.4-54.1-2.1c-0.9-2.5,6.3-13.5,12-24.8c12.4-24.8,25.8-58.8,34-87.8l0,0c1.1-3.9,1.9-7.6,2.4-11
	c0.4-2.6,0.8-5,1.1-7.3c5.5-34.7,8.7-45,11-88.1l1-46.2c0.4,0.1,0.7,0.1,1.1,0.2c43.6,5.3,108.9,77.4,118.3,79.1
	C586.5,867.1,635.1,802.7,640.8,795.6z"/>
</svg>
