<?xml version="1.0" encoding="utf-8"?>
<!-- Generator: Adobe Illustrator 26.1.0, SVG Export Plug-In . SVG Version: 6.00 Build 0)  -->
<svg version="1.1" id="Layer_1" xmlns="http://www.w3.org/2000/svg" xmlns:xlink="http://www.w3.org/1999/xlink" x="0px" y="0px"
	 viewBox="0 0 572.4 2024.9" style="enable-background:new 0 0 572.4 2024.9;" xml:space="preserve">
<style type="text/css">
	.st0{fill:#419F81;}
	.st1{opacity:0.17;fill:#1F1F39;}
	.st2{fill:#F4AD00;}
	.st3{opacity:0.78;fill:#F4C83D;}
	.st4{opacity:0.19;fill:#D39333;}
	.st5{fill:#CC820A;}
	.st6{fill:#F4C83D;}
	.st7{fill:#66383D;}
	.st8{opacity:0.22;fill:#1F1F3D;}
	.st9{fill:#0088BE;}
	.st10{opacity:0.23;fill:#FFFFFF;}
	.st11{fill:#EFAEA6;}
	.st12{fill:#1F1F39;}
	.st13{fill:#3B3B4C;}
	.st14{opacity:0.57;fill:#1F1F39;}
	.st15{opacity:0.14;fill:#1F1F39;}
	.st16{fill:#FFFFFF;}
	.st17{fill:#046FA5;}
	.st18{opacity:0.28;fill:#1F1F39;}
	.st19{opacity:0.18;fill:#1F1F39;}
	.st20{fill:#0267A4;}
	.st21{opacity:0.1;}
	.st22{fill:#EEADA5;}
	.st23{opacity:0.15;fill:#1F1F39;}
</style>
<path class="st0" d="M273.6,1464.3c57.9-115.6,139-152.4,219.9-155.8c80.9-3.5,61.1-2,61.1-2c-25.3,58-59.3,153-283.1,172.4
	L273.6,1464.3z"/>
<path class="st1" d="M313.8,1474.1c186.1-27.1,217.3-113.5,240.9-167.6c0,0,2-0.2,2.1-0.3c0-0.1-1.2-0.1-5.1,0
	C452.8,1326.4,355.4,1421.6,313.8,1474.1z"/>
<path class="st0" d="M291.5,964.3c-4.3-47.2-8.5-71.7-11.5-94.6c-9.3-72.4-4.1-98.2-2.1-116c2-17.8-27.2-5-27.2-5
	s-1.5,65.1,1.4,98.9c4,44.9,11.5,79.5,11.7,126.6c0.3,57.6-15.8,668.1-36,795.5c-8.2,52,66.6,40.8,66.6,40.8s4.8-482.7,1-567.1
	C295.4,1243.4,287.9,993.5,291.5,964.3z"/>
<g>
	<path class="st2" d="M504.7,568.5c0,126.3-102.4,228.7-228.7,228.7c-115.6,0-211.2-85.8-226.6-197.1c-1.4-10.3-2.2-20.9-2.2-31.6
		c0-14.7,1.4-29.2,4.1-43.1c15.8-83.1,76.7-150.3,156.2-175.2c6-1.9,12.1-3.5,18.3-4.9c16.1-3.6,32.9-5.5,50.2-5.5
		C402.3,339.8,504.7,442.2,504.7,568.5z"/>
	<path class="st3" d="M225.9,345.3c-3,18.9-7.2,39.6-13.7,60c-51.1,19.1-90.6,62-105.1,115.2c-16.2,4.4-34.7,6.2-55.6,4.9
		c15.8-83.1,76.7-150.3,156.2-175.2C213.6,348.3,219.7,346.7,225.9,345.3z"/>
	<circle class="st4" cx="272.1" cy="565.6" r="171.1"/>
	<path class="st5" d="M398.2,450.5c-30.2-27.3-70.2-43.9-114.1-43.9c-93.9,0-170.1,76.2-170.1,170.1c0,43.9,16.6,83.9,43.9,114.1
		c-34.4-31.1-56-76.1-56-126.2c0-93.9,76.2-170.1,170.1-170.1C322.1,394.5,367.1,416.1,398.2,450.5z"/>
	<path class="st6" d="M455.4,578.4c0,93.9-76.2,170.1-170.1,170.1c-50,0-95-21.6-126.2-56c30.2,27.3,70.2,43.9,114.1,43.9
		c93.9,0,170.1-76.2,170.1-170.1c0-43.9-16.6-83.9-43.9-114.1C433.8,483.4,455.4,528.4,455.4,578.4z"/>
	<path class="st5" d="M357.7,621.6c-0.2,12.2-3.4,23.1-9.9,32.8c-6.4,9.6-15.7,17.2-27.9,22.5c-12.2,5.4-26.6,7.9-43.2,7.7
		c-19.9-0.3-36.3-4.2-49.1-11.9c-9.1-5.5-16.5-12.9-22.1-22c-5.6-9.1-8.4-17.9-8.3-26.5c0.1-5,1.8-9.2,5.3-12.7
		c3.5-3.5,7.9-5.2,13.2-5.1c4.3,0.1,7.9,1.5,10.9,4.3c3,2.8,5.4,6.9,7.5,12.4c2.5,6.5,5.2,11.9,8.1,16.2c2.9,4.4,7.1,8,12.5,10.8
		c5.4,2.9,12.5,4.4,21.3,4.5c12.1,0.2,22-2.5,29.6-8.1c7.7-5.5,11.5-12.5,11.6-21c0.1-6.7-1.9-12.2-5.9-16.4
		c-4-4.2-9.3-7.5-15.7-9.8c-6.4-2.3-15.1-4.7-25.9-7.4c-14.5-3.6-26.5-7.7-36.3-12.4c-9.7-4.7-17.4-11-23-18.9
		c-5.6-7.9-8.4-17.7-8.2-29.4c0.1-11.1,3.3-20.9,9.5-29.5c6.2-8.6,15-15.1,26.6-19.6c11.5-4.5,25.1-6.6,40.6-6.4
		c12.4,0.2,23.1,1.8,32.1,5c9,3.2,16.4,7.4,22.4,12.5c5.9,5.2,10.2,10.6,12.9,16.2c2.7,5.6,4,11.1,3.9,16.4
		c-0.1,4.9-1.8,9.2-5.3,13.1s-7.8,5.8-13,5.7c-4.7-0.1-8.2-1.3-10.6-3.7c-2.4-2.4-5-6.2-7.8-11.6c-3.6-7.7-7.9-13.7-13-18
		c-5.1-4.3-13.3-6.6-24.7-6.7c-10.6-0.1-19.1,2.1-25.6,6.6c-6.5,4.6-9.8,10.1-9.9,16.6c-0.1,4,1,7.5,3.2,10.5c2.2,3,5.2,5.5,9,7.7
		c3.8,2.2,7.7,3.9,11.6,5.1c3.9,1.2,10.4,3.1,19.5,5.5c11.3,2.8,21.6,5.9,30.8,9.2c9.2,3.3,17,7.3,23.4,12
		c6.4,4.7,11.4,10.5,14.9,17.6C356.1,602.8,357.8,611.4,357.7,621.6z"/>
	<path class="st5" d="M285.4,709.2l-21.6-0.3c-3.8,0-6.8-3.1-6.7-6.9l3.2-250.3c0-3.8,3.1-6.8,6.9-6.7l21.6,0.3
		c3.8,0,6.8,3.1,6.7,6.9l-3.2,250.3C292.3,706.2,289.2,709.2,285.4,709.2z"/>
	<path class="st6" d="M349.9,611.7c-0.2,12.2-3.4,23.1-9.9,32.8c-6.4,9.6-15.7,17.2-27.9,22.5c-12.2,5.4-26.6,7.9-43.2,7.7
		c-19.9-0.3-36.3-4.2-49.1-11.9c-9.1-5.5-16.5-12.9-22.1-22c-5.6-9.1-8.4-17.9-8.3-26.5c0.1-5,1.8-9.2,5.3-12.7
		c3.5-3.5,7.9-5.2,13.2-5.1c4.3,0.1,7.9,1.5,10.9,4.3c3,2.8,5.4,6.9,7.5,12.4c2.5,6.5,5.2,11.9,8.1,16.2c2.9,4.4,7.1,8,12.5,10.8
		c5.4,2.9,12.5,4.4,21.3,4.5c12.1,0.2,22-2.5,29.6-8.1c7.7-5.5,11.5-12.5,11.6-21c0.1-6.7-1.9-12.2-5.9-16.4
		c-4-4.2-9.3-7.5-15.7-9.8c-6.4-2.3-15.1-4.7-25.9-7.4c-14.5-3.6-26.5-7.7-36.3-12.4c-9.7-4.7-17.4-11-23-18.9
		c-5.6-7.9-8.4-17.7-8.2-29.4c0.1-11.1,3.3-20.9,9.5-29.5c6.2-8.6,15-15.1,26.6-19.6c11.5-4.5,25.1-6.6,40.6-6.4
		c12.4,0.2,23.1,1.8,32.1,5c9,3.2,16.4,7.4,22.4,12.5c5.9,5.2,10.2,10.6,12.9,16.2c2.7,5.6,4,11.1,3.9,16.4
		c-0.1,4.9-1.8,9.2-5.3,13.1c-3.5,3.9-7.8,5.8-13,5.7c-4.7-0.1-8.2-1.3-10.6-3.7c-2.4-2.4-5-6.2-7.8-11.6c-3.6-7.7-7.9-13.7-13-18
		c-5.1-4.3-13.3-6.6-24.7-6.7c-10.6-0.1-19.1,2.1-25.6,6.6c-6.5,4.6-9.8,10.1-9.9,16.6c-0.1,4,1,7.5,3.2,10.5c2.2,3,5.2,5.5,9,7.7
		c3.8,2.2,7.7,3.9,11.6,5.1c3.9,1.2,10.4,3.1,19.5,5.5c11.3,2.8,21.6,5.9,30.8,9.2c9.2,3.3,17,7.3,23.4,12
		c6.4,4.7,11.4,10.5,14.9,17.6C348.3,592.9,350,601.5,349.9,611.7z"/>
	<path class="st6" d="M277.6,699.2L256,699c-3.8,0-6.8-3.1-6.7-6.9l3.2-250.3c0-3.8,3.1-6.8,6.9-6.7l21.6,0.3c3.8,0,6.8,3.1,6.7,6.9
		l-3.2,250.3C284.4,696.3,281.3,699.3,277.6,699.2z"/>
</g>
<path class="st0" d="M245.7,1568.3c-29.3,1.6-67.9-2.6-94.5-20C101.7,1516,47.3,1544,30.1,1559c-2.5,2.2-4.8,3.3-6.7,3.3
	c-11.1,0.4-9.4-34.5,32.1-89.3c63.4-83.8,184.9,19.4,205.2,93.8C262.3,1572.3,270.8,1566.9,245.7,1568.3z"/>
<path class="st1" d="M245.7,1568.3c-29.3,1.6-67.9-2.6-94.5-20C101.7,1516,47.3,1544,30.1,1559c-2.5,2.2-4.8,3.3-6.7,3.3
	c30.3-35.1,69.7-62.3,97.6-53.9C176.3,1525.1,195.2,1562.2,245.7,1568.3z"/>
<path class="st7" d="M312.8,1897.8c-19.4,4.9-41,3.3-46.5-7.8c-5.5-11.1,37.7-37.7,53.2-31c15.5,6.6,8.1,22.9,24.4,21.6
	c16.3-1.4,34.4,4,15.5,13.9C353.7,1897.5,333.9,1892.5,312.8,1897.8z"/>
<path class="st7" d="M91.6,1890.1c14.6,3.7,30.9,2.5,35.1-5.8c4.2-8.3-28.4-28.4-40.1-23.4s-6.1,17.3-18.4,16.2
	c-12.2-1-25.9,3-11.7,10.5C60.8,1889.8,75.7,1886.1,91.6,1890.1z"/>
<path class="st7" d="M152.8,1875.7c0,0,0,16.7,11.4,28.9c4.9,5.2,11.9,9.6,21.8,11.5c5.4,1,49.6-8.3,63.6-21.5
	c1.2-1.2,2.2-2.3,2.9-3.6l-16.6-33.6c0,0-24.4-25.5-48.8-17.7C162.8,1847.4,152.8,1875.7,152.8,1875.7z"/>
<path class="st8" d="M164.2,1904.6c4.9,5.2,11.9,9.6,21.8,11.5c5.4,1,49.6-8.3,63.6-21.5c-13.9-2-40.1-1.4-53.7,1.4
	C185.8,1898.1,172.8,1901.9,164.2,1904.6z"/>
<path class="st7" d="M367,1905.1c0,0-0.1,5.6,3.7,9.8c1.6,1.8,3.9,3.3,7.3,4c1.8,0.4,16.7-2.5,21.5-6.8c0.4-0.4,0.8-0.8,1-1.2
	l-5.4-11.4c0,0-8-8.7-16.3-6.2C370.6,1895.6,367,1905.1,367,1905.1z"/>
<path class="st8" d="M370.7,1914.8c1.6,1.8,3.9,3.3,7.3,4c1.8,0.4,16.7-2.5,21.5-6.8c-4.6-0.8-13.4-0.7-18,0.1
	C378,1912.8,373.6,1914,370.7,1914.8z"/>
<path class="st7" d="M270.3,1906.7l-11.8-12.6c0,0,2.7-2.7-5.4,5.4c-8.1,8.1-2.4,22,2,22.3c4.4,0.3,40.6-3.5,34.2-7.1
	S273.2,1909.7,270.3,1906.7z"/>
<path class="st7" d="M346.8,1913.5c-12.6,19.3-16.2,0.9-15.3-3.2c0.9-4,6.9-11.7,12-9.9C348.6,1902.2,350.2,1908.4,346.8,1913.5z"/>
<path class="st7" d="M140.1,1880.5c-14.4-0.6-5.6-8.4-3.1-9.2s8.5,0,9.1,3.3S143.9,1880.7,140.1,1880.5z"/>
<g>
	<path class="st9" d="M154.9,1921c-2.4,1.3-5.3,2.5-8.3,3.5c-4.4,1.4-9.1,2.3-13.2,2.4c-17.2,0.4-17.6-1.3-17.6,4.5
		c0,5.7-14.9,9.8-26.9,4.6c-12-5.2-22.3,13.9-48.3,12.5c-13.8-0.7,8.8-12.7,18.7-17.1c9.9-4.4-13.4-2.9-13.4-12.7
		c0-10.6,24.2-4.4,36.6-8.1c1.4-0.4,2.6-0.9,3.6-1.6c3.6-2.4,9.5-4.5,16.8-5.9c12.9-2.4,30.3-2.6,47.8,1.8
		C167.3,1909.1,164,1916,154.9,1921z"/>
	<path class="st10" d="M154.9,1921c-2.3-0.7-4.7-1.5-7.1-2.3c-19.3-6.8-17-3.1-33.2,1.4c-17.4,4.8-22.7,1.2-15.2-5.4
		c4.9-4.3,10.5-5.4,3.6-11.7c12.9-2.4,30.3-2.6,47.8,1.8C167.3,1909.1,164,1916,154.9,1921z"/>
</g>
<g>
	<path class="st9" d="M496.2,1898.8c-7.3-1.4-10.8,0.8-13.1,4.4c-3.8,6.2-3.8,16.7-12.8,20.1c-14.1,5.3-57.6,21.7-74.9,13
		c-17.8-9,39.3-11.6,47-20.7c7.7-9.1-6.2-20.4-17.1-12.9c-10.9,7.4-12.2-14.2-22.1-14c-19.4,0.4-20.9,1.1-31.6-8.1
		c-5.5-4.8-2.3-8.4,5.8-9.9c7.6-1.4,19.6-0.8,32.8,2.8c27.1,7.4,33.7-0.5,46.4-4.2c12.7-3.7,75.4,2.5,81.7,16.6
		C544.6,1899.9,516.2,1902.7,496.2,1898.8z"/>
	<path class="st10" d="M496.2,1898.8c-7.3-1.4-10.8,0.8-13.1,4.4c-1.8,0.9-4.3,2-7.9,2.9c-13.9,3.6-18.6,2.9-19.6-7.4
		c-1-10.4-1.9-5.2-7.8-5c-6,0.2-19.9,3-20.2-3.9c-0.2-7-18.4-9.6-34.7-11.4c-12.3-1.3-12.7-4.4-15.5-7.8c7.6-1.4,19.6-0.8,32.8,2.8
		c27.1,7.4,33.7-0.5,46.4-4.2c12.7-3.7,75.4,2.5,81.7,16.6C544.6,1899.9,516.2,1902.7,496.2,1898.8z"/>
</g>
<g>
	<path class="st11" d="M209.4,339.9c-0.3-4.8,0.5-17.1,0.5-17.1l13.6,0l-1.4,18.4l-9.2,5.6L209.4,339.9z"/>
	<path class="st12" d="M208.4,337.9c-1.4-0.3-0.8,1-1.3,3c-1.2,4.7-19.1,4.9-21.8,5.3c-1.4,0.2-3.6,7.1,3.4,7
		c6-0.1,25.2-0.2,31.8-0.3c1.4,0,2.6-0.9,2.9-2.2c1.1-4.5,0.8-11.5-1.1-11.6C219.4,338.3,214.3,339.2,208.4,337.9z"/>
	<g>
		<path class="st11" d="M337.6,322.6c-4.1-2.9-13.5-11.4-13.5-11.4l8.8-9.8l13.9,12.9l-1.5,10.2L337.6,322.6z"/>
		<path class="st12" d="M335.2,321.9c-1.2,0.8,0.2,1.2,1.6,2.9c3,3.9-8.4,16.9-9.8,19.1c-0.7,1.1,3.4,7.2,7.8,2.1
			c3.8-4.4,16.2-18.3,20.4-23.1c0.9-1,0.9-2.4,0.1-3.5c-2.9-3.7-8.8-8-10.1-6.7C342.8,314.3,340.1,318.5,335.2,321.9z"/>
	</g>
	<path class="st13" d="M208.3,330c13.3,2.5,18.8,2,18.8,2c1.4-8.9,5.3-55.6,11.6-70.7c6.3-15.1,25.1-59.6,25.1-59.6
		c4.5,19.4,7,42.5,15.4,62.9c13,26.5,48.2,52.9,48.2,52.9c9.7-5.9,15.7-11.3,14.2-11.7c-7.8-9.7-41.4-37.7-43.1-49.2
		c-1.2-8.5-0.1-41.9-1.4-70c-0.4-7.8-0.9-15.2-1.7-21.5c0-0.1,0-0.2,0-0.3c-0.2-1.6-0.4-3.1-0.7-4.5c-0.5-2.9-43.4-8.2-43.4-8.2
		l-8.5-2c-7.4,20.5-23.8,94.1-25.2,104.8C216.2,265.7,207.7,326.5,208.3,330z"/>
	<path class="st14" d="M257,216.4c3.9-8.4,6.9-14.6,6.9-14.6c-1.2-5.8-2.2-12.7-2.2-12.7S257.7,206.3,257,216.4z"/>
</g>
<path class="st11" d="M190.9,70.7c0,0-9.3,8.1-10.7,5.2c-5.7-11.8-10-10.5-15.5-11.8c-5.5-1.3-10.8-6.9-6.8-10
	c5.6-4.3,9.4,0.9,13.4,1.4c4,0.5,1.6-4,4-3.6c2.4,0.3,3.6,5.9,5.7,7.8C182.9,61.4,190.9,70.7,190.9,70.7z"/>
<path class="st11" d="M270,76.3l10.4-5.9c-1.2-5.2-1.1-17.9-3-22.3c-2.1-4.8-2.5-4.4-2.5-4.4l-6.6,6.5l-3.1,3.1c0,0,0.9,1.9,0.9,5.6
	c0,2.5-0.5,5.9-2,10.1C262.9,72,270,76.3,270,76.3z"/>
<path class="st15" d="M265.2,53.3c0,0,0.9,2.5,0.9,6.1c7.7,1.5,10.5-4.8,8.3-6.4c-1.4-1-6.1-2.8-6.1-2.8L265.2,53.3z"/>
<g>
	<path class="st11" d="M268.9,33.1c-2.4,3.2-10.1,7.2-7.9,8.7c2.3,1.4-5.1,6.7-2.8,8.3c5.7,3.9,14.8,4.5,17.3,2.2
		c2.6-2.3,7.2-10.4,7.2-10.4L268.9,33.1z"/>
	<path class="st12" d="M272.9,40.2c-2-1-2.3-0.6-3.2-2c-0.9-1.4,2.5-1.8,0.3-3.7c-2.1-1.9-4.7-3.8-3.2-6.7c2.2-4.2,5.3-1.3,7.2,0.5
		c1.2,1.2,3.5-1.6,6.2,0.3c2.1,1.5,1.1,2.6,2.9,4.1c1.1,0.9,4.7,0.4,5.6,3c1.7,4.8-3.2,6.2-2.2,10.9c1.2,5.4-11,7.5-11.3,6.1
		c-0.4-1.7,3.3-4.1,2.8-5.5c-0.8-2.2-1.9-1-4-0.6c-2.3,0.4-5-1.2-1.6-2.7C275.7,42.3,274.6,41.1,272.9,40.2z"/>
</g>
<path class="st14" d="M268.5,162.7c0.4,12.5,28.6,24,28.6,24l-0.9-19.4L268.5,162.7z"/>
<path class="st16" d="M280.8,61.9c-4.3-1.5-6.7,3.7-10.2,3.6c-2.2-0.1-1.9-2-2.8-3.2c-0.5-0.7-1.8-0.3-3.5-0.4
	c-4.5-0.1-17.1,89.6-17.1,89.6s10,7.3,19.1,7.9c9.1,0.6,25-4.4,25-7.6c-0.1-3.2-2.5-84.5-2.5-84.5S285.1,63.5,280.8,61.9z"/>
<path class="st17" d="M264.5,62.1c-30.1,7.7-42.7,27.1-54.1,26.8c-6.8-0.2-20-27.2-24.3-25.8c-4.1,1.3-12.7,5-12,6.8
	c1.6,4.2,22.8,36.1,34.7,36.7c11.4,0.5,33.6-14.9,38.6-10.5c3.7,3.2,2.2,21.3,0.9,27.1c-1.3,5.8-14,32.4-10.5,35.5
	c4.2,3.7,10.4,5.4,16.5-1.5c3.8-4.1,7.9-26.6,8.9-41.7c1-15.1-4.9-20.1-2.1-36.8L264.5,62.1z"/>
<g>
	<path class="st17" d="M278,106.1c-4.9,13.3-5.7,25.3-6.1,32.2c-0.4,6.8-6.7,19.4-2.9,25.6c8.6,14.2,28.7,12.5,30.6,10.3
		c2.4-2.9,0.5-9.8-1.2-16.5c-1.4-5.4,2.8-21.2,2.7-31.2c0-2.4,0.1-4.3,0.3-5.6c0.2-1.1,0.5-2.2,0.8-3.3c1.3-5,2.9-9.9,3.2-12.1l0,0
		c0-0.3,0.1-0.5,0-0.7c0,0,0,0,0-0.1c1.9,1.3,23.8,16.2,27.1,21.6c3.9,6.4,10.7,32.1,11.2,34.7c4.1-0.1,12.6,0.7,14-0.3
		c-0.4-7.5-6.1-30.6-11.3-41.6c-6.5-14-24.4-29.4-36.5-41.5c-8.1-8.1-28.2-15.5-28.2-15.5C280.6,67,284.1,89.4,278,106.1z"/>
	<path class="st18" d="M305.3,104.8l-0.1,0.9l0,0c-0.4,2.3-2,7-3.2,11.9c-0.3,1.1-0.5,2.2-0.8,3.3c-0.3,1.3-0.4,3.2-0.3,5.6
		c0,2-0.4,4.1-0.4,6.4c-0.2-0.4,0-0.8-0.2-1.3c-1.2-2.7-3.7-27-2.7-32C297.7,99.6,303,102.2,305.3,104.8z"/>
</g>
<g>
	<path class="st19" d="M271.2,69.4c0.4-0.3,5.4,7.3,11.4,10.1c1.6,0.8,3.4,1.3,5.2,1.4c5.3,0.2,16.5-1.2,23.2-2.1
		c-2.2-2-4.6-4.9-7.3-7c-4.8,1.6-12.5,4-15.3,3.7c-2.1-0.2-4-0.8-5.8-1.5c-3.4-1.4-6.3-3.6-8.5-5.5c-1.1-1-1.3-2.4-2.6-2.5
		C269.5,65.9,270.7,69.7,271.2,69.4z"/>
	<path class="st2" d="M268.2,66.5c0-0.9,0.7-2.3,2.5-2.2c1.4,0,1.5,0.6,2.7,1.6c3.5,3,8.8,6.7,15,7.3c6.2,0.6,20.2-7.6,29.4-5.7
		s12,10.1,25.3,12.1c13.2,2,27.4-3.7,31.3-3.1c3.9,0.6,6.3,1.5,6.2,3c-0.1,1.5-2,4.1-4.7,5.2c-2.7,1.1-26.8,3-33.2,2.2
		c-10.4-1.3-19.4-10.6-26.1-11.1c-6.7-0.5-20.8,3.4-28.6,3.1c-8.8-0.4-16-10.5-16.6-10.1c-0.6,0.4-1.1,0.8-2.2,0.5
		C268.2,69,268.1,67.4,268.2,66.5z"/>
</g>
<g>
	<g>
		<g>
			<path class="st20" d="M366.7,211.9c-0.3-1.2-0.7-2.4-1-3.6c6-6,8.7-14.2,6.3-21.9c-2.3-7.3-8.7-12.4-16.5-14.1
				c-4.7-1-9.9-0.9-15.1,0.7c0,0,0,0,0,0c-8.1,2.5-14.5,7.6-17.6,13.9c-2.4,4.8-2.9,10-0.9,15.2c0.3,0.7,0.6,1.7,0.7,2.5
				c-0.6,0.4-0.4,0.4-0.3,0.8c2.1,7.5,3.7,15.8,5.3,22.5c0.5,1.9,0.9,3.7,1.4,5.3c0.7,2.4,1.4,4.4,2.2,5.8c0.7,1.3,1.5,2,2.3,2.1
				c4.4,0.2,40.1-6.5,38.2-12C370.7,226.6,368.8,219.3,366.7,211.9z M326.6,202.5c-0.3,0.1-0.6,0.2-0.9,0.4
				c-0.3-0.6-0.5-1.1-0.8-1.7c-1.6-4.3-1.4-8.8,0.6-12.8c2.7-5.5,8.4-10,15.7-12.3c1-0.3,2-0.6,2.9-0.7c3.4-0.7,6.8-0.7,10-0.1
				c7.1,1.4,12.9,5.7,14.9,12.2c1.9,6-0.3,11.3-4.7,16.3c-0.1-0.2-0.1-0.4-0.2-0.6c-1.5-5-2.6-8.4-3.3-9.4c0,0,0,0,0,0
				c-0.2-0.2-0.3-0.3-0.4-0.3C359.2,193.9,336.4,198.7,326.6,202.5z"/>
			<path class="st20" d="M338.9,230.5c-37-8.4-42.8-8.2-44-10.6c-1.2-2.4-2.4-11.5-4.9-5.8c-2.4,5.7-7,15.9-4,16.4
				c3,0.6,4.7-5.4,8.2-4.6c3.5,0.8,34.8,5.4,45.5,11.4C350.3,243.2,338.9,230.5,338.9,230.5z"/>
		</g>
		<g class="st21">
			<path class="st16" d="M366.7,211.9c-0.3-1.2-0.7-2.4-1-3.6c6-6,8.7-14.2,6.3-21.9c-2.3-7.3-8.7-12.4-16.5-14.1
				c-4.7-1-9.9-0.9-15.1,0.7c0,0,0,0,0,0c-8.1,2.5-14.5,7.6-17.6,13.9c-2.4,4.8-2.9,10-0.9,15.2c0.3,0.7,0.6,1.7,0.7,2.5
				c-0.6,0.4-0.4,0.4-0.3,0.8c2.1,7.5,3.7,15.8,5.3,22.5c0.5,1.9,0.9,3.7,1.4,5.3c0.7,2.4,1.4,4.4,2.2,5.8c0.7,1.3,1.5,2,2.3,2.1
				c4.4,0.2,40.1-6.5,38.2-12C370.7,226.6,368.8,219.3,366.7,211.9z M325.7,202.9c-0.3-0.6-0.5-1.1-0.8-1.7
				c-1.6-4.3-1.4-8.8,0.6-12.8c2.7-5.5,8.4-10,15.7-12.3c1-0.3,2-0.6,2.9-0.7c3.4-0.7,6.8-0.7,10-0.1c7.1,1.4,12.9,5.7,14.9,12.2
				c1.9,6-0.3,11.3-4.7,16.3c-0.1-0.2-0.1-0.4-0.2-0.6c-1.6-5.6-1.7-8.1-3.3-9.4c0,0,0,0,0,0c-0.1-0.1-0.3-0.2-0.4-0.3
				c-1.1-0.6-23.9,5.2-33.8,9.1C326.3,202.6,326,202.7,325.7,202.9z"/>
			<path class="st16" d="M338.9,230.5c-37-8.4-42.8-8.2-44-10.6c-1.2-2.4-2.4-11.5-4.9-5.8c-2.4,5.7-7,15.9-4,16.4
				c3,0.6,4.7-5.4,8.2-4.6c3.5,0.8,34.8,5.4,45.5,11.4C350.3,243.2,338.9,230.5,338.9,230.5z"/>
		</g>
	</g>
	<path class="st22" d="M345.7,160.9c-0.7,2.5-0.6,1.2-2,4.5c-1.4,3.2-5.6,6.7-4,7.5c1.7,0.7,3.2-0.3,4.1-0.6
		c0.9-0.3-0.4,1.4,0.4,3.2c0.8,1.7,5,3.2,7.2,2.2c2.1-1,3.8-3.4,4.4-6.7c0.5-3.3,0.8-10.1-0.7-10
		C350.3,161.2,345.7,160.9,345.7,160.9z"/>
</g>
<path class="st23" d="M333.4,241c-0.8,0-1.6-0.8-2.3-2.1c2.7-0.3,5.4-1,8.2-1.9c1.2-0.4,2.5-0.9,3.7-1.5
	c12.2-5.5,22.8-16.2,23.8-23.7c2.1,7.4,4,14.7,4.9,17.1C373.5,234.6,337.7,241.2,333.4,241z"/>
</svg>
