<?xml version="1.0" encoding="utf-8"?>
<!-- Generator: Adobe Illustrator 26.1.0, SVG Export Plug-In . SVG Version: 6.00 Build 0)  -->
<svg version="1.1" id="Layer_1" xmlns="http://www.w3.org/2000/svg" xmlns:xlink="http://www.w3.org/1999/xlink" x="0px" y="0px"
	 viewBox="0 0 899.2 1026.9" style="enable-background:new 0 0 899.2 1026.9;" xml:space="preserve">
<style type="text/css">
	.st0{fill:#F5B1B4;}
	.st1{fill:#EFAEA6;}
	.st2{fill:#244798;}
	.st3{fill:#333344;}
	.st4{fill:#FFFFFF;}
	.st5{opacity:0.28;fill:#070716;enable-background:new    ;}
	.st6{opacity:0.38;fill:#1F1F39;enable-background:new    ;}
	.st7{fill:#F4AD00;}
	.st8{opacity:0.14;fill:#1F1F3B;enable-background:new    ;}
	.st9{opacity:0.17;fill:#070716;enable-background:new    ;}
	.st10{fill:#2E2E49;}
	.st11{fill:#0067A7;}
</style>
<path class="st0" d="M136.4,117.4c-7.3-3.6-20.2-8.7-30.4-11.9c-10-3-19.9-6.4-27.2-12.8c-9.6-8.5-42-24.5-44.6-22.8
	C25.3,75.6,58,88.6,60.6,94.6c3.2,7.6-15,16-1.2,25.1c6.2,4.1,13.6-0.4,30.1,7c9.9,4.4,30.6,18,35.3,18.2
	C129.4,145.1,136.4,117.4,136.4,117.4z"/>
<path class="st1" d="M483,685c13.2,25.9,27.9,52.4,40.4,79.5c37.9,81.9,249.5,16.5,260.1,19.3c22.6,6,25.4,12.5,31,19.1l20.8,21.4
	l16.7-36.6l-28.2-37.1c0,0-232.8,6.3-244.8-15.5c-4.7-8.6-13.9-36.4-23.4-67c-2.8-9-5.5-18.2-8.3-27.3
	C536,602.1,526,566.6,526,566.6c-2.7-5.8-14-59-13.4-65.3c1.6-16.9-33.8-97.2-67.8-71.2c-55.9,42.8-45.3,93.2-45.3,93.2
	s34.9,67,76.7,148.6L483,685z"/>
<path class="st2" d="M796.2,748.4c6.5-5.4,23-16,42.3-6c18.8,11.1,41.7,11.8,41.7,11.8l-0.7,6.9c0,0-31-4.4-37.5,1.4
	c4.4,11,35.1,54.6,33.1,64.1c-3,14.5-13.2,33.3-17.7,37c-5.4,4.5-18.4,13.5-18.2,2c0.5-22.3-8.7-45.4-8.7-45.4s-0.1-1.5,1.3-1.4
	c3.1,0.1,8.3,0.1,7-12.8c-1.7-17.1-28.7-43.9-42.5-52.9C794.8,752,794.7,749.6,796.2,748.4z"/>
<g>
	<path class="st1" d="M471.9,453.6l-25.3,9.2c-0.9,0.3-1.8,0.8-2.5,1.5c-9.3,8.2-60.6,46.1-82.4,65.4c-0.2,0.1-8.3-30.4-23.5-18.8
		c-19,14.4-76,109.2-88,144.5c-15.5,45.5-83.2,248-90,259.4c-6.7,11.4-16.4,17.7-37.7,23.1c-0.2,0.1-0.4,0.1-0.6,0.1l0,0
		c-8.6,1.4-9,13.9-0.5,15.7l35.9,7.8c0.8,0.2,1.7,0.2,2.5,0.1l22.2-2.5c2.7-0.3,5.1-2,6.3-4.5c0,0,125.4-267.1,135.2-285.3
		s114.3-132.9,114.3-132.9c1.9-1.4,30.4,29.4,32.7,30c7.9,2.2,29.7,3.1,62.5-36.4c9.9-11.9-1-39.2-4.7-47.7c-0.7-1.6-2-3-3.5-3.8
		L478.1,454C476.2,453,474,452.8,471.9,453.6z"/>
	<path class="st2" d="M156.5,979.1c-7.3-1.9-31.1-3.9-48.7-6.5c-7.8-1.2-14.4-2.4-17.7-3.9c-0.3-0.1-0.6-0.3-0.9-0.4
		c-8.9-4.9-27.1-17.9-28.3-23.9c-1.3-6,7.7-13.6,19.2-13.8c4.8-0.1,12.4,1.1,19.5,2.5c7.3,1.5,14.2,3.2,17.2,3.9
		c1.1,0.3,1.7,0.4,1.7,0.4s1.2,0.7,0.4,1.8c-1.8,2.3-4.6,6.4,6,12.7c14.1,8.4,49.6,2.7,64-2.9c1.7-0.6,3.4,0.5,3.6,2.3
		c0.6,8-0.2,27-18.6,36.3c-18.8,8.2-31.9,25.6-31.9,25.6l-4.9-4.5C137,1008.9,157.3,987.4,156.5,979.1z"/>
</g>
<path class="st3" d="M565,677.5c-5.4,14.4-88.8,12.4-137-2.1c-44.4-13.3-161.4-35.5-171.9-58.8c-6.9-15.4,71.6-97.7,107.8-218.5
	c55.6,17.6,140-31.6,140-31.6s0.5,0.8,1.5,2.4c5.7,9.1,26.2,42.6,38.9,74.6c5.1,12.8,8.9,25.3,10,35.9c3.2,30.9-14,94.2-9.1,137.8
	C548.3,646,571.1,661.4,565,677.5z"/>
<path class="st4" d="M394.1,136.5L370.6,151l-26.7,134.7c0,0,15.3,80.9,35.2,108.5c25.9,35.9,101.4-8.6,97.7-17
	C442.6,300.6,423.3,135,423.3,135L394.1,136.5z"/>
<path class="st5" d="M544.3,443.5c-44.3,26.2-111-14.4-111-14.4l64-51.9l8.1-8.3C511.2,378,531.7,411.5,544.3,443.5z"/>
<path class="st2" d="M613.6,288.8c4,33.2-9.6,114.4-11,120.7c-1.5,6.3-36.4-0.4-37.2-2.9c-0.8-2.7,10.3-92.4,6.3-103.7
	c-6.6-18.4-72.3-75.1-80.5-67.4c-9.8,9.2-17.4,54.2-11.5,84.4c1.2,6.4,3.1,12.1,5.7,16.8c14.9,26.5,45.1,56.2,44.2,70.8
	c-0.9,14.6-87.5,38-96.3,27.1c-10.3-12.7-10.1-98.6-18.9-120.4c-7.9-19.4-25.8-54.1-15.2-82.7c7.9-21.1,16.9-64.4,21.2-85.7
	c0.1-0.3,0.1-0.6,0.2-0.9c1.4-7.1,2.2-11.5,2.2-11.5c5.7,1.3,12.3,3.6,19.4,6.7c15.9,6.8,34.7,17.5,53.6,29.9
	C545.9,202.5,610.3,261.2,613.6,288.8z"/>
<path class="st2" d="M350.5,259.6c-7,27.6,33.4,92.2,39.5,142.3c0.1,0.7,0.2,1.3,0.2,2c0.9,8.5,0.8,16.6-0.8,24
	c-2.1,10-16.1,18-25.5,19.6c-6.5,1.1-11.5-1.5-10.9-8.6c5.6-64.1-34-115.2-38.8-185.2c-1.1-15.8,9.7-20.8,5-28.9
	c-11.4-19.5-95-25.7-117-36.8c-26.7-13.5-79.1-38.5-110.9-50.4c-10.7-4,4.2-43,10.6-40.7c23.7,8.6,95.9,37.3,117,44.9
	c26.4,9.5,90.7,10.2,154.9,7.1c0.9,0-1.9,5.8-2.1,15.7c-0.2,7.5-1.5,16.6-1.8,26.9C369,220.9,358.8,226.9,350.5,259.6z"/>
<g>
	<path class="st6" d="M354.2,412.4l-0.7,18.4c0,0,73.3,3.6,89.5,4.9c21.2,1.6,99.8,6,99.8,6l-10.4-33.4L354.2,412.4z"/>
	<path class="st7" d="M746.8,223.5c0,0-431.9,45.8-425.7,30.4c6.2-15.4,29.4-58.9,6.4-49.8c-23,9-162.3,105-163.9,136
		c-1.6,31,151.9,141.8,160.2,140.1c9.9-2-12-61.1-5.4-60.2c6.7,0.9,430.9,28.6,449.1,14.9C774.1,429.9,773,220.3,746.8,223.5z"/>
	<path class="st8" d="M500.2,247.5c26.5,18.3,54,51.2,62.4,61.7c9.2,11.6-0.1,100.7-1.6,106.4c-1.4,5.7-26.5,17.1-18.9,18.9
		c6.4,1.6,46.8-0.1,46.8-0.1l4.9-127.1l-35.5-52.7l-23.1-11.1L500.2,247.5z"/>
</g>
<path class="st9" d="M420.2,154.8c13.1,30.2,29.1,34.4,38.5,35.7c9.4,1.3,24.5-6.2,32.9-4c6,1.6,16.8,13.1,29.5,13.1
	c12.7,0,17.6,2.2,17.6,2.2L522.3,189l-90.5-35.3L420.2,154.8z"/>
<g>
	<g>
		<path class="st0" d="M355.6,85.4c1.6,3.4,8.3,2.5,7.6,5.9c-0.7,3.4-3.7,5.6-0.1,7.4c2.4,1.2,5.1,1.3,2,3.1
			c-1.2,0.7-3.5-0.5-1.7,3.8c1.7,4.3-5.9,17,0.7,19.7c2,0.8,7.1-1.2,12.2-1.8c3.4-0.4,6.8-0.2,9.1,2.1c3.4,3.4-1.1,10-5.1,16.3
			c-2,3.1-3.8,6.1-4.6,8.6c-2.4,7.6-0.4,55.7,4,55c11-1.7,9.8-31.8,39.2-50c35.1-21.7,1.6-66.9,1.6-66.9l-7.6-27.1l-41.5-11.1
			c-3.9,9.5,1.1,15.7-6.3,24.2C359.3,81.4,354,82,355.6,85.4z"/>
		<path class="st10" d="M628.1,197.8c-12.3,9.9-60.2-39.3-95-8.5c-13.8,12.2-25.3-3.4-39-7.9c-2.3-0.7-4.6-1.2-6.9-1.2
			c-9,0.1-14.1,1.9-21.8,1.2l0,0c-1.8-0.2-3.7-0.5-5.9-1c-1.8-0.4-3.8-1-5.9-1.7c-3.9-1.3-8.5-3.1-14-5.7
			c-5.8-2.7-10.7-6.8-14.8-11.7l0,0c-0.1-0.2-0.3-0.3-0.4-0.5c-14.8-18-19.6-46.2-23.1-56.4c-1.2-3.5-0.7-8.5,1.9-11.1
			c3.4-3.6,7.8-8,5.5-12.7c-2.1-4.4-8.2-4.3-9.9-1.4c-4.3,7.1-8.9,8.8-8.6-0.9c0.4-16-8.6-20.9-13-22.1c-2.9-0.8-4.9-2-6.3-3.4l0,0
			c-5.3-5.5-1.1-14.5,0.7-17.8c8.5-15.6,28-16.3,51.1-9.2c32.6,10.1,38.5,59.7,46.3,66.1s16.3-4.6,37.4,7.9
			c24.6,14.6,20.1,27.7,28.7,33.4c7.6,5,22.9,2.9,40.8,7.1C606.2,147.4,647.5,182.2,628.1,197.8z"/>
	</g>
	<path class="st9" d="M385.4,125.6c3.4,3.4-1.1,10-5.1,16.3c8.4-5.3,15.8-16.9,15.1-19.4c-1.2-4.1-12.5-0.7-19.1,0.9
		C379.8,123,383.1,123.3,385.4,125.6z"/>
</g>
<path class="st0" d="M596.8,405.1c-0.4,10.3-0.7,29.4-10.5,36.5s-34.6,7.5-41.1-1.2s17.3-11.9,18.8-14.4c4.6-8,10.1-26.1,7-31.8
	C567.9,388.6,596.8,405.1,596.8,405.1z"/>
<path class="st11" d="M510.2,234.2c0,0-2.4,7,0.2,8.7c2.6,1.7,60.3,55.5,61.4,64.3c3.1,23.9-3.1,95-6.9,103.9
	c-2.2,5.1,40.4,9.9,42.1,5.8c1.7-4.1,7.1-93.9,8.1-114.6c0.8-17.6-35.3-64.7-43.2-71.7C563.9,223.6,510.2,234.2,510.2,234.2z"/>
</svg>
