<?xml version="1.0" encoding="utf-8"?>
<!-- Generator: Adobe Illustrator 26.1.0, SVG Export Plug-In . SVG Version: 6.00 Build 0)  -->
<svg version="1.1" id="Layer_1" xmlns="http://www.w3.org/2000/svg" xmlns:xlink="http://www.w3.org/1999/xlink" x="0px" y="0px"
	 viewBox="0 0 1370.1 1654.7" style="enable-background:new 0 0 1370.1 1654.7;" xml:space="preserve">
<style type="text/css">
	.st0{fill:#F4AD00;}
	.st1{opacity:0.28;fill:#1F1F39;}
	.st2{fill:none;stroke:#FFFFFF;stroke-width:1.3556;stroke-linecap:round;stroke-linejoin:round;stroke-miterlimit:10;}
	.st3{fill:none;stroke:#FFFFFF;stroke-width:1.4408;stroke-linecap:round;stroke-linejoin:round;stroke-miterlimit:10;}
	.st4{fill:#EFAEA6;}
	.st5{opacity:0.14;fill:#1F1F3B;}
	.st6{fill:#1F1F3B;}
	.st7{fill:#FFFFFF;}
	.st8{fill:#3B3B4D;}
	.st9{opacity:0.46;fill:#1F1F3B;}
	.st10{opacity:0.62;fill:#1F1F3B;}
	.st11{opacity:0.43;fill:#1F1F3B;}
	.st12{fill:#0069A8;}
	.st13{opacity:0.25;fill:#1F1F3B;}
	.st14{fill:#201B2C;}
	.st15{fill:#EEADA5;}
	.st16{fill:#603A3E;}
	.st17{fill:#775155;}
	.st18{opacity:0.26;fill:#1F1F39;}
	.st19{fill:#0267A4;}
	.st20{fill:none;stroke:#FFFFFF;stroke-width:2.4954;stroke-linecap:round;stroke-linejoin:round;stroke-miterlimit:10;}
	.st21{fill:none;stroke:#FFFFFF;stroke-width:2.6521;stroke-linecap:round;stroke-linejoin:round;stroke-miterlimit:10;}
	.st22{opacity:0.12;fill:#1F1F39;}
	.st23{fill:none;stroke:#FFFFFF;stroke-width:2.2948;stroke-linecap:round;stroke-linejoin:round;stroke-miterlimit:10;}
	.st24{fill:none;stroke:#FFFFFF;stroke-width:2.439;stroke-linecap:round;stroke-linejoin:round;stroke-miterlimit:10;}
	.st25{fill:none;stroke:#FFFFFF;stroke-width:2.0142;stroke-linecap:round;stroke-linejoin:round;stroke-miterlimit:10;}
	.st26{fill:none;stroke:#FFFFFF;stroke-width:2.1407;stroke-linecap:round;stroke-linejoin:round;stroke-miterlimit:10;}
	.st27{fill:none;stroke:#FFFFFF;stroke-width:2.286;stroke-linecap:round;stroke-linejoin:round;stroke-miterlimit:10;}
	.st28{fill:none;stroke:#FFFFFF;stroke-width:2.4296;stroke-linecap:round;stroke-linejoin:round;stroke-miterlimit:10;}
	.st29{fill:none;stroke:#FFFFFF;stroke-width:1.7555;stroke-linecap:round;stroke-linejoin:round;stroke-miterlimit:10;}
	.st30{fill:none;stroke:#FFFFFF;stroke-width:1.8658;stroke-linecap:round;stroke-linejoin:round;stroke-miterlimit:10;}
	.st31{fill:none;stroke:#FFFFFF;stroke-width:1.3956;stroke-linecap:round;stroke-linejoin:round;stroke-miterlimit:10;}
	.st32{fill:none;stroke:#FFFFFF;stroke-width:1.4832;stroke-linecap:round;stroke-linejoin:round;stroke-miterlimit:10;}
	.st33{fill:none;stroke:#FFFFFF;stroke-width:1.5038;stroke-linecap:round;stroke-linejoin:round;stroke-miterlimit:10;}
	.st34{fill:none;stroke:#FFFFFF;stroke-width:1.5983;stroke-linecap:round;stroke-linejoin:round;stroke-miterlimit:10;}
</style>
<g>
	<g>
		<g>
			<path class="st0" d="M119.5,394.8c5.2,9.4,17,12.8,26.4,7.7c2.5-1.4,4.5-3.2,6.1-5.3c1.2-1.6,2.1-3.3,2.8-5.2
				c1.8-5.1,1.5-10.8-1.3-15.9c-5.2-9.4-17-12.8-26.4-7.7c-6.1,3.4-9.7,9.5-10,16c0,0.9,0,1.8,0,2.7
				C117.4,389.7,118.1,392.3,119.5,394.8z"/>
			<path class="st1" d="M119.5,394.8c5.2,9.4,17,12.8,26.4,7.7c2.5-1.4,4.5-3.2,6.1-5.3c-25,7.8-31.5-4.7-34.7-14.6
				c-0.1,0.6-0.2,1.2-0.2,1.8c0,0.9,0,1.8,0,2.7C117.4,389.7,118.1,392.3,119.5,394.8z"/>
			<g>
				<path class="st2" d="M138.8,371.1c-0.9-0.1-1.9-0.1-2.9,0.1"/>
				<path class="st2" d="M151.1,384c-0.7-4.4-3.9-10.5-9.7-12.4"/>
			</g>
		</g>
		<g>
			<path class="st0" d="M85.5,308.5c-25.9-12.4-49-17.2-57.8-49.2c-20.8-73.1,94.7-110,121.7-39.2c9.1,23.9-19.1,29-24.1,12.4
				c-5.9-19.9-23.4-26.5-43.6-20.8c-20.9,5.9-33.3,18.5-26.1,39.9c6.2,25.1,34.2,29.1,53.3,40.5c21.9,11.3,27,45.4,29.6,54.6
				c2.6,9.3-22.4,18.7-26.1,6.5C108.8,341.1,103.3,316.7,85.5,308.5z"/>
			<path class="st3" d="M90.2,189.3c-1.3,0.1-2.5,0.3-3.8,0.5"/>
			<path class="st3" d="M141,222.4c-3.2-12.6-17-33.1-45.1-33.4"/>
		</g>
	</g>
	<g>
		<path class="st4" d="M698.2,728.3l-35.4-6c-1.9-15.6,7.7-51.9,8.7-66.2c1.1-15.7,22.4-30.2,22.4-30.2l14.9,31.1l-0.4,2.8
			c0,0,0.2,27.3,6.2,39.1c3.5,6.8,2.9,17.4,11.5,27.4C732.6,733.7,698.2,728.3,698.2,728.3z"/>
		<path class="st5" d="M705,648.8l-5-1.9c0,0-11.4,10.1-14.3,14.2c-4.4,6,6.9,25.8,24.4,20L705,648.8z"/>
		<g>
			<path class="st4" d="M699.7,597.3c9,9.7,35.8,20.6,28.8,26.2s19.1,20.5,11.8,26.6c-17.5,15-47.2,20.1-56.4,13.2
				c-9.2-6.9-27.1-32.2-27.1-32.2L699.7,597.3z"/>
			<path class="st6" d="M689,622.1c6.2-3.9,7.4-2.7,9.9-7.8c2.5-5.1-8.7-5.1-2.3-12.3c6.4-7.2,14.2-14.1,8.3-23.3
				c-8.6-13.2-17.9-2.6-23.5,4.2c-3.6,4.4-12.1-4.2-20.4,3.1c-6.5,5.7-2.6,9.1-8.2,14.5c-3.4,3.2-15.3,2.9-17.5,11.9
				c-4.1,16.6,12.6,19.6,10.7,35.4c-2.2,18.4,38.6,21.1,39.3,16.3c0.8-5.6-12.2-12.4-10.9-17.5c2-7.6,5.9-3.9,13-3.3
				c7.6,0.6,15.9-5.6,4.4-9.4S683.4,625.6,689,622.1z"/>
		</g>
		<path class="st7" d="M782.2,1594.1c1.5-15.3,0.4-54.2,0.4-54.2l-42.4-1.5l2.3,58.4l28,18.6L782.2,1594.1z"/>
		<path class="st6" d="M785.6,1581.5c3.6-2.7,11.5,6.9,13.2,13.3c3.8,14.7,51,16.6,59.5,18c4.3,0.7,11.4,22.4-10.3,22.3
			c-18.7-0.1-78.6-0.1-99.1-0.3c-4.3,0-8-2.8-9.1-6.8c-3.7-14.2-4.1-47.6,1.6-48.1C749,1581.4,772,1591.9,785.6,1581.5z"/>
		<path class="st7" d="M619.3,1594.3c1.6-15.3,0.7-54.2,0.7-54.2l-42.4-1.7l1.9,58.4l27.9,18.7L619.3,1594.3z"/>
		<path class="st6" d="M624,1576.9c4.6,0.3,3.7,4.6,5.3,11c3.6,14.8,57.4,24.4,65.9,25.8c4.3,0.7,11.1,22.5-10.5,22.2
			c-18.7-0.2-78.6-0.8-99.1-1.2c-4.3-0.1-8-2.9-9-6.9c-3.6-14.3-4.9-53.5,0.8-53.9C585.1,1575.7,603.2,1575.6,624,1576.9z"/>
		<path class="st8" d="M558.7,1087.1c0.5,6.9,1.3,14.5,2.2,22.7c3.7,31,11.4,135.5,9.5,201.9c-1.9,66.1,2,232.6-1.7,242.8
			c-3.7,10.2,65.9,14.3,66.6,2c0.7-12.3,5.4-128,11-239.6c4.6-90.7,5.9-81.6,22.6-197l0,0c0.2,0.5,4.2,11.8,10.2,29.1
			c12.6,36.9,33.8,101.5,43.9,148.2c15.8,72.9,7.5,262.9,14.2,269.5c4,8.5,53,12.7,61.9-3.4c0,0,3.8-235-3.2-271.8
			c-4.7-25-44.8-270.3-53.8-336.1c0,0-176.5-38.5-181.9,21.8c-0.7,8.2-1,15.5-0.9,22.5c0.1,9.4-0.4,18-0.9,27.6
			C557.4,1042.8,556.6,1060.5,558.7,1087.1z"/>
		<path class="st9" d="M653.3,1086.8C653.3,1086.8,653.3,1086.8,653.3,1086.8c0.3-0.1,0.5-0.2,0.5-0.2
			C653.7,1086.6,653.3,1086.8,653.3,1086.8z"/>
		<path class="st10" d="M668.8,1119.9L668.8,1119.9c0.2,0.6,8,22.4,13.9,39.7l-10.3-73.4C672.4,1086.2,670.5,1096.8,668.8,1119.9z"
			/>
		<path class="st11" d="M557.6,1069c1.5-0.3,69.5-14.8,78.7-48.9c0,0-59.1,5.1-78.1,7.1C557.4,1042.8,557,1060.2,557.6,1069z"/>
		<path class="st7" d="M663.6,686.5c15.3-4.1,16.8,21.1,32.2,22.3c8.1,0.6,6.3-2.9,10.2-6.7c2.4-2.3,4.6-4.9,8.3-1.1
			c76.1,78.1-3.1,274.9,6.5,288.6c7.9,11.2-56.5,35.8-96.9,25.9c-55.5-13.5-52.1-73.8-50.5-85.3c1.6-11.5,37.3-207,37.3-207
			S638.9,708.5,663.6,686.5z"/>
		<path class="st12" d="M663.9,846.7c-2.4,30-13.7,73.3-20.9,97.4c-13.1,43.5,4.8,67.6-12.9,86.2c-21.3,22.5-71.3,32.6-88.5,9.8
			c-13.7-18.3,11.7-62.8,21.6-105.5l0,0c4.5-19.5,8.1-37.1,7.9-47.9c0-0.6,0-1.1,0-1.7c0-2.6-0.1-5.1-0.2-7.3
			c-0.1-2.8-0.2-5.3-0.3-7.7c-0.2-4.2-0.4-8-0.5-11.6c-0.4-8.4-0.7-16.1-0.5-27.7c0-1,0-2,0-3c0.1-6.5,0.4-14.3,0.9-23.9
			c1.4-29.3,9.8-69.4,23.1-83.2c31.6-33,70.2-33.9,70.2-33.9C665.1,704.5,669,782.8,663.9,846.7z"/>
		<path class="st13" d="M597.9,804.8c0,0-4,46.8-26.9,80.2c0-2.6-0.1-5.1-0.2-7.3c-0.1-2.8-0.2-5.3-0.3-7.7c-0.2-4.2-0.4-8-0.5-11.6
			c-0.4-8.4-0.7-16.1-0.5-27.7L597.9,804.8z"/>
		<g>
			<path class="st12" d="M589.9,718.6c-59,68.6-107.7,134.1-111,141.7c-9,20.3-17.5,148.3-16,156.2c1.5,7.9,43.5,3.1,45.8-2.3
				c2.7-6.3,2.5-97.6,15.7-126.7c8.2-18.2,103.7-123,113.7-135.2c10-12.1,12.3-60.7-8.9-56.2C608.1,700.5,589.9,718.6,589.9,718.6z"
				/>
			<g>
				<path class="st14" d="M461.8,1088.6l7.1,0.2l0.1-4.8l0.2-8.9l0.1-1.9c0.1-4.4,2.1-8.2,4.8-9.7l0,0c0.9-0.5,1.9-0.8,3-0.8l25,0.6
					l2.1,0.1c4,0.1,7.1,4.5,7.3,10c0,0.3,0,0.5,0,0.8l0,0.1l0,1.7l-0.2,8.9l-0.1,5l0,0.1l7.1,0.2l0.1-5.1l0.2-8.9l0.2-8.2
					c0-0.5,0-0.9,0-1.4c-0.2-3.5-1.2-6.7-2.9-9c-1.7-2.5-4.2-4-6.9-4.1l-6.8-0.2l-0.2,0l0,0l-0.5,0l-0.3,0l-28.3-0.7
					c-1.4,0-2.7,0.3-3.9,1l0,0c-3.7,2.1-6.4,7.1-6.5,13.1l-0.2,8.5l-0.2,8.9L461.8,1088.6z"/>
				<path class="st15" d="M500.9,1015.2c1.2,8.2,3.4,6,6.5,16.6c3.1,10.6,12.4,25.3,6.9,27c-5.5,1.7-9.8-4.6-12.5-5.9
					c-2.7-1.3,3.5,4.9,0.3,10.1c-3.2,5.2-17,8.4-23.3,4.4c-6.3-4-10.8-12.1-11.3-22.7c-0.5-10.6,4.5-25.1,5.5-29.8
					C474,1010.2,500.9,1015.2,500.9,1015.2z"/>
				<path class="st14" d="M501.4,1053l0.7,2.5l0,0l0,0l0,0l0.9,3.3l0,0l1.2,4.3c4,0.1,7.1,4.5,7.3,10.1c0,0.3,0,0.5,0,0.8l0,0.1
					l0,1.7l-0.2,8.9l-0.1,5l7.1,0.2l0.1-5l0.2-8.9l0.2-8.2c0-0.5,0-0.9,0-1.4c-0.2-3.5-1.2-6.7-2.9-9l0,0c-1.7-2.5-4.2-4.1-6.9-4.1
					l-6.8-0.1l-0.2,0l0,0L501.4,1053z"/>
				<path class="st16" d="M596.7,1108.8l-1.8,99c-0.1,5.9-4.9,10.5-10.8,10.4l-0.3,0l-176.5-1c-19.9-0.4-19.5-14.4-19.4-20.3
					l-1.1-93.4c0.1-5.9,7.5-21.2,23.4-20.7l157,2.8l5.9,0.1C586,1086,596.9,1095.6,596.7,1108.8z"/>
				<path class="st17" d="M596.7,1108.8l-1.8,99c-0.1,5.9-4.9,10.5-10.8,10.4l-0.3,0c-1.9-5.9-3.1-15.2-1.8-29.8
					c3-35.3-6.4-75.5-14.8-102.8l5.9,0.1C586,1086,596.9,1095.6,596.7,1108.8z"/>
			</g>
		</g>
		<g>
			<path class="st18" d="M698.9,712.8c-1.5,0.4-2.4,1.8-3.1,3c-0.9,1.6-1.4,3-2.4,2.4c-1.3-0.8-12.6,17.7-29.3,27.9
				c-5.3,3.3-12.5,6.4-18.8,7c-2.4,0.2-19.1,1.3-25.9,0.7c-11.3-1-56-3.8-56-3.8s19.1-23.8,21.7-25.9c10.4,2.8,40.3,10.1,48.4,11.3
				c4,0.6,7.6,0.8,10.5,0.4c1.3-0.2,2.6-0.5,3.9-0.7c5.7-1.3,11-3.4,16-6c9.4-4.9,17.3-11.5,23.4-17.3c3.3-3.2,3.6-4.6,7.7-5.2
				c0,0,0.1,0,0.1,0C697,709.2,700.7,712.3,698.9,712.8z"/>
			<path class="st0" d="M368.9,763.2c0.5,4.6,6.6,11.9,14.9,14.8c1.9,0.6,6.9,1.2,13.9,1.7c24,1.7,70.5,2.2,85.1-0.4
				c15.2-2.7,29-11.1,41.6-19.3c12.8-8.4,24.3-16.5,34.3-17.8c19.2-2.5,59.5,6.4,83.2,4.9c0.8,0,1.5-0.1,2.3-0.2
				c26-2.6,45.8-33.8,47.6-32.7c1.2,0.7,2.4,1.5,4.1,1.5c0.7,0,1.6-0.1,2.6-0.4c2.3-0.7,2.3-5.3,2-7.9c-0.3-2.6-2.3-6.7-7.8-6.3
				c-4.1,0.3-4.4,2-7.7,5.2c-8.2,7.7-19.6,17-33.5,21.6c-3.1,1.1-6.4,1.9-9.8,2.4c-16.7,2.6-54.2-16-81-13.7
				c-2.5,0.2-4.9,0.6-7.2,1.2c-26.9,7.1-34.2,31.8-73.2,39.7c-39,7.9-81.9-6.9-93.4-4.4C375.3,755.8,368.4,758.7,368.9,763.2z"/>
		</g>
		<path class="st4" d="M836.1,687.6c-5.6-23.4-32.4-42.6-41.4-54.6c-5.1-6.7-34.9-2.1-32,4.1c3,6.2,18.2-6.8,25.4,9.8
			c2.7,6.3-16.2,12.2-12.6,20.8c3.5,8.6,23.1,5.4,27,21.8C806.3,706.1,836.1,687.6,836.1,687.6z"/>
		<path class="st12" d="M687.1,1012.9c0.4,15.9,4.7,21,10.8,26.4c10.8,9.8,37.6,30,55.7,11.4c1-1,2-2.2,2.9-3.4
			c24.3-32.6,6.8-122.5,4.3-144.5c-1-8.9-3.2-20.8-5.2-33.2c-2.4-15.4-0.8-44.6,12.4-46.4c16.5-2.3,112.3,42.2,137,16.5
			c22.3-23.2-56.9-161.8-66.9-173.2c-3.7-4.3-44.3,15.8-42.6,24.3c3,15.2,50.7,88.8,47.8,92.7c-6.1,8.1-57.4-47.3-128-82.1
			c0,0-0.4,2.6-0.4,8.4c-0.1,4.8,0.1,11.9,1,21.6c0.5,5.7,1.2,12.2,2.2,19.8c6.2,47.6-20.9,81.4-15.4,139
			c2.4,24.8,1.9,49.9,0.9,72.8C702.4,986.7,686.8,996.3,687.1,1012.9z"/>
	</g>
	<g>
		<g>
			<path class="st19" d="M400.6,577.4c11.1,16.4,33.3,20.7,49.7,9.6c4.3-2.9,7.8-6.6,10.4-10.7c1.9-3.1,3.4-6.5,4.3-10
				c2.5-9.6,1-20.1-5-28.9c-11.1-16.4-33.3-20.7-49.7-9.6c-10.6,7.2-16.2,19-15.7,31c0.1,1.6,0.2,3.2,0.5,4.9
				C395.8,568.4,397.6,573.1,400.6,577.4z"/>
			<path class="st1" d="M400.6,577.4c11.1,16.4,33.3,20.7,49.7,9.6c4.3-2.9,7.8-6.6,10.4-10.7c-44.5,18.4-58.5-3.4-66-21
				c-0.1,1.1-0.1,2.2-0.1,3.4c0.1,1.6,0.2,3.2,0.5,4.9C395.8,568.4,397.6,573.1,400.6,577.4z"/>
			<g>
				<path class="st20" d="M432,530.6c-1.7,0-3.4,0.2-5.3,0.6"/>
				<path class="st20" d="M456.7,552.3c-2-8-8.8-18.7-19.9-21.1"/>
			</g>
		</g>
		<g>
			<path class="st19" d="M323.9,424.9c-49.5-18.5-92.7-23.4-114.1-80.5c-50.4-130.5,155.2-217.5,216.6-92.1
				c20.7,42.3-30.2,56.4-42,26.7c-14.2-35.5-47.2-44.7-83.4-30.8c-37.3,14.4-58,39.4-41.3,77.5c15.6,44.9,67.6,47.7,104.5,65.3
				c42,17.1,57,78.7,63.3,95.2c6.3,16.6-37.9,38.1-46.7,16.3C372.1,480.7,357.9,436.9,323.9,424.9z"/>
			<path class="st21" d="M312.5,205.5c-2.3,0.4-4.6,0.9-6.9,1.6"/>
			<path class="st21" d="M411.2,257.7c-7.9-22.6-36.7-57.8-88.3-53.6"/>
		</g>
	</g>
	<g>
		<g>
			<path class="st0" d="M1098.8,785.6c-4.1,17.7,6.9,35.4,24.6,39.5c4.7,1.1,9.3,1.1,13.7,0.3c3.3-0.6,6.5-1.8,9.4-3.4
				c8-4.3,14.1-11.9,16.4-21.5c4.1-17.7-6.9-35.4-24.6-39.5c-11.5-2.7-23,1-30.7,8.8c-1.1,1.1-2,2.2-3,3.4
				C1101.9,776.8,1099.9,781,1098.8,785.6z"/>
			<path class="st22" d="M1098.8,785.6c-4.1,17.7,6.9,35.4,24.6,39.5c4.7,1.1,9.3,1.1,13.7,0.3c-40.3-18.4-34.3-41.6-27.2-57.6
				c-0.8,0.6-1.6,1.3-2.4,2c-1.1,1.1-2,2.2-3,3.4C1101.9,776.8,1099.9,781,1098.8,785.6z"/>
			<g>
				<path class="st23" d="M1150.1,777.5c-1.1-1.1-2.3-2.2-3.7-3.2"/>
				<path class="st23" d="M1151,807.7c4.1-6.4,7-17.6,1.8-26.6"/>
			</g>
		</g>
		<g>
			<path class="st0" d="M1153.5,638.5c-18.5-44.9-42.3-77.1-17.2-127.3c56.3-115.6,243.7-31.7,197.7,88.2
				c-15.5,40.4-56.9,15-44.3-11.6c15.1-31.8,0.5-59.8-31.5-75.4c-33.1-16.1-62.9-14.4-78,20.7c-20.4,38.6,10.2,75.3,21.4,111.3
				c14.8,39-17.3,87.7-24.5,102.3c-7.2,14.6-49.4-1.7-40.3-21.3C1146.1,705.9,1166.8,668.9,1153.5,638.5z"/>
			<path class="st24" d="M1294.1,493.4c-1.7-1.3-3.5-2.5-5.4-3.7"/>
			<path class="st24" d="M1320.8,592.6c10.3-19.5,16-61-19.2-93.1"/>
		</g>
	</g>
	<g>
		<g>
			<path class="st19" d="M730.5,507.2c2,15.8,16.5,27,32.3,25c4.2-0.5,8-1.9,11.4-4c2.5-1.5,4.8-3.5,6.7-5.7c5.2-6,8-14.1,6.9-22.7
				c-2-15.8-16.5-27-32.3-25c-10.3,1.3-18.6,7.9-22.6,16.6c-0.5,1.2-1,2.4-1.4,3.7C730.4,498.9,730,503,730.5,507.2z"/>
			<path class="st1" d="M730.5,507.2c2,15.8,16.5,27,32.3,25c4.2-0.5,8-1.9,11.4-4c-38.8-2.8-40.9-23.7-40-39.1
				c-0.5,0.8-0.9,1.6-1.3,2.4c-0.5,1.2-1,2.4-1.4,3.7C730.4,498.9,730,503,730.5,507.2z"/>
			<g>
				<path class="st25" d="M770.2,484.9c-1.2-0.6-2.6-1.1-4-1.5"/>
				<path class="st25" d="M780.1,509.4c1.4-6.5,0.4-16.7-6.7-22.4"/>
			</g>
		</g>
		<g>
			<path class="st19" d="M730.6,369.4c-29-31.3-58.4-50.5-53-99.5c11-112.4,190.8-100.5,189.6,12.2c-0.4,38-42.2,29.7-40,4
				c2.7-30.8-17.8-49.4-49-52.4c-32.1-3.2-56.1,7.4-57.8,40.9c-5,38,31.4,58.9,51.6,85c24.1,27.6,12.6,77.4,11.1,91.6
				c-1.5,14.2-41.2,13.7-39.6-5.2C745,427.1,750.7,390.4,730.6,369.4z"/>
			<path class="st26" d="M801.9,207.1c-1.8-0.5-3.7-1-5.6-1.4"/>
			<path class="st26" d="M854.1,280.5c2.5-19.2-5.5-55-44.2-70.7"/>
		</g>
	</g>
	<g>
		<g>
			<path class="st0" d="M585.3,408.5c9.1,15.6,29.2,21,44.8,11.9c4.1-2.4,7.5-5.5,10.1-9.2c2-2.7,3.5-5.7,4.5-8.9
				c2.8-8.6,2.1-18.3-2.8-26.8c-9.1-15.6-29.2-21-44.8-11.9c-10.1,5.9-15.9,16.4-16.3,27.3c0,1.5,0,3,0.2,4.5
				C581.5,400,582.9,404.4,585.3,408.5z"/>
			<path class="st22" d="M585.3,408.5c9.1,15.6,29.2,21,44.8,11.9c4.1-2.4,7.5-5.5,10.1-9.2c-41.8,14.1-53.3-6.7-59-23.2
				c-0.2,1-0.3,2-0.3,3.1c0,1.5,0,3,0.2,4.5C581.5,400,582.9,404.4,585.3,408.5z"/>
			<g>
				<path class="st27" d="M616.9,367.7c-1.5-0.1-3.2,0-4.9,0.2"/>
				<path class="st27" d="M638.2,389c-1.4-7.5-6.9-17.6-16.9-20.5"/>
			</g>
		</g>
		<g>
			<path class="st0" d="M524.6,264.4c-44.1-19.9-83.3-27-99.3-80.6c-38-122.4,155.2-189.3,203.6-70.9c16.3,39.9-31.1,49.7-40.1,21.8
				c-10.8-33.4-40.4-43.8-74.3-33.3c-35,10.8-55.4,32.5-42.5,68.3c11.5,42,58.8,47.7,91.5,66.1c37.4,18.3,47.3,75.4,52,90.9
				c4.7,15.5-37,32.5-43.7,12C565.2,318.4,554.9,277.4,524.6,264.4z"/>
			<path class="st28" d="M527.6,63.2c-2.1,0.3-4.3,0.6-6.4,1"/>
			<path class="st28" d="M614.6,117c-5.9-21.2-30-55.1-77.4-54.4"/>
		</g>
	</g>
	<g>
		<g>
			<path class="st0" d="M914.9,306.1c3.1,13.5,16.7,22,30.2,18.8c3.6-0.8,6.8-2.4,9.5-4.4c2.1-1.6,3.8-3.4,5.3-5.5
				c4-5.7,5.7-13,4-20.3c-3.1-13.5-16.7-22-30.2-18.8c-8.8,2-15.4,8.4-18.1,16.4c-0.4,1.1-0.7,2.2-0.9,3.3
				C914,299,914,302.6,914.9,306.1z"/>
			<path class="st22" d="M914.9,306.1c3.1,13.5,16.7,22,30.2,18.8c3.6-0.8,6.8-2.4,9.5-4.4c-33.9,0.9-37.6-17-38.1-30.4
				c-0.3,0.7-0.7,1.4-0.9,2.2c-0.4,1.1-0.7,2.2-0.9,3.3C914,299,914,302.6,914.9,306.1z"/>
			<g>
				<path class="st29" d="M947.3,283.3c-1.1-0.4-2.3-0.7-3.6-0.9"/>
				<path class="st29" d="M958.1,303.8c0.7-5.8-1.1-14.5-7.7-18.9"/>
			</g>
		</g>
		<g>
			<path class="st0" d="M902.9,186.7c-27.8-24.6-55-38.7-54.7-81.6C848,6.6,1005,1.2,1013.7,99.1c2.9,33-34,29.4-34.3,6.9
				c-0.4-26.9-19.8-41.3-47-41.2c-28.1,0-48,11.3-46.6,40.5c-1,33.4,32.4,48.3,52.2,69.2c23.3,21.8,17.7,66,17.6,78.5
				c0,12.5-34.5,15.5-34.8-1S922.2,203.1,902.9,186.7z"/>
			<path class="st30" d="M950.6,39.7c-1.6-0.3-3.3-0.5-5-0.7"/>
			<path class="st30" d="M1002.3,98.8c0.5-16.8-9.6-47.2-44.5-57.5"/>
		</g>
	</g>
	<g>
		<g>
			<path class="st19" d="M1047.9,416c-0.5,11,8.1,20.4,19.1,20.8c2.9,0.1,5.7-0.4,8.2-1.4c1.9-0.8,3.7-1.8,5.2-3.1
				c4.3-3.5,7.1-8.7,7.4-14.7c0.5-11-8.1-20.4-19.1-20.8c-7.2-0.3-13.6,3.2-17.4,8.7c-0.5,0.7-1,1.5-1.4,2.4
				C1048.7,410.3,1048,413.1,1047.9,416z"/>
			<path class="st1" d="M1047.9,416c-0.5,11,8.1,20.4,19.1,20.8c2.9,0.1,5.7-0.4,8.2-1.4c-26.1-6.5-25.2-21-22.7-31.4
				c-0.4,0.5-0.8,1-1.2,1.5c-0.5,0.7-1,1.5-1.4,2.4C1048.7,410.3,1048,413.1,1047.9,416z"/>
			<g>
				<path class="st31" d="M1077.6,405.4c-0.8-0.6-1.6-1.1-2.6-1.5"/>
				<path class="st31" d="M1081.5,423.3c1.8-4.3,2.2-11.3-1.9-16.1"/>
			</g>
		</g>
		<g>
			<path class="st19" d="M1064.1,321.9c-16.1-24.8-33.9-41.3-24.5-74.1c20.7-75.4,142.1-46.2,128,30.6c-4.8,25.9-32.3,15.3-27.8-2
				c5.4-20.7-6.4-35.8-27.3-41.6c-21.6-5.9-39.2-1.6-44.3,21.1c-7.9,25.4,14.5,43.9,25.3,64.1c13.2,21.7-0.5,54.3-3.2,63.9
				c-2.7,9.6-29.7,4.5-26.4-8.2C1067.2,363,1075.4,338.6,1064.1,321.9z"/>
			<path class="st32" d="M1131.9,219.4c-1.2-0.6-2.4-1.1-3.6-1.6"/>
			<path class="st32" d="M1158.9,275.7c4-12.8,2.7-38.2-21.9-53.5"/>
		</g>
	</g>
	<g>
		<g>
			<path class="st19" d="M365.4,716.1c10.2,6.2,23.4,2.9,29.6-7.2c1.6-2.7,2.6-5.6,3-8.5c0.3-2.2,0.2-4.4-0.2-6.5
				c-1.1-5.9-4.5-11.3-10-14.6c-10.2-6.2-23.4-2.9-29.6,7.2c-4,6.6-4.1,14.5-0.8,20.9c0.4,0.9,0.9,1.7,1.5,2.5
				C360.5,712.4,362.7,714.5,365.4,716.1z"/>
			<path class="st1" d="M365.4,716.1c10.2,6.2,23.4,2.9,29.6-7.2c1.6-2.7,2.6-5.6,3-8.5c-19.7,21.3-32.9,12.9-41.4,5.2
				c0.2,0.6,0.5,1.3,0.8,1.9c0.4,0.9,0.9,1.7,1.5,2.5C360.5,712.4,362.7,714.5,365.4,716.1z"/>
			<g>
				<path class="st33" d="M370.8,682.6c-0.9,0.4-1.8,1-2.7,1.7"/>
				<path class="st33" d="M389.8,688.2c-3.1-3.9-9.5-8-16.2-6.6"/>
			</g>
		</g>
		<g>
			<path class="st19" d="M285,651.9c-31.7,2.3-56.7,10.6-82.7-15.4c-60.4-58.8,30.2-158.2,95.4-105c22,17.9-2.3,38.5-16.3,25.2
				c-16.7-15.9-37.1-12.6-53.4,4.1c-16.8,17.3-21.8,36.2-3.1,52.8c19.9,20.6,49,9.1,73.7,9.5c27.3-1.2,51,28.7,58.7,36.2
				c7.6,7.5-11.2,30.4-21.5,20.7C325.4,670.4,306.6,649.9,285,651.9z"/>
			<path class="st34" d="M223.5,534.7c-1.1,0.8-2.3,1.7-3.4,2.6"/>
			<path class="st34" d="M290.7,538.4c-10-10.4-34.7-22.4-61.9-7.1"/>
		</g>
	</g>
</g>
</svg>
