<?xml version="1.0" encoding="utf-8"?>
<!-- Generator: Adobe Illustrator 26.1.0, SVG Export Plug-In . SVG Version: 6.00 Build 0)  -->
<svg version="1.1" id="Layer_1" xmlns="http://www.w3.org/2000/svg" xmlns:xlink="http://www.w3.org/1999/xlink" x="0px" y="0px"
	 viewBox="0 0 1375 1595.3" style="enable-background:new 0 0 1375 1595.3;" xml:space="preserve">
<style type="text/css">
	.st0{fill:#244798;}
	.st1{fill:#0D1B3E;}
	.st2{fill:#78ADD3;}
	.st3{opacity:0.46;fill:#1F1F39;enable-background:new    ;}
	.st4{fill:#EFAEA6;}
	.st5{fill:#23233D;}
	.st6{fill:#464656;}
	.st7{opacity:0.28;fill:#1F1F39;enable-background:new    ;}
	.st8{opacity:0.52;fill:#1F1F39;enable-background:new    ;}
	.st9{opacity:0.14;fill:#1F1F39;enable-background:new    ;}
	.st10{fill:#FFFFFF;}
	.st11{opacity:0.18;fill:#1F1F39;enable-background:new    ;}
	.st12{fill:#F4AA08;}
	.st13{fill:none;stroke:#464656;stroke-width:3;stroke-linecap:round;stroke-linejoin:round;stroke-miterlimit:10;}
</style>
<path class="st0" d="M293,793.3c-29.6-44.1-18.3-103.9,25.6-134c3.8-2.6,93.5-64.3,173.7-116.5C538,513,593.5,504.3,662.1,516
	c46.8,8,94,24.2,143.9,41.3c52.4,18,106.6,36.5,154.6,42.7c55.4,7.1,82-5.5,97.2-15.5c19.3-12.8,47.3-41.5,67.8-83.6
	c19.5-40.1,27.2-82.5,21.7-119.2c-5-33.1-20-61.8-46.2-87.8c-35.2-35.1-88.7-63.4-159.2-84.3c-51.4-15.2-80.7-69.2-65.5-120.6
	S945.6,8.3,997,23.5c101.7,30.1,182.9,74.9,241.1,133c55.1,54.9,90,122.9,101.1,196.6c11.4,76.1-2.1,156.6-39.1,232.8
	c-32.9,67.6-80.9,124.6-135.1,160.6c-34.8,23-73.8,38.3-116.1,45.3c-35.2,5.9-72.2,6.2-113,0.9c-67.6-8.7-134.1-31.5-192.9-51.6
	c-38.4-13.2-74.7-25.6-104.6-31.9c-3.8-0.8-7.3-1.4-10.5-2c-16.6-2.7-33.7,0.9-47.8,10.2c-73.4,48.2-150.8,101.4-151.6,102
	c-44.2,30.4-104.6,19.2-135-25C293.4,793.9,293.2,793.6,293,793.3z M597.2,705.9L597.2,705.9L597.2,705.9z"/>
<ellipse transform="matrix(0.7071 -0.7071 0.7071 0.7071 -584.4658 362.1591)" class="st0" cx="144.9" cy="886.6" rx="118.1" ry="118.1"/>
<path class="st1" d="M680.9,751"/>
<path class="st2" d="M626.9,797.9"/>
<path class="st3" d="M625.7,1192.2L625.7,1192.2c0.4,0,0.5-0.1,0.5-0.1L625.7,1192.2z"/>
<path class="st4" d="M272.3,1486.1c16.9,3.1,60,5.5,60,5.5l5.5-45l-64.9-3.1l-23.1,28.1L272.3,1486.1z"/>
<path class="st5" d="M279.2,1490.3c0.5,4.9-3.7,2.3-11,3.2c-16.8,1.9-24.8,61-27.4,69.8c-1.3,4.5-26.2,8.9-23.2-14
	c2.6-19.8,10.7-83.3,13.7-105c0.6-4.5,4.2-8.1,8.8-8.6c16.2-1.9,40.5,2.3,40.2,8.4C282,1453.5,277,1470.1,279.2,1490.3z"/>
<path class="st4" d="M1077.4,1529.2c-4.6-15.4-11.9-62.1-11.9-62.1l-45.3,6.6l15,60.5l30.9,19.2L1077.4,1529.2z"/>
<path class="st5" d="M1080.6,1521.9c4.7-1.2,2.8,3.4,4.6,10.5c4.1,16.4,63.8,16.5,72.8,18c4.6,0.7,12.3,24.8-10.9,24.8
	c-20,0-84,0.3-105.9,0.2c-4.6,0-8.6-3.1-9.7-7.5c-4-15.8-3.1-40.4,3-41C1043.8,1523.9,1060.9,1526.7,1080.6,1521.9z"/>
<path class="st6" d="M1020,1515.8c-9.9-3.2-27.2-139.1-73.9-187.2c-15.4-15.9-89.4-33-162.4-54.4c-51.5-15-93.8-26.2-93.8-26.2
	c0,0.1-0.6,1.3-1.7,3.6c-10.1,21.6-66.1,142.4-103.1,200.8c-50.3,64.3-277.2,46.4-277.2,46.4c-0.5-3-1-6-1.5-8.9l0,0
	c-3-19.4-4.1-35.4-3.5-44.8c0.3-6.6,1.4-9.9,3.2-8.9c42.7-4.1,209.3,5.4,222.6-33.4c3.9-11.2,29.7-115.9,40.8-165.8
	c1.8-8.1,3.6-16.6,5.3-25.2c3-14.9,6-30.2,9.1-44.4c1-4.7,2.1-9.2,3.2-13.6c1.4-5.6,2.8-11,4.3-15.9c3.3-10.8,10-25.4,13.4-34.5
	c0.3-0.7,1.1-1.1,2.4-1.4c9.1-1.8,42,5.8,75.1,12.9c7.2,1.6,14.4,3.1,21.4,4.5c3.5,0.7,6.8,1.4,10,2c1.3,0.3,2.7,0.5,3.9,0.8
	c15.5,3.2,26.1,5.6,26.1,5.6l17.5,5.6l17.1,5.5c0.9,6.4-7.5-3.9-4.1,7.9c1.3,0.9,14-4.9,15.4-4c55.7,36,177.6,91.1,211.5,119.5
	c29.2,24.4,76,230.6,81.3,239.8S1029.9,1519,1020,1515.8z"/>
<path class="st7" d="M664.9,1124.2c-1.2,2-15.3,36.1-31.4,46.3c-16.8,10.8-24.3,10.3-55.2,23.9c3-14.9,2.5-12.9,5.6-27.1
	c1-4.7,2.1-9.2,3.2-13.6l7-26.8L664.9,1124.2z"/>
<path class="st8" d="M783.7,1274.3c-51.5-15-93.8-26.2-93.8-26.2c0,0.1-0.6,1.3-1.7,3.6c4.9-12.2,14.6-28.5,14.6-28.5
	S762.6,1250.1,783.7,1274.3z"/>
<path class="st4" d="M1095.1,856.9c26.1-11.3,27.6-35,37.8-43.9c10.1-8.9,49.2-44.9,27.1-60.4c-5.5-3.9-14.1,28.3-27.7,27
	c-10.2-1-7.3-11.9-14.5-12c-8.8-0.1-6.1,8.7-7.8,15.7c-2.3,9.4-22.4,33.8-33.1,41.9C1058.2,839.5,1095.1,856.9,1095.1,856.9z"/>
<path class="st4" d="M813,900c-14.4-15.6-12.2-33-12.2-33c4.3-15.7,27.5-37.4,39.9-47.1c13.6-10.7,14.2-9,14.2-9l9,29.3l4.2,13.8
	c0,0-5.7,4.2-11.3,14.8c-3.9,7.4-6,3.5-7.8,18C847.6,897.4,829.3,895.8,813,900z"/>
<path class="st9" d="M868.2,853.9c0,0-7.8,7.5-13.4,18c-24.7-7.7-11.6-38.1-2.7-39.1c5.5-0.6,11.9,7.3,11.9,7.3L868.2,853.9z"/>
<path class="st10" d="M812.5,845.1c15.9,2.4,13.1,34,24.2,40.2c6.7,3.8,4.8-4.4,8.9-7c10.7-6.7,10-9.6,11.9-3.8
	c33.6,99.2-108.5,272.9-108.5,272.9s-64.5-20-96.4-15.3c-50.9,7.5-50.4-38.9-44-48.3c24.6-35.9,158-215.8,158-215.8
	S782.4,855.1,812.5,845.1z"/>
<path class="st0" d="M856.2,871.6c66,16.8,128.4,28.4,157.7,28.4c17.9,0,65.3-89,75.6-94.5c9.5-5.1,41.6,15.1,40.8,23
	c-1.5,15.9-73.4,121.8-106.5,132c-26.9,8.3-107.5-25.7-132.2-12.7c-16.3,8.5-61.8,107.3-68.5,127.4s-24.1,76.2-78.3,94.8
	c-22.2,7.6-45.1-1-50-13.2c-8.4-20.9,57.6-65.1,86.5-113.4c27.6-45.9,52.4-69.2,65.8-111.6C857.2,899.7,856.2,871.6,856.2,871.6z"/>
<path class="st4" d="M558,827.8c-3.3-9.8-6.5-20.9-4.9-27.4s-5.7-18.7-15-11.8c-18.1,13.5-37.8,14.6-31.2,24.2
	c6.6,9.6,19.7,22.3,25.1,36.9C537.4,864.3,558,827.8,558,827.8z"/>
<path class="st0" d="M626.9,900c-19.6,0-42.1-36.7-63.1-83.1c-13.7,0-34.1,8.9-46.3,18.1c18.4,33.3,52.9,121.3,95.3,128.8
	c19.7,3.5,77.6-21.1,80-10.6c2.4,10.4-36.1,54.3-47.2,69.7c-17.3,23.9-27.1,56.8-60.6,77.6c-6.8,4.2-37-0.7-28.6,16.5
	c16.9,40.4,63.6,40.4,93.2,20.5c6.4-3.9,9.9-10.8,13.6-17.4c9.9-17.8,26.4-27.2,38.1-49c11.7-21.8,34-37.7,55.8-81.2
	c21.9-40.8,46.9-105.1,54.7-144.7C700,864.3,648,900,626.9,900z"/>
<path class="st11" d="M835.1,901.6c-1.6-0.4-3.2,32.4-19.6,45.5c-24.3,19.3-108.9,34.2-114.3,36.6c-15.7,6.9-46.8,54.1-68,59.1
	c3.2-12,58.4-68.6,61.9-82.9c16.4-0.9,90.4-14.1,98.4-18.2c6-3,11.2-7,15.7-11.4c8.6-8.3,14.8-18.2,19.3-26.4
	c2.3-4.2,1.1-8.8,5.1-10.5C838.9,891.2,837.2,902.1,835.1,901.6z"/>
<path class="st12" d="M842.5,882.9c-1.3-2.8-5.1-6.7-11.1-4.2c-4.5,1.9-4.2,3.9-6.8,8.7c-7.7,14.3-20.3,33.1-39.8,43
	S708.7,931.1,681,949c-27.7,17.9-26.7,48.4-67.6,71.7c-40.9,23.3-94.6,22.6-106.6,29.6c-12,7-18.7,12.8-16.5,17.7s11.8,11,22.2,11.2
	c10.4,0.2,91.9-24.3,111.8-35.1c32.5-17.5,50.3-59.5,71.6-69.8s72.5-15.1,97.8-26.3c28.2-12.5,39.1-54.9,41.4-54.4
	c2.4,0.6,4.6,1.1,8-1.2C845.5,891,843.8,885.7,842.5,882.9z"/>
<path class="st4" d="M916.9,841.9c-9.9,8.6-21.8,34.9-27,27.7s-21,18.2-26.8,10.7c-14.2-18.1-18.1-48-11-56.9s33-25.8,33-25.8
	L916.9,841.9z"/>
<path class="st5" d="M892.7,830.2c3.6,6.4,2.4,7.5,7.3,10.2c5,2.7,5.4-8.5,12.2-1.8s13.5,14.8,22.7,9.3c13.4-8,3.3-17.8-3.3-23.7
	c-4.2-3.8,4.6-11.9-2.3-20.5c-5.4-6.8-8.9-3-14-8.8c-3.1-3.5-2.3-15.4-11.1-18c-16.3-4.8-19.9,11.8-35.5,9.2
	c-18.1-3-22.4,37.7-17.6,38.6c5.5,1,12.7-11.7,17.7-10.2c7.5,2.3,3.7,6,2.8,13.2c-0.9,7.6,4.9,16.2,9.2,4.8
	C885.2,821.1,889.5,824.5,892.7,830.2z"/>
<path class="st13" d="M940.2,1404.4c7.3,10.6,1,16.9,4.3,26.9s8.6,5.9,11.9,15.9c3.3,10-3.3,16.9,0.7,29.6
	c4,12.6,10.3,14.9,12.9,21.6"/>
<path class="st13" d="M947.8,1395.1c7.3,10.6,1,16.9,4.3,26.9s8.6,10.9,11.9,20.9c3.3,10-1.2,17.1,2.8,29.7s11.3,15.1,13.9,21.7"/>
<path class="st13" d="M961.4,1402.8c7.3,10.6,1,16.9,4.3,26.9c2.9,8.7,11.7,7.6,8.7,28.9"/>
</svg>
