<?xml version="1.0" encoding="utf-8"?>
<!-- Generator: Adobe Illustrator 26.1.0, SVG Export Plug-In . SVG Version: 6.00 Build 0)  -->
<svg version="1.1" id="Layer_1" xmlns="http://www.w3.org/2000/svg" xmlns:xlink="http://www.w3.org/1999/xlink" x="0px" y="0px"
	 viewBox="0 0 472.5 987.4" style="enable-background:new 0 0 472.5 987.4;" xml:space="preserve">
<style type="text/css">
	.st0{fill:#EFAEA6;}
	.st1{fill:#0D1B3E;}
	.st2{fill:#78ADD3;}
	.st3{fill:#244798;}
	.st4{fill:#333344;}
	.st5{fill:#FFFFFF;}
	.st6{opacity:0.28;fill:#070716;}
	.st7{fill:url(#SVGID_1_);}
	.st8{opacity:0.17;fill:#070716;}
	.st9{fill:#F5B1B4;}
	.st10{fill:#39394F;}
</style>
<g>
	<path class="st0" d="M420.5,81.2c4.5-8.9-5.2-25.6,10.6-43c11.8-13,26.8-17.8,23.8-22.5c-6.5-10.3-42.1,20.3-48.9,17.2
		c-8.5-3.9-8.7,0.6-8.3,4.4c0.4,4.4,2.8,7.4,1.2,16.8C396,70.6,397,87.5,397,87.5l-0.7,8L420.5,81.2z"/>
	<path class="st1" d="M187.9,925.9"/>
	<path class="st0" d="M212.6,601.5c-1.1,24.9-2.2,50.8-3.2,76.4c-4,100.3-35.3,192.2-34.3,201.6c2.1,19.9,7.2,23.2,12.2,28.9
		l15.6,20.5l-33.9,9.2l-24.4-25.1c0,0,8.3-216.7,9.9-238c0.7-8.4-2.2-33.3-5.8-60.5c-1.1-8-2.2-16.2-3.4-24.2
		c-4.9-34.3-10-65.5-10-65.5c0.1-5.5-10.4-51-13.1-55.7c-7.4-12.6-8.5-87.8,28-79.7c60,13.4,70,56.5,70,56.5s-3.3,64.7-6.9,143.2
		L212.6,601.5z"/>
	<path class="st2" d="M218.7,949.2"/>
	<path class="st3" d="M142.8,885.3c-5.5,4.8-17,17.3-11.1,35c7,17.4,4.4,36.9,4.4,36.9l6,0.3c0,0,0.5-26.9,6.4-31.5
		c8.9,5.2,42.5,35,50.8,36.8c8.3,1.8,30.7,7.2,33.8,3.2c3.1-4,3.3-14.1-3.6-21.2S200,924.3,200,924.3s-1.2-0.3-1.4,0.9
		c-0.3,2.7-1.1,7-12.1,4.2c-14.5-3.8-33.9-30.3-39.8-43.2C146,884.6,144.1,884.2,142.8,885.3z"/>
	<path class="st0" d="M198.9,425l19.8,12.4c0.7,0.5,1.4,1,1.9,1.7c6.3,8.6,42.9,49.9,57.8,70.1c0.1,0.1,17.1-6.1,17.2-5.9
		c10.9,17.6,50.4,100.1,53.9,131.9c4.5,41,23.6,223.1,27.2,233.8c3.6,10.8,10.6,17.9,27.8,26.4c0.2,0.1,0.3,0.2,0.5,0.2l0,0
		c7.1,2.8,5.1,13.3-2.5,13.2l-32.1-0.2c-0.7,0-1.5-0.1-2.2-0.4l-18.4-6.3c-2.3-0.8-3.9-2.6-4.5-5c0,0-55.9-246.9-60.8-264
		c-4.9-17.1-72.1-132.6-72.1-132.6c-1.4-1.5-31.6,18.9-33.6,19c-7.1,0.4-25.9-3-46.4-42.1c-6.2-11.8,8.3-32.6,13.1-39
		c0.9-1.2,2.2-2.1,3.7-2.5l44.5-11.7C195.3,423.7,197.3,424,198.9,425z"/>
	<path class="st3" d="M367.6,923.7c6.6-0.2,27.3,2.6,42.8,3.7c6.9,0.5,12.8,0.7,15.9,0.1c0.3-0.1,0.6-0.1,0.8-0.2
		c8.5-2.4,26.5-9.9,28.8-14.7c2.2-4.8-4-12.8-13.7-15.1c-4.1-1-10.8-1.4-17.1-1.5c-6.5-0.2-12.7,0-15.5,0.1c-1,0-1.5,0-1.5,0
		s-1.1,0.4-0.7,1.4c1.1,2.3,2.7,6.2-7.5,9.5c-13.6,4.4-42.9-7.1-54.1-14.4c-1.3-0.8-3-0.2-3.5,1.2c-2,6.6-5,22.6,8.9,33.9
		c14.4,10.4,22.3,27.4,22.3,27.4l5-2.8C378.5,952.2,365.3,930.4,367.6,923.7z"/>
	<path class="st4" d="M122.1,598.1c5.8,11.8,73.5,7.6,114.1-9c36.3-14.8,83.8,9.8,104.2-3.1c8.8-29.6-56.9-133.6-69.9-244.5
		c-47.1,19.2-124.3-16.4-124.3-16.4s-0.4,0.8-1.1,2.2c-4.3,8.2-19.5,38.4-28.1,66.6c-3.4,11.3-5.8,22.3-5.9,31.4
		c-0.4,26.6,18.9,78,23.4,115.4C137.9,568.8,115.5,584.8,122.1,598.1z"/>
	<path class="st5" d="M224.1,120.5l21.6,10.6l33.7,113c0,0-7.1,70.2-22.3,95.3c-19.8,32.6-89,0.3-86.4-7.1
		c23.8-68,27.8-210.8,27.8-210.8L224.1,120.5z"/>
	<path class="st6" d="M116.9,394c40.6,19,95.3-10.8,95.3-10.8l-59.5-49.4l-7.7-6.4C140.7,335.6,125.5,365.7,116.9,394z"/>
	
		<linearGradient id="SVGID_1_" gradientUnits="userSpaceOnUse" x1="-1943.58" y1="680.3242" x2="-1923.4799" y2="680.3242" gradientTransform="matrix(-0.972 0.235 0.235 0.972 -1924.2347 163.891)">
		<stop  offset="0" style="stop-color:#EFAEA6"/>
		<stop  offset="0.1425" style="stop-color:#EDAFA6"/>
		<stop  offset="0.166" style="stop-color:#EBB1A7"/>
		<stop  offset="0.2473" style="stop-color:#E4A09A"/>
		<stop  offset="0.2968" style="stop-color:#DF9490"/>
	</linearGradient>
	<path class="st7" d="M109.3,375.5c0,0-2.5-6.3-5.4-9.1c-0.9-0.9-0.6-3.3,0.7-3.7c6.1-1.8,17.8,7.8,17.8,7.8l4.5,6.7l-9.2,3.4
		L109.3,375.5z"/>
	<path class="st0" d="M131.2,343.6c0,0,13.6,21.6,13.9,23.8c0.3,2.2,3.2,7.3,1,13.5c-1.6,4.5-10.9,10.6-21.9,8.7
		c-3.1-0.5-27.4-17-26.4-17.5c4-2.4,10-2,19.4,4.4c-0.3-9.4-4-24.3-4-24.3l-5-8.6l13.5-7.3L131.2,343.6z"/>
	<path class="st3" d="M56.2,245.7c0.4,25.6,55,112.5,55,112.5c20.1-16.9,23.6-15.8,23.8-15.7c-0.6-1.2-38.7-80.9-36.9-91.1
		c2.6-14.6,38-48,49-39.1c9.1,7.3,19.4,45,16.5,71.2c-0.6,5.6-1.8,10.6-3.7,14.8c-10.9,23.7-23.5,26.2-21.6,38.6
		c1.9,12.4,67.7,53.1,73.8,46.4c6.1-6.6,1.8-90.3,7.8-109.5c5.3-17.1,18.3-48.2,6.9-71.8c-8.5-17.4-19.7-53.7-25-71.6
		c-0.1-0.3-0.2-0.5-0.2-0.8c-1.8-5.9-2.8-9.6-2.8-9.6c-4.9,1.6-10.4,4-16.4,7.2c-13.3,7-28.9,17.5-44.4,29.5
		C96.9,188.3,56,230.4,56.2,245.7z"/>
	<path class="st3" d="M271.5,222.3c8.3,23.1-22,81.2-23.5,124.5c0,0.6,0,1.1-0.1,1.7c-0.1,7.4,0.6,14.3,2.6,20.4
		c2.6,8.4,15.4,14.2,23.7,14.8c5.7,0.4,7.4-0.8,6.3-6.8c-9.8-54.3,27.3-107.8,25-150.4c-0.4-6.8-10.4-34.7-7.2-45.3
		c3.2-10.6,73.8,18.9,93.5,13.9C431.8,185,428.7,77,427.7,57.4c-0.4-8.1-31.9-0.7-32.7,5.5s-4.8,86.6-12.7,89.2
		c-13.4,4.5-71.6-22.8-139.5-22.6c0.1,0.3,2.1,4.8,3.1,13.2c0.7,6.4,2.5,14,3.6,22.8C252.5,190.7,261.8,195,271.5,222.3z"/>
	<path class="st8" d="M163.7,283.4c5.6-9.9,13.6-24.8,14-30.5c0.5-8.8-13.3-30.6-30.5-40.7C156.2,219.6,166.5,257.2,163.7,283.4z"/>
	<path class="st8" d="M138,156.6c39-2,55.4-9.8,63.9-26.3c0.1-0.2,0.2-0.5,0.4-0.7l-0.6-0.1l-19.2-2.5
		C169.1,134.1,153.5,144.6,138,156.6z"/>
	<path class="st9" d="M203.8,134.8c0.2,0.3,0.5,0.6,0.7,0.9c19.4,22.8,14.3,39.3,23.7,41.9c3.8,1,15.7-37.1,14.4-43.9
		c-0.2-0.9-0.5-1.9-0.8-3c-2.3-6.8-7.6-15.8-3.4-19.1c1.7-1.3,3.9-1.5,6.2-1.2c4.9,0.6,10.2,3.7,12.3,3.2c6.1-1.6,0.7-13.2,2.7-16.7
		c2-3.5-0.1-2.7-1-3.4c-2.5-1.8-0.1-1.7,2.1-2.4c3.3-1.1,1-3.3,0.7-6.3c-0.3-3,5.4-1.5,7.2-4.3c1.8-2.7-2.8-3.8-7.2-10.2
		c-5.1-7.4-1.3-11.9-2.5-19.2c-0.1-0.7-0.2-1.3-0.4-2.1l-37.2,5.2l-9.4,22.3C211.7,76.5,180.4,106.1,203.8,134.8z"/>
	<path class="st10" d="M20.1,148.2c9.7,9.7,56.4-27.3,83.4,2.5c10.7,11.8,22.3-0.3,34.7-2.8c2-0.4,4.1-0.5,6.1-0.3
		c7.8,1,12,3.1,18.8,3.2c0,0,0,0,0,0c1.6,0,3.3,0,5.2-0.2c1.6-0.2,3.4-0.4,5.3-0.8c3.5-0.7,7.7-1.8,12.8-3.4
		c5.3-1.7,10-4.7,14.1-8.4c0,0,0,0,0,0c0.1-0.1,0.3-0.3,0.4-0.4c14.7-13.8,21.9-37.3,26-45.7c1.4-2.8,1.5-7.1-0.4-9.7
		c-2.6-3.4-6-7.6-3.5-11.4c2.3-3.5,7.6-2.8,8.8-0.2c3,6.5,6.8,8.4,7.6,0.1c1.3-13.6,9.6-16.9,13.6-17.5c2.6-0.4,4.4-1.2,5.8-2.3l0,0
		c5.2-4.1,2.5-12.2,1.3-15.2c-5.8-14.2-22.6-16.8-43.4-13.1c-29.3,5.3-39.7,46.8-47.1,51.5c-7.4,4.7-13.6-5.6-33.3,2.9
		c-22.9,9.9-20.3,21.5-28.4,25.5c-7.1,3.5-20.2,0.1-36.2,1.9C44.5,107.5,4.9,132.9,20.1,148.2z"/>
	<path class="st8" d="M227.3,113.4c-0.4,2.9,4.7,12.7,14.5,17.2c-2.3-6.8-7.6-15.8-3.4-19.1c1.7-1.3,3.9-1.5,6.2-1.2
		C229.9,107.5,227.8,110.4,227.3,113.4z"/>
</g>
</svg>
