<?xml version="1.0" encoding="utf-8"?>
<!-- Generator: Adobe Illustrator 26.1.0, SVG Export Plug-In . SVG Version: 6.00 Build 0)  -->
<svg version="1.1" id="Layer_1" xmlns="http://www.w3.org/2000/svg" xmlns:xlink="http://www.w3.org/1999/xlink" x="0px" y="0px"
	 viewBox="0 0 1962.9 1408.4" style="enable-background:new 0 0 1962.9 1408.4;" xml:space="preserve">
<style type="text/css">
	.st0{fill:#201B2C;}
	.st1{fill:#603A3E;}
	.st2{fill:#775155;}
	.st3{fill:#FFFFFF;}
	.st4{fill:#1F1F39;}
	.st5{fill:#3B3B4C;}
	.st6{fill:#EFAEA6;}
	.st7{opacity:0.14;fill:#1F1F39;}
	.st8{fill:#244798;}
	.st9{opacity:0.59;fill:#1F1F39;}
	.st10{opacity:0.3;fill:#1F1F39;}
	.st11{fill:#F4AD00;}
	.st12{opacity:0.18;fill:#1F1F39;}
	.st13{fill:#333344;}
	.st14{opacity:0.28;fill:#070716;}
	.st15{opacity:0.17;fill:#070716;}
	.st16{fill:#F5B1B4;}
	.st17{fill:#2E2E49;}
	.st18{fill:none;stroke:#FFFFFF;stroke-width:8;stroke-linecap:round;stroke-linejoin:round;stroke-miterlimit:10;}
</style>
<path class="st0" d="M1719.5,525.5C1719.5,525.5,1719.5,525.5,1719.5,525.5c-0.2,0-0.4,0-0.6,0c-3,0.2-5.8,1.3-7.8,3.3
	c-0.1,0.1-0.3,0.3-0.4,0.4c-0.2,0.2-0.3,0.4-0.5,0.6l-5.4,7.3c0,0,0,0,0,0l0,0l-0.2,0.3c0,0,0,0,0,0l-0.4,0.6l-6,8l-16.1,21.4
	c-1.1,1.4-1.7,3.1-2,4.8c-0.8,5.4,2,11.8,7.7,16.1l8.1,6.2l12.8,9.8c0.1,0.1,0.2,0.1,0.3-0.1l5.3-7c0.1-0.1,0.1-0.3,0-0.3l-12.8-9.8
	l0,0l-1.9-1.4c-4.2-3.2-6.4-7.9-5.8-11.9c0.2-1.4,0.7-2.6,1.5-3.7l13.6-18.1l5.9-7.8l0,0l1.6-2.2c1.5-2.1,4-3.2,6.8-3.3
	c2.4-0.1,5,0.6,7.5,2c0.6,0.3,1.2,0.7,1.7,1.2l0.1,0.1l1.6,1.2l13,9.9l0.1,0.1c0.1,0.1,0.2,0,0.3-0.1l5.3-7c0.1-0.1,0.1-0.3,0-0.3
	l-0.1-0.1l-13-10l-7.7-5.9C1727.9,526.8,1723.5,525.4,1719.5,525.5z"/>
<path class="st0" d="M1719.5,525.4C1719.5,525.5,1719.5,525.4,1719.5,525.4L1719.5,525.4c-0.2,0-0.4,0-0.5,0c-3,0.2-5.8,1.3-7.9,3.3
	c-0.1,0.1-0.3,0.3-0.4,0.4c-0.2,0.2-0.3,0.4-0.5,0.6l-5.4,7.3l0,0l-0.2,0.3c0,0,0,0,0,0c-0.1,0.1,0,0.3,0.1,0.3l2.4,0.8l0,0l0.1,0
	l0,0l4.1,1.4l0.1,0l0,0l4.8,1.7c1.6-2.1,4-3.2,6.8-3.3l0,0c2.4-0.1,5.1,0.6,7.6,2c0.6,0.3,1.2,0.7,1.7,1.2l0.1,0.1l1.6,1.2l13,9.9
	l0,0c0.1,0.1,0.2,0,0.3-0.1l5.3-7c0.1-0.1,0.1-0.3,0-0.3l-13-10l-7.8-6C1727.9,526.7,1723.5,525.3,1719.5,525.4z"/>
<path class="st1" d="M1828.2,470.7l93.8,70.7c5.7,4.3,6.5,12.8,1.9,19l-0.1,0.1l-133.7,184.8c-15.3,20.7-28.6,10.5-34.1,6.3
	l-90.8-64c-5.6-4.2-14.8-22.6-2.3-39l120.8-163l4.5-6.1C1798.2,466,1815.6,461.2,1828.2,470.7z"/>
<path class="st2" d="M1828.2,470.7l93.8,70.7c5.7,4.3,6.5,12.8,1.9,19l0,0c-0.1,0.1-0.2,0.1-0.3,0.1c-7.1-2.1-16.9-7.4-29.9-18.8
	c-31.7-27.6-77.3-45.8-109.9-56c-0.1,0-0.2-0.2-0.1-0.4l4.3-5.9C1798.2,466,1815.6,461.2,1828.2,470.7z"/>
<path class="st3" d="M1483.7,1300.5c-14.2-12.9-45.6-49.7-45.6-49.7l36.3-35.4l46.7,55.6l-9.3,39.6L1483.7,1300.5z"/>
<path class="st4" d="M1475.4,1297.2c-4.7,2.8,0.5,4.9,4.7,12c9.7,16.2-17.5,46.2-27.2,53.7c-8.4,6.4-5,39.2,16.9,21.3
	c19.5-16,24-19,79.1-75.6c3.6-3.7,4.4-9.2,1.7-13.6c-9.3-15.7-29.4-34.5-34.7-30.1C1506.2,1269.8,1494.8,1285.5,1475.4,1297.2z"/>
<path class="st5" d="M1417.8,649c-47.2,8.2-76.3,79.6-84.6,124.9c-20.6,112.8-58.7,222.7-50.6,270.8
	c9.1,53.7,163.7,228.6,173.1,238.1c9.5,9.5,63.5-33.3,57-46.6c-6.4-13.3-136.4-185.3-136.1-202c1.3-77.8,117.3-276.7,108.9-330
	C1471.1,612,1417.8,649,1417.8,649z"/>
<path class="st3" d="M1510.5,1091.3c-19.8-0.7-69.1-8.8-69.1-8.8l5.1-52.1l74,12.8l19,37.5L1510.5,1091.3z"/>
<path class="st4" d="M1501.7,1094.3c-1.8,5.3,3.6,3.5,11.7,6.3c18.4,6.4,24.4,62.3,25.2,72.8c0.4,5.4,18.5,15.6,22.6-10.8
	c3.4-22.1,0.4-27,6.2-108.3c0.4-5.3-2.7-10.2-7.7-11.9c-17.8-6.2-46.2-7.6-47.5-0.6C1507.7,1052,1509.2,1072,1501.7,1094.3z"/>
<path class="st5" d="M1494,1038.6c-2.9,15.6-9.5,38.1-17.5,49.1c-2.8,3.8-5.7,6.3-8.7,6.6c-15.9,1.7-354.7-34.8-377.3-111.7
	c-22.7-77,90.8-195.7,135.3-243.4c11.3-12.1,63.6-52.9,68.2-64.7c6.6-17,18.3-33.1,49.1-47.5c34.7-16.1,52.4,13.8,62.5,37.4
	c10,23.5,8.7,78.6-28.6,125.1c-8.1,10.1-30.2,27.1-56.1,46.7c-28.9,21.9-62.6,47.1-86.8,69.7c-20.6,19.3-34.4,36.7-32.9,48.8
	c2.7,21.2,250.2,47.8,294.2,68.4C1495.9,1025.2,1495.4,1031.1,1494,1038.6z"/>
<path class="st5" d="M1494,1038.6c-2.9,15.6-9.5,38.1-17.5,49.1c-2.8,3.8-5.7,6.3-8.7,6.6c-15.9,1.7-354.7-34.8-377.3-111.7
	c-22.7-77,90.8-195.7,135.3-243.4c11.3-12.1,63.6-52.9,68.2-64.7c6.6-17,18.3-33.1,49.1-47.5c34.7-16.1,52.4,13.8,62.5,37.4
	c10,23.5,8.7,78.6-28.6,125.1c-8.1,10.1-30.2,27.1-56.1,46.7c-28.9,21.9-62.6,47.1-86.8,69.7c-20.6,19.3-34.4,36.7-32.9,48.8
	c2.7,21.2,250.2,47.8,294.2,68.4C1495.9,1025.2,1495.4,1031.1,1494,1038.6z"/>
<path class="st6" d="M947.4,261.6c-8-8.9-18.7-22.4-31.1-32.3c-11.9-9.6-20.3-19.8-25-32c-4.2-10.9-11.7-57.3-28.5-56.7
	c-7.4,0.3-13.9,30.4-9.4,44c15.8,47.5-13.7,27.5-7,47.5c2.8,8.5,26.2-9.7,36.6,17.6c5.8,15.2,27.1,39.7,33.3,42.6
	C922.6,295,947.4,261.6,947.4,261.6z"/>
<path class="st6" d="M1628.1,477.1c9.9,6.7,25.5,15.2,37.1,26c11.2,10.4,16,15.2,28.8,18.1c11.3,2.6,34.7,10.3,31.3,27.4
	c-1.4,7.3-21.5,35.1-31.1,25.5c-18.5-18.6-10.1,7.8-20.8,2.5c-8-4,1-28.8-27.5-35.3c-15.9-3.6-39.9-22.1-43.7-27.9
	C1598.5,507.6,1628.1,477.1,1628.1,477.1z"/>
<path class="st6" d="M1224.7,350.6c1.2,5.5,1.9,10.8,1.6,15.1c-0.6,8.5,4.6,19.3,0,33.4c-3.5,10.6,30.1-10,30.1-10l34.3-21.7
	c-4.8-17.1-33.9-47.2-41.3-61.6c-8-15.8-33.4-24.9-33.4-24.9l-1.9,37.9l0,0.9l1.7,2.7C1215.6,322.4,1221.6,336.9,1224.7,350.6z"/>
<path class="st7" d="M1213.9,319.7l1.7,2.7c0,0,6,14.5,9,28.2c23,0.3,26.6-27,19.1-31.5c-4.9-3-21.2-8.4-21.2-8.4l-8.7,8.1
	L1213.9,319.7z"/>
<path class="st3" d="M1275.9,339.8c-17.4-0.7-12.5,27.3-28.7,32.5c-8.5,2.7-7.5-1.6-12.6-4.8c-3.1-1.9-6.2-4.2-9.2,0.9
	C1164.1,473,1299,669,1292.2,686.5c-5.6,14.3,69.5,16.3,110.1-4.6c55.8-28.6,14.3-73.6,9.7-85.8c-4.7-12.2-70.2-229-70.2-229
	S1307.9,357.7,1275.9,339.8z"/>
<path class="st8" d="M1330.5,720.9c-13.4,7.2-44.2-3.5-65.5-14.4c-10.2-5.2-13.9-46.2-16.8-70.4c-1.1-9.4-13.4-66-22.5-83.8
	c-4.8-9.4-33.1-66.4-52.8-81.7c-17.1-13.4-134.7-47.3-153.3-59.7C967.1,375.8,888.9,273.7,886,268.2c-9.4-17.9,30.4-51.3,35.7-45.6
	c6.4,6.8,95.9,110.9,121.4,123.5c40.9,20.3,83.9,25.7,182.3,22.3c0,0,5.4,13.9,9.4,52.3c5.3,50.8,44.9,79.2,49,140.7
	C1290.3,660.4,1357.3,706.5,1330.5,720.9z"/>
<path class="st9" d="M1378.1,695.7c8.5,22,94.8,68.9,94.8,68.9s13.4-38,13.4-49.9C1486.3,702.8,1378.1,695.7,1378.1,695.7z"/>
<path class="st6" d="M1208,250.9c-5.7,13.7-29.8,35.7-20.2,38.8c9.6,3.2-12.2,29-2.1,32.8c24.5,9.1,57.9,3,65-7.8
	c7-10.8,16-44.6,16-44.6L1208,250.9z"/>
<path class="st4" d="M1229,273.1c-8.1-1.7-8.9,0.1-13.5-4.4s7.3-8.8-2.4-13.9c-9.6-5.1-20.6-9.5-17.9-21.4c3.9-17.3,18-9.7,26.6-4.7
	c5.5,3.2,11.2-9.1,22.9-4.6c9.2,3.6,6.3,8.6,14.4,12.1c4.9,2.1,17.3-2.8,23.2,5.8c10.9,16-5.6,25.7,2.6,41.6
	c9.6,18.6-32.6,37.3-35.2,32.5c-3.1-5.7,8.1-17.9,4.7-22.7c-5.1-7.3-7.8-1.9-15.1,1.5c-7.9,3.6-19.1,0.3-8.4-8.3
	C1241.4,278,1236.3,274.6,1229,273.1z"/>
<path class="st8" d="M1275.9,339.8c0,0,1.1,16.9,4,41.9c0.3,2.4,0.6,4.9,0.9,7.5c0.4,3.4,0.9,6.9,1.4,10.6c0.4,2.9,0.8,6,1.3,9
	c7.9,54.5,23.1,127.3,50.7,164.1c37.6,49.9,32.9,100.6,44,122.8c11.1,22.2,82.7,39.5,111.8,30.8c68.9-20.6-0.2-64.3-14-84.2
	c-36.7-52.8-45.2-86.1-54-120.4c-0.8-3.1-1.6-6.1-2.4-9.2c-7.5-28.5-26.9-43.9-14.4-60.2c1-1.3,2.2-2.4,3.6-3.4
	c2.1-1.5,4.7-2.6,7.6-3.5c24.2-7.3,74.7,4.3,111.8,22.8c24.9,12.5,95.7,71.8,115.7,83.2c10.8,6.1,35.6-42.7,26.4-51.1
	c-8.8-8.2-82.4-66.9-115.2-86.5c-1.4-0.8-2.7-1.6-3.9-2.3c-24.2-14.1-72.3-31.4-122.9-45.4c-6-1.7-12.1-3.3-18.2-4.9
	c-11.5-3-22.9-5.8-34.2-8.3C1335.6,344.1,1298.6,338.6,1275.9,339.8z"/>
<path class="st10" d="M1239.9,375.4c0.7,3.2,2.4,8,5.3,9.3c4,1.7,5.5,1.3,8.6,0.7c0.2,0,0.4-0.1,0.9,0.1c3.2,1.2,13.8,8.5,27.4,14.2
	c0.9,0.4,1.8,0.8,2.7,1.1c1,0.4,1.9,0.7,2.9,1.1c8.3,3,17.5,5.1,26.6,4.7c2.8-0.1,5.7-0.4,8.5-1.1c13.4-3,30.7-10.6,47.8-18.4
	c3.4-1.5,6.7-3.1,10.1-4.6c1.8-0.8,3.6-1.6,5.5-2.5c13.9-6.2,26.8-11.5,36.4-13.3c1.8-0.3,3.6-0.5,5.6-0.6c-6-1.7-12.1-3.3-18.2-4.9
	c-11.5-3-22.9-5.8-34.2-8.3c-5.5,3.3-11,6.9-16.3,10.4c-2.5,1.7-5,3.3-7.4,4.9c-12.7,8.3-24,15.2-32.6,16.7
	c-6.8,1.2-13.6,1.2-20.2,0.6c-6.2-0.6-12.2-1.9-17.9-3.5c-0.5-0.1-1-0.3-1.4-0.4c0,0-0.1,0-0.1,0c-7.8-2.3-14.9-5.3-21-8.2
	c-5.2-2.4-6.1-4.3-11.2-3.1C1241,372,1239.2,372.2,1239.9,375.4z"/>
<path class="st11" d="M1244.8,382.2c4.3-0.2,5.8-2.1,7.5-4c0.1-0.1,0.4-0.1,0.9,0c3.7,1.3,16.9,10.3,33.3,16
	c8.4,2.9,17.5,4.8,26.7,4.4c2.8-0.1,5.7-0.5,8.5-1.2c13.3-3.1,30.5-11,47.6-19.1c3.4-1.6,6.7-3.2,10-4.7c1.8-0.9,3.6-1.7,5.4-2.5
	c13.8-6.4,26.6-11.9,36.2-13.8c24.5-4.9,66.1,18.9,104.6,13c23.6-3.7,107.8-34.9,116.5-41.7c8.6-6.8,12.9-17.9,11.6-23.5
	c-1.3-5.6-10.6-6.1-25.1-4.4c-14.6,1.7-59.4,36.5-108.7,42.9c-49.3,6.4-67.7-19.7-102.4-17.2c-19.2,1.4-40.5,15.4-59.6,28.3
	c-2.5,1.7-4.9,3.3-7.3,5c-12.6,8.4-23.8,15.6-32.3,17.1c-6.8,1.2-13.6,1.4-20.2,0.8c-6.2-0.5-12.2-1.7-18-3.3
	c-8.4-2.3-16.1-5.3-22.6-8.3c-5.2-2.4-6.2-4.2-11.2-3c-6.7,1.7-7.4,7.4-6.7,10.6C1240,376.9,1241.9,382.3,1244.8,382.2z"/>
<path class="st12" d="M1368.1,451.1c9.5,31.8,40.4,58.4,53.8,70.8c-0.8-3.1-1.6-6.1-2.4-9.2c-7.5-28.5-26.9-43.9-14.4-60.2
	c1-1.3,2.2-2.4,3.6-3.4c2.1-1.5,4.7-2.6,7.6-3.5c-2.7-1-9.4-3.5-12.8-3.4C1399.2,442.4,1365.4,442.1,1368.1,451.1z"/>
<path class="st9" d="M1328.9,799.9l-8.1,36.1c-28.9,21.9-62.6,47.1-86.8,69.7c0.1-0.4,0.2-0.9,0.4-1.3
	C1243.7,873.7,1328.9,799.9,1328.9,799.9z"/>
<path class="st6" d="M778.9,260.6c5.4-14.7,26.5-41.2,31.6-43.5c5.1-2.3,15.8-0.7,13.7-10.1c-1.2-5.2-20.2-1.8-15.2-9.1
	c8.1-11.6,16.2-35.4,11.6-41.5c-23.2-30.9-34.2,12.2-36.5,19.2c-7,21.8-10.1,31.2-25.8,51.6c-15.6,20.5,11.2,31.6,11.2,31.6
	L778.9,260.6z"/>
<path class="st6" d="M195.8,634.7c-11.6,8.6-12.2,17.4-12.9,22.5c-0.7,5.1,2,21.1-6.9,21.7c-5,0.3,0-15.9-7.9-13.7
	c-7.4,2.1-20.9,27-28.8,23.9c-33.5-12.8-4.9-39.8-0.2-44.7c12.7-13.1,23.6-15.8,37.8-34.9c14.2-19.2,32.5,0.5,32.5,0.5L195.8,634.7z
	"/>
<path class="st6" d="M444.7,990.4c-3.6,31.7-7.3,64.7-10.8,97.3c-13.8,127.7-289.8,46.5-300.9,51.1c-23.7,9.9-25.8,17.4-30.8,25.7
	l-19.4,26.7L59,1152.9l33.7-49.7c0,0,267.4,2.8,271.4-24.2c1.6-10.6,0.2-42.7-2.1-77.8c-0.7-10.3-1.4-20.9-2.2-31.2
	c-3.3-44.2-7.1-84.5-7.1-84.5c0.6-7-8.8-66-11.9-72.3c-8.4-16.7-3.2-112.9,42.7-99.3c75.5,22.4,84.5,78.3,84.5,78.3
	s-9.9,82.3-21.3,182.3L444.7,990.4z"/>
<path class="st1" d="M113.8,1101.3c-7.9-5-27.5-14.4-47-0.6c-18.7,15-43.6,19-43.6,19l1.8,7.5c0,0,33.1-9.3,41-3.8
	c-3.1,12.9-27.2,65-26.3,75.8c0.9,10.8,2.6,40.3,8.6,42.7c6,2.3,18.5-1.2,24.6-12.3c6.1-11.2,14.3-43.7,14.3-43.7s-0.1-1.6-1.6-1.4
	c-3.4,0.6-9,1.3-9.6-13.2c-0.7-19.2,24.6-52.8,38.2-64.8C115.9,1105.1,115.7,1102.5,113.8,1101.3z"/>
<path class="st6" d="M442.6,763.6l24.2,17.6c0.9,0.6,1.6,1.5,2.2,2.4c7.4,11.5,50.4,67.5,67.7,94.7c0.1,0.2,22.4-6.2,22.5-6
	c12.5,23.4,55.6,132.3,57.3,173.2c2.2,52.8-219.3,236.7-227.2,249c-7.8,12.2-9.3,24.9-3.9,48.9c0.1,0.2,0.1,0.5,0.2,0.7v0
	c2.9,9.3-9.2,15.7-15.2,8.1l-25.7-32.1c-0.6-0.7-1.1-1.6-1.4-2.5l-8.6-23.4c-1-2.9-0.5-6.1,1.3-8.5c0,0,202.2-226.3,197.4-248.6
	c-4.8-22.3-80.6-175.7-80.6-175.7c-1.6-2.1-42,21.4-44.6,21.3c-9.1-0.1-32.9-6-55.6-57.9c-6.8-15.6,13.5-41,20.2-48.7
	c1.3-1.5,3-2.5,5-2.9l57.9-11.1C438.2,761.7,440.7,762.2,442.6,763.6z"/>
<path class="st1" d="M327.8,1329.3c5.5,6.4,19.4,29.2,30.8,45.5c5.1,7.3,9.6,13.2,12.7,15.9c0.3,0.3,0.6,0.5,0.9,0.7
	c9.3,6.5,31.3,18.4,37.8,16.8c6.5-1.6,9.5-14.3,4-25.9c-2.3-4.9-7.3-11.8-12.3-18.3c-5.1-6.6-10.2-12.6-12.5-15.3
	c-0.8-0.9-1.3-1.5-1.3-1.5s-1.3-0.8-1.9,0.5c-1.4,2.9-4,7.7-15.5,0.2c-15.4-10-27.5-48.4-29.2-65.4c-0.2-2-2.2-3.2-4-2.5
	c-8.1,3.3-26.5,13.3-26.5,36.2c1.3,22.8-9.3,44.3-9.3,44.3l6.8,2.7C308.2,1363.2,319.2,1332.4,327.8,1329.3z"/>
<path class="st13" d="M270.1,964.7c10,29.9,140.6,52.1,193.8,33.8c44.5-15.3,108.8,3.3,142.7-13.9c8.6-38.5-58.2-178.4-65.1-321.2
	C479.5,683.7,384,631.5,384,631.5s-0.6,0.9-1.7,2.7c-6.2,10.1-28.3,47.3-41.7,82.7c-5.3,14.1-9.3,28-10.3,39.6
	c-2.9,33.9-2.3,98.3,0.3,146.4C332.5,939,264.1,946.7,270.1,964.7z"/>
<path class="st3" d="M501.4,376.8l26.6,15.5l33.1,147.3c0,0-15.2,89.1-36.8,119.8c-28.1,40-113.7-7.4-109.7-16.6
	c36.3-84.8,53.9-266.9,53.9-266.9L501.4,376.8z"/>
<path class="st14" d="M340.6,716.9c50.2,27.9,109.3-28.6,109.3-28.6l-58.3-45.2l-9.3-8.9C376.1,644.4,354,681.5,340.6,716.9z"/>
<path class="st8" d="M257.1,494.5C234,517.6,155.9,621.3,155.9,621.3c17.4,18.7,26.7,19.8,39.8,23.5c30-44.1,68-91.3,97.5-114.8
	c14.8-11.8,94.3-51.6,101.8-42.7c9.6,11.5,20.8,59.1,14.9,92.4c-1.2,7-3.2,13.4-6,18.5c-16,29.4-79,52.2-77.6,68.3
	c1.4,16,85.2,60.4,118.2,33.5c28.9-23.6,29-103.8,38.3-127.9c8.3-21.4,27.6-59.9,15-91.1c-9.3-23-20.5-70.3-25.7-93.6
	c-0.1-0.4-0.2-0.7-0.2-1c-1.7-7.7-2.8-12.6-2.8-12.6c-6.4,1.6-13.7,4.2-21.6,7.7c-17.6,7.8-38.4,19.9-59.3,33.9
	C333,452.4,280.7,470.9,257.1,494.5z"/>
<path class="st8" d="M553.1,511.1c8.5,30.2-36,134.9-38.5,155.8c-2.5,20.9-22.1,32.3-18.9,40c7.6,18.6,34.9,11.2,45.5,12.7
	c7.3,1,12.6-18.1,11.7-25.8c-7.8-70.2,40.6-109.7,41.4-164.3c0.1-8.7-15.6-58.6-5-78.4c10.6-19.8,67.7-36.4,114.4-78.5
	c23.5-21.2,80.3-105,90.5-127.2c5.1-11-27.1-38.6-29.4-33.1c-8.4,20.2-74.9,105.6-92.8,122.6c-20.2,19.3-86.4,46.9-148.1,55
	c0,0,0.1,0.4,0.1,0.5c0.3,0.9,2.7,7.2,3.2,16.9c0.4,8.2,2,18.2,2.6,29.5C531.5,469,543,475.3,553.1,511.1z"/>
<path class="st15" d="M410,579.8c8.1-12.1,19.6-30.5,20.5-37.8c1.4-11.3-14.3-40.2-35.4-54.6C406,497.5,415.9,546.5,410,579.8z"/>
<path class="st15" d="M388.2,415.5c50.1,0.9,71.6-7.7,83.9-28c0.2-0.3,0.3-0.6,0.5-0.9l-0.8-0.2l-24.3-4.8
	C429.9,389.5,409.1,401.5,388.2,415.5z"/>
<path class="st16" d="M528,283.2c4,9.9-1.3,16.3,6.5,25.2c6.2,7.1,11.9,7.7,10.1,11.3c-1.8,3.5-8.8,2.6-8.1,6.1
	c0.8,3.5,3.9,5.8,0.1,7.7c-2.5,1.2-5.4,1.4-2.2,3.2c1.3,0.7,3.7-0.6,1.8,3.9c-1.9,4.4,6.1,17.7-0.9,20.5c-3.5,1.4-16.6-5.6-22.6,0.3
	c-5.4,5.2,8.1,21.7,10.5,29.6c2.5,8-4.9,50.8-9.6,50.1c-11.7-1.8-9.5-20.8-38.4-45.9c-32.8-28.5,0.4-72.3,0.4-72.3l8.3-28.2
	L528,283.2z"/>
<path class="st17" d="M254.5,436.2c13,10.4,64.2-40.8,100.9-8.6c14.5,12.7,26.9-3.5,41.5-8.2c2.4-0.8,4.8-1.2,7.4-1.2
	c9.5,0.1,14.9,2,23.1,1.3c0,0,0,0,0,0c1.9-0.2,4-0.5,6.3-1c1.9-0.4,4-1,6.3-1.7c4.2-1.3,9.1-3.2,15-5.9c6.2-2.8,11.4-7,15.9-12.1
	c0,0,0,0,0,0c0.1-0.2,0.3-0.3,0.4-0.5c15.8-18.7,21.2-48.1,25-58.7c1.3-3.6,0.8-8.8-1.9-11.6c-3.6-3.7-8.3-8.3-5.8-13.3
	c2.3-4.6,8.7-4.4,10.6-1.5c4.6,7.4,9.3,9.2,9.1-0.9c-0.3-16.6,9.3-21.7,13.9-23c3-0.8,5.2-2.1,6.7-3.5l0,0
	c5.7-5.7,1.3-15.1-0.6-18.5c-9-16.3-29.6-17.1-54.1-9.7c-34.7,10.5-41.3,62-49.6,68.7c-8.3,6.7-17.2-4.8-39.7,8.1
	c-26.3,15.1-21.5,28.8-30.7,34.7c-8.1,5.2-24.3,3-43.4,7.3C278.1,383.7,234,419.9,254.5,436.2z"/>
<path class="st9" d="M1382.6,997.7c-4,19.2-8.8,29.9-5.9,36.6c2.9,6.7,28.3,54,32.3,54.7c4,0.7,19.5,1.4,19.5,1.4
	s-42.2-46.5-40.3-57.1c2-10.6,9.6-32.7,9.6-32.7L1382.6,997.7z"/>
<path class="st9" d="M1287,980.8c-4,31.2-6.5,43.9-6,49.5c0.6,6.4,11.5,39.8,11.5,39.8l-9.4-1.9c0,0-9.1-31.5-8.7-38.9
	c0.2-4.3-2.1-51-2.1-51L1287,980.8z"/>
<line class="st18" x1="976.3" y1="219.6" x2="1029.1" y2="226.2"/>
<line class="st18" x1="963.3" y1="217.9" x2="966.6" y2="218.3"/>
<line class="st18" x1="969.6" y1="162.9" x2="1020.9" y2="148.4"/>
<line class="st18" x1="957" y1="166.5" x2="960.3" y2="165.6"/>
<line class="st18" x1="950.9" y1="114.8" x2="992.3" y2="81.3"/>
<line class="st18" x1="940.7" y1="123" x2="943.3" y2="120.9"/>
<line class="st18" x1="882.8" y1="73.8" x2="905.5" y2="25.7"/>
<line class="st18" x1="877.2" y1="85.7" x2="878.6" y2="82.6"/>
<line class="st18" x1="804.3" y1="72.4" x2="791.7" y2="20.7"/>
<line class="st18" x1="807.4" y1="85.2" x2="806.6" y2="81.9"/>
<line class="st18" x1="702.1" y1="214.6" x2="649" y2="217.5"/>
<line class="st18" x1="715.2" y1="213.8" x2="711.9" y2="214"/>
<line class="st18" x1="710.8" y1="150.1" x2="663.3" y2="126"/>
<line class="st18" x1="722.5" y1="156.1" x2="719.5" y2="154.5"/>
<line class="st18" x1="738.5" y1="106.5" x2="704.4" y2="65.7"/>
<line class="st18" x1="746.9" y1="116.6" x2="744.8" y2="114"/>
</svg>
