<?xml version="1.0" encoding="utf-8"?>
<!-- Generator: Adobe Illustrator 26.1.0, SVG Export Plug-In . SVG Version: 6.00 Build 0)  -->
<svg version="1.1" id="Layer_1" xmlns="http://www.w3.org/2000/svg" xmlns:xlink="http://www.w3.org/1999/xlink" x="0px" y="0px"
	 viewBox="0 0 1261 1292.9" style="enable-background:new 0 0 1261 1292.9;" xml:space="preserve">
<style type="text/css">
	.st0{fill:#1B5B44;}
	.st1{fill:#329B73;}
	.st2{fill:none;stroke:#1B5B44;stroke-width:10.5005;stroke-miterlimit:10;}
	.st3{fill:#419F81;}
	.st4{fill:#3EB58A;}
	.st5{fill:none;stroke:#1B5B44;stroke-width:8.1671;stroke-miterlimit:10;}
	.st6{opacity:0.1;fill:#1F1F39;}
	.st7{fill:#D8D8D8;}
	.st8{fill:#E5E5E5;}
	.st9{fill:#F2F2F2;}
	.st10{fill:#FFFFFF;}
	.st11{opacity:0.15;fill:#0A0A0A;}
	.st12{fill:#FAAAA2;}
	.st13{fill:#221B2E;}
	.st14{fill:#3B3B4F;}
	.st15{opacity:0.18;fill:#0A0A0A;}
	.st16{fill:#545468;}
	.st17{fill:#EFAEA6;}
	.st18{fill:#244798;}
	.st19{opacity:0.14;fill:#19193B;}
	.st20{fill:#19193B;}
	.st21{opacity:0.18;fill:#1F1F3B;}
	.st22{fill:#F9B901;}
</style>
<path class="st0" d="M343.8,504.3"/>
<path class="st1" d="M47.8,867.8c-16.8,108.6-20.2,155.9,12.3,192.8c32.5,36.9,189.7,234.4,273.1,201.6
	c83.4-32.8,854.7-192.3,890.5-266.3c17-35.1-3.7-143.3-3.7-143.3L882.9,719L47.8,867.8z"/>
<path class="st2" d="M598.6,1006.7c57.2,8.8,115.9,4.1,141.7-24.8c25.9-29,4.3-64.9-48.1-80.1c-52.4-15.3-119.9-9.1-158.8,31.1
	C505.8,961.3,538.5,997.4,598.6,1006.7z"/>
<path class="st0" d="M650.4,961.5C650.4,961.5,650.4,961.5,650.4,961.5c4.6-1.7,12-4.5,17.7-5.2c5.4-0.7,9.3,0.3,7.8,5.7
	c0,0,0,0,0,0c-1.3,4.3-5.7,7.2-11.3,9.6c-12.6,5.3-30.8,7.7-30.9,15.3c11.4,13.1,32.3,8.1,49.5-2.9c3.8-2.4,7.4-5.2,10.6-8
	c20.7-18.4,28.2-43.4-14.1-42.3c-5.7-1.6-19.5,3.8-32,8.1c-6.8,2.4-13.2,4.4-17.8,4.8c-4.6,0.4-7.4-0.8-6.8-4.9c0,0,0-0.1,0-0.1
	c2.1-3,6.2-6.2,11.2-9c0,0,0,0,0,0c7.5-4.3,16.9-7.8,23.9-9.1c6-14.3-18.5-16.2-33.8-7.1c-3,1.1-5.9,2.3-8.5,3.6
	c-4.8,2.3-8.9,4.8-12.3,7.5l0,0C572.2,951.4,596.8,985,650.4,961.5z"/>
<path class="st0" d="M589.6,916.9c-2.6-9.5,10.6-10,12.9-6.8c2.3,3.2,108.4,72,100.4,77.3c-8,5.3-10.8,2.3-27.8-8.8
	C656.3,966.5,589.6,916.9,589.6,916.9z"/>
<ellipse transform="matrix(0.1778 -0.9841 0.9841 0.1778 -665.9391 1301.4987)" class="st0" cx="445.9" cy="1049.3" rx="31.4" ry="54"/>
<path class="st2" d="M577.2,980.8c54.9,12.3,113,11,142.4-16.9c29.4-27.8,13.2-65.4-36-83.9c-49.3-18.5-116.3-16.2-160,22.2
	C492.6,929.4,519.6,967.9,577.2,980.8z"/>
<path class="st0" d="M634.3,938.1C634.3,938.1,634.3,938.1,634.3,938.1c4.7-1.5,12.4-3.8,18.1-4.3c5.4-0.4,9,0.9,6.9,6.2
	c0,0,0,0,0,0c-1.9,4.2-6.6,7-12.4,9c-13.1,4.7-31.2,5.9-32.4,13.7c9.4,13.9,30.6,10.1,48.9,0c4-2.2,7.9-4.8,11.5-7.5
	c22.9-17.4,33.7-42.3-7.9-43.6c-5.4-2-19.6,2.7-32.5,6.3c-7,2-13.6,3.7-18.2,3.8c-4.6,0.1-7.1-1.2-6-5.4c0,0,0-0.1,0-0.1
	c2.4-2.9,7-5.9,12.3-8.4c0,0,0,0,0,0c7.9-3.9,17.6-6.9,24.7-7.8c7.9-14.1-15.9-17.5-32.1-9.2c-3.1,1-6.1,2-8.8,3.1
	c-5,2.1-9.4,4.4-13.1,6.8l0,0C559,923.4,578.5,958.8,634.3,938.1z"/>
<path class="st0" d="M580.8,889.5c-1.3-9.7,11.8-9.5,13.6-6.1c1.8,3.3,96.3,79.2,87.7,84.1c-8.6,4.9-10.9,1.7-26-10.5
	C639.4,943.5,580.8,889.5,580.8,889.5z"/>
<ellipse transform="matrix(0.2097 -0.9778 0.9778 0.2097 -659.2115 1214.4233)" class="st0" cx="421.7" cy="1015" rx="32.4" ry="52.4"/>
<path class="st3" d="M161.2,976.4c2.1-0.7,5.4-1.7,7.9-2c2.4-0.2,4,0.3,3.1,2.7c0,0,0,0,0,0c-0.8,1.9-2.8,3.1-5.3,4
	c-5.7,2.1-13.8,2.8-14.2,6.2c4.3,6.1,13.6,4.3,21.6-0.2c1.7-1,3.4-2.1,5-3.3c9.9-7.7,14.5-18.7-3.9-19.1c-2.4-0.9-8.6,1.3-14.3,2.9
	c-3.1,0.9-6,1.7-8,1.8s-3.2-0.5-2.7-2.3c0,0,0,0,0-0.1c1.1-1.3,3-2.6,5.3-3.8c3.5-1.7,7.7-3.1,10.8-3.5c3.3-6.2-7.2-7.6-14.3-3.9
	c-1.4,0.4-2.7,0.9-3.9,1.4c-2.2,0.9-4.1,2-5.7,3.1C127.8,970.3,136.8,985.8,161.2,976.4z"/>
<path class="st3" d="M137.1,955.3c-0.7-4.3,5.1-4.2,5.9-2.8c0.8,1.5,43.3,34.3,39.6,36.5c-3.8,2.2-4.8,0.8-11.6-4.5
	C163.5,978.8,137.1,955.3,137.1,955.3z"/>
<path class="st4" d="M883.3,682.4c0,0,136.9,80.2,242.9,131.4c37.6,18.2,71.3,32.8,93.7,38.8c-40.4,27.1-108.8,56.2-197.7,86.9
	c-169.8,58.7-414.5,123.2-682.2,190.7c0,0-90.2-20.2-229.5-183.3c-20-23.3-40.9-49.6-62.8-79.2C615,760,320.3,819.9,358.1,812.7
	C569,772.7,772.3,728.6,883.3,682.4z"/>
<path class="st5" d="M111.5,873.7c20.6,27.6,40.3,51.9,58.9,73.3c43.4,49.7,81.3,83.6,111.9,106.5c53.3,39.9,84.5,46.7,84.5,46.7
	c40.9-10.3,81.2-20.6,120.7-30.8c225.2-58,422.9-112.9,548.5-162.1c45.5-17.8,81.6-34.9,106-51.2c-20.4-5.4-51.7-18.7-86.4-35.3
	c-49.7-23.7-106.3-54.1-148-77.1c-35.8-19.7-60.5-33.9-60.5-33.9c-21.4,8.9-50,18.4-83.5,28.3c-140.2,41.4-366.7,88.8-518.1,115.4
	C185.9,864,138,871.2,111.5,873.7z"/>
<path class="st0" d="M751.3,742.5c65.5,29.5,92,21.6,172,6.7c-42.7-23.5-72.3-40.5-72.3-40.5C825.4,719.3,791.3,730.7,751.3,742.5z"
	/>
<path class="st0" d="M1036,907.2c45.5-17.8,81.6-34.9,106-51.2c-20.4-5.4-51.7-18.7-86.4-35.3C1030.6,853.4,1021.4,881.2,1036,907.2
	z"/>
<path class="st0" d="M282.3,1053.5c53.3,39.9,84.5,46.7,84.5,46.7c40.9-10.3,81.2-20.6,120.7-30.8
	C437.2,1044.5,374.3,1034.7,282.3,1053.5z"/>
<path class="st2" d="M577.6,943.5c50.1,17.7,106.4,21.9,141-3.5c34.6-25.4,27.6-65.1-15.7-88.6s-108.4-27.6-159.3,7.2
	C507.7,883.3,525,924.9,577.6,943.5z"/>
<path class="st0" d="M642.3,905.6C642.3,905.6,642.3,905.6,642.3,905.6c4.9-1.1,12.8-2.7,18.4-2.6c5.3,0.1,8.5,1.8,5.2,7
	c0,0,0,0,0,0c-2.7,4.1-7.9,6.4-14,8c-13.7,3.5-31.5,3-34.4,10.8c5.9,15,27.2,13.2,47.1,4.6c4.4-1.9,8.7-4.1,12.8-6.5
	c26-15.5,42.1-39.7,2.3-45.1c-4.7-2.5-19.5,0.8-32.8,3.3c-7.2,1.4-13.9,2.4-18.4,2.1c-4.4-0.3-6.6-1.9-4.5-6c0,0,0-0.1,0.1-0.1
	c3-2.7,8-5.3,13.7-7.4c0,0,0,0,0,0c8.5-3.2,18.5-5.3,25.6-5.6c10.8-13.5-11.3-19.3-28.8-12.4c-3.2,0.7-6.3,1.5-9.2,2.3
	c-5.3,1.6-10,3.5-14.2,5.7l0,0C573.1,883.4,583.8,921.3,642.3,905.6z"/>
<path class="st0" d="M601.8,851.1c1-10,13.5-8.5,14.5-4.9c0.9,3.5,74.8,89.6,65.4,93.8c-9.4,4.2-10.9,0.7-22.7-13.1
	C645.9,911.6,601.8,851.1,601.8,851.1z"/>
<path class="st3" d="M846.5,740.2c1.9-0.7,5-1.8,7.3-2.1c2.2-0.3,3.8,0.2,3.2,2.4c0,0,0,0,0,0c-0.6,1.8-2.4,3-4.7,3.9
	c-5.2,2.2-12.8,3-12.9,6.2c4.6,5.5,13.2,3.5,20.4-1c1.6-1,3.1-2.1,4.4-3.3c8.7-7.5,12.1-17.9-5.4-17.6c-2.3-0.7-8.1,1.5-13.3,3.2
	c-2.8,0.9-5.5,1.8-7.4,1.9c-1.9,0.2-3-0.4-2.8-2.1c0,0,0,0,0-0.1c0.9-1.2,2.6-2.5,4.7-3.7c3.1-1.7,7-3.2,9.9-3.7
	c2.6-5.9-7.5-6.8-13.8-3.1c-1.3,0.5-2.4,0.9-3.5,1.4l0,0c-2,0.9-3.7,2-5.1,3C814.3,735.6,824.2,749.7,846.5,740.2z"/>
<path class="st3" d="M821.9,721.4c-1-3.9,4.5-4.1,5.4-2.8c0.9,1.3,43.9,30.3,40.6,32.5c-3.4,2.2-4.5,0.9-11.4-3.7
	C848.8,742.3,821.9,721.4,821.9,721.4z"/>
<path class="st3" d="M1084.2,863.1C1084.2,863.1,1084.2,863,1084.2,863.1c2-0.6,5.2-1.5,7.5-1.6c2.2-0.1,3.7,0.4,2.7,2.7l0,0
	c-0.9,1.7-2.9,2.8-5.3,3.6c-5.4,1.8-13,2.2-13.6,5.4c2.3,3.7,6.6,4.5,11.6,3.6c2.8-0.6,5.7-1.7,8.5-3.1c1.3-0.7,2.5-1.4,3.6-2.1
	c0,0,0,0,0,0c0.4-0.3,0.8-0.6,1.2-0.9c9.8-7,14.8-17.3-2.3-18.2c-2.2-0.9-8.1,0.9-13.5,2.3c-2.9,0.8-5.7,1.4-7.6,1.4
	c-1.9,0-2.9-0.6-2.3-2.3l0,0c0,0,0,0,0-0.1c1.1-1.2,3-2.4,5.2-3.4c3.3-1.5,7.4-2.7,10.3-3c3.5-5.8-6.1-7.4-13-4.1
	c-1.3,0.4-2.5,0.8-3.7,1.2c-2.1,0.8-4,1.7-5.6,2.7C1053.6,856.2,1060.9,871.1,1084.2,863.1z"/>
<path class="st3" d="M1063.4,842.4c-0.3-4.1,5-3.8,5.7-2.4c0.7,1.4,37.7,33.8,34.1,35.8c-3.6,2-4.5,0.6-10.4-4.6
	C1086.2,865.4,1063.4,842.4,1063.4,842.4z"/>
<ellipse transform="matrix(0.2538 -0.9673 0.9673 0.2538 -618.4769 1124.99)" class="st0" cx="419.9" cy="963.4" rx="51.1" ry="74.5"/>
<ellipse transform="matrix(0.2207 -0.9753 0.9753 0.2207 -162.084 1462.9717)" class="st0" cx="834.5" cy="832.9" rx="47.2" ry="74.7"/>
<path class="st0" d="M110,874.4c49.4-8.9,93.9-16.1,133.8-21.8c-7,43.8-31.2,67.6-76.1,89.8C144.1,911.2,123.5,886.9,110,874.4z"/>
<path class="st3" d="M177.7,899.3c2.1-0.5,5.6-1.2,8.1-1.2c2.3,0,3.8,0.7,2.4,3.1c0,0,0,0,0,0c-1.2,1.8-3.4,2.9-6.1,3.6
	c-6,1.6-13.9,1.5-15.1,4.9c2.8,6.6,12.1,5.7,20.9,1.8c1.9-0.8,3.8-1.8,5.6-2.9c11.3-6.9,18.2-17.6,0.5-19.8
	c-2.1-1.1-8.6,0.5-14.4,1.6c-3.2,0.6-6.1,1.1-8.1,1c-2-0.1-2.9-0.8-2-2.6c0,0,0,0,0-0.1c1.3-1.2,3.5-2.4,6-3.3
	c3.7-1.4,8.1-2.4,11.2-2.6c4.6-6-5.2-8.4-12.9-5.3c-1.4,0.3-2.8,0.7-4,1.1c-2.3,0.7-4.4,1.6-6.2,2.6
	C146.9,889.9,152,906.4,177.7,899.3z"/>
<path class="st3" d="M159.2,875.5c0.3-4.4,5.9-3.8,6.3-2.2c0.5,1.6,34,39,29.8,40.9c-4.1,1.9-4.8,0.3-10.2-5.7
	C179.3,901.9,159.2,875.5,159.2,875.5z"/>
<path class="st3" d="M373.4,1076.2c1.7-0.4,4.5-1,6.5-1c1.9,0,3,0.6,1.9,2.4c0,0,0,0,0,0c-0.9,1.5-2.7,2.3-4.9,2.8
	c-4.8,1.3-11.1,1.2-12,3.9c2.2,5.2,9.7,4.5,16.7,1.5c1.5-0.7,3-1.5,4.5-2.3c9-5.5,14.5-14.1,0.4-15.8c-1.7-0.9-6.9,0.4-11.5,1.3
	c-2.5,0.5-4.9,0.9-6.4,0.8l0,0c-1.6-0.1-2.3-0.7-1.6-2.1c0,0,0,0,0,0c1.1-1,2.8-1.9,4.8-2.6c3-1.1,6.5-1.9,9-2
	c3.7-4.8-4.1-6.7-10.3-4.3c-1.1,0.2-2.2,0.5-3.2,0.9c-1.9,0.6-3.5,1.3-5,2C348.8,1068.7,352.9,1081.9,373.4,1076.2z"/>
<path class="st3" d="M358.7,1057.2c0.3-3.5,4.7-3,5.1-1.8c0.4,1.2,27.1,31.2,23.8,32.7c-3.3,1.5-3.8,0.3-8.1-4.5
	C374.7,1078.3,358.7,1057.2,358.7,1057.2z"/>
<path class="st6" d="M883.3,682.4c0,0,136.9,80.2,242.9,131.4c-199-28-514.9-2.4-810.9,10.2C526.2,784.4,772.3,728.6,883.3,682.4z"
	/>
<path class="st0" d="M367.6,1153.1c669.1-165.3,817.2-258.9,817.2-258.9C1104,950.2,367.6,1153.1,367.6,1153.1z"/>
<path class="st0" d="M386.9,1228.8c670.8-160.2,820.3-252.8,820.3-252.8C1125.6,1031.4,386.9,1228.8,386.9,1228.8z"/>
<path class="st0" d="M399.5,1159.5c670.8-160.2,820.3-252.8,820.3-252.8C1138.2,962.2,399.5,1159.5,399.5,1159.5z"/>
<path class="st0" d="M384.5,1184.4C751,1107.9,835,1059.7,835,1059.7C789,1088.7,384.5,1184.4,384.5,1184.4z"/>
<path class="st0" d="M394,1196.4c366.6-76.6,450.5-124.7,450.5-124.7C798.5,1100.7,394,1196.4,394,1196.4z"/>
<path class="st0" d="M744.4,1121.9c359.8-97.6,437.7-149.9,437.7-149.9C1139.8,1003.1,744.4,1121.9,744.4,1121.9z"/>
<path class="st0" d="M735.5,1102.8c359.8-97.6,437.7-149.9,437.7-149.9C1130.8,984.1,735.5,1102.8,735.5,1102.8z"/>
<path class="st7" d="M827,1141.1c-1.1,10.2-160.8,54.6-166.7,43.8c-5.9-10.8,4.5-129.1-3.9-136.4c-8.3-7.3-255.9-233.1-237.2-248.9
	c28.3-23.8,173.8-46.5,176.2-36.4c2.4,10,218.6,214.4,226.2,239C829.3,1027,828.1,1130.8,827,1141.1z"/>
<path class="st0" d="M58.3,932.9c12.9,38.5,181,206,231.7,218.9C161.6,1070.9,58.3,932.9,58.3,932.9z"/>
<path class="st0" d="M50.8,1018c12.9,38.5,181,206,231.7,218.9C154.1,1156,50.8,1018,50.8,1018z"/>
<path class="st0" d="M65.2,978.5c12.9,38.5,181,206,231.7,218.9C171.5,1111.2,65.2,978.5,65.2,978.5z"/>
<path class="st0" d="M62.3,956.8c44.6,64,181,206,231.7,218.9C165.6,1094.8,62.3,956.8,62.3,956.8z"/>
<path class="st0" d="M46.9,987.9c44.6,64,168.1,193.5,231.7,218.9C150.1,1126.2,46.9,987.9,46.9,987.9z"/>
<path class="st0" d="M67.6,921.6c44.6,64,168.1,193.5,231.7,218.9C170.8,1059.9,67.6,921.6,67.6,921.6z"/>
<path class="st1" d="M47.8,716.8C31.1,825.4,27.7,872.8,60.1,909.6c32.5,36.9,189.7,234.4,273.1,201.6
	c83.4-32.8,854.7-192.3,890.5-266.3c17-35.1-3.7-143.3-3.7-143.3L882.9,568L47.8,716.8z"/>
<path class="st2" d="M598.6,855.7c57.2,8.8,115.9,4.1,141.7-24.8c25.9-29,4.3-64.9-48.1-80.1c-52.4-15.3-119.9-9.1-158.8,31.1
	C505.8,810.3,538.5,846.5,598.6,855.7z"/>
<path class="st0" d="M650.4,810.6C650.4,810.6,650.4,810.6,650.4,810.6c4.6-1.7,12-4.5,17.7-5.2c5.4-0.7,9.3,0.3,7.8,5.7
	c0,0,0,0,0,0c-1.3,4.3-5.7,7.2-11.3,9.6c-12.6,5.3-30.8,7.7-30.9,15.3c11.4,13.1,32.3,8.1,49.5-2.9c3.8-2.4,7.4-5.2,10.6-8
	c20.7-18.4,28.2-43.4-14.1-42.3c-5.7-1.6-19.5,3.8-32,8.1c-6.8,2.4-13.2,4.4-17.8,4.8c-4.6,0.4-7.4-0.8-6.8-4.9c0,0,0-0.1,0-0.1
	c2.1-3,6.2-6.2,11.2-9c0,0,0,0,0,0c7.5-4.3,16.9-7.8,23.9-9.1c6-14.3-18.5-16.2-33.8-7.1c-3,1.1-5.9,2.3-8.5,3.6
	c-4.8,2.3-8.9,4.8-12.3,7.5l0,0C572.2,800.5,596.8,834.1,650.4,810.6z"/>
<path class="st0" d="M589.6,766c-2.6-9.5,10.6-10,12.9-6.8s108.4,72,100.4,77.3c-8,5.3-10.8,2.3-27.8-8.8
	C656.3,815.6,589.6,766,589.6,766z"/>
<ellipse transform="matrix(0.1778 -0.9841 0.9841 0.1778 -517.401 1177.4)" class="st0" cx="445.9" cy="898.3" rx="31.4" ry="54"/>
<path class="st2" d="M577.2,829.9c54.9,12.3,113,11,142.4-16.9c29.4-27.8,13.2-65.4-36-83.9c-49.3-18.5-116.3-16.2-160,22.2
	C492.6,778.5,519.6,817,577.2,829.9z"/>
<path class="st0" d="M634.3,787.2C634.3,787.2,634.3,787.2,634.3,787.2c4.7-1.5,12.4-3.8,18.1-4.3c5.4-0.4,9,0.9,6.9,6.2
	c0,0,0,0,0,0c-1.9,4.2-6.6,7-12.4,9c-13.1,4.7-31.2,5.9-32.4,13.7c9.4,13.9,30.6,10.1,48.9,0c4-2.2,7.9-4.8,11.5-7.5
	c22.9-17.4,33.7-42.3-7.9-43.6c-5.4-2-19.6,2.7-32.5,6.3c-7,2-13.6,3.7-18.2,3.8c-4.6,0.1-7.1-1.2-6-5.4c0,0,0-0.1,0-0.1
	c2.4-2.9,7-5.9,12.3-8.4c0,0,0,0,0,0c7.9-3.9,17.6-6.9,24.7-7.8c7.9-14.1-15.9-17.5-32.1-9.2c-3.1,1-6.1,2-8.8,3.1
	c-5,2.1-9.4,4.4-13.1,6.8l0,0C559,772.4,578.5,807.9,634.3,787.2z"/>
<path class="st0" d="M580.8,738.5c-1.3-9.7,11.8-9.5,13.6-6.1c1.8,3.3,96.3,79.2,87.7,84.1c-8.6,4.9-10.9,1.7-26-10.5
	C639.4,792.6,580.8,738.5,580.8,738.5z"/>
<ellipse transform="matrix(0.2097 -0.9778 0.9778 0.2097 -511.6248 1095.1349)" class="st0" cx="421.7" cy="864.1" rx="32.4" ry="52.4"/>
<path class="st3" d="M161.2,825.5c2.1-0.7,5.4-1.7,7.9-2c2.4-0.2,4,0.3,3.1,2.7c0,0,0,0,0,0c-0.8,1.9-2.8,3.1-5.3,4
	c-5.7,2.1-13.8,2.8-14.2,6.2c4.3,6.1,13.6,4.3,21.6-0.2c1.7-1,3.4-2.1,5-3.3c9.9-7.7,14.5-18.7-3.9-19.1c-2.4-0.9-8.6,1.3-14.3,2.9
	c-3.1,0.9-6,1.7-8,1.8c-2,0.1-3.2-0.5-2.7-2.3c0,0,0,0,0-0.1c1.1-1.3,3-2.6,5.3-3.8c3.5-1.7,7.7-3.1,10.8-3.5
	c3.3-6.2-7.2-7.6-14.3-3.9c-1.4,0.4-2.7,0.9-3.9,1.4c-2.2,0.9-4.1,2-5.7,3.1C127.8,819.3,136.8,834.8,161.2,825.5z"/>
<path class="st3" d="M137.1,804.4c-0.7-4.3,5.1-4.2,5.9-2.8c0.8,1.5,43.3,34.3,39.6,36.5c-3.8,2.2-4.8,0.8-11.6-4.5
	C163.5,827.9,137.1,804.4,137.1,804.4z"/>
<path class="st4" d="M883.3,531.4c0,0,136.9,80.2,242.9,131.4c37.6,18.2,71.3,32.8,93.7,38.8c-40.4,27.1-108.8,56.2-197.7,86.9
	c-169.8,58.7-414.5,123.2-682.2,190.7c0,0-90.2-20.2-229.5-183.3c-20-23.3-40.9-49.6-62.8-79.2c567.2-107.7,272.5-47.9,310.3-55.1
	C569,621.8,772.3,577.6,883.3,531.4z"/>
<path class="st5" d="M111.5,722.8c20.6,27.6,40.3,51.9,58.9,73.3c43.4,49.7,81.3,83.6,111.9,106.5c53.3,39.9,84.5,46.7,84.5,46.7
	c40.9-10.3,81.2-20.6,120.7-30.8c225.2-58,422.9-112.9,548.5-162.1c45.5-17.8,81.6-34.9,106-51.2c-20.4-5.4-51.7-18.7-86.4-35.3
	c-49.7-23.7-106.3-54.1-148-77.1c-35.8-19.7-60.5-33.9-60.5-33.9c-21.4,8.9-50,18.4-83.5,28.3c-140.2,41.4-366.7,88.8-518.1,115.4
	C185.9,713,138,720.3,111.5,722.8z"/>
<path class="st0" d="M751.3,591.6c65.5,29.5,92,21.6,172,6.7c-42.7-23.5-72.3-40.5-72.3-40.5C825.4,568.4,791.3,579.8,751.3,591.6z"
	/>
<path class="st0" d="M1036,756.3c45.5-17.8,81.6-34.9,106-51.2c-20.4-5.4-51.7-18.7-86.4-35.3C1030.6,702.5,1021.4,730.2,1036,756.3
	z"/>
<path class="st0" d="M282.3,902.5c53.3,39.9,84.5,46.7,84.5,46.7c40.9-10.3,81.2-20.6,120.7-30.8
	C437.2,893.6,374.3,883.8,282.3,902.5z"/>
<path class="st2" d="M577.6,792.6c50.1,17.7,106.4,21.9,141-3.5c34.6-25.4,27.6-65.1-15.7-88.6c-43.3-23.5-108.4-27.6-159.3,7.2
	C507.7,732.3,525,774,577.6,792.6z"/>
<path class="st0" d="M642.3,754.7C642.3,754.7,642.3,754.7,642.3,754.7c4.9-1.1,12.8-2.7,18.4-2.6c5.3,0.1,8.5,1.8,5.2,7
	c0,0,0,0,0,0c-2.7,4.1-7.9,6.4-14,8c-13.7,3.5-31.5,3-34.4,10.8c5.9,15,27.2,13.2,47.1,4.6c4.4-1.9,8.7-4.1,12.8-6.5
	c26-15.5,42.1-39.7,2.3-45.1c-4.7-2.5-19.5,0.8-32.8,3.3c-7.2,1.4-13.9,2.4-18.4,2.1c-4.4-0.3-6.6-1.9-4.5-6c0,0,0-0.1,0.1-0.1
	c3-2.7,8-5.3,13.7-7.4c0,0,0,0,0,0c8.5-3.2,18.5-5.3,25.6-5.6c10.8-13.5-11.3-19.3-28.8-12.4c-3.2,0.7-6.3,1.5-9.2,2.3
	c-5.3,1.6-10,3.5-14.2,5.7l0,0C573.1,732.5,583.8,770.3,642.3,754.7z"/>
<path class="st0" d="M601.8,700.2c1-10,13.5-8.5,14.5-4.9c0.9,3.5,74.8,89.6,65.4,93.8c-9.4,4.2-10.9,0.7-22.7-13.1
	C645.9,760.7,601.8,700.2,601.8,700.2z"/>
<path class="st3" d="M846.5,589.2c1.9-0.7,5-1.8,7.3-2.1c2.2-0.3,3.8,0.2,3.2,2.4c0,0,0,0,0,0c-0.6,1.8-2.4,3-4.7,3.9
	c-5.2,2.2-12.8,3-12.9,6.2c4.6,5.5,13.2,3.5,20.4-1c1.6-1,3.1-2.1,4.4-3.3c8.7-7.5,12.1-17.9-5.4-17.6c-2.3-0.7-8.1,1.5-13.3,3.2
	c-2.8,0.9-5.5,1.8-7.4,1.9c-1.9,0.2-3-0.4-2.8-2.1c0,0,0,0,0-0.1c0.9-1.2,2.6-2.5,4.7-3.7c3.1-1.7,7-3.2,9.9-3.7
	c2.6-5.9-7.5-6.8-13.8-3.1c-1.3,0.5-2.4,0.9-3.5,1.4l0,0c-2,0.9-3.7,2-5.1,3C814.3,584.7,824.2,598.7,846.5,589.2z"/>
<path class="st3" d="M821.9,570.5c-1-3.9,4.5-4.1,5.4-2.8c0.9,1.3,43.9,30.3,40.6,32.5c-3.4,2.2-4.5,0.9-11.4-3.7
	C848.8,591.3,821.9,570.5,821.9,570.5z"/>
<path class="st3" d="M1084.2,712.1C1084.2,712.1,1084.2,712.1,1084.2,712.1c2-0.6,5.2-1.5,7.5-1.6c2.2-0.1,3.7,0.4,2.7,2.7l0,0
	c-0.9,1.7-2.9,2.8-5.3,3.6c-5.4,1.8-13,2.2-13.6,5.4c2.3,3.7,6.6,4.5,11.6,3.6c2.8-0.6,5.7-1.7,8.5-3.1c1.3-0.7,2.5-1.4,3.6-2.1
	c0,0,0,0,0,0c0.4-0.3,0.8-0.6,1.2-0.9c9.8-7,14.8-17.3-2.3-18.2c-2.2-0.9-8.1,0.9-13.5,2.3c-2.9,0.8-5.7,1.4-7.6,1.4
	c-1.9,0-2.9-0.6-2.3-2.3l0,0c0,0,0,0,0-0.1c1.1-1.2,3-2.4,5.2-3.4c3.3-1.5,7.4-2.7,10.3-3c3.5-5.8-6.1-7.4-13-4.1
	c-1.3,0.4-2.5,0.8-3.7,1.2c-2.1,0.8-4,1.7-5.6,2.7C1053.6,705.3,1060.9,720.2,1084.2,712.1z"/>
<path class="st3" d="M1063.4,691.4c-0.3-4.1,5-3.8,5.7-2.4c0.7,1.4,37.7,33.8,34.1,35.8c-3.6,2-4.5,0.6-10.4-4.6
	C1086.2,714.4,1063.4,691.4,1063.4,691.4z"/>
<ellipse transform="matrix(0.2538 -0.9673 0.9673 0.2538 -472.4768 1012.3585)" class="st0" cx="419.9" cy="812.4" rx="51.1" ry="74.5"/>
<ellipse transform="matrix(0.2207 -0.9753 0.9753 0.2207 -14.8635 1345.3458)" class="st0" cx="834.5" cy="682" rx="47.2" ry="74.7"/>
<path class="st0" d="M110,723.5c49.4-8.9,93.9-16.1,133.8-21.8c-7,43.8-31.2,67.6-76.1,89.8C144.1,760.3,123.5,735.9,110,723.5z"/>
<path class="st3" d="M177.7,748.3c2.1-0.5,5.6-1.2,8.1-1.2c2.3,0,3.8,0.7,2.4,3.1c0,0,0,0,0,0c-1.2,1.8-3.4,2.9-6.1,3.6
	c-6,1.6-13.9,1.5-15.1,4.9c2.8,6.6,12.1,5.7,20.9,1.8c1.9-0.8,3.8-1.8,5.6-2.9c11.3-6.9,18.2-17.6,0.5-19.8
	c-2.1-1.1-8.6,0.5-14.4,1.6c-3.2,0.6-6.1,1.1-8.1,1c-2-0.1-2.9-0.8-2-2.6c0,0,0,0,0-0.1c1.3-1.2,3.5-2.4,6-3.3
	c3.7-1.4,8.1-2.4,11.2-2.6c4.6-6-5.2-8.4-12.9-5.3c-1.4,0.3-2.8,0.7-4,1.1c-2.3,0.7-4.4,1.6-6.2,2.6
	C146.9,738.9,152,755.5,177.7,748.3z"/>
<path class="st3" d="M159.2,724.6c0.3-4.4,5.9-3.8,6.3-2.2c0.5,1.6,34,39,29.8,40.9c-4.1,1.9-4.8,0.3-10.2-5.7
	C179.3,751,159.2,724.6,159.2,724.6z"/>
<path class="st3" d="M373.4,925.3c1.7-0.4,4.5-1,6.5-1c1.9,0,3,0.6,1.9,2.4c0,0,0,0,0,0c-0.9,1.5-2.7,2.3-4.9,2.8
	c-4.8,1.3-11.1,1.2-12,3.9c2.2,5.2,9.7,4.5,16.7,1.5c1.5-0.7,3-1.5,4.5-2.3c9-5.5,14.5-14.1,0.4-15.8c-1.7-0.9-6.9,0.4-11.5,1.3
	c-2.5,0.5-4.9,0.9-6.4,0.8l0,0c-1.6-0.1-2.3-0.7-1.6-2.1c0,0,0,0,0,0c1.1-1,2.8-1.9,4.8-2.6c3-1.1,6.5-1.9,9-2
	c3.7-4.8-4.1-6.7-10.3-4.3c-1.1,0.2-2.2,0.5-3.2,0.9c-1.9,0.6-3.5,1.3-5,2C348.8,917.7,352.9,931,373.4,925.3z"/>
<path class="st3" d="M358.7,906.3c0.3-3.5,4.7-3,5.1-1.8c0.4,1.2,27.1,31.2,23.8,32.7c-3.3,1.5-3.8,0.3-8.1-4.5
	C374.7,927.4,358.7,906.3,358.7,906.3z"/>
<path class="st6" d="M883.3,531.4c0,0,136.9,80.2,242.9,131.4c-199-28-514.9-2.4-810.9,10.2C526.2,633.5,772.3,577.6,883.3,531.4z"
	/>
<path class="st0" d="M367.6,1002.1c669.1-165.3,817.2-258.9,817.2-258.9C1104,799.2,367.6,1002.1,367.6,1002.1z"/>
<path class="st0" d="M386.9,1077.9C1057.6,917.6,1207.2,825,1207.2,825C1125.6,880.5,386.9,1077.9,386.9,1077.9z"/>
<path class="st0" d="M399.5,1008.6c670.8-160.2,820.3-252.8,820.3-252.8C1138.2,811.2,399.5,1008.6,399.5,1008.6z"/>
<path class="st0" d="M384.5,1033.5C751,956.9,835,908.8,835,908.8C789,937.7,384.5,1033.5,384.5,1033.5z"/>
<path class="st0" d="M394,1045.5c366.6-76.6,450.5-124.7,450.5-124.7C798.5,949.7,394,1045.5,394,1045.5z"/>
<path class="st0" d="M744.4,971c359.8-97.6,437.7-149.9,437.7-149.9C1139.8,852.2,744.4,971,744.4,971z"/>
<path class="st0" d="M735.5,951.9c359.8-97.6,437.7-149.9,437.7-149.9C1130.8,833.1,735.5,951.9,735.5,951.9z"/>
<path class="st8" d="M827,990.1c-1.1,10.2-160.8,54.6-166.7,43.8c-5.9-10.8,4.5-129.1-3.9-136.4c-8.3-7.3-255.9-233.1-237.2-248.9
	c28.3-23.8,173.8-46.5,176.2-36.4c2.4,10,218.6,214.4,226.2,239C829.3,876,828.1,979.9,827,990.1z"/>
<path class="st0" d="M58.3,782c12.9,38.5,181,206,231.7,218.9C161.6,920,58.3,782,58.3,782z"/>
<path class="st0" d="M50.8,867c12.9,38.5,181,206,231.7,218.9C154.1,1005,50.8,867,50.8,867z"/>
<path class="st0" d="M65.2,827.6c12.9,38.5,181,206,231.7,218.9C171.5,960.2,65.2,827.6,65.2,827.6z"/>
<path class="st0" d="M62.3,805.8c44.6,64,181,206,231.7,218.9C165.6,943.8,62.3,805.8,62.3,805.8z"/>
<path class="st0" d="M46.9,836.9c44.6,64,168.1,193.5,231.7,218.9C150.1,975.2,46.9,836.9,46.9,836.9z"/>
<path class="st0" d="M67.6,770.6c44.6,64,168.1,193.5,231.7,218.9C170.8,909,67.6,770.6,67.6,770.6z"/>
<path class="st1" d="M47.8,545.9C31.1,654.4,27.7,701.8,60.1,738.7c32.5,36.9,189.7,234.4,273.1,201.6
	c83.4-32.8,854.7-192.3,890.5-266.3c17-35.1-3.7-143.3-3.7-143.3l-337-133.6L47.8,545.9z"/>
<path class="st2" d="M598.6,684.8c57.2,8.8,115.9,4.1,141.7-24.8c25.9-29,4.3-64.9-48.1-80.1c-52.4-15.3-119.9-9.1-158.8,31.1
	C505.8,639.4,538.5,675.5,598.6,684.8z"/>
<path class="st0" d="M650.4,639.6C650.4,639.6,650.4,639.6,650.4,639.6c4.6-1.7,12-4.5,17.7-5.2c5.4-0.7,9.3,0.3,7.8,5.7
	c0,0,0,0,0,0c-1.3,4.3-5.7,7.2-11.3,9.6c-12.6,5.3-30.8,7.7-30.9,15.3c11.4,13.1,32.3,8.1,49.5-2.9c3.8-2.4,7.4-5.2,10.6-8
	c20.7-18.4,28.2-43.4-14.1-42.3c-5.7-1.6-19.5,3.8-32,8.1c-6.8,2.4-13.2,4.4-17.8,4.8c-4.6,0.4-7.4-0.8-6.8-4.9c0,0,0-0.1,0-0.1
	c2.1-3,6.2-6.2,11.2-9c0,0,0,0,0,0c7.5-4.3,16.9-7.8,23.9-9.1c6-14.3-18.5-16.2-33.8-7.1c-3,1.1-5.9,2.3-8.5,3.6
	c-4.8,2.3-8.9,4.8-12.3,7.5l0,0C572.2,629.5,596.8,663.1,650.4,639.6z"/>
<path class="st0" d="M589.6,595.1c-2.6-9.5,10.6-10,12.9-6.8s108.4,72,100.4,77.3c-8,5.3-10.8,2.3-27.8-8.8
	C656.3,644.6,589.6,595.1,589.6,595.1z"/>
<ellipse transform="matrix(0.1778 -0.9841 0.9841 0.1778 -349.1778 1036.8517)" class="st0" cx="445.9" cy="727.4" rx="31.4" ry="54"/>
<path class="st2" d="M577.2,658.9c54.9,12.3,113,11,142.4-16.9c29.4-27.8,13.2-65.4-36-83.9c-49.3-18.5-116.3-16.2-160,22.2
	C492.6,607.5,519.6,646,577.2,658.9z"/>
<path class="st0" d="M634.3,616.2C634.3,616.2,634.3,616.2,634.3,616.2c4.7-1.5,12.4-3.8,18.1-4.3c5.4-0.4,9,0.9,6.9,6.2
	c0,0,0,0,0,0c-1.9,4.2-6.6,7-12.4,9c-13.1,4.7-31.2,5.9-32.4,13.7c9.4,13.9,30.6,10.1,48.9,0c4-2.2,7.9-4.8,11.5-7.5
	c22.9-17.4,33.7-42.3-7.9-43.6c-5.4-2-19.6,2.7-32.5,6.3c-7,2-13.6,3.7-18.2,3.8c-4.6,0.1-7.1-1.2-6-5.4c0,0,0-0.1,0-0.1
	c2.4-2.9,7-5.9,12.3-8.4c0,0,0,0,0,0c7.9-3.9,17.6-6.9,24.7-7.8c7.9-14.1-15.9-17.5-32.1-9.2c-3.1,1-6.1,2-8.8,3.1
	c-5,2.1-9.4,4.4-13.1,6.8l0,0C559,601.5,578.5,636.9,634.3,616.2z"/>
<path class="st0" d="M580.8,567.6c-1.3-9.7,11.8-9.5,13.6-6.1c1.8,3.3,96.3,79.2,87.7,84.1c-8.6,4.9-10.9,1.7-26-10.5
	C639.4,621.7,580.8,567.6,580.8,567.6z"/>
<ellipse transform="matrix(0.2097 -0.9778 0.9778 0.2097 -344.4787 960.0368)" class="st0" cx="421.7" cy="693.1" rx="32.4" ry="52.4"/>
<path class="st3" d="M161.2,654.5c2.1-0.7,5.4-1.7,7.9-2c2.4-0.2,4,0.3,3.1,2.7c0,0,0,0,0,0c-0.8,1.9-2.8,3.1-5.3,4
	c-5.7,2.1-13.8,2.8-14.2,6.2c4.3,6.1,13.6,4.3,21.6-0.2c1.7-1,3.4-2.1,5-3.3c9.9-7.7,14.5-18.7-3.9-19.1c-2.4-0.9-8.6,1.3-14.3,2.9
	c-3.1,0.9-6,1.7-8,1.8s-3.2-0.5-2.7-2.3c0,0,0,0,0-0.1c1.1-1.3,3-2.6,5.3-3.8c3.5-1.7,7.7-3.1,10.8-3.5c3.3-6.2-7.2-7.6-14.3-3.9
	c-1.4,0.4-2.7,0.9-3.9,1.4c-2.2,0.9-4.1,2-5.7,3.1C127.8,648.4,136.8,663.9,161.2,654.5z"/>
<path class="st3" d="M137.1,633.4c-0.7-4.3,5.1-4.2,5.9-2.8c0.8,1.5,43.3,34.3,39.6,36.5c-3.8,2.2-4.8,0.8-11.6-4.5
	C163.5,656.9,137.1,633.4,137.1,633.4z"/>
<path class="st4" d="M883.3,360.5c0,0,136.9,80.2,242.9,131.4c37.6,18.2,71.3,32.8,93.7,38.8c-40.4,27.1-108.8,56.2-197.7,86.9
	c-169.8,58.7-414.5,123.2-682.2,190.7c0,0-90.2-20.2-229.5-183.3c-20-23.3-40.9-49.6-62.8-79.2C615,438.1,320.3,498,358.1,490.8
	C569,450.8,772.3,406.7,883.3,360.5z"/>
<path class="st5" d="M111.5,551.8c20.6,27.6,40.3,51.9,58.9,73.3c43.4,49.7,81.3,83.6,111.9,106.5c53.3,39.9,84.5,46.7,84.5,46.7
	c40.9-10.3,81.2-20.6,120.7-30.8c225.2-58,422.9-112.9,548.5-162.1c45.5-17.8,81.6-34.9,106-51.2c-20.4-5.4-51.7-18.7-86.4-35.3
	c-49.7-23.7-106.3-54.1-148-77.1c-35.8-19.7-60.5-33.9-60.5-33.9c-21.4,8.9-50,18.4-83.5,28.3C623.4,457.6,396.9,505,245.5,531.6
	C185.9,542.1,138,549.4,111.5,551.8z"/>
<path class="st0" d="M751.3,420.6c65.5,29.5,92,21.6,172,6.7c-42.7-23.5-72.3-40.5-72.3-40.5C825.4,397.4,791.3,408.8,751.3,420.6z"
	/>
<path class="st0" d="M1036,585.3c45.5-17.8,81.6-34.9,106-51.2c-20.4-5.4-51.7-18.7-86.4-35.3C1030.6,531.5,1021.4,559.3,1036,585.3
	z"/>
<path class="st0" d="M282.3,731.6c53.3,39.9,84.5,46.7,84.5,46.7c40.9-10.3,81.2-20.6,120.7-30.8
	C437.2,722.6,374.3,712.8,282.3,731.6z"/>
<path class="st2" d="M577.6,621.6c50.1,17.7,106.4,21.9,141-3.5c34.6-25.4,27.6-65.1-15.7-88.6c-43.3-23.5-108.4-27.6-159.3,7.2
	C507.7,561.4,525,603,577.6,621.6z"/>
<path class="st0" d="M642.3,583.7C642.3,583.7,642.3,583.7,642.3,583.7c4.9-1.1,12.8-2.7,18.4-2.6c5.3,0.1,8.5,1.8,5.2,7
	c0,0,0,0,0,0c-2.7,4.1-7.9,6.4-14,8c-13.7,3.5-31.5,3-34.4,10.8c5.9,15,27.2,13.2,47.1,4.6c4.4-1.9,8.7-4.1,12.8-6.5
	c26-15.5,42.1-39.7,2.3-45.1c-4.7-2.5-19.5,0.8-32.8,3.3c-7.2,1.4-13.9,2.4-18.4,2.1c-4.4-0.3-6.6-1.9-4.5-6c0,0,0-0.1,0.1-0.1
	c3-2.7,8-5.3,13.7-7.4c0,0,0,0,0,0c8.5-3.2,18.5-5.3,25.6-5.6c10.8-13.5-11.3-19.3-28.8-12.4c-3.2,0.7-6.3,1.5-9.2,2.3
	c-5.3,1.6-10,3.5-14.2,5.7l0,0C573.1,561.5,583.8,599.4,642.3,583.7z"/>
<path class="st0" d="M601.8,529.2c1-10,13.5-8.5,14.5-4.9c0.9,3.5,74.8,89.6,65.4,93.8c-9.4,4.2-10.9,0.7-22.7-13.1
	C645.9,589.7,601.8,529.2,601.8,529.2z"/>
<path class="st3" d="M846.5,418.3c1.9-0.7,5-1.8,7.3-2.1c2.2-0.3,3.8,0.2,3.2,2.4c0,0,0,0,0,0c-0.6,1.8-2.4,3-4.7,3.9
	c-5.2,2.2-12.8,3-12.9,6.2c4.6,5.5,13.2,3.5,20.4-1c1.6-1,3.1-2.1,4.4-3.3c8.7-7.5,12.1-17.9-5.4-17.6c-2.3-0.7-8.1,1.5-13.3,3.2
	c-2.8,0.9-5.5,1.8-7.4,1.9c-1.9,0.2-3-0.4-2.8-2.1c0,0,0,0,0-0.1c0.9-1.2,2.6-2.5,4.7-3.7c3.1-1.7,7-3.2,9.9-3.7
	c2.6-5.9-7.5-6.8-13.8-3.1c-1.3,0.5-2.4,0.9-3.5,1.4l0,0c-2,0.9-3.7,2-5.1,3C814.3,413.8,824.2,427.8,846.5,418.3z"/>
<path class="st3" d="M821.9,399.5c-1-3.9,4.5-4.1,5.4-2.8c0.9,1.3,43.9,30.3,40.6,32.5c-3.4,2.2-4.5,0.9-11.4-3.7
	C848.8,420.4,821.9,399.5,821.9,399.5z"/>
<path class="st3" d="M1084.2,541.2C1084.2,541.2,1084.2,541.2,1084.2,541.2c2-0.6,5.2-1.5,7.5-1.6c2.2-0.1,3.7,0.4,2.7,2.7l0,0
	c-0.9,1.7-2.9,2.8-5.3,3.6c-5.4,1.8-13,2.2-13.6,5.4c2.3,3.7,6.6,4.5,11.6,3.6c2.8-0.6,5.7-1.7,8.5-3.1c1.3-0.7,2.5-1.4,3.6-2.1
	c0,0,0,0,0,0c0.4-0.3,0.8-0.6,1.2-0.9c9.8-7,14.8-17.3-2.3-18.2c-2.2-0.9-8.1,0.9-13.5,2.3c-2.9,0.8-5.7,1.4-7.6,1.4
	c-1.9,0-2.9-0.6-2.3-2.3l0,0c0,0,0,0,0-0.1c1.1-1.2,3-2.4,5.2-3.4c3.3-1.5,7.4-2.7,10.3-3c3.5-5.8-6.1-7.4-13-4.1
	c-1.3,0.4-2.5,0.8-3.7,1.2c-2.1,0.8-4,1.7-5.6,2.7C1053.6,534.3,1060.9,549.2,1084.2,541.2z"/>
<path class="st3" d="M1063.4,520.5c-0.3-4.1,5-3.8,5.7-2.4c0.7,1.4,37.7,33.8,34.1,35.8c-3.6,2-4.5,0.6-10.4-4.6
	C1086.2,543.5,1063.4,520.5,1063.4,520.5z"/>
<ellipse transform="matrix(0.2538 -0.9673 0.9673 0.2538 -307.1273 884.8007)" class="st0" cx="419.9" cy="641.5" rx="51.1" ry="74.5"/>
<ellipse transform="matrix(0.2207 -0.9753 0.9753 0.2207 151.868 1212.1309)" class="st0" cx="834.5" cy="511" rx="47.2" ry="74.7"/>
<path class="st0" d="M110,552.5c49.4-8.9,93.9-16.1,133.8-21.8c-7,43.8-31.2,67.6-76.1,89.8C144.1,589.3,123.5,565,110,552.5z"/>
<path class="st3" d="M177.7,577.4c2.1-0.5,5.6-1.2,8.1-1.2c2.3,0,3.8,0.7,2.4,3.1c0,0,0,0,0,0c-1.2,1.8-3.4,2.9-6.1,3.6
	c-6,1.6-13.9,1.5-15.1,4.9c2.8,6.6,12.1,5.7,20.9,1.8c1.9-0.8,3.8-1.8,5.6-2.9c11.3-6.9,18.2-17.6,0.5-19.8
	c-2.1-1.1-8.6,0.5-14.4,1.6c-3.2,0.6-6.1,1.1-8.1,1c-2-0.1-2.9-0.8-2-2.6c0,0,0,0,0-0.1c1.3-1.2,3.5-2.4,6-3.3
	c3.7-1.4,8.1-2.4,11.2-2.6c4.6-6-5.2-8.4-12.9-5.3c-1.4,0.3-2.8,0.7-4,1.1c-2.3,0.7-4.4,1.6-6.2,2.6
	C146.9,568,152,584.5,177.7,577.4z"/>
<path class="st3" d="M159.2,553.7c0.3-4.4,5.9-3.8,6.3-2.2c0.5,1.6,34,39,29.8,40.9c-4.1,1.9-4.8,0.3-10.2-5.7
	C179.3,580,159.2,553.7,159.2,553.7z"/>
<path class="st3" d="M373.4,754.3c1.7-0.4,4.5-1,6.5-1c1.9,0,3,0.6,1.9,2.4c0,0,0,0,0,0c-0.9,1.5-2.7,2.3-4.9,2.8
	c-4.8,1.3-11.1,1.2-12,3.9c2.2,5.2,9.7,4.5,16.7,1.5c1.5-0.7,3-1.5,4.5-2.3c9-5.5,14.5-14.1,0.4-15.8c-1.7-0.9-6.9,0.4-11.5,1.3
	c-2.5,0.5-4.9,0.9-6.4,0.8l0,0c-1.6-0.1-2.3-0.7-1.6-2.1c0,0,0,0,0,0c1.1-1,2.8-1.9,4.8-2.6c3-1.1,6.5-1.9,9-2
	c3.7-4.8-4.1-6.7-10.3-4.3c-1.1,0.2-2.2,0.5-3.2,0.9c-1.9,0.6-3.5,1.3-5,2C348.8,746.8,352.9,760,373.4,754.3z"/>
<path class="st3" d="M358.7,735.4c0.3-3.5,4.7-3,5.1-1.8c0.4,1.2,27.1,31.2,23.8,32.7c-3.3,1.5-3.8,0.3-8.1-4.5
	C374.7,756.4,358.7,735.4,358.7,735.4z"/>
<path class="st6" d="M883.3,360.5c0,0,136.9,80.2,242.9,131.4c-199-28-514.9-2.4-810.9,10.2C526.2,462.5,772.3,406.7,883.3,360.5z"
	/>
<path class="st0" d="M367.6,831.2c669.1-165.3,817.2-258.9,817.2-258.9C1104,628.3,367.6,831.2,367.6,831.2z"/>
<path class="st0" d="M386.9,906.9c670.8-160.2,820.3-252.8,820.3-252.8C1125.6,709.5,386.9,906.9,386.9,906.9z"/>
<path class="st0" d="M399.5,837.6c670.8-160.2,820.3-252.8,820.3-252.8C1138.2,640.3,399.5,837.6,399.5,837.6z"/>
<path class="st0" d="M384.5,862.5C751,786,835,737.8,835,737.8C789,766.8,384.5,862.5,384.5,862.5z"/>
<path class="st0" d="M394,874.5c366.6-76.6,450.5-124.7,450.5-124.7C798.5,778.8,394,874.5,394,874.5z"/>
<path class="st0" d="M744.4,800c359.8-97.6,437.7-149.9,437.7-149.9C1139.8,681.3,744.4,800,744.4,800z"/>
<path class="st0" d="M735.5,780.9c359.8-97.6,437.7-149.9,437.7-149.9C1130.8,662.2,735.5,780.9,735.5,780.9z"/>
<path class="st9" d="M827,819.2c-1.1,10.2-160.8,54.6-166.7,43.8c-5.9-10.8,4.5-129.1-3.9-136.4c-8.3-7.3-255.9-233.1-237.2-248.9
	c28.3-23.8,173.8-46.5,176.2-36.4c2.4,10,218.6,214.4,226.2,239C829.3,705.1,828.1,808.9,827,819.2z"/>
<path class="st0" d="M58.3,611C71.2,649.6,239.3,817,290,830C161.6,749,58.3,611,58.3,611z"/>
<path class="st0" d="M50.8,696.1c12.9,38.5,181,206,231.7,218.9C154.1,834.1,50.8,696.1,50.8,696.1z"/>
<path class="st0" d="M65.2,656.6c12.9,38.5,181,206,231.7,218.9C171.5,789.3,65.2,656.6,65.2,656.6z"/>
<path class="st0" d="M62.3,634.9c44.6,64,181,206,231.7,218.9C165.6,772.9,62.3,634.9,62.3,634.9z"/>
<path class="st0" d="M46.9,666c44.6,64,168.1,193.5,231.7,218.9C150.1,804.3,46.9,666,46.9,666z"/>
<path class="st0" d="M67.6,599.7c44.6,64,168.1,193.5,231.7,218.9C170.8,738,67.6,599.7,67.6,599.7z"/>
<path class="st1" d="M51.8,394.2C35.1,502.8,31.6,550.2,64.1,587.1C96.6,624,253.8,821.4,337.2,788.7
	c83.4-32.8,854.7-192.3,890.5-266.3c17-35.1-3.7-143.3-3.7-143.3l-337-133.6L51.8,394.2z"/>
<path class="st2" d="M602.6,533.2c57.2,8.8,115.9,4.1,141.7-24.8c25.9-29,4.3-64.9-48.1-80.1c-52.4-15.3-119.9-9.1-158.8,31.1
	C509.8,487.7,542.5,523.9,602.6,533.2z"/>
<path class="st0" d="M654.4,488C654.4,488,654.4,488,654.4,488c4.6-1.7,12-4.5,17.7-5.2c5.4-0.7,9.3,0.3,7.8,5.7c0,0,0,0,0,0
	c-1.3,4.3-5.7,7.2-11.3,9.6c-12.6,5.3-30.8,7.7-30.9,15.3c11.4,13.1,32.3,8.1,49.5-2.9c3.8-2.4,7.4-5.2,10.6-8
	c20.7-18.4,28.2-43.4-14.1-42.3c-5.7-1.6-19.5,3.8-32,8.1c-6.8,2.4-13.2,4.4-17.8,4.8c-4.6,0.4-7.4-0.8-6.8-4.9c0,0,0-0.1,0-0.1
	c2.1-3,6.2-6.2,11.2-9c0,0,0,0,0,0c7.5-4.3,16.9-7.8,23.9-9.1c6-14.3-18.5-16.2-33.8-7.1c-3,1.1-5.9,2.3-8.5,3.6
	c-4.8,2.3-8.9,4.8-12.3,7.5l0,0C576.2,477.9,600.8,511.5,654.4,488z"/>
<path class="st0" d="M593.6,443.4c-2.6-9.5,10.6-10,12.9-6.8s108.4,72,100.4,77.3c-8,5.3-10.8,2.3-27.8-8.8
	C660.3,493,593.6,443.4,593.6,443.4z"/>
<ellipse transform="matrix(0.1778 -0.9841 0.9841 0.1778 -196.6755 916.105)" class="st0" cx="449.9" cy="575.8" rx="31.4" ry="54"/>
<path class="st2" d="M581.2,507.3c54.9,12.3,113,11,142.4-16.9c29.4-27.8,13.2-65.4-36-83.9c-49.3-18.5-116.3-16.2-160,22.2
	C496.6,455.9,523.6,494.4,581.2,507.3z"/>
<path class="st0" d="M638.3,464.6C638.3,464.6,638.3,464.6,638.3,464.6c4.7-1.5,12.4-3.8,18.1-4.3c5.4-0.4,9,0.9,6.9,6.2
	c0,0,0,0,0,0c-1.9,4.2-6.6,7-12.4,9c-13.1,4.7-31.2,5.9-32.4,13.7c9.4,13.9,30.6,10.1,48.9,0c4-2.2,7.9-4.8,11.5-7.5
	c22.9-17.4,33.7-42.3-7.9-43.6c-5.4-2-19.6,2.7-32.5,6.3c-7,2-13.6,3.7-18.2,3.8c-4.6,0.1-7.1-1.2-6-5.4c0,0,0-0.1,0-0.1
	c2.4-2.9,7-5.9,12.3-8.4c0,0,0,0,0,0c7.9-3.9,17.6-6.9,24.7-7.8c7.9-14.1-15.9-17.5-32.1-9.2c-3.1,1-6.1,2-8.8,3.1
	c-5,2.1-9.4,4.4-13.1,6.8l0,0C563,449.8,582.5,485.3,638.3,464.6z"/>
<path class="st0" d="M584.8,416c-1.3-9.7,11.8-9.5,13.6-6.1c1.8,3.3,96.3,79.2,87.7,84.1c-8.6,4.9-10.9,1.7-26-10.5
	C643.4,470,584.8,416,584.8,416z"/>
<ellipse transform="matrix(0.2097 -0.9778 0.9778 0.2097 -193.0582 844.1016)" class="st0" cx="425.6" cy="541.5" rx="32.4" ry="52.4"/>
<path class="st3" d="M165.2,502.9c2.1-0.7,5.4-1.7,7.9-2c2.4-0.2,4,0.3,3.1,2.7c0,0,0,0,0,0c-0.8,1.9-2.8,3.1-5.3,4
	c-5.7,2.1-13.8,2.8-14.2,6.2c4.3,6.1,13.6,4.3,21.6-0.2c1.7-1,3.4-2.1,5-3.3c9.9-7.7,14.5-18.7-3.9-19.1c-2.4-0.9-8.6,1.3-14.3,2.9
	c-3.1,0.9-6,1.7-8,1.8c-2,0.1-3.2-0.5-2.7-2.3c0,0,0,0,0-0.1c1.1-1.3,3-2.6,5.3-3.8c3.5-1.7,7.7-3.1,10.8-3.5
	c3.3-6.2-7.2-7.6-14.3-3.9c-1.4,0.4-2.7,0.9-3.9,1.4c-2.2,0.9-4.1,2-5.7,3.1C131.8,496.7,140.8,512.2,165.2,502.9z"/>
<path class="st3" d="M141.1,481.8c-0.7-4.3,5.1-4.2,5.9-2.8c0.8,1.5,43.3,34.3,39.6,36.5c-3.8,2.2-4.8,0.8-11.6-4.5
	C167.5,505.3,141.1,481.8,141.1,481.8z"/>
<path class="st4" d="M887.3,208.9c0,0,136.9,80.2,242.9,131.4c37.6,18.2,71.3,32.8,93.7,38.8c-40.4,27.1-108.8,56.2-197.7,86.9
	c-169.8,58.7-414.5,123.2-682.2,190.7c0,0-90.2-20.2-229.5-183.3c-20-23.3-40.9-49.6-62.8-79.2c567.2-107.7,272.5-47.9,310.3-55.1
	C573,299.2,776.3,255,887.3,208.9z"/>
<path class="st5" d="M115.5,400.2c20.6,27.6,40.3,51.9,58.9,73.3c43.4,49.7,81.3,83.6,111.9,106.5c53.3,39.9,84.5,46.7,84.5,46.7
	c40.9-10.3,81.2-20.6,120.7-30.8c225.2-58,422.9-112.9,548.5-162.1c45.5-17.8,81.6-34.9,106-51.2c-20.4-5.4-51.7-18.7-86.4-35.3
	c-49.7-23.7-106.3-54.1-148-77.1c-35.8-19.7-60.5-33.9-60.5-33.9c-21.4,8.9-50,18.4-83.5,28.3C627.4,306,400.9,353.3,249.5,380
	C189.9,390.5,142,397.7,115.5,400.2z"/>
<path class="st0" d="M755.3,269c65.5,29.5,92,21.6,172,6.7c-42.7-23.5-72.3-40.5-72.3-40.5C829.4,245.8,795.3,257.2,755.3,269z"/>
<path class="st0" d="M1040,433.7c45.5-17.8,81.6-34.9,106-51.2c-20.4-5.4-51.7-18.7-86.4-35.3C1034.6,379.9,1025.4,407.6,1040,433.7
	z"/>
<path class="st0" d="M286.3,579.9c53.3,39.9,84.5,46.7,84.5,46.7c40.9-10.3,81.2-20.6,120.7-30.8C441.2,571,378.3,561.2,286.3,579.9
	z"/>
<path class="st2" d="M581.6,470c50.1,17.7,106.4,21.9,141-3.5c34.6-25.4,27.6-65.1-15.7-88.6c-43.3-23.5-108.4-27.6-159.3,7.2
	C511.7,409.7,529,451.4,581.6,470z"/>
<path class="st0" d="M646.3,432.1C646.3,432.1,646.3,432.1,646.3,432.1c4.9-1.1,12.8-2.7,18.4-2.6c5.3,0.1,8.5,1.8,5.2,7
	c0,0,0,0,0,0c-2.7,4.1-7.9,6.4-14,8c-13.7,3.5-31.5,3-34.4,10.8c5.9,15,27.2,13.2,47.1,4.6c4.4-1.9,8.7-4.1,12.8-6.5
	c26-15.5,42.1-39.7,2.3-45.1c-4.7-2.5-19.5,0.8-32.8,3.3c-7.2,1.4-13.9,2.4-18.4,2.1c-4.4-0.3-6.6-1.9-4.5-6c0,0,0-0.1,0.1-0.1
	c3-2.7,8-5.3,13.7-7.4c0,0,0,0,0,0c8.5-3.2,18.5-5.3,25.6-5.6c10.8-13.5-11.3-19.3-28.8-12.4c-3.2,0.7-6.3,1.5-9.2,2.3
	c-5.3,1.6-10,3.5-14.2,5.7l0,0C577.1,409.9,587.8,447.8,646.3,432.1z"/>
<path class="st0" d="M605.8,377.6c1-10,13.5-8.5,14.5-4.9c0.9,3.5,74.8,89.6,65.4,93.8c-9.4,4.2-10.9,0.7-22.7-13.1
	C649.9,438.1,605.8,377.6,605.8,377.6z"/>
<path class="st3" d="M850.5,266.6c1.9-0.7,5-1.8,7.3-2.1c2.2-0.3,3.8,0.2,3.2,2.4c0,0,0,0,0,0c-0.6,1.8-2.4,3-4.7,3.9
	c-5.2,2.2-12.8,3-12.9,6.2c4.6,5.5,13.2,3.5,20.4-1c1.6-1,3.1-2.1,4.4-3.3c8.7-7.5,12.1-17.9-5.4-17.6c-2.3-0.7-8.1,1.5-13.3,3.2
	c-2.8,0.9-5.5,1.8-7.4,1.9c-1.9,0.2-3-0.4-2.8-2.1c0,0,0,0,0-0.1c0.9-1.2,2.6-2.5,4.7-3.7c3.1-1.7,7-3.2,9.9-3.7
	c2.6-5.9-7.5-6.8-13.8-3.1c-1.3,0.5-2.4,0.9-3.5,1.4l0,0c-2,0.9-3.7,2-5.1,3C818.3,262.1,828.1,276.2,850.5,266.6z"/>
<path class="st3" d="M825.8,247.9c-1-3.9,4.5-4.1,5.4-2.8c0.9,1.3,43.9,30.3,40.6,32.5c-3.4,2.2-4.5,0.9-11.4-3.7
	C852.8,268.7,825.8,247.9,825.8,247.9z"/>
<path class="st3" d="M1088.2,389.5C1088.2,389.5,1088.2,389.5,1088.2,389.5c2-0.6,5.2-1.5,7.5-1.6c2.2-0.1,3.7,0.4,2.7,2.7l0,0
	c-0.9,1.7-2.9,2.8-5.3,3.6c-5.4,1.8-13,2.2-13.6,5.4c2.3,3.7,6.6,4.5,11.6,3.6c2.8-0.6,5.7-1.7,8.5-3.1c1.3-0.7,2.5-1.4,3.6-2.1
	c0,0,0,0,0,0c0.4-0.3,0.8-0.6,1.2-0.9c9.8-7,14.8-17.3-2.3-18.2c-2.2-0.9-8.1,0.9-13.5,2.3c-2.9,0.8-5.7,1.4-7.6,1.4
	c-1.9,0-2.9-0.6-2.3-2.3l0,0c0,0,0,0,0-0.1c1.1-1.2,3-2.4,5.2-3.4c3.3-1.5,7.4-2.7,10.3-3c3.5-5.8-6.1-7.4-13-4.1
	c-1.3,0.4-2.5,0.8-3.7,1.2c-2.1,0.8-4,1.7-5.6,2.7C1057.6,382.7,1064.9,397.6,1088.2,389.5z"/>
<path class="st3" d="M1067.3,368.8c-0.3-4.1,5-3.8,5.7-2.4c0.7,1.4,37.7,33.8,34.1,35.8c-3.6,2-4.5,0.6-10.4-4.6
	C1090.1,391.8,1067.3,368.8,1067.3,368.8z"/>
<ellipse transform="matrix(0.2538 -0.9673 0.9673 0.2538 -157.4771 775.5107)" class="st0" cx="423.9" cy="489.8" rx="51.1" ry="74.5"/>
<ellipse transform="matrix(0.2207 -0.9753 0.9753 0.2207 302.8763 1097.8551)" class="st0" cx="838.5" cy="359.4" rx="47.2" ry="74.7"/>
<path class="st0" d="M114,400.9c49.4-8.9,93.9-16.1,133.8-21.8c-7,43.8-31.2,67.6-76.1,89.8C148.1,437.7,127.5,413.4,114,400.9z"/>
<path class="st3" d="M181.7,425.8c2.1-0.5,5.6-1.2,8.1-1.2c2.3,0,3.8,0.7,2.4,3.1c0,0,0,0,0,0c-1.2,1.8-3.4,2.9-6.1,3.6
	c-6,1.6-13.9,1.5-15.1,4.9c2.8,6.6,12.1,5.7,20.9,1.8c1.9-0.8,3.8-1.8,5.6-2.9c11.3-6.9,18.2-17.6,0.5-19.8
	c-2.1-1.1-8.6,0.5-14.4,1.6c-3.2,0.6-6.1,1.1-8.1,1c-2-0.1-2.9-0.8-2-2.6c0,0,0,0,0-0.1c1.3-1.2,3.5-2.4,6-3.3
	c3.7-1.4,8.1-2.4,11.2-2.6c4.6-6-5.2-8.4-12.9-5.3c-1.4,0.3-2.8,0.7-4,1.1c-2.3,0.7-4.4,1.6-6.2,2.6
	C150.9,416.3,156,432.9,181.7,425.8z"/>
<path class="st3" d="M163.2,402c0.3-4.4,5.9-3.8,6.3-2.2c0.5,1.6,34,39,29.8,40.9c-4.1,1.9-4.8,0.3-10.2-5.7
	C183.3,428.4,163.2,402,163.2,402z"/>
<path class="st3" d="M377.4,602.7c1.7-0.4,4.5-1,6.5-1c1.9,0,3,0.6,1.9,2.4c0,0,0,0,0,0c-0.9,1.5-2.7,2.3-4.9,2.8
	c-4.8,1.3-11.1,1.2-12,3.9c2.2,5.2,9.7,4.5,16.7,1.5c1.5-0.7,3-1.5,4.5-2.3c9-5.5,14.5-14.1,0.4-15.8c-1.7-0.9-6.9,0.4-11.5,1.3
	c-2.5,0.5-4.9,0.9-6.4,0.8l0,0c-1.6-0.1-2.3-0.7-1.6-2.1c0,0,0,0,0,0c1.1-1,2.8-1.9,4.8-2.6c3-1.1,6.5-1.9,9-2
	c3.7-4.8-4.1-6.7-10.3-4.3c-1.1,0.2-2.2,0.5-3.2,0.9c-1.9,0.6-3.5,1.3-5,2C352.8,595.1,356.9,608.4,377.4,602.7z"/>
<path class="st3" d="M362.7,583.7c0.3-3.5,4.7-3,5.1-1.8c0.4,1.2,27.1,31.2,23.8,32.7c-3.3,1.5-3.8,0.3-8.1-4.5
	C378.7,604.8,362.7,583.7,362.7,583.7z"/>
<path class="st6" d="M887.3,208.9c0,0,136.9,80.2,242.9,131.4c-199-28-514.9-2.4-810.9,10.2C530.2,310.9,776.3,255,887.3,208.9z"/>
<path class="st0" d="M371.6,679.5c669.1-165.3,817.2-258.9,817.2-258.9C1108,476.7,371.6,679.5,371.6,679.5z"/>
<path class="st0" d="M390.9,755.3c670.8-160.2,820.3-252.8,820.3-252.8C1129.6,557.9,390.9,755.3,390.9,755.3z"/>
<path class="st0" d="M403.5,686c670.8-160.2,820.3-252.8,820.3-252.8C1142.2,488.6,403.5,686,403.5,686z"/>
<path class="st0" d="M388.5,710.9C755,634.3,839,586.2,839,586.2C793,615.2,388.5,710.9,388.5,710.9z"/>
<path class="st0" d="M398,722.9c366.6-76.6,450.5-124.7,450.5-124.7C802.5,627.1,398,722.9,398,722.9z"/>
<path class="st0" d="M748.4,648.4c359.8-97.6,437.7-149.9,437.7-149.9C1143.8,529.6,748.4,648.4,748.4,648.4z"/>
<path class="st0" d="M739.4,629.3c359.8-97.6,437.7-149.9,437.7-149.9C1134.8,510.6,739.4,629.3,739.4,629.3z"/>
<path class="st10" d="M831,667.5c-1.1,10.2-160.8,54.6-166.7,43.8c-5.9-10.8,4.5-129.1-3.9-136.4c-8.3-7.3-255.9-233.1-237.2-248.9
	c28.3-23.8,173.8-46.5,176.2-36.4c2.4,10,218.6,214.4,226.2,239C833.3,553.4,832.1,657.3,831,667.5z"/>
<path class="st0" d="M62.3,459.4c12.9,38.5,181,206,231.7,218.9C165.6,597.4,62.3,459.4,62.3,459.4z"/>
<path class="st0" d="M54.8,544.4c12.9,38.5,181,206,231.7,218.9C158.1,682.4,54.8,544.4,54.8,544.4z"/>
<path class="st0" d="M69.2,505c12.9,38.5,181,206,231.7,218.9C175.4,637.6,69.2,505,69.2,505z"/>
<path class="st0" d="M66.3,483.2c44.6,64,181,206,231.7,218.9C169.5,621.2,66.3,483.2,66.3,483.2z"/>
<path class="st0" d="M50.9,514.4c44.6,64,168.1,193.5,231.7,218.9C154.1,652.7,50.9,514.4,50.9,514.4z"/>
<path class="st0" d="M71.6,448.1c44.6,64,168.1,193.5,231.7,218.9C174.7,586.4,71.6,448.1,71.6,448.1z"/>
<path class="st11" d="M580.5,466.6c9,30.9,38.5,46.1,84.1,47.5c45.6,1.4,183.3,6.4,175.3,11.4c-8,5-123.7,143.7-121.7,152.6
	c2,9-33.6,33.1-22.3,42.5c11.3,9.4,66.2-59.1,66.2-59.1l121.7-148c0,0-46.9-27.9-49.9-28.9C830.9,483.5,580.5,466.6,580.5,466.6z"/>
<path class="st12" d="M847.5,823.8c8.3-12.8,24.8-47.4,24.8-47.4l-36.8-18.8l-24.3,52.2l16.4,27.9L847.5,823.8z"/>
<path class="st13" d="M853.3,819.5c4.3,1.1,0.7,3.8-1,10c-4,14.4,44.1,39.7,50.8,44.7c3.4,2.5-1.1,24.3-19.8,14.5
	c-16.1-8.5-67.9-35.3-85.5-44.7c-3.7-2-5.5-6-4.5-9.9c3.8-13.9,15.5-32.4,20.6-30.3C822.7,805.5,835.2,814.9,853.3,819.5z"/>
<path class="st12" d="M750.6,727.8c12.2-9.5,39.8-37,39.8-37l-28.2-29.3l-40.9,41.6l5.9,31.5L750.6,727.8z"/>
<path class="st13" d="M757.6,725.6c3.7,2.4-0.6,3.8-4.4,9.2c-8.7,12.3,28,51.4,32.6,58.1c2.4,3.5-9.4,22.6-23.7,7.5
	c-12.3-13-52-54.7-65.4-69c-2.8-3-3.2-7.4-0.8-10.8c8.4-11.9,25.8-25.8,29.9-22.1C733.5,702.7,742.1,715.5,757.6,725.6z"/>
<path class="st14" d="M616.9,381.9c142.9,2.7,321,9.8,339.5,46.6c23.6,46.6-162.5,312-183.4,293.4c-20.9-18.7-53.9-34.9-44.1-46.6
	c9.8-11.7,179.8-203.3,144.2-206.6c-35.6-3.3-240.4,4.9-252.9-4.5C607.6,454.7,616.9,381.9,616.9,381.9z"/>
<path class="st15" d="M616.9,381.9c142.9,2.7,321,9.8,339.5,46.6c23.6,46.6-162.5,312-183.4,293.4c-20.9-18.7-53.9-34.9-44.1-46.6
	c9.8-11.7,179.8-203.3,144.2-206.6c-35.6-3.3-240.4,4.9-252.9-4.5C607.6,454.7,616.9,381.9,616.9,381.9z"/>
<path class="st14" d="M581.9,382.9c-7.4,23-16.4,65.3,3.4,91.6c10.8,14.3,30.1,23.8,62.9,22.9c51.5-1.5,273.3,22,270.3,32.7
	c-3,10.7-109.3,247.8-102.1,260.4c7.2,12.6,55.6,31.7,61.6,19c6-12.7,139.6-281.5,109.6-324.3c-25.3-36.1-271.3-73.4-293.7-88.2
	C671.6,382,581.9,382.9,581.9,382.9z"/>
<path class="st14" d="M1130,382.5c0.7,7.9,3.3,22.6-2.1,28.1c-5.4,5.5-80.5,66.9-106.7,72.2c-30.8,6.2-128.8-31.3-130.8-32
	c-5.3-1.9-9.1-36.3-2.7-55.6c5.6-16.7,17.3-31.8,18.8-33.9c1.5-2.1,46.7,26.8,46.7,26.8l17.1,62.2L1130,382.5z"/>
<path class="st16" d="M915.1,350.8c-38.4,41-27,93.2-21.2,95.1c65.2,21.9,98.4,31.7,115.5,31.1c17.1-0.7,119.7-54.9,121.4-83.7
	c1.4-22.8-26.4-86.3-26.4-86.3s-70.3,71-90.1,63.9C994.3,363.8,923.1,342.3,915.1,350.8z"/>
<path class="st10" d="M1101.2,318c7.1,17.1,26,68,21.8,76.5c-12.6,25.5-95.1,72.7-95.7,66.5c-0.6-6.2-6-83.8-0.5-85.7
	C1043.1,369.8,1101.2,318,1101.2,318z"/>
<path class="st14" d="M1011.8,377.2c-2.1,31.2,2.7,81.3-2.6,84.3c-5.3,2.9-74.5-10.6-76.7-16.8c-2.2-6.2,10-80.4,12.8-81.4
	C948.1,362.2,1011.8,377.2,1011.8,377.2z"/>
<path class="st14" d="M932.9,387.6c-3.4,16-4.1,29.4-8.9,30.6c-4.8,1.2-26.7-3-27.7-5.7c-1.1-2.7,4-29.4,11.2-36.1
	C910.4,373.7,935.7,374.4,932.9,387.6z"/>
<path class="st17" d="M926.8,354.9c10.1,3.7,4.7,0.9,17.2,7.5c12.1,6.4,26.4,7.3,39,7.5c10.3,0.1,29.6,14.1,33.6,27.8
	c3.6,12.3-22.2-0.6-30.1-0.9c-30.3-1.1-11.4,10.8-19.9,15.2c-8.5,4.4-3.5-10.7-25.5-19.4c-13.2-5.3-20.3-3.7-24.9-7.6
	C911.6,381.1,926.8,354.9,926.8,354.9z"/>
<path class="st18" d="M799.5,307.6c10.1,19.7,150.1,49.5,155.1,52.9c3.7,2.6-13.5,37.7-26.6,36.5c-10.7-1-191.6-40.3-189.1-80.5
	c1.9-30.2-29.2-159.4-29.2-159.4s67.7-31,62.5-0.3C771,164.4,794.5,297.9,799.5,307.6z"/>
<path class="st17" d="M736.9,162.9l-37.2-16.3c3.3-15.3,12.8-42.6,18.6-55.7c6.3-14.4,17.8-21.7,17.8-21.7l4.9,16.3l15.7,9.1
	c0,0-1.5,0-3.3,4.2c-2.9,7-8,29,1.6,41.9C760.9,148.8,736.9,162.9,736.9,162.9z"/>
<path class="st19" d="M753,99.5c-2.8,7.9-3.5,14.5-3.7,22.1c-23.8,4.7-27.6-17.9-19.6-28.9c3-4.1,11.2-7.1,11.2-7.1
	S758.4,84.3,753,99.5z"/>
<path class="st15" d="M799.5,307.6c10.1,19.7,150.1,49.5,155.1,52.9c3.7,2.6-13.5,37.7-26.6,36.5c-10.7-1-191.6-40.3-189.1-80.5
	c1.9-30.2-29.2-159.4-29.2-159.4s67.7-31,62.5-0.3C771,164.4,794.5,297.9,799.5,307.6z"/>
<path class="st17" d="M794.3,69c-4.8,10.7-4,36.1-11.2,32.5c-7.2-3.6-10,22.7-17.9,19.1c-19-8.7-34.2-30.6-31.9-40.5
	c2.3-9.8,16.9-33.3,16.9-33.3L794.3,69z"/>
<path class="st20" d="M769.7,69.4c5.5,3.6,5,5,10.1,5.1c5.2,0.1,1-8.9,9.4-6.3c8.4,2.6,17,6.3,22.5-1.7c7.9-11.6-4.4-15.3-12.2-17.4
	c-5-1.3-1-11.2-10.1-15.3c-7.2-3.2-8.5,1.2-15.1-1.4c-4-1.5-8.1-11.2-16.4-9.7c-15.4,2.7-11.7,17.2-25.6,21.3
	c-16.2,4.8-3.4,38.6,0.9,37.4c5-1.4,5.8-14.3,10.6-15.1c7.1-1.2,5.5,3.3,7.6,9.2c2.3,6.4,10.5,10.8,9.5,0.2
	C759.8,65.2,764.7,66.2,769.7,69.4z"/>
<path class="st10" d="M708.2,108.6c15.1-1.1,20,23.6,31.4,26.8c6.9,1.9,9.3-10.4,9.9-11.9c3,2.6,5,5.2,6.3,8.5
	c32.4,84.4-37.3,247.4-37.3,247.4s-38.4,20-110.7,9.2c-44-6.6-8.3-42-4.8-51.6c3.5-9.7,68-198.8,68-198.8S682.7,123.4,708.2,108.6z"
	/>
<path class="st18" d="M499.8,445.8c29.3,34.1,106.8,5.8,126.5-7.8c18.7-12.9,8.3-47.1,20.2-78.3c2-5.2,4.4-10.8,7.2-16.5
	c0.4-0.8,0.8-1.6,1.2-2.4c0.4-0.7,0.8-1.4,1.1-2.2c0.3-0.6,0.7-1.3,1-1.9c0.5-0.9,1-1.9,1.5-2.8c0.5-0.9,1.1-1.9,1.7-2.8
	c0.4-0.6,0.8-1.3,1.2-2l0,0c11.2-17.7,33-44,42.7-66.2c0.9-2,1.6-4,2.3-5.9c0.1-0.4,0.3-0.8,0.4-1.2c0.1-0.4,0.3-0.8,0.4-1.2
	c0.4-1.5,0.9-3,1.3-4.6c0.1-0.4,0.2-0.8,0.3-1.2c3.7-14.8,5.1-30.9,5.2-46.8c0-0.1,0-0.1,0-0.1c0.1-5.4,0-10.7-0.2-15.9
	c-1.3-35.7-7.5-67.6-6.2-77.2c0,0-12.4,1.9-45.9,25.1c-14.1,9.7-39.8,40-46.4,65c-2.1,8.2-4.1,16.1-6,23.8
	c-7.1,29.1-12.8,54.4-21.1,73.2c-10.7,24.5-25,56.8-50.3,82.7c-7.4,7.6-16.4,14.5-25.4,20.7c-0.1,0.1-0.1,0.1-0.2,0.2
	C487.9,416.3,491.5,436.1,499.8,445.8z"/>
<path class="st18" d="M771.5,229.3c-4.6,12.5-12.1,36.7-16.8,53.6c-5.7,21-6,34.3-6.8,42.7c-1.8,19-6.8,43.2-17.8,59.8
	c-11.8,17.8-18.6,12.1-25.7,2.5c-12.2-16.6,1.5-51.4,17.8-99.5c15.4-45.8,33.3-71.3,36.4-111.1c2.4-30.1-9.1-53.8-9.1-53.8
	C795.3,149.4,774,222.3,771.5,229.3z"/>
<path class="st17" d="M872.6,381.6c10.1,3.7,5.9-1.8,18.4,4.8c12.1,6.4,26.2,10.6,37.6,13.9c9.8,2.9,29.9,10.3,33.8,24
	c3.6,12.3-22.2-0.9-30.1-0.9c-21.3,0.1-2.9,6.3-11.4,10.8c-8.5,4.4-12-6.2-34-15c-13.2-5.3-20.3-3.7-24.9-7.6
	C857.3,407.8,872.6,381.6,872.6,381.6z"/>
<path class="st15" d="M641.6,374c2-5.2,9.3-25.1,12.2-30.9c0.4-0.8,0.8-1.6,1.2-2.4c0.4-0.7,0.8-1.4,1.1-2.2c0.3-0.6,0.7-1.3,1-1.9
	c0.5-0.9,1-1.9,1.5-2.8c0.5-0.9,1.1-1.9,1.7-2.8c0.4-0.6,0.8-1.3,1.2-2l0,0c11.2-17.7,33-44,42.7-66.2l0.4-17.2l-39.8-24.9
	C646.2,270.6,637.6,374.6,641.6,374z"/>
<path class="st15" d="M771.5,229.3c-4.6,12.5-12.1,36.7-16.8,53.6c-5.7,21-6,34.3-6.8,42.7c-1.8,19-6.8,43.2-17.8,59.8
	c-11.8,17.8-18.6,12.1-25.7,2.5c-12.2-16.6,1.5-51.4,17.8-99.5c15.4-45.8,33.3-71.3,36.4-111.1c2.4-30.1-9.1-53.8-9.1-53.8
	C795.3,149.4,774,222.3,771.5,229.3z"/>
<path class="st18" d="M756.6,315c8.5,20.4,142.7,66.1,147.4,69.9c3.5,2.8-16.5,36.6-29.5,34.4c-10.6-1.8-141.9-20.8-167.6-73.2
	c-13.5-27.4-46-138.7-59.8-171.3c-13.8-32.6,64.2-37.1,62.2-6.1C708.9,176.4,752.5,304.9,756.6,315z"/>
<path class="st21" d="M734.9,138.9c-1.3-0.9-15.1,24.9-33.2,33.2c-5,2.3-10.4,3.8-15.9,4c-16.3,0.6-59.5-1.9-59.5-1.9
	s7.8-10.5,12.4-19.1c10.5-5.5,37.1,5.2,45.6,4.5c6.3-0.6,12.3-2.2,17.9-4.5c10.5-4.3,19.4-10.8,26.2-16.5c3.5-2.9,4.1-7.4,8.2-7.5
	C741.9,131,736.6,140,734.9,138.9z"/>
<path class="st22" d="M743.2,133.7c-0.1-2.6-1.8-6.8-7.3-6.7c-4.1,0.1-4.5,1.7-7.9,4.6c-10.4,8.7-25.9,19.4-44.1,21
	c-18.2,1.6-59.1-22.9-86.1-17.6c-27,5.3-35.6,29.3-74.4,34.7c-38.9,5.5-80.2-11.7-91.7-9.9c-11.5,1.8-18.4,4.1-18.2,8.7
	c0.2,4.5,5.8,12.1,13.7,15.5c8,3.4,78.6,9.4,97.4,7.3c30.6-3.5,57.3-30.6,77-32c19.7-1.4,60.8,10.6,83.9,9.8
	c25.7-1,47.2-30.5,48.8-29.3c1.7,1.2,3.2,2.3,6.5,1.5C743,140.8,743.3,136.3,743.2,133.7z"/>
<path class="st10" d="M456.6,1017.2c31.3-4.9,35.7-18.7,41.3-61.2c4.3,40.3,9.6,55.6,41.4,60c-27.7,11.7-37.4,15.9-42.1,62.5
	C490,1031.3,483.9,1027.2,456.6,1017.2z"/>
</svg>
