<?xml version="1.0" encoding="utf-8"?>
<!-- Generator: Adobe Illustrator 26.1.0, SVG Export Plug-In . SVG Version: 6.00 Build 0)  -->
<svg version="1.1" id="Livello_1" xmlns="http://www.w3.org/2000/svg" xmlns:xlink="http://www.w3.org/1999/xlink" x="0px" y="0px"
	 viewBox="0 0 168.69 36.71" style="enable-background:new 0 0 168.69 36.71;" xml:space="preserve">
<style type="text/css">
	.st0{fill:#FFFFFF;}
	.st1{fill-rule:evenodd;clip-rule:evenodd;fill:url(#SVGID_1_);}
	.st2{fill:url(#SVGID_00000060005393895776362670000005296760921071040650_);}
	.st3{fill:url(#SVGID_00000179643115894501866980000006328259125360751235_);}
	
		.st4{clip-path:url(#SVGID_00000065764341303090801680000014516011439217916598_);fill-rule:evenodd;clip-rule:evenodd;fill:url(#SVGID_00000144323324113583586130000018288762960526877576_);}
	
		.st5{clip-path:url(#SVGID_00000111173748915432423090000008328058876875676076_);fill-rule:evenodd;clip-rule:evenodd;fill:url(#SVGID_00000008844341270377648240000017904955314279964302_);}
	.st6{fill:none;stroke:#FFFFFF;stroke-miterlimit:10;}
</style>
<g>
	<g>
		<g>
			<path class="st0" d="M47.61,8.75c1.51,1.13,2.26,2.82,2.26,5.06c0,2.35-0.75,4.11-2.24,5.29c-1.5,1.18-3.5,1.77-6,1.77h-2.4v7.16
				h-4.46V7.06h6.49C43.99,7.06,46.1,7.62,47.61,8.75z M44.23,16.73c0.69-0.59,1.03-1.56,1.03-2.91c0-2.37-1.35-3.55-4.06-3.55
				h-1.97v7.34h2.03C42.55,17.61,43.54,17.31,44.23,16.73z"/>
			<path class="st0" d="M62.03,11.76l-0.73,4.15c-0.57-0.14-1.04-0.21-1.43-0.21c-0.95,0-1.69,0.33-2.21,1
				c-0.53,0.67-0.94,1.69-1.24,3.06v8.28h-4.31V11.97h3.73l0.39,3.12c0.38-1.13,0.94-2.01,1.68-2.64c0.74-0.63,1.57-0.94,2.5-0.94
				C60.91,11.51,61.44,11.59,62.03,11.76z"/>
			<path class="st0" d="M76.73,21.31H66.7c0.14,1.46,0.54,2.49,1.18,3.09c0.65,0.61,1.53,0.91,2.64,0.91c0.69,0,1.33-0.11,1.94-0.33
				c0.61-0.22,1.26-0.58,1.97-1.06l1.79,2.43c-1.8,1.46-3.83,2.18-6.09,2.18c-2.53,0-4.47-0.76-5.82-2.27
				c-1.35-1.52-2.03-3.57-2.03-6.16c0-1.64,0.29-3.11,0.86-4.41c0.58-1.3,1.41-2.33,2.52-3.08c1.1-0.75,2.41-1.12,3.93-1.12
				c2.28,0,4.06,0.72,5.34,2.15c1.27,1.44,1.91,3.44,1.91,6C76.82,19.84,76.79,20.4,76.73,21.31z M72.55,18.43c0-2.67-0.96-4-2.88-4
				c-0.89,0-1.58,0.33-2.06,0.99c-0.49,0.66-0.79,1.72-0.91,3.2h5.85V18.43z"/>
			<path class="st0" d="M90.56,13.42l-1.64,2.46c-1.35-0.85-2.69-1.27-4-1.27c-0.71,0-1.25,0.13-1.64,0.39
				c-0.38,0.26-0.58,0.62-0.58,1.06c0,0.32,0.09,0.6,0.26,0.82c0.17,0.22,0.49,0.43,0.97,0.64c0.47,0.2,1.19,0.44,2.14,0.73
				c1.7,0.47,2.96,1.09,3.79,1.86c0.83,0.78,1.24,1.84,1.24,3.2c0,1.07-0.31,2-0.92,2.79c-0.62,0.79-1.45,1.39-2.5,1.8
				c-1.05,0.41-2.22,0.62-3.52,0.62c-1.35,0-2.59-0.21-3.7-0.62c-1.11-0.41-2.06-0.99-2.85-1.71l2.12-2.37
				c1.35,1.05,2.79,1.58,4.31,1.58c0.81,0,1.45-0.16,1.93-0.47c0.47-0.31,0.71-0.74,0.71-1.29c0-0.42-0.09-0.76-0.27-1
				c-0.18-0.24-0.52-0.47-1-0.68c-0.48-0.21-1.24-0.46-2.27-0.74c-1.62-0.44-2.82-1.08-3.59-1.89c-0.78-0.82-1.17-1.83-1.17-3.05
				c0-0.91,0.26-1.73,0.79-2.46c0.53-0.73,1.27-1.3,2.23-1.71c0.96-0.41,2.08-0.62,3.35-0.62C87,11.48,88.94,12.13,90.56,13.42z"/>
			<path class="st0" d="M102.93,27.28c-0.59,0.4-1.25,0.71-1.99,0.92c-0.74,0.21-1.47,0.32-2.2,0.32c-1.66-0.02-2.91-0.5-3.76-1.43
				c-0.85-0.93-1.27-2.29-1.27-4.09v-8h-2.4v-3.03h2.4V8.45l4.31-0.52v4.03h3.7L101.29,15h-3.27v7.91c0,0.77,0.13,1.32,0.39,1.67
				c0.26,0.34,0.67,0.52,1.21,0.52c0.57,0,1.17-0.19,1.82-0.58L102.93,27.28z"/>
			<path class="st0" d="M116.79,24.96c0.18,0.29,0.48,0.51,0.91,0.65l-0.91,2.85c-0.95-0.1-1.72-0.33-2.32-0.68
				c-0.6-0.35-1.06-0.9-1.38-1.65c-1.07,1.6-2.68,2.4-4.82,2.4c-1.6,0-2.87-0.46-3.81-1.38c-0.94-0.92-1.41-2.12-1.41-3.59
				c0-1.76,0.64-3.1,1.91-4.03c1.27-0.93,3.1-1.39,5.49-1.39h1.85v-0.79c0-0.99-0.22-1.68-0.67-2.06c-0.44-0.38-1.18-0.58-2.21-0.58
				c-1.13,0-2.55,0.28-4.24,0.85l-0.97-2.88c2-0.79,3.98-1.18,5.94-1.18c2.18,0,3.79,0.47,4.82,1.41c1.03,0.94,1.55,2.34,1.55,4.2
				v6.49C116.51,24.21,116.61,24.67,116.79,24.96z M112.3,23.64v-3.06h-1.43c-2.33,0-3.49,0.87-3.49,2.61
				c0,0.71,0.18,1.26,0.53,1.65c0.35,0.39,0.86,0.59,1.53,0.59C110.66,25.43,111.61,24.83,112.3,23.64z"/>
			<path class="st0" d="M124.76,28.04h-4.46V7.06h4.46V28.04z M129.67,16.52l7.55,11.52h-5.22l-7.06-11.19l6.97-9.79h4.76
				L129.67,16.52z"/>
			<path class="st0" d="M151.35,21.31h-10.04c0.14,1.46,0.54,2.49,1.18,3.09c0.65,0.61,1.53,0.91,2.64,0.91
				c0.69,0,1.33-0.11,1.94-0.33c0.61-0.22,1.26-0.58,1.97-1.06l1.79,2.43c-1.8,1.46-3.83,2.18-6.09,2.18
				c-2.53,0-4.47-0.76-5.82-2.27c-1.35-1.52-2.03-3.57-2.03-6.16c0-1.64,0.29-3.11,0.86-4.41c0.58-1.3,1.41-2.33,2.52-3.08
				c1.1-0.75,2.41-1.12,3.93-1.12c2.28,0,4.06,0.72,5.34,2.15c1.27,1.44,1.91,3.44,1.91,6C151.45,19.84,151.41,20.4,151.35,21.31z
				 M147.17,18.43c0-2.67-0.96-4-2.88-4c-0.89,0-1.58,0.33-2.06,0.99c-0.49,0.66-0.79,1.72-0.91,3.2h5.85V18.43z"/>
			<path class="st0" d="M162,28.07c-0.65,2.04-1.66,3.62-3.05,4.73c-1.38,1.11-3.26,1.75-5.62,1.91l-0.46-3.09
				c1.54-0.2,2.66-0.57,3.38-1.09c0.72-0.53,1.31-1.35,1.77-2.49h-1.49l-5-16.07h4.58l3.21,13.28l3.4-13.28h4.46L162,28.07z"/>
		</g>
	</g>
	<g>
		<g>
			<g>
				<linearGradient id="SVGID_1_" gradientUnits="userSpaceOnUse" x1="13.4935" y1="18.0925" x2="1.8474" y2="18.0925">
					<stop  offset="0" style="stop-color:#30AAE0"/>
					<stop  offset="0.0391" style="stop-color:#2E98D4"/>
					<stop  offset="0.0892" style="stop-color:#2E85C6"/>
					<stop  offset="0.1377" style="stop-color:#3177BC"/>
					<stop  offset="0.1836" style="stop-color:#326FB6"/>
					<stop  offset="0.2241" style="stop-color:#336CB3"/>
					<stop  offset="1" style="stop-color:#2C4294"/>
				</linearGradient>
				<path class="st1" d="M12.2,30.38L9.85,17.03c3.81-1.53,4.95-6.55,1.86-9.6c-0.6-0.59-1.49-1.12-2.37-1.38
					C9.18,6,8.98,5.95,8.83,5.92c-1.93-0.34-3.61,0.1-5.07,1.4C2.89,8.08,2.3,9.16,2.01,10.31c-0.37,1.46-0.07,2.83,0.49,3.99
					c0.41,0.85,1.19,1.68,1.98,2.19c0.1,0.07,0.25,0.14,0.34,0.23l-2.2,13.61L12.2,30.38z"/>
				
					<linearGradient id="SVGID_00000013166213352984467610000009106498447373078455_" gradientUnits="userSpaceOnUse" x1="30.9004" y1="16.1915" x2="2.626" y2="16.1915">
					<stop  offset="0" style="stop-color:#30AAE0"/>
					<stop  offset="0.2056" style="stop-color:#30A8DF"/>
					<stop  offset="0.3847" style="stop-color:#2FA2DA"/>
					<stop  offset="0.5537" style="stop-color:#2E97D3"/>
					<stop  offset="0.7167" style="stop-color:#2E88C8"/>
					<stop  offset="0.8739" style="stop-color:#3174BA"/>
					<stop  offset="0.9297" style="stop-color:#336CB3"/>
					<stop  offset="0.951" style="stop-color:#336AB2"/>
					<stop  offset="0.9667" style="stop-color:#3164AD"/>
					<stop  offset="0.9806" style="stop-color:#2F5AA6"/>
					<stop  offset="0.9934" style="stop-color:#2D4C9B"/>
					<stop  offset="1" style="stop-color:#2C4294"/>
				</linearGradient>
				<path style="fill:url(#SVGID_00000013166213352984467610000009106498447373078455_);" d="M15.71,25.26l-3.51,5.12l-9.58-0.05
					L21.88,2.47c0.18-0.25,0.48-0.42,0.8-0.46h7.14c0.87-0.1,1.39,0.72,0.89,1.37L19.95,19.07l7.37,9.98
					c0.5,0.65-0.02,1.41-0.89,1.31l-6.61,0.01c-0.32-0.04-0.62-0.21-0.8-0.46L15.71,25.26z"/>
				
					<linearGradient id="SVGID_00000040575407281022245180000003126006052925862298_" gradientUnits="userSpaceOnUse" x1="21.6127" y1="30.3752" x2="21.6127" y2="19.0737">
					<stop  offset="0" style="stop-color:#30AAE0"/>
					<stop  offset="0.3358" style="stop-color:#336CB3"/>
					<stop  offset="0.3724" style="stop-color:#3267B0"/>
					<stop  offset="0.5169" style="stop-color:#2E56A3"/>
					<stop  offset="0.6667" style="stop-color:#2D4B9B"/>
					<stop  offset="0.8238" style="stop-color:#2C4496"/>
					<stop  offset="1" style="stop-color:#2C4294"/>
				</linearGradient>
				<path style="fill:url(#SVGID_00000040575407281022245180000003126006052925862298_);" d="M19.95,19.07l7.37,9.98
					c0.5,0.65-0.02,1.41-0.89,1.31l-6.61,0.01c-0.32-0.04-0.62-0.21-0.8-0.46l-3.32-4.66L19.95,19.07z"/>
			</g>
			<g>
				<defs>
					<path id="SVGID_00000073685973984504499220000005091671537218069385_" d="M12.06,30L9.79,17.06c3.7-1.48,4.84-6.46,1.84-9.42
						c-0.58-0.57-1.45-1.09-2.29-1.34C9.17,6.25,8.98,6.2,8.83,6.17c-1.87-0.33-3.5,0.06-4.92,1.32c-0.84,0.74-1.41,1.79-1.69,2.9
						c-0.35,1.41-0.13,2.66,0.41,3.78c0.4,0.82,1.16,1.63,1.92,2.13c0.09,0.06,0.24,0.14,0.33,0.22l-2.13,13.2L12.06,30z"/>
				</defs>
				<clipPath id="SVGID_00000000212339489056332070000003982172596207418798_">
					<use xlink:href="#SVGID_00000073685973984504499220000005091671537218069385_"  style="overflow:visible;"/>
				</clipPath>
				
					<linearGradient id="SVGID_00000127761673181695503360000008168272017509945770_" gradientUnits="userSpaceOnUse" x1="17.7893" y1="14.9668" x2="11.9686" y2="-1.0255">
					<stop  offset="0.0812" style="stop-color:#FFFFFF"/>
					<stop  offset="0.2047" style="stop-color:#FFFFFF;stop-opacity:0.8656"/>
					<stop  offset="1" style="stop-color:#FFFFFF;stop-opacity:0"/>
				</linearGradient>
				
					<path style="clip-path:url(#SVGID_00000000212339489056332070000003982172596207418798_);fill-rule:evenodd;clip-rule:evenodd;fill:url(#SVGID_00000127761673181695503360000008168272017509945770_);" d="
					M-0.74,21.71c0,0,10.73-13.93,34.77-15.61l-0.93-6.69H16.89L4.12,1.83l-5.87,8.11L-0.74,21.71z"/>
			</g>
			<g>
				<defs>
					<path id="SVGID_00000096776252387454170140000017302052830922078865_" d="M2.84,30.35l19.1-27.66c0.18-0.25,0.48-0.42,0.8-0.46
						l6.93-0.02c0.87-0.1,1.24,0.55,0.74,1.19L12.06,30.2"/>
				</defs>
				<clipPath id="SVGID_00000158727459828261309590000007802809747780732291_">
					<use xlink:href="#SVGID_00000096776252387454170140000017302052830922078865_"  style="overflow:visible;"/>
				</clipPath>
				
					<linearGradient id="SVGID_00000158735454011726736800000007614975753494300607_" gradientUnits="userSpaceOnUse" x1="17.6889" y1="15.0753" x2="11.7364" y2="-1.279">
					<stop  offset="0" style="stop-color:#FFFFFF"/>
					<stop  offset="1" style="stop-color:#FFFFFF;stop-opacity:0"/>
				</linearGradient>
				
					<path style="clip-path:url(#SVGID_00000158727459828261309590000007802809747780732291_);fill-rule:evenodd;clip-rule:evenodd;fill:url(#SVGID_00000158735454011726736800000007614975753494300607_);" d="
					M-0.94,21.86c0,0,10.81-14.37,34.86-16.05l-0.93-6.69H16.76L4,1.54l-5.87,8.11L-0.94,21.86z"/>
			</g>
		</g>
		<path class="st6" d="M12.2,30.38l-9.58-0.05l2.2-13.61c-0.09-0.09-0.25-0.16-0.34-0.23c-0.78-0.52-1.57-1.35-1.98-2.19
			c-0.56-1.15-0.86-2.53-0.49-3.99C2.3,9.16,2.89,8.08,3.76,7.32c1.47-1.29,3.14-1.73,5.07-1.4C8.98,5.95,9.18,6,9.35,6.05
			c0.87,0.26,1.77,0.79,2.37,1.38c3.09,3.05,1.95,8.07-1.86,9.6l0.4,2.27h0L21.88,2.47c0.18-0.25,0.48-0.42,0.8-0.46h7.14
			c0.87-0.1,1.39,0.72,0.89,1.37L19.95,19.07l7.37,9.98c0.5,0.65-0.02,1.41-0.89,1.31l-6.61,0.01c-0.32-0.04-0.62-0.21-0.8-0.46
			l-3.32-4.66L12.2,30.38l-9.58-0.05L12.2,30.38z"/>
	</g>
</g>
</svg>
