<?xml version="1.0" encoding="utf-8"?>
<!-- Generator: Adobe Illustrator 26.1.0, SVG Export Plug-In . SVG Version: 6.00 Build 0)  -->
<svg version="1.1" id="Livello_1" xmlns="http://www.w3.org/2000/svg" xmlns:xlink="http://www.w3.org/1999/xlink" x="0px" y="0px"
	 viewBox="0 0 31.96 31.89" style="enable-background:new 0 0 31.96 31.89;" xml:space="preserve">
<style type="text/css">
	.st0{fill-rule:evenodd;clip-rule:evenodd;fill:url(#SVGID_1_);}
	.st1{fill:url(#SVGID_00000124868590375061934760000012230601691220547769_);}
	.st2{fill:url(#SVGID_00000067205160898045449170000012658238860235616184_);}
	
		.st3{clip-path:url(#SVGID_00000170268969119026237220000000868483644520460459_);fill-rule:evenodd;clip-rule:evenodd;fill:url(#SVGID_00000057136373232862715070000015713587989678341045_);}
	
		.st4{clip-path:url(#SVGID_00000169546295942254029190000007607788489656135072_);fill-rule:evenodd;clip-rule:evenodd;fill:url(#SVGID_00000074409481998804614960000006724321740169726109_);}
</style>
<g>
	<g>
		<g>
			<g>
				
					<linearGradient id="SVGID_1_" gradientUnits="userSpaceOnUse" x1="13.4879" y1="19.9052" x2="1.8468" y2="19.9052" gradientTransform="matrix(1 0 0 -1 0 38)">
					<stop  offset="0" style="stop-color:#30AAE0"/>
					<stop  offset="0.0391" style="stop-color:#2E98D4"/>
					<stop  offset="0.0892" style="stop-color:#2E85C6"/>
					<stop  offset="0.1377" style="stop-color:#3177BC"/>
					<stop  offset="0.1836" style="stop-color:#326FB6"/>
					<stop  offset="0.2241" style="stop-color:#336CB3"/>
					<stop  offset="1" style="stop-color:#2C4294"/>
				</linearGradient>
				<path class="st0" d="M12.2,30.38L9.85,17.03c3.81-1.53,4.95-6.55,1.86-9.6c-0.6-0.59-1.49-1.12-2.37-1.38
					C9.18,6,8.98,5.95,8.83,5.92c-1.93-0.34-3.61,0.1-5.07,1.4C2.89,8.08,2.3,9.16,2.01,10.31c-0.37,1.46-0.07,2.83,0.49,3.99
					c0.41,0.85,1.19,1.68,1.98,2.19c0.1,0.07,0.25,0.14,0.34,0.23l-2.2,13.61L12.2,30.38z"/>
				
					<linearGradient id="SVGID_00000087400080600704294430000017927918908545582527_" gradientUnits="userSpaceOnUse" x1="30.9051" y1="21.8092" x2="2.62" y2="21.8092" gradientTransform="matrix(1 0 0 -1 0 38)">
					<stop  offset="0" style="stop-color:#30AAE0"/>
					<stop  offset="0.2056" style="stop-color:#30A8DF"/>
					<stop  offset="0.3847" style="stop-color:#2FA2DA"/>
					<stop  offset="0.5537" style="stop-color:#2E97D3"/>
					<stop  offset="0.7167" style="stop-color:#2E88C8"/>
					<stop  offset="0.8739" style="stop-color:#3174BA"/>
					<stop  offset="0.9297" style="stop-color:#336CB3"/>
					<stop  offset="0.951" style="stop-color:#336AB2"/>
					<stop  offset="0.9667" style="stop-color:#3164AD"/>
					<stop  offset="0.9806" style="stop-color:#2F5AA6"/>
					<stop  offset="0.9934" style="stop-color:#2D4C9B"/>
					<stop  offset="1" style="stop-color:#2C4294"/>
				</linearGradient>
				<path style="fill:url(#SVGID_00000087400080600704294430000017927918908545582527_);" d="M15.71,25.26l-3.51,5.12l-9.58-0.05
					L21.88,2.47c0.18-0.25,0.48-0.42,0.8-0.46h7.14c0.87-0.1,1.39,0.72,0.89,1.37L19.95,19.07l7.37,9.98
					c0.5,0.65-0.02,1.41-0.89,1.31l-6.61,0.01c-0.32-0.04-0.62-0.21-0.8-0.46L15.71,25.26z"/>
				
					<linearGradient id="SVGID_00000097477109144827395010000002761867861603814019_" gradientUnits="userSpaceOnUse" x1="21.6076" y1="7.63" x2="21.6076" y2="18.93" gradientTransform="matrix(1 0 0 -1 0 38)">
					<stop  offset="0" style="stop-color:#30AAE0"/>
					<stop  offset="0.3358" style="stop-color:#336CB3"/>
					<stop  offset="0.3724" style="stop-color:#3267B0"/>
					<stop  offset="0.5169" style="stop-color:#2E56A3"/>
					<stop  offset="0.6667" style="stop-color:#2D4B9B"/>
					<stop  offset="0.8238" style="stop-color:#2C4496"/>
					<stop  offset="1" style="stop-color:#2C4294"/>
				</linearGradient>
				<path style="fill:url(#SVGID_00000097477109144827395010000002761867861603814019_);" d="M19.95,19.07l7.37,9.98
					c0.5,0.65-0.02,1.41-0.89,1.31l-6.61,0.01c-0.32-0.04-0.62-0.21-0.8-0.46l-3.32-4.66L19.95,19.07z"/>
			</g>
			<g>
				<g>
					<defs>
						<path id="SVGID_00000093864124850057862650000016490358543018233747_" d="M12.06,30L9.79,17.06c3.7-1.48,4.84-6.46,1.84-9.42
							c-0.58-0.57-1.45-1.09-2.29-1.34C9.17,6.25,8.98,6.2,8.83,6.17c-1.87-0.33-3.5,0.06-4.92,1.32c-0.84,0.74-1.41,1.79-1.69,2.9
							c-0.35,1.41-0.13,2.66,0.41,3.78c0.4,0.82,1.16,1.63,1.92,2.13c0.09,0.06,0.24,0.14,0.33,0.22l-2.13,13.2L12.06,30z"/>
					</defs>
					<clipPath id="SVGID_00000078762245377276840360000008069996403352129195_">
						<use xlink:href="#SVGID_00000093864124850057862650000016490358543018233747_"  style="overflow:visible;"/>
					</clipPath>
					
						<linearGradient id="SVGID_00000163789459945289929770000008462364619886283949_" gradientUnits="userSpaceOnUse" x1="17.7843" y1="23.0323" x2="11.9635" y2="39.0248" gradientTransform="matrix(1 0 0 -1 0 38)">
						<stop  offset="0.0812" style="stop-color:#FFFFFF"/>
						<stop  offset="0.2047" style="stop-color:#FFFFFF;stop-opacity:0.8656"/>
						<stop  offset="1" style="stop-color:#FFFFFF;stop-opacity:0"/>
					</linearGradient>
					
						<path style="clip-path:url(#SVGID_00000078762245377276840360000008069996403352129195_);fill-rule:evenodd;clip-rule:evenodd;fill:url(#SVGID_00000163789459945289929770000008462364619886283949_);" d="
						M-0.74,21.71c0,0,10.73-13.93,34.77-15.61L33.1-0.59H16.89L4.12,1.83l-5.87,8.11L-0.74,21.71z"/>
				</g>
			</g>
			<g>
				<g>
					<defs>
						<path id="SVGID_00000108308271461294159890000002840016114758677652_" d="M2.84,30.35l19.1-27.66
							c0.18-0.25,0.48-0.42,0.8-0.46l6.93-0.02c0.87-0.1,1.24,0.55,0.74,1.19L12.06,30.2"/>
					</defs>
					<clipPath id="SVGID_00000157292628038606973400000002521648235632150702_">
						<use xlink:href="#SVGID_00000108308271461294159890000002840016114758677652_"  style="overflow:visible;"/>
					</clipPath>
					
						<linearGradient id="SVGID_00000141435733123634944020000012226129055814513850_" gradientUnits="userSpaceOnUse" x1="17.6947" y1="22.9225" x2="11.7419" y2="39.2778" gradientTransform="matrix(1 0 0 -1 0 38)">
						<stop  offset="0" style="stop-color:#FFFFFF"/>
						<stop  offset="1" style="stop-color:#FFFFFF;stop-opacity:0"/>
					</linearGradient>
					
						<path style="clip-path:url(#SVGID_00000157292628038606973400000002521648235632150702_);fill-rule:evenodd;clip-rule:evenodd;fill:url(#SVGID_00000141435733123634944020000012226129055814513850_);" d="
						M-0.94,21.86c0,0,10.81-14.37,34.86-16.05l-0.93-6.69H16.76L4,1.54l-5.87,8.11L-0.94,21.86z"/>
				</g>
			</g>
		</g>
	</g>
</g>
</svg>
