<?xml version="1.0" encoding="utf-8"?>
<!-- Generator: Adobe Illustrator 26.1.0, SVG Export Plug-In . SVG Version: 6.00 Build 0)  -->
<svg version="1.1" id="Layer_2" xmlns="http://www.w3.org/2000/svg" xmlns:xlink="http://www.w3.org/1999/xlink" x="0px" y="0px"
	 viewBox="0 0 512 512" style="enable-background:new 0 0 512 512;" xml:space="preserve">
<path d="M256,16C123.5,16,16,123.5,16,256s107.5,240,240,240s240-107.5,240-240C495.9,123.5,388.5,16.1,256,16z M299.3,340.7
	c6.4,6.1,6.5,16.3,0.4,22.6c-6.1,6.4-16.3,6.5-22.6,0.4c-0.1-0.1-0.3-0.3-0.4-0.4l-96-96c-6.2-6.2-6.2-16.4,0-22.6l96-96
	c6.4-6.1,16.5-6,22.6,0.4c6,6.2,6,16,0,22.2L214.6,256L299.3,340.7z"/>
</svg>
