<svg id="Layer_1" enable-background="new 0 0 512 512" height="512" viewBox="0 0 512 512" width="512" xmlns="http://www.w3.org/2000/svg"><path clip-rule="evenodd" d="m105.994 266.231v114.273h-43.83v-114.273zm-86.512-69.84h473.037v-34.385c0-5.422-4.423-9.844-9.844-9.844h-453.35c-5.421 0-9.844 4.422-9.844 9.844v34.385zm0 298.182h473.037v-34.385c0-5.422-4.423-9.844-9.844-9.844h-453.35c-5.421 0-9.844 4.422-9.844 9.844v34.385zm244.712-474.656 165.967 108.244h-348.322l165.967-108.244c5.092-3.32 11.296-3.32 16.388 0zm-158.2 384.587h5.667c5.422 0 9.844 4.423 9.844 9.844v11.997h-74.852v-11.997c0-5.422 4.422-9.844 9.844-9.844h5.667zm-43.83-162.273h-5.667c-5.42 0-9.844-4.422-9.844-9.844v-11.997h74.852v11.997c0 5.42-4.423 9.844-9.844 9.844h-5.667zm338.174 162.273h5.667 43.831 5.667c5.422 0 9.844 4.423 9.844 9.844v11.997h-74.852v-11.997c-.001-5.422 4.422-9.844 9.843-9.844zm5.667-24v-114.273h43.831v114.273zm0-138.273h-5.667c-5.421 0-9.844-4.422-9.844-9.844v-11.997h74.852v11.997c0 5.42-4.423 9.844-9.844 9.844h-5.667zm-55.272-21.841v11.997c0 5.42-4.423 9.844-9.844 9.844h-5.667-43.831-5.667c-5.421 0-9.844-4.422-9.844-9.844v-11.997zm-15.511 45.841v114.273h-43.831v-114.273zm0 138.273h5.667c5.422 0 9.844 4.423 9.844 9.844v11.997h-74.853v-11.997c0-5.422 4.422-9.844 9.844-9.844h5.667zm-99.103-184.114v11.997c0 5.42-4.423 9.844-9.844 9.844h-5.667-43.831-5.667c-5.421 0-9.844-4.422-9.844-9.844v-11.997zm-15.511 45.841v114.273h-43.831v-114.273zm0 138.273h5.667c5.422 0 9.844 4.423 9.844 9.844v11.997h-74.852v-11.997c0-5.422 4.422-9.844 9.844-9.844h5.667z" fill-rule="evenodd"/></svg>