<?xml version="1.0" encoding="utf-8"?>
<!-- Generator: Adobe Illustrator 26.1.0, SVG Export Plug-In . SVG Version: 6.00 Build 0)  -->
<svg version="1.1" id="Layer_1" xmlns="http://www.w3.org/2000/svg" xmlns:xlink="http://www.w3.org/1999/xlink" x="0px" y="0px"
	 viewBox="0 0 512 512" style="enable-background:new 0 0 512 512;" xml:space="preserve">
<style type="text/css">
	.st0{fill-rule:evenodd;clip-rule:evenodd;fill:#FFFFFF;}
</style>
<path class="st0" d="M106,266.2v114.3H62.2V266.2H106z M19.5,196.4h473V162c0-5.4-4.4-9.8-9.8-9.8H29.3c-5.4,0-9.8,4.4-9.8,9.8
	L19.5,196.4L19.5,196.4z M19.5,494.6h473v-34.4c0-5.4-4.4-9.8-9.8-9.8H29.3c-5.4,0-9.8,4.4-9.8,9.8L19.5,494.6L19.5,494.6z
	 M264.2,19.9l166,108.2H81.8l166-108.2C252.9,16.6,259.1,16.6,264.2,19.9L264.2,19.9z M106,404.5h5.7c5.4,0,9.8,4.4,9.8,9.8v12H46.7
	v-12c0-5.4,4.4-9.8,9.8-9.8h5.7H106z M62.2,242.2h-5.7c-5.4,0-9.8-4.4-9.8-9.8v-12h74.9v12c0,5.4-4.4,9.8-9.8,9.8H106H62.2z
	 M400.3,404.5h5.7h43.8h5.7c5.4,0,9.8,4.4,9.8,9.8v12h-74.9v-12C390.5,408.9,394.9,404.5,400.3,404.5L400.3,404.5z M406,380.5V266.2
	h43.8v114.3H406z M406,242.2h-5.7c-5.4,0-9.8-4.4-9.8-9.8v-12h74.9v12c0,5.4-4.4,9.8-9.8,9.8h-5.7H406z M350.7,220.4v12
	c0,5.4-4.4,9.8-9.8,9.8h-5.7h-43.8h-5.7c-5.4,0-9.8-4.4-9.8-9.8v-12H350.7z M335.2,266.2v114.3h-43.8V266.2H335.2z M335.2,404.5h5.7
	c5.4,0,9.8,4.4,9.8,9.8v12h-74.9v-12c0-5.4,4.4-9.8,9.8-9.8h5.7H335.2z M236.1,220.4v12c0,5.4-4.4,9.8-9.8,9.8h-5.7h-43.8h-5.7
	c-5.4,0-9.8-4.4-9.8-9.8v-12H236.1z M220.6,266.2v114.3h-43.8V266.2H220.6z M220.6,404.5h5.7c5.4,0,9.8,4.4,9.8,9.8v12h-74.9v-12
	c0-5.4,4.4-9.8,9.8-9.8h5.7H220.6z"/>
</svg>
