<?xml version="1.0" encoding="utf-8"?>
<!-- Generator: Adobe Illustrator 26.1.0, SVG Export Plug-In . SVG Version: 6.00 Build 0)  -->
<svg version="1.1" id="Layer_1" xmlns="http://www.w3.org/2000/svg" xmlns:xlink="http://www.w3.org/1999/xlink" x="0px" y="0px"
	 viewBox="0 0 512 512" style="enable-background:new 0 0 512 512;" xml:space="preserve">
<style type="text/css">
	.st0{fill:#FFFFFF;}
</style>
<g>
	<g>
		<path class="st0" d="M497,482h-16V227c0-6.6-4.2-12.3-10.2-14.1L331,166.1V512h166c8.4,0,15-6.6,15-15S505.4,482,497,482z
			 M451,482h-30v-60h-30v60h-30v-75c0-8.4,6.6-15,15-15h60c8.4,0,15,6.6,15,15V482L451,482z M436,362h-60c-8.4,0-15-6.6-15-15
			s6.6-15,15-15h60c8.4,0,15,6.6,15,15S444.4,362,436,362z M436,302h-60c-8.4,0-15-6.6-15-15s6.6-15,15-15h60c8.4,0,15,6.6,15,15
			S444.4,302,436,302z"/>
	</g>
</g>
<g>
	<g>
		<path class="st0" d="M291.4,90.9l-240-90C41.2-2.7,31,4.8,31,15v467H15c-8.4,0-15,6.6-15,15s6.6,15,15,15h286
			c0-97.4,0-162.1,0-407C301,98.7,297.1,93,291.4,90.9z M151,482H91v-75c0-8.4,6.6-15,15-15h45V482L151,482z M136,362h-30
			c-8.4,0-15-6.6-15-15s6.6-15,15-15h30c8.4,0,15,6.6,15,15S144.4,362,136,362z M136,302h-30c-8.4,0-15-6.6-15-15s6.6-15,15-15h30
			c8.4,0,15,6.6,15,15S144.4,302,136,302z M136,242h-30c-8.4,0-15-6.6-15-15s6.6-15,15-15h30c8.4,0,15,6.6,15,15S144.4,242,136,242z
			 M136,182h-30c-8.4,0-15-6.6-15-15s6.6-15,15-15h30c8.4,0,15,6.6,15,15S144.4,182,136,182z M241,482h-60v-90h45
			c8.4,0,15,6.6,15,15V482L241,482z M226,362h-30c-8.4,0-15-6.6-15-15s6.6-15,15-15h30c8.4,0,15,6.6,15,15S234.4,362,226,362z
			 M226,302h-30c-8.4,0-15-6.6-15-15s6.6-15,15-15h30c8.4,0,15,6.6,15,15S234.4,302,226,302z M226,242h-30c-8.4,0-15-6.6-15-15
			s6.6-15,15-15h30c8.4,0,15,6.6,15,15S234.4,242,226,242z M226,182h-30c-8.4,0-15-6.6-15-15s6.6-15,15-15h30c8.4,0,15,6.6,15,15
			S234.4,182,226,182z"/>
	</g>
</g>
</svg>
