<?xml version="1.0" encoding="utf-8"?>
<!-- Generator: Adobe Illustrator 26.1.0, SVG Export Plug-In . SVG Version: 6.00 Build 0)  -->
<svg version="1.1" id="Layer_1" xmlns="http://www.w3.org/2000/svg" xmlns:xlink="http://www.w3.org/1999/xlink" x="0px" y="0px"
	 viewBox="0 0 512 512" style="enable-background:new 0 0 512 512;" xml:space="preserve">
<style type="text/css">
	.st0{fill-rule:evenodd;clip-rule:evenodd;}
</style>
<g>
	<path class="st0" d="M184.6,96.6h304.2L308.1,220.5l-122.9-84.2C189.9,123.7,189.9,109.6,184.6,96.6L184.6,96.6z M105,168.5
		l44.3-27c13.2-8,17.5-25.1,9.8-38.4l-40-69.3c-4.1-7.1-10.3-11.7-18.3-13.5c-8-1.8-15.6-0.3-22.4,4.3l-73,50.3
		c-34.7,122.4,121.4,387.5,241.1,417.7l80-38.1c7.4-3.5,12.5-9.4,14.9-17.2c2.4-7.8,1.6-15.5-2.5-22.6l-40-69.3
		c-7.7-13.3-24.7-18.1-38.2-10.7l-45.5,24.9C170.2,319.4,117.2,227.6,105,168.5L105,168.5z M510.9,112.6l-195.5,134
		c-4.6,3.1-10.5,2.9-14.7-0.2l-129.8-89c-2.5,2.2-5.2,4.2-8.1,6l-28,17.1c14.7,47.5,51.2,110.7,85,147.2l28.8-15.7
		c25.7-14.1,58.1-5,72.8,20.4l24.8,43h144.6c11.4,0,20.8-9.3,20.8-20.8V117.4C511.4,115.7,511.2,114.1,510.9,112.6L510.9,112.6z"/>
</g>
</svg>
