<?xml version="1.0" encoding="utf-8"?>
<!-- Generator: Adobe Illustrator 26.1.0, SVG Export Plug-In . SVG Version: 6.00 Build 0)  -->
<svg version="1.1" id="Layer_1" xmlns="http://www.w3.org/2000/svg" xmlns:xlink="http://www.w3.org/1999/xlink" x="0px" y="0px"
	 viewBox="0 0 512 512" style="enable-background:new 0 0 512 512;" xml:space="preserve">
<style type="text/css">
	.st0{fill-rule:evenodd;clip-rule:evenodd;fill:#FFFFFF;}
</style>
<path class="st0" d="M66.9,411.9v-64.5c0-4.8-3.8-8.6-8.6-8.6H16.2c-8.8,0-16.2-7.3-16.2-16.2V40.3c0-8.9,7.3-16.2,16.2-16.2h373.9
	c8.9,0,16.1,7.3,16.1,16.2v282.3c0,8.8-7.3,16.2-16.1,16.2H165c-1.9,0-3.8,0.6-5.3,1.8L66.9,411.9z M512,420.4V195.9
	c0-6.1-5-11.1-11.1-11.1h-66.6v148.5c0,18.4-15,33.5-33.4,33.5H192.5v53.6c0,6.1,5,11.1,11.1,11.1h179c1.9,0,3.8,0.6,5.3,1.8
	l70.9,54.5v-47.7c0-4.8,3.8-8.6,8.6-8.6h33.5C507,431.5,512,426.5,512,420.4L512,420.4z M207.8,277.2c0-7.2-5.8-13-13-13H193
	c-7.2,0-13,5.8-13,13c0,7.2,5.8,13,13,13h1.8C202,290.1,207.8,284.3,207.8,277.2z M228.3,132.4v0.6v0.1l0,0.1c0,1.1-0.2,2.2-0.4,3.3
	c-0.8,3.7-2.8,6.7-5.3,9.6c-3.1,3.6-7,7-10.6,10.2c-7.8,7-15.1,13.7-20.8,22.6c-7.3,11.3-10.4,23.5-10.3,36.9
	c0.1,7.1,5.8,12.8,13,12.8c0,0,0.1,0,0.1,0c7.2-0.1,12.9-5.9,12.8-13.1c-0.2-18.9,9.1-28.1,22.4-39.9c13-11.6,24.3-22.7,24.9-41.4
	l0-0.1l0-0.1c1.2-18.9-7.2-35.6-23.1-45.9c-14.4-9.3-33.2-11.8-49.3-5.4c-1.7,0.7-3.4,1.5-5,2.3c-17.1,9.2-24.7,27.1-24.8,46
	c0,7.2,5.7,13,12.9,13h0.1c7.1,0,12.9-5.8,13-12.9c0-9.2,2.6-18.7,11.3-23.4c8.5-4.6,19.9-3.1,27.9,2.1
	C224.9,115,228.9,123,228.3,132.4L228.3,132.4z"/>
</svg>
