<?xml version="1.0" encoding="utf-8"?>
<!-- Generator: Adobe Illustrator 26.1.0, SVG Export Plug-In . SVG Version: 6.00 Build 0)  -->
<svg version="1.1" id="Layer_2" xmlns="http://www.w3.org/2000/svg" xmlns:xlink="http://www.w3.org/1999/xlink" x="0px" y="0px"
	 viewBox="0 0 512 512" style="enable-background:new 0 0 512 512;" xml:space="preserve">
<style type="text/css">
	.st0{opacity:5.000000e-02;}
</style>
<g class="st0">
	<path d="M256,496C123.7,496,16,388.3,16,256S123.7,16,256,16s240,107.7,240,240S388.3,496,256,496z M256,62.5
		C149.3,62.5,62.5,149.3,62.5,256S149.3,449.5,256,449.5S449.5,362.7,449.5,256S362.7,62.5,256,62.5L256,62.5z"/>
</g>
<g class="st0">
	<path d="M244.6,360.1c-13.6,0-26.9-3.8-38.4-11.1c-10.9-6.8-14.1-21.2-7.2-32c6.9-10.9,21.2-14.1,32-7.2c4.1,2.6,8.7,3.9,13.6,3.9
		c14.1,0,25.6-11.5,25.6-25.6s-11.5-25.6-25.6-25.6c-4.7,0-9.3,1.3-13.3,3.7c-7.7,4.7-17.5,4.5-25-0.5s-11.4-14-10-22.9l11.4-71.3
		c1.8-11.3,11.5-19.6,22.9-19.6h53.5c12.8,0,23.2,10.4,23.2,23.2s-10.4,23.2-23.2,23.2h-33.7l-2.8,17.8c38.4,1.5,69.1,33.2,69.1,72
		C316.6,327.8,284.3,360.1,244.6,360.1L244.6,360.1z"/>
</g>
</svg>
