<?xml version="1.0" encoding="utf-8"?>
<!-- Generator: Adobe Illustrator 26.1.0, SVG Export Plug-In . SVG Version: 6.00 Build 0)  -->
<svg version="1.1" id="Layer_2" xmlns="http://www.w3.org/2000/svg" xmlns:xlink="http://www.w3.org/1999/xlink" x="0px" y="0px"
	 viewBox="0 0 512 512" style="enable-background:new 0 0 512 512;" xml:space="preserve">
<style type="text/css">
	.st0{opacity:5.000000e-02;}
</style>
<g class="st0">
	<path d="M256,16C123.7,16,16,123.7,16,256s107.7,240,240,240s240-107.7,240-240S388.3,16,256,16z M256,449.5
		c-106.7,0-193.5-86.8-193.5-193.5S149.3,62.5,256,62.5S449.5,149.3,449.5,256S362.7,449.5,256,449.5L256,449.5z"/>
	<path d="M293.9,155.4c-12.8,0-23.2,10.4-23.2,23.2v54.2h-38l13.8-47.7c3.6-12.3-3.5-25.2-15.9-28.8c-12.3-3.5-25.2,3.5-28.8,15.9
		l-22.4,77.4c-2,7-0.6,14.6,3.8,20.4s11.3,9.3,18.6,9.3h68.8v54.2c0,12.8,10.4,23.2,23.2,23.2s23.2-10.4,23.2-23.2V178.6
		C317.1,165.8,306.7,155.4,293.9,155.4z"/>
</g>
</svg>
