<?xml version="1.0" encoding="utf-8"?>
<!-- Generator: Adobe Illustrator 26.1.0, SVG Export Plug-In . SVG Version: 6.00 Build 0)  -->
<svg version="1.1" id="Capa_1" xmlns="http://www.w3.org/2000/svg" xmlns:xlink="http://www.w3.org/1999/xlink" x="0px" y="0px"
	 viewBox="0 0 512 512" style="enable-background:new 0 0 512 512;" xml:space="preserve">
<style type="text/css">
	.st0{fill:#FFFFFF;}
</style>
<path class="st0" d="M310.2,73.2c7-6.3,16.4-10,26.7-9.6c19.5,0.8,35.4,16.7,36.1,36.2c0.8,21.5-16.4,39.1-37.7,39.1
	c-9.7,0-18.5-3.6-25.1-9.6v72.4h72.4c-6.3,7-10,16.4-9.6,26.7c0.8,19.5,16.7,35.4,36.2,36.1c21.5,0.8,39.1-16.4,39.1-37.7
	c0-9.7-3.6-18.5-9.6-25.1H512V25.1C512,11.2,500.8,0,486.9,0H310.2V73.2z"/>
<path class="st0" d="M264.7,336.8c-0.4-10.3,3.3-19.6,9.6-26.7h-72.4v72.4c-7-6.3-16.4-10-26.7-9.6c-19.5,0.8-35.4,16.7-36.1,36.2
	c-0.8,21.5,16.4,39.1,37.7,39.1c9.7,0,18.5-3.6,25.1-9.6V512h176.7c13.9,0,25.1-11.2,25.1-25.1V310.2h-73.2c6,6.7,9.6,15.5,9.6,25.1
	c0,21.3-17.7,38.5-39.1,37.7C281.3,372.2,265.4,356.3,264.7,336.8L264.7,336.8z"/>
<path class="st0" d="M226.9,172c-9.7,0-18.5,3.6-25.1,9.6v-73.2H25.1C11.2,108.3,0,119.6,0,133.5v146.7h33.8
	c2.4-34.1,30.6-61.5,64.9-62.8c0.9,0,1.7,0,2.6,0c35.7,0,65,27.8,67.5,62.8h33v-42.4c7,6.3,16.4,10,26.7,9.6
	c19.5-0.8,35.4-16.7,36.1-36.2C265.4,189.7,248.2,172,226.9,172L226.9,172z"/>
<path class="st0" d="M127.9,457.6c-12.9-13.4-19.6-31-18.9-49.5c1.3-34.4,28.7-62.5,62.8-64.9v-33h-42.4c6-6.7,9.6-15.5,9.6-25.1
	c0-21.3-17.7-38.5-39.1-37.7c-19.5,0.7-35.4,16.6-36.2,36.1c-0.4,10.3,3.3,19.6,9.6,26.7H0v176.7C0,500.8,11.2,512,25.1,512h146.7
	v-33.8C155.3,477,139.5,469.6,127.9,457.6L127.9,457.6z"/>
</svg>
