<svg id="Layer_1" enable-background="new 0 0 512 512" height="512" viewBox="0 0 512 512" width="512" xmlns="http://www.w3.org/2000/svg"><path clip-rule="evenodd" d="m256 16c25.888 0 46.874 14.753 46.874 48.778 0 34.024-20.986 61.607-46.874 61.607-25.889 0-46.874-27.583-46.874-61.607s20.987-48.778 46.874-48.778zm-96.163 480h31.332v-72.871c0-4.418 3.582-8 8-8s8 3.582 8 8v72.871h97.661v-72.871c0-4.418 3.582-8 8-8s8 3.582 8 8v72.871h31.333c4.406 0 8-3.594 8-8v-86.623c0-23.18-20.646-36.343-44.137-42.17-39.444-9.785-79.431-10.446-120.053 0-23.436 6.024-44.137 18.977-44.137 42.17v86.623c.001 4.406 3.595 8 8.001 8zm96.163-265.216c25.888 0 46.874 14.753 46.874 48.778 0 34.024-20.986 61.607-46.874 61.607-25.889 0-46.874-27.583-46.874-61.607 0-34.025 20.987-48.778 46.874-48.778zm-130.287-87.391c25.888 0 46.874 14.753 46.874 48.778 0 34.024-20.986 61.606-46.874 61.606-25.889 0-46.874-27.583-46.874-61.606 0-34.025 20.986-48.778 46.874-48.778zm-96.164 265.215c-4.406 0-8-3.594-8-8v-86.623c0-23.194 20.701-36.146 44.137-42.171 40.622-10.446 80.61-9.785 120.053 0 2.561.635 5.088 1.358 7.559 2.171-.113 1.828-.172 3.686-.172 5.575 0 18.866 5.492 38.131 16.995 53.251 1.611 2.118 3.33 4.134 5.148 6.034-7.763 1.251-15.524 2.87-23.281 4.865-28.522 7.333-56.152 25.02-56.152 57.666v7.231h-58.954v-72.871c0-4.418-3.582-8-8-8s-8 3.582-8 8v72.871h-31.333zm346.614 0v-7.231c0-32.64-27.626-50.591-56.284-57.7-7.74-1.92-15.486-3.503-23.235-4.742 1.85-1.926 3.598-3.973 5.234-6.123 11.504-15.12 16.996-34.385 16.996-53.251 0-1.871-.057-3.711-.168-5.521 2.47-.827 4.996-1.568 7.555-2.225 40.622-10.446 80.61-9.785 120.053 0 23.49 5.827 44.137 18.99 44.137 42.171v86.623c0 4.406-3.594 8-8 8h-31.333v-72.871c0-4.418-3.582-8-8-8s-8 3.582-8 8v72.871h-58.955zm10.124-265.215c25.888 0 46.874 14.753 46.874 48.778 0 34.024-20.986 61.606-46.874 61.606-25.889 0-46.874-27.583-46.874-61.606 0-34.025 20.986-48.778 46.874-48.778zm-70.188 114.686c2.048-.642 4.111-1.229 6.178-1.76 7.756-1.994 15.517-3.614 23.28-4.865-1.819-1.9-3.537-3.916-5.149-6.034-11.504-15.119-16.995-34.384-16.995-53.25 0-16.124 4.162-30.042 11.817-40.801-5.879-2.969-12.422-5.265-19.203-6.947-39.444-9.785-79.431-10.446-120.053 0-6.756 1.737-13.283 4.051-19.154 7.018 7.623 10.75 11.767 24.641 11.767 40.73 0 18.866-5.492 38.131-16.996 53.25-1.636 2.151-3.384 4.197-5.234 6.123 7.749 1.239 15.495 2.822 23.235 4.742 2.116.525 4.227 1.109 6.321 1.754 7.368-26.558 28.968-43.256 60.088-43.256 31.134.001 52.741 16.715 60.098 43.296z" fill-rule="evenodd"/></svg>