<?xml version="1.0" encoding="utf-8"?>
<!-- Generator: Adobe Illustrator 26.1.0, SVG Export Plug-In . SVG Version: 6.00 Build 0)  -->
<svg version="1.1" id="Layer_1" xmlns="http://www.w3.org/2000/svg" xmlns:xlink="http://www.w3.org/1999/xlink" x="0px" y="0px"
	 viewBox="0 0 512 512" style="enable-background:new 0 0 512 512;" xml:space="preserve">
<style type="text/css">
	.st0{fill-rule:evenodd;clip-rule:evenodd;fill:#FFFFFF;}
</style>
<path class="st0" d="M256,16c25.9,0,46.9,14.8,46.9,48.8c0,34-21,61.6-46.9,61.6c-25.9,0-46.9-27.6-46.9-61.6S230.1,16,256,16z
	 M159.8,496h31.3v-72.9c0-4.4,3.6-8,8-8s8,3.6,8,8V496h97.7v-72.9c0-4.4,3.6-8,8-8s8,3.6,8,8V496h31.3c4.4,0,8-3.6,8-8v-86.6
	c0-23.2-20.6-36.3-44.1-42.2c-39.4-9.8-79.4-10.4-120.1,0c-23.4,6-44.1,19-44.1,42.2V488C151.8,492.4,155.4,496,159.8,496L159.8,496
	z M256,230.8c25.9,0,46.9,14.8,46.9,48.8c0,34-21,61.6-46.9,61.6c-25.9,0-46.9-27.6-46.9-61.6C209.1,245.5,230.1,230.8,256,230.8
	L256,230.8z M125.7,143.4c25.9,0,46.9,14.8,46.9,48.8c0,34-21,61.6-46.9,61.6c-25.9,0-46.9-27.6-46.9-61.6
	C78.8,158.1,99.8,143.4,125.7,143.4z M29.5,408.6c-4.4,0-8-3.6-8-8V314c0-23.2,20.7-36.1,44.1-42.2c40.6-10.4,80.6-9.8,120.1,0
	c2.6,0.6,5.1,1.4,7.6,2.2c-0.1,1.8-0.2,3.7-0.2,5.6c0,18.9,5.5,38.1,17,53.3c1.6,2.1,3.3,4.1,5.1,6c-7.8,1.3-15.5,2.9-23.3,4.9
	c-28.5,7.3-56.2,25-56.2,57.7v7.2h-59v-72.9c0-4.4-3.6-8-8-8s-8,3.6-8,8v72.9L29.5,408.6L29.5,408.6z M376.2,408.6v-7.2
	c0-32.6-27.6-50.6-56.3-57.7c-7.7-1.9-15.5-3.5-23.2-4.7c1.9-1.9,3.6-4,5.2-6.1c11.5-15.1,17-34.4,17-53.3c0-1.9-0.1-3.7-0.2-5.5
	c2.5-0.8,5-1.6,7.6-2.2c40.6-10.4,80.6-9.8,120.1,0c23.5,5.8,44.1,19,44.1,42.2v86.6c0,4.4-3.6,8-8,8h-31.3v-72.9c0-4.4-3.6-8-8-8
	s-8,3.6-8,8v72.9L376.2,408.6L376.2,408.6z M386.3,143.4c25.9,0,46.9,14.8,46.9,48.8c0,34-21,61.6-46.9,61.6
	c-25.9,0-46.9-27.6-46.9-61.6C339.4,158.1,360.4,143.4,386.3,143.4z M316.1,258.1c2-0.6,4.1-1.2,6.2-1.8c7.8-2,15.5-3.6,23.3-4.9
	c-1.8-1.9-3.5-3.9-5.1-6c-11.5-15.1-17-34.4-17-53.2c0-16.1,4.2-30,11.8-40.8c-5.9-3-12.4-5.3-19.2-6.9c-39.4-9.8-79.4-10.4-120.1,0
	c-6.8,1.7-13.3,4.1-19.2,7c7.6,10.8,11.8,24.6,11.8,40.7c0,18.9-5.5,38.1-17,53.2c-1.6,2.2-3.4,4.2-5.2,6.1
	c7.7,1.2,15.5,2.8,23.2,4.7c2.1,0.5,4.2,1.1,6.3,1.8c7.4-26.6,29-43.3,60.1-43.3C287.1,214.8,308.7,231.5,316.1,258.1z"/>
</svg>
