<?xml version="1.0" encoding="utf-8"?>
<!-- Generator: Adobe Illustrator 26.1.0, SVG Export Plug-In . SVG Version: 6.00 Build 0)  -->
<svg version="1.1" id="Livello_1" xmlns="http://www.w3.org/2000/svg" xmlns:xlink="http://www.w3.org/1999/xlink" x="0px" y="0px"
	 viewBox="0 0 512 512" style="enable-background:new 0 0 512 512;" xml:space="preserve">
<g id="_9-Home">
	<path d="M349.1,480H162.9c-43.8,1.6-80.8-32.3-82.9-76.2V304c0-8.8,7.2-16,16-16s16,7.2,16,16v99.8c2,26.1,24.7,45.8,50.9,44.2
		h186.2c26.2,1.7,48.8-18,50.9-44.2V304c0-8.8,7.2-16,16-16s16,7.2,16,16v99.8C429.9,447.7,393,481.6,349.1,480z M475.4,267.4
		c6.3-6.2,6.3-16.4,0.1-22.6l-0.1-0.1l-208-208c-6.2-6.3-16.4-6.3-22.6-0.1l-0.1,0.1l-208,208c-6.3,6.3-6.3,16.4,0,22.7
		s16.4,6.3,22.7,0L256,70.6l196.6,196.8C458.9,273.6,469,273.7,475.4,267.4C475.3,267.4,475.3,267.4,475.4,267.4z"/>
</g>
</svg>
