<?xml version="1.0" encoding="utf-8"?>
<!-- Generator: Adobe Illustrator 26.1.0, SVG Export Plug-In . SVG Version: 6.00 Build 0)  -->
<svg version="1.1" id="Capa_1" xmlns="http://www.w3.org/2000/svg" xmlns:xlink="http://www.w3.org/1999/xlink" x="0px" y="0px"
	 viewBox="0 0 512 512" style="enable-background:new 0 0 512 512;" xml:space="preserve">
<style type="text/css">
	.st0{fill:#244798;}
</style>
<g>
	<path class="st0" d="M210.8,176.2c8.1,2.9,16.5-1.4,19.2-9c2.8-7.7-1.1-16.4-9-19.2c-8-2.9-16.4,1.3-19.2,9
		C199,164.7,202.9,173.4,210.8,176.2z"/>
	<path class="st0" d="M264.1,220.3c51.5-1.4,102-19.8,142.4-51.8c5.2-4.1,11.3-6.5,17.6-8l5.9-16.3c2.2-6.1,0.3-12.9-4.8-16.9
		c-50.4-40-113.7-63-178.1-64.8C190.8,61,137.3,41.3,92.3,7.5l-5.4-4.2c-3.8-3-8.7-4-13.4-2.7c-4.6,1.3-8.4,4.8-10,9.3L0.9,180
		c-2.2,6.1-0.3,12.9,4.8,16.9c35.4,28.1,78.1,47.6,122,57.4C170.1,233.6,216.7,221.6,264.1,220.3z M286.4,187.8
		c2.8-7.8,11.4-11.8,19.2-9c7.8,2.8,11.8,11.4,9,19.2c-2.8,7.8-11.4,11.8-19.2,9C287.6,204.2,283.6,195.6,286.4,187.8z M173.6,146.7
		c8.5-23.3,34.4-35.4,57.7-26.9c23.3,8.5,35.4,34.4,26.9,57.7c-8.5,23.3-34.4,35.4-57.7,26.9C177.2,195.9,165.1,170.2,173.6,146.7
		L173.6,146.7z M117.3,126.2c2.8-7.8,11.4-11.8,19.2-9c7.8,2.8,11.8,11.4,9,19.2c-2.8,7.8-11.4,11.8-19.2,9
		C118.4,142.6,114.4,134,117.3,126.2z"/>
	<path class="st0" d="M143.6,502.1c1.6,4.5,5.4,8,10,9.3c4.8,1.3,9.7,0.3,13.4-2.7c45.4-36,102.3-57.7,160.2-59.3
		c64.4-1.8,128.6-24.8,179.1-64.8c5.1-4,7-10.8,4.8-16.9l-62.6-169.1c-1.6-4.5-5.4-8-10-9.3c-4.7-1.3-9.6-0.3-13.4,2.7
		c-45.4,36-102.3,56.7-160.2,58.3c-64.4,1.8-127.6,24.8-178.1,64.8c-5.1,4-7,10.8-4.8,16.9L143.6,502.1z M375.5,305
		c7.8-2.8,16.4,1.2,19.2,9c2.8,7.8-1.2,16.4-9,19.2c-7.8,2.8-16.4-1.2-19.2-9C363.7,316.4,367.7,307.8,375.5,305z M280.7,307.6
		c23.3-8.5,49.2,3.6,57.7,26.9c8.5,23.3-3.6,49.2-26.9,57.7c-23.2,8.5-49.1-3.4-57.7-26.9C245.3,341.9,257.4,316.1,280.7,307.6z
		 M206.4,366.5c7.8-2.8,16.4,1.2,19.2,9c2.8,7.8-1.2,16.4-9,19.2c-7.8,2.8-16.4-1.2-19.2-9C194.6,378,198.6,369.4,206.4,366.5z"/>
	<path class="st0" d="M301.2,364c7.9-2.9,11.8-11.5,9-19.2c-2.8-7.6-11.2-11.8-19.2-9c-7.9,2.9-11.8,11.5-9,19.2
		C284.8,362.7,293.3,366.8,301.2,364z"/>
</g>
</svg>
