<svg id="Capa_1" enable-background="new 0 0 512 512" height="512" viewBox="0 0 512 512" width="512" xmlns="http://www.w3.org/2000/svg"><g><g><path d="m356 256c0-19.917 0-120.051 0-140-25.262 0-176.263 0-200 0v140c-14.518 0-105.386 0-120 0v246h440v-246c-14.518 0-105.386 0-120 0z" fill="#eefaff"/><g fill="#a0c8ff"><path d="m316 76v40h-120v-40z"/><path d="m356 176h60v80h-60z"/><path d="m96 176h60v80h-60z"/><path d="m196 156v260h120c0-59.944 0-196.604 0-260-12.697 0-107.529 0-120 0z"/><path d="m196 456v46h120v-46c-14.518 0-105.386 0-120 0z"/></g></g><g><path d="m196 426h120c5.522 0 10-4.478 10-10v-260c0-5.522-4.478-10-10-10h-120c-5.522 0-10 4.478-10 10v260c0 5.522 4.478 10 10 10zm90-260h20v60h-20zm0 80h20v40h-20zm0 60h20v40h-20zm0 60h20v40h-20zm-40-200h20v60h-20zm0 80h20v40h-20zm0 60h20v40h-20zm0 60h20v40h-20zm-40-200h20v60h-20zm0 80h20v40h-20zm0 60h20v40h-20zm0 60h20v40h-20z"/><path d="m76 472c5.522 0 10-4.478 10-10v-166c0-5.522-4.478-10-10-10s-10 4.478-10 10v166c0 5.522 4.478 10 10 10z"/><path d="m116 472c5.522 0 10-4.478 10-10v-166c0-5.522-4.478-10-10-10s-10 4.478-10 10v166c0 5.522 4.478 10 10 10z"/><path d="m386 296v166c0 5.522 4.478 10 10 10s10-4.478 10-10v-166c0-5.522-4.478-10-10-10s-10 4.478-10 10z"/><path d="m426 296v166c0 5.522 4.478 10 10 10s10-4.478 10-10v-166c0-5.522-4.478-10-10-10s-10 4.478-10 10z"/><path d="m502 492h-16v-71c0-5.522-4.478-10-10-10s-10 4.478-10 10v71h-100v-226h100v65c0 5.522 4.478 10 10 10s10-4.478 10-10v-75c0-5.522-4.478-10-10-10h-50v-70c0-5.522-4.478-10-10-10h-50v-50c0-5.522-4.478-10-10-10h-30v-30c0-5.522-4.478-10-10-10h-10v-36c0-5.522-4.478-10-10-10s-10 4.478-10 10v36h-20v-56c0-5.522-4.478-10-10-10s-10 4.478-10 10v56h-20v-36c0-5.522-4.478-10-10-10s-10 4.478-10 10v36h-10c-5.522 0-10 4.478-10 10v30h-30c-5.522 0-10 4.478-10 10v50h-50c-5.522 0-10 4.478-10 10v70h-50c-5.522 0-10 4.478-10 10v236h-16c-5.522 0-10 4.478-10 10s4.478 10 10 10h492c5.522 0 10-4.478 10-10s-4.478-10-10-10zm-136-306h40v60h-40zm-220 306h-100v-226h100zm0-246h-40v-60h40zm60-160h100v20h-100zm40 406h-40v-26h40zm60 0h-40v-26h40zm40 0h-20v-36c0-5.522-4.478-10-10-10h-120c-5.522 0-10 4.478-10 10v36h-20v-366h180z"/><circle cx="476" cy="376" r="10"/></g></g></svg>