<?xml version="1.0" encoding="utf-8"?>
<!-- Generator: Adobe Illustrator 26.1.0, SVG Export Plug-In . SVG Version: 6.00 Build 0)  -->
<svg version="1.1" id="Capa_1" xmlns="http://www.w3.org/2000/svg" xmlns:xlink="http://www.w3.org/1999/xlink" x="0px" y="0px"
	 viewBox="0 0 512 512" style="enable-background:new 0 0 512 512;" xml:space="preserve">
<style type="text/css">
	.st0{opacity:0.1;}
	.st1{fill:#EEFAFF;}
	.st2{fill:#A0C8FF;}
</style>
<g class="st0">
	<g>
		<path class="st1" d="M356,256c0-19.9,0-120.1,0-140c-25.3,0-176.3,0-200,0v140c-14.5,0-105.4,0-120,0v246h440V256
			C461.5,256,370.6,256,356,256z"/>
		<g>
			<path class="st2" d="M316,76v40H196V76H316z"/>
			<path class="st2" d="M356,176h60v80h-60V176z"/>
			<path class="st2" d="M96,176h60v80H96V176z"/>
			<path class="st2" d="M196,156v260h120c0-59.9,0-196.6,0-260C303.3,156,208.5,156,196,156z"/>
			<path class="st2" d="M196,456v46h120v-46C301.5,456,210.6,456,196,456z"/>
		</g>
	</g>
	<g>
		<path d="M196,426h120c5.5,0,10-4.5,10-10V156c0-5.5-4.5-10-10-10H196c-5.5,0-10,4.5-10,10v260C186,421.5,190.5,426,196,426z
			 M286,166h20v60h-20V166z M286,246h20v40h-20V246z M286,306h20v40h-20V306z M286,366h20v40h-20V366z M246,166h20v60h-20V166z
			 M246,246h20v40h-20V246z M246,306h20v40h-20V306z M246,366h20v40h-20V366z M206,166h20v60h-20V166z M206,246h20v40h-20V246z
			 M206,306h20v40h-20V306z M206,366h20v40h-20V366z"/>
		<path d="M76,472c5.5,0,10-4.5,10-10V296c0-5.5-4.5-10-10-10s-10,4.5-10,10v166C66,467.5,70.5,472,76,472z"/>
		<path d="M116,472c5.5,0,10-4.5,10-10V296c0-5.5-4.5-10-10-10s-10,4.5-10,10v166C106,467.5,110.5,472,116,472z"/>
		<path d="M386,296v166c0,5.5,4.5,10,10,10s10-4.5,10-10V296c0-5.5-4.5-10-10-10S386,290.5,386,296z"/>
		<path d="M426,296v166c0,5.5,4.5,10,10,10s10-4.5,10-10V296c0-5.5-4.5-10-10-10S426,290.5,426,296z"/>
		<path d="M502,492h-16v-71c0-5.5-4.5-10-10-10s-10,4.5-10,10v71H366V266h100v65c0,5.5,4.5,10,10,10s10-4.5,10-10v-75
			c0-5.5-4.5-10-10-10h-50v-70c0-5.5-4.5-10-10-10h-50v-50c0-5.5-4.5-10-10-10h-30V76c0-5.5-4.5-10-10-10h-10V30c0-5.5-4.5-10-10-10
			s-10,4.5-10,10v36h-20V10c0-5.5-4.5-10-10-10s-10,4.5-10,10v56h-20V30c0-5.5-4.5-10-10-10s-10,4.5-10,10v36h-10
			c-5.5,0-10,4.5-10,10v30h-30c-5.5,0-10,4.5-10,10v50H96c-5.5,0-10,4.5-10,10v70H36c-5.5,0-10,4.5-10,10v236H10
			c-5.5,0-10,4.5-10,10s4.5,10,10,10h492c5.5,0,10-4.5,10-10S507.5,492,502,492z M366,186h40v60h-40V186z M146,492H46V266h100V492z
			 M146,246h-40v-60h40V246z M206,86h100v20H206V86z M246,492h-40v-26h40V492z M306,492h-40v-26h40V492z M346,492h-20v-36
			c0-5.5-4.5-10-10-10H196c-5.5,0-10,4.5-10,10v36h-20V126h180V492z"/>
		<circle cx="476" cy="376" r="10"/>
	</g>
</g>
</svg>
