<svg id="Capa_1" enable-background="new 0 0 512 512" height="512" viewBox="0 0 512 512" width="512" xmlns="http://www.w3.org/2000/svg"><g><g><path d="m382.925 281.86v-.01l-33.13 2.14-59.59 34.41-13.26 19.89 87.74 163.71 21.97-81.96 81.96 21.96z" fill="#ff7b79"/><path d="m221.405 318.4-59.59-34.41-32.76-2.11-85.67 160.12 81.96-21.96 21.96 81.96 87.57-163.4z" fill="#ff7b79"/><path d="m435.805 190-51.6-34.4 27.49-55.6-61.9-3.99-3.99-61.89-55.6 27.48-34.4-51.6-34.4 51.6-55.6-27.48-3.99 61.89-61.9 3.99 27.49 55.6-51.6 34.4 51.6 34.4-27.49 55.6c.175.011 61.735 3.979 61.9 3.99l3.99 61.9 55.6-27.49c43.007 64.511 32.805 49.208 34.4 51.6 11.921-17.881 23.361-35.042 34.4-51.6l55.6 27.49 3.99-61.9c2.865-.185-15.472.997 61.9-3.99l-27.49-55.6z" fill="#ffda8f"/></g><g><path d="m255.805 290c55.141 0 100-44.859 100-100s-44.859-100-100-100-100 44.859-100 100 44.86 100 100 100zm0-180c44.112 0 80 35.888 80 80s-35.888 80-80 80-80-35.888-80-80 35.888-80 80-80z"/><path d="m35.551 448.215c2.478 3.123 6.571 4.473 10.422 3.444l72.301-19.372 19.372 72.301c1.062 3.963 4.436 6.875 8.511 7.346.386.045.77.066 1.151.066 3.653 0 7.057-2.003 8.812-5.276l79.688-148.693 11.676 17.515c1.854 2.782 4.978 4.454 8.321 4.454s6.466-1.671 8.32-4.453l11.886-17.829 12.34 23.025c1.803 3.364 5.255 5.278 8.822 5.278 1.594 0 3.212-.382 4.715-1.188 4.868-2.608 6.699-8.67 4.09-13.537l-17.388-32.446 5.061-7.591 47.723 23.594c2.996 1.482 6.535 1.368 9.432-.304 2.896-1.672 4.765-4.681 4.979-8.017l3.425-53.131 17.932-1.155 71.766 134.12-59.665-15.986c-5.338-1.432-10.817 1.736-12.247 7.07l-15.43 57.561-13.084-24.411c-2.608-4.867-8.67-6.702-13.537-4.09-4.868 2.608-6.699 8.67-4.09 13.537l25.017 46.677c1.754 3.273 5.157 5.276 8.811 5.276.381 0 .766-.021 1.151-.066 4.074-.471 7.448-3.383 8.511-7.345l19.381-72.302 72.302 19.372c3.851 1.03 7.945-.321 10.422-3.444 2.478-3.123 2.863-7.418.983-10.933l-78.363-146.448 13.267-.855c3.337-.215 6.346-2.083 8.019-4.979 1.672-2.896 1.786-6.436.304-9.433l-23.594-47.723 44.287-29.525c2.782-1.854 4.453-4.977 4.453-8.32s-1.671-6.466-4.453-8.32l-44.287-29.525 23.594-47.723c1.482-2.997 1.368-6.536-.304-9.432s-4.681-4.765-8.017-4.979l-53.129-3.425-3.425-53.119c-.216-3.336-2.083-6.345-4.979-8.017s-6.437-1.786-9.432-.305l-47.723 23.586-29.526-44.287c-1.854-2.782-4.976-4.453-8.32-4.453s-6.466 1.671-8.32 4.453l-29.526 44.288-47.723-23.586c-2.997-1.481-6.536-1.365-9.432.305-2.896 1.672-4.763 4.681-4.979 8.017l-3.425 53.119-53.129 3.425c-3.336.215-6.345 2.084-8.017 4.979s-1.786 6.435-.304 9.432l23.594 47.723-44.286 29.525c-2.782 1.854-4.453 4.977-4.453 8.32s1.671 6.466 4.453 8.32l44.287 29.525-23.594 47.723c-1.482 2.997-1.368 6.536.304 9.432s4.68 4.764 8.017 4.979l13.638.879-78.342 146.424c-1.88 3.515-1.494 7.811.983 10.933zm58.282-258.215 39.119-26.08c4.183-2.788 5.645-8.247 3.417-12.752l-20.841-42.153 46.931-3.025c5.016-.323 9.013-4.32 9.336-9.336l3.025-46.923 42.154 20.834c4.503 2.227 9.963.764 12.751-3.418l26.08-39.119 26.08 39.119c2.788 4.182 8.247 5.646 12.751 3.418l42.154-20.834 3.025 46.923c.323 5.016 4.32 9.013 9.336 9.336l46.931 3.025-20.841 42.153c-2.228 4.505-.766 9.964 3.417 12.752l39.12 26.08-39.119 26.08c-4.183 2.788-5.645 8.247-3.417 12.752l20.84 42.151-46.931 3.027c-5.016.324-9.012 4.32-9.335 9.336l-3.025 46.931-42.153-20.841c-4.505-2.23-9.964-.765-12.752 3.417l-26.079 39.117-26.082-39.118c-1.91-2.865-5.073-4.453-8.325-4.453-1.494 0-3.008.335-4.426 1.037l-42.153 20.841-3.025-46.931c-.323-5.016-4.32-9.013-9.337-9.336l-46.93-3.024 20.841-42.154c2.228-4.505.766-9.964-3.417-12.752zm41.004 102.272 17.564 1.132 3.425 53.129c.215 3.336 2.084 6.345 4.979 8.017 2.897 1.673 6.438 1.787 9.432.304l47.724-23.595 5.268 7.902-72.803 135.847-15.421-57.556c-1.43-5.334-6.913-8.503-12.247-7.071l-59.668 15.986z"/><circle cx="317.805" cy="416" r="10"/></g></g></svg>