<?xml version="1.0" encoding="utf-8"?>
<!-- Generator: Adobe Illustrator 26.1.0, SVG Export Plug-In . SVG Version: 6.00 Build 0)  -->
<svg version="1.1" id="Capa_1" xmlns="http://www.w3.org/2000/svg" xmlns:xlink="http://www.w3.org/1999/xlink" x="0px" y="0px"
	 viewBox="0 0 512 512" style="enable-background:new 0 0 512 512;" xml:space="preserve">
<style type="text/css">
	.st0{fill:#264A9A;}
</style>
<g>
	<g>
		<polygon class="st0" points="161.9,137.9 326.8,257.3 491.7,137.9 		"/>
	</g>
</g>
<g>
	<g>
		<path class="st0" d="M335.8,288.6c-2.7,1.9-5.8,2.9-9,2.9s-6.3-1-9-2.9L141.6,161.1v15.8H70.8c-8.5,0-15.3,6.9-15.3,15.3
			s6.9,15.3,15.3,15.3h70.8v96.9H70.8c-8.5,0-15.3,6.9-15.3,15.3S62.4,335,70.8,335h70.8v23.6c0,8.5,6.9,15.3,15.3,15.3h339.7
			c8.5,0,15.3-6.9,15.3-15.3V161.1L335.8,288.6z"/>
	</g>
</g>
<g>
	<g>
		<path class="st0" d="M101.5,240.7H15.3C6.9,240.7,0,247.5,0,256s6.9,15.3,15.3,15.3h86.1c8.5,0,15.3-6.9,15.3-15.3
			C116.8,247.5,109.9,240.7,101.5,240.7z"/>
	</g>
</g>
</svg>
