<?xml version="1.0" encoding="utf-8"?>
<!-- Generator: Adobe Illustrator 26.1.0, SVG Export Plug-In . SVG Version: 6.00 Build 0)  -->
<svg version="1.1" id="Layer_2" xmlns="http://www.w3.org/2000/svg" xmlns:xlink="http://www.w3.org/1999/xlink" x="0px" y="0px"
	 viewBox="0 0 512 512" style="enable-background:new 0 0 512 512;" xml:space="preserve">
<style type="text/css">
	.st0{opacity:5.000000e-02;}
</style>
<g class="st0">
	<path d="M256,16C123.7,16,16,123.7,16,256s107.7,240,240,240s240-107.7,240-240S388.3,16,256,16z M256,449.5
		c-106.7,0-193.5-86.8-193.5-193.5S149.3,62.5,256,62.5S449.5,149.3,449.5,256S362.7,449.5,256,449.5z"/>
	<path d="M259,226.2c7.2-9.8,16.8-19.6,29.5-28.6c10.5-7.4,12.9-21.9,5.5-32.4s-21.9-12.9-32.4-5.5c-36.5,25.9-62.8,64.8-69.5,109.4
		c-3.3,21.9-1.5,44.5,12.6,62.5c12.3,15.7,31.4,25.1,51.3,25.1c36.1,0,65.4-29.3,65.4-65.4C321.4,256.2,293.6,227.7,259,226.2
		L259,226.2z M256,310.2c-10.4,0-18.9-8.5-18.9-18.9s8.5-18.9,18.9-18.9s18.9,8.5,18.9,18.9C275,301.7,266.5,310.2,256,310.2
		L256,310.2z"/>
</g>
</svg>
