<?xml version="1.0" encoding="iso-8859-1"?>
<!-- Generator: Adobe Illustrator 19.0.0, SVG Export Plug-In . SVG Version: 6.00 Build 0)  -->
<svg version="1.1" id="Capa_1" xmlns="http://www.w3.org/2000/svg" xmlns:xlink="http://www.w3.org/1999/xlink" x="0px" y="0px"
	 viewBox="0 0 512 512" style="enable-background:new 0 0 512 512;" xml:space="preserve">
<path style="fill:#EDF2FA;" d="M482,394H30c-11.046,0-20-8.954-20-20V30c0-11.046,8.954-20,20-20h452c11.046,0,20,8.954,20,20v344
	C502,385.046,493.046,394,482,394z"/>
<rect x="244" y="111.67" style="fill:#A0E557;" width="223.98" height="120.1"/>
<g>
	<path style="fill:#00A570;" d="M467.98,194.822c-0.57-0.029-1.144-0.046-1.721-0.046c-19.438,0-35.196,16.488-35.196,36.827
		c0,0.004,0,0.008,0,0.012h36.917L467.98,194.822L467.98,194.822z"/>
	<path style="fill:#00A570;" d="M467.98,148.63c-0.57,0.029-1.144,0.046-1.721,0.046c-19.438,0-35.196-16.488-35.196-36.827
		c0-0.004,0-0.008,0-0.012h36.917L467.98,148.63L467.98,148.63z"/>
	<path style="fill:#00A570;" d="M244,148.63c0.57,0.029,1.144,0.046,1.721,0.046c19.438,0,35.196-16.488,35.196-36.827
		c0-0.004,0-0.008,0-0.012H244V148.63z"/>
	<path style="fill:#00A570;" d="M244,194.822c0.57-0.029,1.144-0.046,1.721-0.046c19.438,0,35.196,16.488,35.196,36.827
		c0,0.004,0,0.008,0,0.012H244V194.822z"/>
</g>
<rect x="212" y="394" style="fill:#B3B6C3;" width="88" height="108"/>
<path style="fill:#2E9DE3;" d="M10,324v50c0,11.046,8.954,20,20,20h452c11.046,0,20-8.954,20-20v-50H10z"/>
<rect x="54" y="156" style="fill:#EDF2FA;" width="104" height="66"/>
<polygon style="fill:#FEA02C;" points="107,111.615 107,111.615 43,156 171,156 "/>
<circle style="fill:#00A570;" cx="356" cy="171.69" r="28"/>
<path d="M482,0H30C13.458,0,0,13.458,0,30v344c0,16.542,13.458,30,30,30h172v88h-38.001c-5.522,0-10,4.478-10,10s4.478,10,10,10h184
	c5.522,0,10-4.478,10-10s-4.478-10-10-10H310v-88h172c16.542,0,30-13.458,30-30V30C512,13.458,498.542,0,482,0z M30,20h452
	c5.514,0,10,4.486,10,10v10H384.091c-5.522,0-10,4.478-10,10s4.478,10,10,10H492v254H20v-20h102.909c5.522,0,10-4.478,10-10
	s-4.478-10-10-10H20V30C20,24.486,24.486,20,30,20z M290,492h-68v-88h68V492z M482,384H30c-5.514,0-10-4.486-10-10v-40h472v40
	C492,379.514,487.514,384,482,384z"/>
<path d="M256.947,349c-5.522,0-10,4.478-10,10s4.478,10,10,10h0.096c5.522,0,9.952-4.478,9.952-10S262.47,349,256.947,349z"/>
<path d="M43,212c-5.522,0-10,4.478-10,10s4.478,10,10,10h128c5.522,0,10-4.478,10-10s-4.478-10-10-10h-3v-46h3
	c4.373,0,8.238-2.841,9.544-7.015c1.306-4.173-0.252-8.711-3.845-11.202l-64-44.386c-3.428-2.377-7.971-2.377-11.398,0l-64,44.386
	c-3.593,2.491-5.15,7.029-3.845,11.202C34.762,163.159,38.627,166,43,166h1v46H43z M113.016,166v46H99v-46H113.016z M148,212
	h-14.984v-46H148V212z M107,123.784L139.033,146H74.967L107,123.784z M64,166h15v46H64V166z"/>
<path d="M416.642,181.693h13.804c5.522,0,10-4.478,10-10s-4.478-10-10-10h-13.804c-5.522,0-10,4.478-10,10
	S411.119,181.693,416.642,181.693z"/>
<path d="M281.555,181.693h13.804c5.522,0,10-4.478,10-10s-4.478-10-10-10h-13.804c-5.522,0-10,4.478-10,10
	S276.032,181.693,281.555,181.693z"/>
<path d="M244,241.713h224c5.522,0,10-4.478,10-10V111.675c0-5.522-4.478-10-10-10H244c-5.522,0-10,4.478-10,10v120.038
	C234,237.235,238.478,241.713,244,241.713z M289.854,121.675h132.291c3.894,17.868,17.987,31.961,35.854,35.854v28.329
	c-17.868,3.894-31.961,17.987-35.854,35.854H289.854c-3.894-17.868-17.987-31.961-35.854-35.854v-28.329
	C271.868,153.636,285.961,139.542,289.854,121.675z M254,206.708c6.82,2.738,12.268,8.185,15.005,15.005H254V206.708z
	 M442.995,221.713c2.737-6.821,8.185-12.268,15.005-15.005v15.005H442.995z M458,136.68c-6.82-2.738-12.268-8.184-15.005-15.005H458
	V136.68z M269.005,121.675c-2.737,6.821-8.185,12.267-15.005,15.005v-15.005C254,121.675,269.005,121.675,269.005,121.675z"/>
<path d="M356,209.693c20.953,0,38-17.047,38-38s-17.047-38-38-38s-38,17.047-38,38S335.047,209.693,356,209.693z M356,153.693
	c9.925,0,18,8.075,18,18s-8.075,18-18,18s-18-8.075-18-18S346.075,153.693,356,153.693z"/>
<path d="M174.25,184.25c0,5.522,4.478,10,10,10h8.648c-1.271,3.532-0.503,7.633,2.327,10.463c1.953,1.952,4.512,2.929,7.071,2.929
	s5.118-0.977,7.071-2.929l13.392-13.392c3.905-3.905,3.905-10.237,0-14.143l-13.392-13.392c-3.906-3.904-10.236-3.904-14.143,0
	c-2.83,2.83-3.598,6.931-2.327,10.463h-8.648C178.728,174.25,174.25,178.728,174.25,184.25z"/>
<path d="M160.34,274c-2.63,0-5.21,1.069-7.07,2.93c-1.859,1.86-2.93,4.44-2.93,7.07s1.07,5.21,2.93,7.069
	c1.86,1.86,4.44,2.931,7.07,2.931s5.21-1.07,7.07-2.931c1.869-1.859,2.93-4.439,2.93-7.069s-1.061-5.21-2.93-7.07
	C165.55,275.069,162.97,274,160.34,274z"/>
<path d="M346.66,60c2.63,0,5.21-1.07,7.069-2.931c1.86-1.859,2.931-4.439,2.931-7.069s-1.07-5.21-2.931-7.07
	C351.87,41.07,349.29,40,346.66,40c-2.631,0-5.21,1.069-7.07,2.93s-2.93,4.44-2.93,7.07s1.069,5.21,2.93,7.069
	C341.45,58.93,344.029,60,346.66,60z"/>
<g>
</g>
<g>
</g>
<g>
</g>
<g>
</g>
<g>
</g>
<g>
</g>
<g>
</g>
<g>
</g>
<g>
</g>
<g>
</g>
<g>
</g>
<g>
</g>
<g>
</g>
<g>
</g>
<g>
</g>
</svg>
