<svg id="Capa_1" enable-background="new 0 0 512 512" height="512" viewBox="0 0 512 512" width="512" xmlns="http://www.w3.org/2000/svg"><g><g><path d="m376.55 47.999v326.88h-241.1v-266.6l61.77-60.28z" fill="#eaf0f0"/><path d="m481.118 464.001h-450.236c-11.533 0-20.882-9.349-20.882-20.881v-25.932h492v25.932c0 11.532-9.349 20.881-20.882 20.881z" fill="#5c90ae"/><path d="m291 464.001h-70c-13.21 0-23.918-10.709-23.918-23.918v-22.896h117.837v22.896c-.001 13.21-10.709 23.918-23.919 23.918z" fill="#bdd3dd"/><path d="m477.74 136.319v256.76c0 13.31-10.79 24.11-24.1 24.11h-395.28c-13.31 0-24.1-10.8-24.1-24.11v-256.76c0-13.31 10.79-24.11 24.1-24.11h77.09v262.67h241.103l-.003-262.67h77.09c13.31 0 24.1 10.8 24.1 24.11z" fill="#bdd3dd"/><path d="m78.89 154.519h56.56v220.36h-56.56z" fill="#8cc8ff"/><path d="m376.551 154.519h56.559v220.36h-56.559z" fill="#8cc8ff"/><path d="m197.22 47.999v60.28h-61.77z" fill="#eaf0f0"/></g><g><g><path d="m502 407.188h-17.326c1.963-4.303 3.066-9.078 3.066-14.109v-256.76c0-18.809-15.297-34.11-34.1-34.11h-67.09v-54.21c0-5.523-4.477-10-10-10h-179.33c-2.577 0-5.14 1.044-6.984 2.843l-61.77 60.28c-.345.336-.668.704-.96 1.086h-69.146c-18.803 0-34.1 15.302-34.1 34.11v88.085c0 5.523 4.477 10 10 10s10-4.477 10-10v-88.085c0-7.78 6.325-14.11 14.1-14.11h67.09v22.31h-46.56c-5.523 0-10 4.477-10 10v220.36c0 5.523 4.477 10 10 10h354.22c5.523 0 10-4.477 10-10v-220.36c0-5.523-4.477-10-10-10h-46.56v-22.31h67.09c7.775 0 14.1 6.33 14.1 14.11v256.76c0 7.774-6.315 14.098-14.081 14.109h-395.318c-7.766-.011-14.081-6.335-14.081-14.109v-80.677c0-5.523-4.477-10-10-10s-10 4.477-10 10v80.677c0 5.031 1.103 9.806 3.066 14.109h-17.326c-5.523 0-10 4.477-10 10v25.932c0 17.028 13.854 30.882 30.882 30.882h450.236c17.028 0 30.882-13.854 30.882-30.882v-25.932c0-5.522-4.477-9.999-10-9.999zm-135.45-42.31h-221.1v-210.36-36.24h51.77c5.523 0 10-4.477 10-10v-50.28h159.33zm-206.535-266.599 27.205-26.549v26.549zm-71.125 66.24h36.56v200.36h-36.56zm334.22 0v200.36h-36.557l-.002-200.36zm-403.11 278.601v-15.932l167.082.001v12.895c0 4.959 1.079 9.668 3 13.918h-159.2c-6.001-.001-10.882-4.882-10.882-10.882zm201 10.881c-7.675 0-13.918-6.244-13.918-13.918v-12.895h97.837v12.895c0 7.675-6.244 13.918-13.918 13.918zm271-10.881c0 6-4.881 10.882-10.882 10.882h-159.199c1.921-4.25 3-8.959 3-13.918v-12.895l167.081-.001z"/><path d="m190.448 199.757c-1.966 5.161.625 10.938 5.786 12.904 1.171.446 2.374.658 3.557.658 4.03 0 7.828-2.454 9.347-6.444l6.154-16.159h41.723l6.087 16.13c1.95 5.168 7.719 7.774 12.887 5.825 5.167-1.95 7.775-7.72 5.825-12.887l-34.246-90.745c-.035-.092-.071-.184-.108-.275-1.872-4.549-6.258-7.487-11.177-7.487-.004 0-.008 0-.012 0-4.923.005-9.31 2.953-11.174 7.509-.031.076-.061.152-.09.229zm45.802-64.066 13.218 35.026h-26.558z"/><path d="m284.175 139.574h8.736v8.736c0 5.523 4.477 10 10 10s10-4.477 10-10v-8.736h8.295c5.523 0 10-4.477 10-10s-4.477-10-10-10h-8.295v-8.295c0-5.523-4.477-10-10-10s-10 4.477-10 10v8.295h-8.736c-5.523 0-10 4.477-10 10s4.477 10 10 10z"/><path d="m195.559 270.309h124.019c5.523 0 10-4.477 10-10s-4.477-10-10-10h-124.019c-5.523 0-10 4.477-10 10s4.477 10 10 10z"/><path d="m275.191 306.83h-79.633c-5.523 0-10 4.477-10 10s4.477 10 10 10h79.633c5.523 0 10-4.477 10-10s-4.477-10-10-10z"/><path d="m328.81 313.01c-2.065-5.037-8.039-7.5-13.06-5.41-5.03 2.093-7.491 8.011-5.41 13.05 2.079 5.034 8.033 7.497 13.06 5.41 5.023-2.085 7.507-8.016 5.41-13.05z"/><path d="m25.95 274.54c2.335 3.562 6.887 5.223 10.974 4.086 4.198-1.168 7.214-5.03 7.33-9.389.235-8.899-11.049-13.628-17.215-7.158-3.168 3.323-3.707 8.637-1.089 12.461z"/></g></g></g></svg>