<svg id="Capa_1" enable-background="new 0 0 512 512" height="512" viewBox="0 0 512 512" width="512" xmlns="http://www.w3.org/2000/svg"><g><g><path clip-rule="evenodd" d="m461 336.743v-239.041h-410v239.041c0 10.12 8.283 18.397 18.409 18.397h373.181c10.127 0 18.41-8.277 18.41-18.397z" fill="#fff" fill-rule="evenodd"/></g><g><path clip-rule="evenodd" d="m461 97.702v-69.306c0-10.119-8.283-18.396-18.409-18.396h-373.182c-10.126 0-18.409 8.277-18.409 18.396v69.306z" fill="#ff7d95" fill-rule="evenodd"/></g><g><path clip-rule="evenodd" d="m114.341 449.277h283.318v52.723h-283.318z" fill="#d0f2d2" fill-rule="evenodd"/></g><g><path clip-rule="evenodd" d="m303.031 346.976v-89.941h46.661l-93.692-93.627-93.692 93.627h46.661v89.941 56.72h94.062z" fill="#a0e5a5" fill-rule="evenodd"/></g><g><path d="m365.804 63.852c5.522 0 10-4.478 10-10s-4.478-10-10-10h-.057c-5.522 0-9.972 4.478-9.972 10s4.506 10 10.029 10z"/><path d="m410.764 63.852c5.522 0 10-4.478 10-10s-4.478-10-10-10h-.028c-5.522 0-9.986 4.478-9.986 10s4.491 10 10.014 10z"/><path d="m320.816 63.852c5.522 0 10-4.478 10-10s-4.478-10-10-10h-.028c-5.522 0-9.986 4.478-9.986 10s4.492 10 10.014 10z"/><path d="m101.236 63.852h125.206c5.522 0 10-4.478 10-10s-4.478-10-10-10h-125.206c-5.522 0-10 4.478-10 10s4.478 10 10 10z"/><path d="m397.659 439.276h-283.318c-5.522 0-10 4.478-10 10v52.724c0 5.522 4.478 10 10 10h96.728c5.522 0 10-4.478 10-10s-4.478-10-10-10h-86.728v-32.724h263.318v32.724h-86.728c-5.522 0-10 4.478-10 10s4.478 10 10 10h96.728c5.522 0 10-4.478 10-10v-52.724c0-5.522-4.477-10-10-10z"/><path d="m256 492c-5.522 0-10 4.478-10 10s4.478 10 10 10h.057c5.522 0 9.972-4.478 9.972-10s-4.507-10-10.029-10z"/><path d="m442.591 0h-373.182c-15.665 0-28.409 12.738-28.409 28.396v308.347c0 15.658 12.744 28.396 28.409 28.396h129.561v38.557c0 5.522 4.478 10 10 10h94.061c5.522 0 10-4.478 10-10v-38.556h129.561c15.665 0 28.409-12.738 28.409-28.396v-308.348c-.001-15.658-12.745-28.396-28.41-28.396zm-373.182 20h373.182c4.637 0 8.409 3.767 8.409 8.396v59.306h-390v-59.306c0-4.629 3.772-8.396 8.409-8.396zm149.561 373.696v-136.662c0-5.522-4.478-10-10-10h-22.508l69.538-69.489 69.538 69.489h-22.508c-5.522 0-10 4.478-10 10v136.662zm223.621-48.556h-129.561v-78.105h36.662c4.045 0 7.692-2.438 9.239-6.175 1.548-3.737.69-8.039-2.171-10.898l-93.692-93.626c-3.904-3.902-10.232-3.902-14.137 0l-93.692 93.626c-2.861 2.859-3.719 7.161-2.171 10.898 1.547 3.737 5.194 6.175 9.239 6.175h36.662v78.105h-129.56c-4.637 0-8.409-3.767-8.409-8.396v-229.042h390v229.041c0 4.63-3.772 8.397-8.409 8.397z"/></g></g></svg>