<svg id="Capa_1" enable-background="new 0 0 512 512" height="512" viewBox="0 0 512 512" width="512" xmlns="http://www.w3.org/2000/svg"><g><g><path d="m55 136h402v270h-402z" fill="#a0c8ff"/><path d="m502 406c0 33.14-26.86 60-60 60h-372c-33.14 0-60-26.86-60-60z" fill="#eefaff"/><path d="m376 196c0 16.57-13.43 30-30 30h-60l-30 60-30-60h-60c-16.57 0-30-13.43-30-30 0-14.518 0-105.386 0-120 0-16.57 13.43-30 30-30h180c16.57 0 30 13.43 30 30z" fill="#ffd88e"/></g><g><circle cx="316" cy="136" r="10"/><circle cx="256" cy="136" r="10"/><circle cx="196" cy="136" r="10"/><path d="m502 396h-35v-260c0-5.523-4.478-10-10-10h-71v-50c0-22.056-17.944-40-40-40h-180c-22.056 0-40 17.944-40 40v50h-71c-5.523 0-10 4.477-10 10v260h-35c-5.523 0-10 4.477-10 10 0 38.598 31.402 70 70 70h141c5.523 0 10-4.477 10-10s-4.477-10-10-10h-141c-24.146 0-44.349-17.206-48.996-40.01h469.991c-4.645 22.804-24.849 40.01-48.995 40.01h-141c-5.522 0-10 4.477-10 10s4.478 10 10 10h141c38.598 0 70-31.402 70-70 0-5.523-4.478-10-10-10zm-356-320c0-11.028 8.972-20 20-20h180c11.028 0 20 8.972 20 20v120c0 11.028-8.972 20-20 20h-60c-3.788 0-7.25 2.14-8.944 5.528l-21.056 42.111-21.056-42.111c-1.694-3.388-5.156-5.528-8.944-5.528h-60c-11.028 0-20-8.972-20-20zm301 320h-382v-250h61v50c0 22.056 17.944 40 40 40h53.82l27.236 54.472c1.694 3.388 5.156 5.528 8.944 5.528s7.25-2.14 8.944-5.528l27.237-54.472h53.819c22.056 0 40-17.944 40-40v-50h61z"/><circle cx="256" cy="466" r="10"/></g></g></svg>