<?xml version="1.0" encoding="utf-8"?>
<!-- Generator: Adobe Illustrator 26.1.0, SVG Export Plug-In . SVG Version: 6.00 Build 0)  -->
<svg version="1.1" id="Capa_1" xmlns="http://www.w3.org/2000/svg" xmlns:xlink="http://www.w3.org/1999/xlink" x="0px" y="0px"
	 viewBox="0 0 512 512" style="enable-background:new 0 0 512 512;" xml:space="preserve">
<style type="text/css">
	.st0{opacity:0.1;}
	.st1{fill:#EEFAFF;}
	.st2{fill:#6D92AC;}
	.st3{fill:#FFDA8F;}
	.st4{fill:#A0E5A5;}
	.st5{fill:#FF7D95;}
</style>
<g class="st0">
	<g>
		<path class="st1" d="M51,175h410v287H51V175z"/>
		<path class="st2" d="M112.3,176l-0.3,0.4V382h288V176.4L112.3,176z"/>
		<path class="st3" d="M440,76c-57.4,0-310.7,0-368,0L10,176c0,0,6.1,40,41,40s41-40,41-40c0.1,0.1,6,40,41,40c34.9,0,41-40,41-40
			s6.1,40,41,40s41-40,41-40s6.1,40,41,40s41-40,41-40s7.1,40,42,40c35.6,0,39.7-39.6,40-40c0,0,6.1,40,41,40s41-40,41-40L440,76z"
			/>
		<path class="st4" d="M502,482v20H10v-20c0-11,9-20,20-20h452C493,462,502,471,502,482z"/>
		<path class="st5" d="M420,176h82c0,0-6.1,40-41,40S420,176,420,176z"/>
		<path class="st2" d="M440,10v66c-132.2,0-236.8,0-368,0V10H440z"/>
		<path class="st3" d="M420,382v40H92v-40H420z"/>
		<path class="st5" d="M380,76l40,100h-82L318,76H380z"/>
		<path class="st3" d="M338,307.4c12,6.9,20,19.8,20,34.6c0,22.1-17.9,40-40,40s-42-17.9-42-40c0-14.8,9-27.7,21-34.6V256h41V307.4z
			"/>
		<g>
			<path class="st5" d="M256,176h82c0,0-6.1,40-41,40S256,176,256,176z"/>
			<path class="st5" d="M256,76v100h-82l21-100H256z"/>
			<path class="st5" d="M236,322v60h-83v-60H236z"/>
		</g>
		<path class="st4" d="M153,282h42v40h-42V282z"/>
		<path class="st5" d="M92,176h82c0,0-6.1,40-41,40C97.5,216,92.3,176.3,92,176z"/>
		<path class="st5" d="M133,76L92,176H10L72,76H133z"/>
	</g>
	<g>
		<path d="M511.9,177.5c0.4-2.3-0.2-4.8-1.4-6.8L450,73.2V10c0-5.5-4.5-10-10-10H72c-5.5,0-10,4.5-10,10v63.2L1.5,170.7
			c-1.2,1.9-1.8,4.4-1.4,6.8c2.3,15,13.7,42.1,40.9,47.5v227H30c-16.5,0-30,13.5-30,30v20c0,5.5,4.5,10,10,10h201
			c5.5,0,10-4.5,10-10s-4.5-10-10-10H20v-10c0-5.5,4.5-10,10-10h452c5.5,0,10,4.5,10,10v10H301c-5.5,0-10,4.5-10,10s4.5,10,10,10
			h201c5.5,0,10-4.5,10-10v-20c0-16.5-13.5-30-30-30h-11V225C498.2,219.6,509.6,192.5,511.9,177.5z M484,166h-57.3l-32-80h39.7
			L484,166z M186.3,166l16.8-80H246v80H186.3z M242.5,186c-4,9-12,20-27.5,20c-15.5,0-23.6-11-27.6-20H242.5z M215,226
			c20,0,33.1-10.7,41-22.9c7.9,12.3,21,22.9,41,22.9c20.2,0,33.3-10.9,41.3-23.4C346.5,215,359.8,226,380,226c3.5,0,6.8-0.3,10-1
			v147h-32c6.3-8.4,10-18.8,10-30c0-15.8-7.5-30.6-20-40v-46c0-5.5-4.5-10-10-10h-41c-5.5,0-10,4.5-10,10v46
			c-13.1,9.6-21,24.5-21,40c0,11.1,4,21.6,10.7,30H246v-50c0-5.5-4.5-10-10-10h-31v-30c0-5.5-4.5-10-10-10h-42c-5.5,0-10,4.5-10,10
			v90h-21V224.8c3.5,0.8,7.2,1.2,11,1.2c20,0,33.1-10.7,41-22.9C181.9,215.3,195,226,215,226L215,226z M266,166V86h43.8l16,80H266z
			 M324.5,186c-4,9-12,20-27.5,20c-15.5,0-23.6-11-27.5-20H324.5z M346.2,166l-16-80h43l32,80H346.2z M406.8,186
			c-5.1,12.4-13.6,20-26.8,20c-15.6,0-23.9-10.9-28.2-20H406.8z M333,316c9.3,5.4,15,15.3,15,26c0,16.5-13.5,30-30,30
			c-17,0-32-14-32-30c0-10.3,6.1-20.3,16-26c3.1-1.8,5-5.1,5-8.7V266h21v41.4C328,310.9,329.9,314.2,333,316z M226,332v40h-63v-40
			H226z M163,312v-20h22v20H163z M165.9,166h-59l32.8-80h43L165.9,166z M160.5,186c-4,9-12,20-27.5,20c-13.5,0-22.2-7.9-27.5-20
			H160.5z M410,392v20H102v-20H410z M82,20h348v46c-0.1,0-356.4,0-348,0V20z M77.6,86h40.5l-32.8,80H28L77.6,86z M23.4,186h55.1
			c-4,9-12,20-27.5,20C35.5,206,27.4,195,23.4,186z M451,452H61V225c14.5-2.9,24.5-11.9,31-22c2.6,4.1,5.9,8.2,10,11.7V372H92
			c-5.5,0-10,4.5-10,10v40c0,5.5,4.5,10,10,10h328c5.5,0,10-4.5,10-10v-40c0-5.5-4.5-10-10-10h-10V215.4c4.2-3.6,7.6-7.7,10.3-11.9
			c6.5,9.9,16.5,18.7,30.7,21.6V452z M461,206c-15.5,0-23.6-11-27.5-20h55.1C484.6,195,476.5,206,461,206z"/>
		<circle cx="256" cy="502" r="10"/>
	</g>
</g>
</svg>
