<?xml version="1.0" encoding="utf-8"?>
<!-- Generator: Adobe Illustrator 26.1.0, SVG Export Plug-In . SVG Version: 6.00 Build 0)  -->
<svg version="1.1" id="Layer_2" xmlns="http://www.w3.org/2000/svg" xmlns:xlink="http://www.w3.org/1999/xlink" x="0px" y="0px"
	 viewBox="0 0 512 512" style="enable-background:new 0 0 512 512;" xml:space="preserve">
<style type="text/css">
	.st0{opacity:5.000000e-02;}
</style>
<g class="st0">
	<path d="M256,16C123.7,16,16,123.7,16,256s107.7,240,240,240s240-107.7,240-240S388.3,16,256,16z M256,449.5
		c-106.7,0-193.5-86.8-193.5-193.5S149.3,62.5,256,62.5S449.5,149.3,449.5,256S362.7,449.5,256,449.5L256,449.5z"/>
	<path d="M195.5,198.6c-8.9,29.2,34.3,43.2,44.2,14.3c5.4-17.2,31.7-13.1,31.5,5c0.3,10.4-8.8,14.9-17.3,17.8
		c-5.3,2.9-9.3,7.8-11.1,13.6c-2.9,9,0.6,19.4,8.1,25.2c8.8,5.2,20.4,6.5,20.2,19.6c0.2,18-26.1,22.2-31.5,5
		c-4-12.2-17-18.9-29.3-14.9c-12.2,4-18.9,17-14.9,29.3c8.4,25.9,32.3,43.3,59.5,43.3c34.5,0,62.6-28.1,62.6-62.6
		c0-14.2-4.8-27.4-12.9-38.1c8.2-10.7,12.9-23.9,12.9-38.1C317,147.3,217.8,131.5,195.5,198.6L195.5,198.6z"/>
</g>
</svg>
