<?xml version="1.0" encoding="utf-8"?>
<!-- Generator: Adobe Illustrator 26.1.0, SVG Export Plug-In . SVG Version: 6.00 Build 0)  -->
<svg version="1.1" id="Layer_2" xmlns="http://www.w3.org/2000/svg" xmlns:xlink="http://www.w3.org/1999/xlink" x="0px" y="0px"
	 viewBox="0 0 512 512" style="enable-background:new 0 0 512 512;" xml:space="preserve">
<style type="text/css">
	.st0{opacity:5.000000e-02;}
</style>
<g class="st0">
	<path d="M256,16C123.7,16,16,123.7,16,256s107.7,240,240,240s240-107.7,240-240S388.3,16,256,16z M256,449.5
		c-106.7,0-193.5-86.8-193.5-193.5S149.3,62.5,256,62.5S449.5,149.3,449.5,256S362.7,449.5,256,449.5L256,449.5z"/>
	<path d="M296.9,310.2h-32.4l40.3-52.5c15.6-18.2,19.3-44.1,9.5-66.3c-9.6-21.8-30.2-35.6-54.8-36c-37.4,0-67.8,30.4-67.8,67.8
		c0,12.8,10.4,23.2,23.2,23.2s23.2-10.4,23.2-23.2c0-11.8,9.6-21.4,21.7-21.4l0,0c7.2,0.1,10.5,5.2,11.9,8.3
		c2.1,4.7,2.5,11.8-2.5,17.5c-0.3,0.4-0.7,0.8-1,1.2L199,319.3c-5.4,7-6.3,16.5-2.4,24.4c3.9,7.9,12,13,20.8,13h79.5
		c12.8,0,23.2-10.4,23.2-23.2S309.8,310.2,296.9,310.2L296.9,310.2z"/>
</g>
</svg>
