<?xml version="1.0" encoding="utf-8"?>
<!-- Generator: Adobe Illustrator 26.1.0, SVG Export Plug-In . SVG Version: 6.00 Build 0)  -->
<svg version="1.1" id="Layer_1" xmlns="http://www.w3.org/2000/svg" xmlns:xlink="http://www.w3.org/1999/xlink" x="0px" y="0px"
	 viewBox="0 0 512 512" style="enable-background:new 0 0 512 512;" xml:space="preserve">
<style type="text/css">
	.st0{fill:#264A9A;}
</style>
<g>
	<g>
		<path class="st0" d="M256,0c-74.44,0-135,60.56-135,135s60.56,135,135,135s135-60.56,135-135S330.44,0,256,0z"/>
	</g>
</g>
<g>
	<g>
		<path class="st0" d="M423.97,358.2C387.01,320.67,338.01,300,286,300h-60c-52.01,0-101.01,20.67-137.97,58.2
			C51.26,395.54,31,444.83,31,497c0,8.28,6.72,15,15,15h420c8.28,0,15-6.72,15-15C481,444.83,460.74,395.54,423.97,358.2z"/>
	</g>
</g>
</svg>
